<?xml version="1.0" encoding="UTF-8"?>
<svg id="Ebene_1" data-name="Ebene 1" xmlns="http://www.w3.org/2000/svg" viewBox="0 0 150 150">
  <defs>
    <style>
      .cls-1 {
        fill: #1d1d1b;
        stroke-width: 0px;
      }
    </style>
  </defs>
  <path class="cls-1" d="M116.22,54.96l10-16.16-42.37-14.28-8.85,14.3-8.85-14.3-42.37,14.28,10,16.16-10,16.16,10.35,3.49v36.63l40.37,14.07.49.17,40.87-14.24v-36.63l10.35-3.49-10-16.16ZM40.24,54.96l34.76-11.72,34.76,11.72-34.76,11.72-34.76-11.72ZM113.81,56.76l7.88,12.72-36.54,12.32-7.88-12.72,36.54-12.32ZM85.15,28.12l36.54,12.32-7.88,12.72-36.54-12.32,7.88-12.72ZM64.85,28.12l7.88,12.72-36.54,12.32-7.88-12.72,36.54-12.32ZM36.19,56.76l36.54,12.32-7.88,12.72-36.54-12.32,7.88-12.72ZM37.13,75.63l29.02,9.78,7.35-11.87v48.25l-36.37-12.67v-33.48ZM112.87,109.11l-36.37,12.67v-48.25l7.35,11.87,29.02-9.78v33.48Z"/>
</svg>