<?xml version="1.0" encoding="UTF-8"?>
<svg id="Ebene_1" data-name="Ebene 1" xmlns="http://www.w3.org/2000/svg" viewBox="0 0 150 150">
  <defs>
    <style>
      .cls-1 {
        fill: #1d1d1b;
        stroke-width: 0px;
      }
    </style>
  </defs>
  <path class="cls-1" d="M126.52,71.89H23.48c-5.52,0-10,4.49-10,10v47.21c0,5.52,4.49,10,10,10h90v.05h3v-.05h10.04c5.52,0,10-4.49,10-10v-47.21c0-5.52-4.49-10-10-10ZM133.52,81.89v6.12h-37.33v-13.13h30.33c3.86,0,7,3.14,7,7ZM96.06,120.14v-13.15h37.46v13.15h-37.46ZM76.5,104v-12.98h36.93v12.98h-36.93ZM56.63,88.02v-13.13h36.56v13.13h-36.56ZM73.5,91.02v12.98h-37.03v-12.98h37.03ZM33.47,104h-16.99v-12.98h16.99v12.98ZM53.5,107v13.15H16.48v-13.15h37.03ZM73.55,123.14v12.96h-37.03v-12.96h37.03ZM56.5,120.14v-13.15h36.56v13.15h-36.56ZM116.43,104v-12.98h17.09v12.98h-17.09ZM23.48,74.89h30.15v13.13H16.48v-6.12c0-3.86,3.14-7,7-7ZM16.48,129.1v-5.96h17.04v12.96h-10.04c-3.86,0-7-3.14-7-7ZM76.55,136.11v-12.96h36.93v12.96h-36.93ZM126.52,136.11h-10.04v-12.96h17.04v5.96c0,3.86-3.14,7-7,7Z"/>
  <path class="cls-1" d="M54.51,42.45c1.76,1.62,6.07,6.54,5.02,15.29l-.24,1.96,1.95-.29c.18-.03,4.46-.72,7.43-5.14,3.1-4.61,3.59-11.38,1.48-20.1-2.73-11.24,6.45-16.74,11.06-18.75-.97,5.6-1.8,18.15,8.63,23.68,13.4,7.11,20.17,13.34,19.23,26.99-.05.8.55,1.49,1.34,1.57h0c.85.09,1.6-.56,1.65-1.42,1.11-16.73-8.78-23.42-20.82-29.8-11.4-6.04-6.6-22.79-6.55-22.96l.78-2.63-2.63.76c-.2.06-19.81,5.92-15.61,23.26,1.87,7.72,1.52,13.83-1.01,17.66-1.12,1.69-2.46,2.67-3.54,3.22.33-11.02-6.86-16.13-7.19-16.36l-.78-.54-.82.48c-12.72,7.38-15.49,21.85-16.08,26.7-.1.87.55,1.64,1.42,1.68h0c.78.04,1.47-.53,1.57-1.3.54-4.22,3.02-17.14,13.71-23.94Z"/>
</svg>