<?xml version="1.0" encoding="UTF-8"?>
<svg id="Ebene_1" data-name="Ebene 1" xmlns="http://www.w3.org/2000/svg" viewBox="0 0 150 150">
  <defs>
    <style>
      .cls-1 {
        fill: #1d1d1b;
        stroke-width: 0px;
      }
    </style>
  </defs>
  <path class="cls-1" d="M111.3,100.15c3.52-1.77,5.95-5.41,5.95-9.61,0-5.93-4.83-10.76-10.76-10.76s-10.76,4.83-10.76,10.76c0,4.2,2.43,7.84,5.95,9.61-3.95,1.54-7.34,4.94-9.5,9.6-3.18-4.36-7.32-7.5-11.96-8.85,5.73-2.09,9.84-7.58,9.84-14.02,0-8.24-6.7-14.94-14.94-14.94s-14.94,6.7-14.94,14.94c0,6.45,4.12,11.94,9.86,14.03-4.63,1.35-8.76,4.48-11.93,8.83-2.16-4.66-5.55-8.05-9.5-9.59,3.52-1.77,5.95-5.41,5.95-9.61,0-5.93-4.83-10.76-10.76-10.76s-10.76,4.83-10.76,10.76c0,4.2,2.43,7.84,5.95,9.61-6.9,2.7-11.94,11.06-11.94,20.93v8.53c0,.83.67,1.5,1.5,1.5s1.5-.67,1.5-1.5v-8.53c0-10.39,6.16-18.84,13.73-18.84,5.25,0,10.03,4.15,12.34,10.61-2.67,4.77-4.34,10.57-4.56,16.86-.03.82.65,1.5,1.47,1.5h.06c.8,0,1.44-.64,1.47-1.44.55-14.78,9.57-26.58,20.57-26.58s20.02,11.8,20.57,26.58c.03.8.67,1.44,1.47,1.44h.06c.82,0,1.5-.68,1.47-1.5-.23-6.28-1.89-12.08-4.56-16.85,2.3-6.47,7.09-10.62,12.34-10.62,7.57,0,13.73,8.45,13.73,18.84v8.53c0,.83.67,1.5,1.5,1.5s1.5-.67,1.5-1.5v-8.53c0-9.87-5.04-18.23-11.94-20.93ZM36.06,90.54c0-4.28,3.48-7.76,7.76-7.76s7.76,3.48,7.76,7.76-3.48,7.76-7.76,7.76-7.76-3.48-7.76-7.76ZM63.19,86.89c0-6.58,5.35-11.94,11.94-11.94s11.94,5.35,11.94,11.94-5.35,11.94-11.94,11.94-11.94-5.35-11.94-11.94ZM98.73,90.54c0-4.28,3.48-7.76,7.76-7.76s7.76,3.48,7.76,7.76-3.48,7.76-7.76,7.76-7.76-3.48-7.76-7.76Z"/>
  <path class="cls-1" d="M36.72,60.28h17.58l14.06,8.88c.38.24.82.36,1.25.36.39,0,.78-.1,1.13-.29.75-.41,1.21-1.2,1.21-2.05v-6.9h1.61c5.49,0,9.95-4.46,9.95-9.95v-21.58c0-5.49-4.46-9.95-9.95-9.95h-36.85c-5.49,0-9.95,4.46-9.95,9.95v21.58c0,5.49,4.46,9.95,9.95,9.95ZM29.77,28.75c0-3.83,3.12-6.95,6.95-6.95h36.85c3.83,0,6.95,3.12,6.95,6.95v21.58c0,3.83-3.12,6.95-6.95,6.95h-4.61v8.71l-13.79-8.71h-18.45c-3.83,0-6.95-3.12-6.95-6.95v-21.58Z"/>
  <path class="cls-1" d="M41.33,46.85h12.72c.83,0,1.5-.67,1.5-1.5s-.67-1.5-1.5-1.5h-12.72c-.83,0-1.5.67-1.5,1.5s.67,1.5,1.5,1.5Z"/>
  <path class="cls-1" d="M41.39,35.54h28.21c.83,0,1.5-.67,1.5-1.5s-.67-1.5-1.5-1.5h-28.21c-.83,0-1.5.67-1.5,1.5s.67,1.5,1.5,1.5Z"/>
</svg>