<?xml version="1.0" encoding="UTF-8"?>
<svg id="Ebene_1" data-name="Ebene 1" xmlns="http://www.w3.org/2000/svg" viewBox="0 0 150 150">
  <defs>
    <style>
      .cls-1 {
        fill: #1d1d1b;
        stroke-width: 0px;
      }
    </style>
  </defs>
  <path class="cls-1" d="M125.01,114.79v-48.08c0-8.42-6.85-15.28-15.28-15.28h-5.36v-3.88l8.35-3.94c1.59-.75,2.58-2.31,2.58-4.08,0-1.76-.99-3.32-2.58-4.07l-34.56-16.29c-2.04-.96-4.37-.96-6.41,0l-34.48,16.26c-1.59.75-2.58,2.31-2.58,4.08s.99,3.32,2.58,4.08l8.36,3.94v3.91h-5.35c-8.42,0-15.28,6.85-15.28,15.28v48.08h-8.7v1.5c0,8.16,6.64,14.8,14.8,14.8h87.78c8.16,0,14.8-6.64,14.8-14.8v-1.5h-8.69ZM48.06,66.74c3.41,4.03,11.44,10.8,26.94,10.8,7.7,0,13.56-1.67,17.92-3.85v4.47c-2.19.65-3.8,2.66-3.8,5.05,0,1.4.56,2.73,1.52,3.71l-1.52,10.02h10.58l-1.52-10.02c.97-.98,1.52-2.31,1.52-3.71,0-2.4-1.61-4.4-3.8-5.05v-6.18c2.77-1.8,4.73-3.72,6.02-5.24.71-.84,1.27-1.8,1.68-2.83h2.24c3.86,0,7,3.04,7,6.77v28.23c0,3.73-3.14,6.77-7,6.77h-61.72c-3.86,0-7-3.04-7-6.77v-28.23c0-3.73,3.14-6.77,7-6.77h2.24c.41,1.03.96,1.99,1.68,2.83ZM96.23,93.95h-3.61l1.26-8.31-.77-.53c-.62-.43-.99-1.14-.99-1.89,0-1.27,1.03-2.3,2.3-2.3s2.3,1.03,2.3,2.3c0,.75-.37,1.46-.99,1.89l-.77.53,1.26,8.31ZM101.37,60.02c0,1.77-.61,3.47-1.72,4.78-.88,1.04-2.11,2.27-3.73,3.51v-16.78l5.45-2.57v11.06ZM37.69,39.5c0-.22.06-.98.86-1.36l34.48-16.26c.61-.29,1.27-.43,1.92-.43s1.31.14,1.92.43l34.56,16.29c.8.38.86,1.14.86,1.36s-.06.98-.86,1.36l-16.03,7.56-17.75-9.22-3.36,1.61,17.69,9.22-15.04,7.09c-1.22.58-2.63.58-3.85,0l-34.56-16.29c-.8-.38-.86-1.14-.86-1.36ZM71.84,59.87c1.02.48,2.11.72,3.2.72s2.19-.24,3.2-.72l14.68-6.92v17.35c-4.1,2.33-9.91,4.24-17.92,4.24-14.29,0-21.58-6.1-24.65-9.74-1.1-1.31-1.71-3.01-1.71-4.78v-11.09l23.2,10.94ZM28.01,66.71c0-6.77,5.51-12.28,12.28-12.28h5.35v5.59c0,.3.01.59.04.89h-1.54c-5.52,0-10,4.38-10,9.77v28.23c0,5.39,4.49,9.77,10,9.77h61.72c5.52,0,10-4.38,10-9.77v-28.23c0-5.39-4.49-9.77-10-9.77h-1.53c.02-.29.04-.59.04-.89v-5.59h5.36c6.77,0,12.28,5.51,12.28,12.28v48.08H28.01v-48.08ZM118.89,128.09H31.11c-6,0-10.97-4.5-11.71-10.3h111.2c-.74,5.8-5.71,10.3-11.71,10.3Z"/>
</svg>