<?xml version="1.0" encoding="UTF-8"?>
<svg id="Ebene_1" data-name="Ebene 1" xmlns="http://www.w3.org/2000/svg" viewBox="0 0 150 150">
  <defs>
    <style>
      .cls-1 {
        fill: #1d1d1b;
        stroke-width: 0px;
      }
    </style>
  </defs>
  <path class="cls-1" d="M75.2,41.99c-17.9,0-32.46,14.56-32.46,32.46,0,11.42,6.12,22.14,15.96,27.96l1.53-2.58c-8.94-5.28-14.49-15.01-14.49-25.38,0-16.24,13.21-29.46,29.46-29.46s29.46,13.21,29.46,29.46c0,10.62-5.75,20.46-15.01,25.68l-.76.43v8.39h-30.91v13.17h2.58l4.55,8.95h19.65l4.55-8.95h2.58v-11.32h0v-8.51c9.75-5.85,15.78-16.44,15.78-27.85,0-17.9-14.56-32.46-32.46-32.46ZM60.96,111.94h27.91v7.17h-27.91v-7.17ZM82.91,128.07h-15.97l-3.02-5.95h22.01l-3.02,5.95Z"/>
  <path class="cls-1" d="M75.2,34.17c.83,0,1.5-.67,1.5-1.5v-12.24c0-.83-.67-1.5-1.5-1.5s-1.5.67-1.5,1.5v12.24c0,.83.67,1.5,1.5,1.5Z"/>
  <path class="cls-1" d="M95.76,39.66c.72.41,1.63.17,2.05-.55l6.12-10.6c.41-.72.17-1.63-.55-2.05-.72-.41-1.63-.17-2.05.55l-6.12,10.6c-.41.72-.17,1.63.55,2.05Z"/>
  <path class="cls-1" d="M112.87,55.19l10.6-6.12c.72-.41.96-1.33.55-2.05-.41-.72-1.33-.96-2.05-.55l-10.6,6.12c-.72.41-.96,1.33-.55,2.05.41.72,1.33.96,2.05.55Z"/>
  <path class="cls-1" d="M130.14,73.7h-12.24c-.83,0-1.5.67-1.5,1.5s.67,1.5,1.5,1.5h12.24c.83,0,1.5-.67,1.5-1.5s-.67-1.5-1.5-1.5Z"/>
  <path class="cls-1" d="M123.47,101.33l-10.6-6.12c-.72-.41-1.63-.17-2.05.55-.41.72-.17,1.63.55,2.05l10.6,6.12c.72.41,1.63.17,2.05-.55.41-.72.17-1.63-.55-2.05Z"/>
  <path class="cls-1" d="M52.19,39.12c.41.72,1.33.96,2.05.55.72-.41.96-1.33.55-2.05l-6.12-10.6c-.41-.72-1.33-.96-2.05-.55-.72.41-.96,1.33-.55,2.05l6.12,10.6Z"/>
  <path class="cls-1" d="M38.63,52.59l-10.6-6.12c-.72-.41-1.63-.17-2.05.55-.41.72-.17,1.63.55,2.05l10.6,6.12c.72.41,1.63.17,2.05-.55.41-.72.17-1.63-.55-2.05Z"/>
  <path class="cls-1" d="M33.6,75.2c0-.83-.67-1.5-1.5-1.5h-12.24c-.83,0-1.5.67-1.5,1.5s.67,1.5,1.5,1.5h12.24c.83,0,1.5-.67,1.5-1.5Z"/>
  <path class="cls-1" d="M37.13,95.21l-10.6,6.12c-.72.41-.96,1.33-.55,2.05.41.72,1.33.96,2.05.55l10.6-6.12c.72-.41.96-1.33.55-2.05-.41-.72-1.33-.96-2.05-.55Z"/>
</svg>