<?xml version="1.0" encoding="UTF-8"?>
<svg id="Ebene_1" data-name="Ebene 1" xmlns="http://www.w3.org/2000/svg" viewBox="0 0 150 150">
  <defs>
    <style>
      .cls-1 {
        fill: #fff;
        stroke-width: 0px;
      }
    </style>
  </defs>
  <rect class="cls-1" x="32.75" y="63.88" width="26.36" height="3"/>
  <rect class="cls-1" x="32.84" y="44.92" width="52.34" height="3"/>
  <path class="cls-1" d="M122.47,45.09h-17.48v-7.55c0-8.64-7.03-15.67-15.67-15.67H27.53c-8.64,0-15.67,7.03-15.67,15.67v36.19c0,8.64,7.03,15.67,15.67,15.67h3.72v12.59c0,1.06.58,2.04,1.51,2.56.44.24.92.36,1.41.36.54,0,1.08-.15,1.56-.45l9.37-5.92c.8,7.9,7.49,14.09,15.59,14.09h29.77l23.82,15.05c.48.3,1.02.45,1.56.45.48,0,.97-.12,1.41-.36.93-.51,1.51-1.49,1.51-2.56v-12.59h3.72c8.64,0,15.67-7.03,15.67-15.67v-36.19c0-8.64-7.03-15.67-15.67-15.67ZM34.25,101.84v-15.44h-6.72c-6.99,0-12.67-5.69-12.67-12.67v-36.19c0-6.99,5.69-12.67,12.67-12.67h61.79c6.99,0,12.67,5.69,12.67,12.67v36.19c0,6.99-5.69,12.67-12.67,12.67h-30.64l-24.43,15.44ZM135.15,96.95c0,6.99-5.69,12.67-12.67,12.67h-6.72v15.44l-24.43-15.44h-30.64c-6.99,0-12.67-5.69-12.67-12.67v-.26l11.53-7.29h29.78c8.64,0,15.67-7.03,15.67-15.67v-25.64h17.48c6.99,0,12.67,5.69,12.67,12.67v36.19Z"/>
</svg>