<?xml version="1.0" encoding="UTF-8"?>
<svg id="Ebene_1" data-name="Ebene 1" xmlns="http://www.w3.org/2000/svg" viewBox="0 0 150 150">
  <defs>
    <style>
      .cls-1 {
        fill: #fff;
        stroke-width: 0px;
      }
    </style>
  </defs>
  <path class="cls-1" d="M126.14,19.68H25.29c-9.02,0-16.37,7.17-16.37,15.98v57.07c0,8.81,7.34,15.98,16.37,15.98h39.06c-.19,3.58-1.18,12.98-6.34,20.28h-25.68v3h86.77v-3h-25.34c-5.16-7.3-6.15-16.7-6.34-20.28h38.72c9.02,0,16.37-7.17,16.37-15.98v-57.07c0-8.81-7.34-15.98-16.37-15.98ZM139.51,35.66v27.03h-18.51c-.03-7.12-3.53-13.18-8.41-15.5,2.37-1.48,3.96-4.11,3.96-7.11,0-4.62-3.76-8.38-8.38-8.38s-8.38,3.76-8.38,8.38c0,3,1.59,5.63,3.97,7.11-4.87,2.33-8.37,8.39-8.4,15.5h-18.15V22.68h48.93c7.37,0,13.37,5.82,13.37,12.98ZM102.79,40.08c0-2.97,2.41-5.38,5.38-5.38s5.38,2.41,5.38,5.38-2.41,5.38-5.38,5.38-5.38-2.41-5.38-5.38ZM108.18,49.16c5.39,0,9.78,6.07,9.82,13.54h-19.63c.03-7.47,4.42-13.54,9.82-13.54ZM25.29,22.68h48.93v40.01h-18.5c-.03-7.12-3.53-13.18-8.41-15.5,2.37-1.48,3.96-4.11,3.96-7.11,0-4.62-3.76-8.38-8.38-8.38s-8.38,3.76-8.38,8.38c0,3,1.59,5.63,3.97,7.11-4.88,2.33-8.37,8.39-8.4,15.5H11.92v-27.03c0-7.16,6-12.98,13.37-12.98ZM37.51,40.08c0-2.97,2.41-5.38,5.38-5.38s5.38,2.41,5.38,5.38-2.41,5.38-5.38,5.38-5.38-2.41-5.38-5.38ZM42.9,49.16c5.39,0,9.78,6.07,9.82,13.54h-19.63c.03-7.47,4.42-13.54,9.82-13.54ZM11.92,92.73v-27.03h62.29v40.01h-18.51c-.17-6.92-3.61-12.78-8.39-15.05,2.37-1.48,3.96-4.11,3.96-7.11,0-4.62-3.76-8.38-8.38-8.38s-8.38,3.76-8.38,8.38c0,3,1.59,5.63,3.97,7.11-4.77,2.28-8.21,8.13-8.38,15.05h-4.81c-7.37,0-13.37-5.82-13.37-12.98ZM37.51,83.54c0-2.97,2.41-5.38,5.38-5.38s5.38,2.41,5.38,5.38-2.41,5.38-5.38,5.38-5.38-2.41-5.38-5.38ZM42.9,92.62c5.29,0,9.6,5.83,9.8,13.09h-19.6c.2-7.26,4.52-13.09,9.8-13.09ZM90.17,128.99h-28.57c4.73-7.76,5.61-16.75,5.76-20.28h17.05c.16,3.53,1.03,12.53,5.76,20.28ZM101.79,83.21c0-2.97,2.41-5.38,5.38-5.38s5.38,2.41,5.38,5.38-2.41,5.38-5.38,5.38-5.38-2.41-5.38-5.38ZM107.19,92.29c5.37,0,9.73,6,9.81,13.42h-19.63c.08-7.42,4.45-13.42,9.81-13.42ZM126.14,105.71h-6.14c-.07-7.07-3.55-13.07-8.4-15.39,2.37-1.48,3.96-4.11,3.96-7.11,0-4.62-3.76-8.38-8.38-8.38s-8.38,3.76-8.38,8.38c0,3,1.59,5.63,3.97,7.11-4.85,2.32-8.33,8.32-8.39,15.38h-17.16v-40.01h62.29v27.03c0,7.16-6,12.98-13.37,12.98Z"/>
</svg>