<?xml version="1.0" encoding="UTF-8"?>
<svg id="Ebene_1" data-name="Ebene 1" xmlns="http://www.w3.org/2000/svg" width="150" height="150" viewBox="0 0 150 150">
  <defs>
    <style>
      .cls-1 {
        fill: none;
        stroke: #fff;
        stroke-miterlimit: 10;
        stroke-width: 2px;
      }
    </style>
  </defs>
  <path class="cls-1" d="m66.15,89.16H27.53c-2.21,0-3.99-1.96-3.99-4.38V27.83c0-2.42,1.79-4.38,3.99-4.38h38.62c2.21,0,3.99,1.96,3.99,4.38v56.94c0,2.42-1.79,4.38-3.99,4.38Z"/>
  <path class="cls-1" d="m121.5,50.99h-38.62c-2.21,0-3.99-.82-3.99-1.84v-23.87c0-1.01,1.79-1.84,3.99-1.84h38.62c2.21,0,3.99.82,3.99,1.84v23.87c0,1.01-1.79,1.84-3.99,1.84Z"/>
  <path class="cls-1" d="m121.5,125.45h-38.62c-2.21,0-3.99-1.96-3.99-4.38v-56.94c0-2.42,1.79-4.38,3.99-4.38h38.62c2.21,0,3.99,1.96,3.99,4.38v56.94c0,2.42-1.79,4.38-3.99,4.38Z"/>
  <path class="cls-1" d="m66.15,125.45H27.53c-2.21,0-3.99-.82-3.99-1.84v-23.87c0-1.01,1.79-1.84,3.99-1.84h38.62c2.21,0,3.99.82,3.99,1.84v23.87c0,1.01-1.79,1.84-3.99,1.84Z"/>
  <line class="cls-1" x1="24.25" y1="105.18" x2="70.95" y2="105.18"/>
  <line class="cls-1" x1="78.84" y1="44.05" x2="125.54" y2="44.05"/>
</svg>