<?xml version="1.0" encoding="UTF-8"?>
<svg id="Ebene_1" data-name="Ebene 1" xmlns="http://www.w3.org/2000/svg" viewBox="0 0 150 150">
  <defs>
    <style>
      .cls-1 {
        fill: #fff;
        stroke-width: 0px;
      }
    </style>
  </defs>
  <path class="cls-1" d="M108.24,111.23H39.79c-11.72,0-21.26-9.54-21.26-21.26,0-10.09,7.14-18.75,16.87-20.8-.37-1.72-.55-3.48-.55-5.24,0-13.88,11.29-25.17,25.17-25.17,9.79,0,18.56,5.59,22.73,14.35,1.86-.6,3.8-.91,5.77-.91,8.03,0,15.16,5.13,17.76,12.62.66-.06,1.31-.08,1.95-.08,12.82,0,23.24,10.43,23.24,23.24s-10.42,23.23-23.23,23.24ZM60.02,41.77c-12.22,0-22.17,9.94-22.17,22.17,0,2.04.28,4.07.84,6.04l.47,1.67-1.73.22c-9.07,1.17-15.9,8.95-15.9,18.1,0,10.07,8.19,18.26,18.26,18.26h68.44c11.15,0,20.23-9.08,20.23-20.24s-9.08-20.24-20.24-20.24c-.91,0-1.86.07-2.81.2l-1.31.18-.35-1.27c-1.87-6.86-8.14-11.64-15.25-11.64-2.07,0-4.09.4-6.01,1.18l-1.39.57-.57-1.39c-3.42-8.39-11.48-13.81-20.53-13.81Z"/>
</svg>