<?xml version="1.0" encoding="UTF-8"?>
<svg id="Ebene_1" data-name="Ebene 1" xmlns="http://www.w3.org/2000/svg" viewBox="0 0 150 150">
  <defs>
    <style>
      .cls-1 {
        fill: #1d1d1b;
        stroke-width: 0px;
      }
    </style>
  </defs>
  <path class="cls-1" d="M117.21,56.36H32.79c-7.7,0-13.95,6.24-13.95,13.95v30.94c0,7.7,6.24,13.95,13.95,13.95h7.42c.83,0,1.5-.67,1.5-1.5h0c0-.83-.67-1.5-1.5-1.5h-7.42c-6.05,0-10.95-4.9-10.95-10.95v-30.94c0-6.05,4.9-10.95,10.95-10.95h84.42c6.05,0,10.95,4.9,10.95,10.95v30.94c0,6.05-4.9,10.95-10.95,10.95h-7.35c-.83,0-1.5.67-1.5,1.5h0c0,.83.67,1.5,1.5,1.5h7.35c7.7,0,13.95-6.24,13.95-13.95v-30.94c0-7.7-6.24-13.95-13.95-13.95Z"/>
  <path class="cls-1" d="M36.67,80.91h76.61v19.35l-.05.05h-4.24c-.83,0-1.5.67-1.5,1.5h0c0,.83.67,1.5,1.5,1.5h4.45c1.57,0,2.85-1.37,2.85-3.05v-19.3c0-1.68-1.28-3.05-2.85-3.05H36.46c-1.57,0-2.85,1.37-2.85,3.05v19.3c0,1.68,1.28,3.05,2.85,3.05h4.29c.83,0,1.5-.67,1.5-1.5h0c0-.83-.67-1.5-1.5-1.5h-4.14v-19.35l.05-.05Z"/>
  <path class="cls-1" d="M104.16,92.99h1.92c.83,0,1.5-.67,1.5-1.5h0c0-.83-.67-1.5-1.5-1.5h-62.25c-.83,0-1.5.67-1.5,1.5h0c0,.83.67,1.5,1.5,1.5h1.92l-4.04,34.83c-.09.78.16,1.56.68,2.14.52.58,1.27.92,2.05.92h61.03c.78,0,1.53-.33,2.05-.92.52-.58.77-1.37.68-2.14l-4.04-34.83ZM44.72,127.89l4.04-34.89h52.38l4.04,34.89h-60.46Z"/>
  <path class="cls-1" d="M46.39,22.16l57.46-.05v30.73c0,.83.67,1.5,1.5,1.5h0c.83,0,1.5-.67,1.5-1.5v-30.99c0-1.51-1.23-2.75-2.75-2.75l-57.97.05c-1.51,0-2.74,1.23-2.74,2.75v30.94c0,.83.67,1.5,1.5,1.5h0c.83,0,1.5-.67,1.5-1.5v-30.68Z"/>
</svg>