<svg xmlns="http://www.w3.org/2000/svg" viewBox="0 0 150 150"><path d="M119.63 90.94V33.56a9.56 9.56 0 0 0-9.56-9.56H49.5c-10.56 0-19.13 8.57-19.13 19.13v63.76c0 10.56 8.57 19.13 19.13 19.13h63.76c3.53 0 6.38-2.85 6.38-6.38s-2.85-6.38-6.38-6.38V99.97c3.71-1.32 6.38-4.86 6.38-9.03Zm-19.13 22.32H49.49c-3.53 0-6.38-2.85-6.38-6.38s2.85-6.38 6.38-6.38h51.01v12.75ZM57.56 73.43V62.24l13.72 5.65c1.5.61 3.09.93 4.72.93s3.22-.32 4.72-.93l13.72-5.66v11.2c0 5.09-8.26 9.22-18.44 9.22s-18.44-4.13-18.44-9.22m44.68-19.39-23.28 9.58c-.94.38-1.94.59-2.96.59s-2.02-.2-2.96-.59l-20.09-8.27v24.99a2.3 2.3 0 0 1-4.6 0V51.91c0-.93.56-1.77 1.42-2.12l23.28-9.58c.94-.38 1.94-.59 2.96-.59s2.02.2 2.96.59l23.28 9.58c.86.36 1.42 1.19 1.42 2.12s-.56 1.77-1.42 2.12Z" style="fill:#fff"/></svg>