<svg xmlns="http://www.w3.org/2000/svg" viewBox="0 0 150 150"><path d="M113.24 52.94c-5.41-13.41-16.93-23.68-31.1-27.43 4.61 6.19 8.2 15.87 10 27.43zm-28.11 5.79H53.56c-.38 3.69-.6 7.56-.6 11.58s.2 7.89.6 11.58h22.83c-.28-1.45-.43-2.94-.43-4.46 0-7.59 3.6-14.36 9.17-18.7m1.16-5.79c-1.1-6.6-2.79-12.43-4.88-17.13-1.9-4.27-4.02-7.36-6.06-9.32-2.03-1.92-3.71-2.5-5.03-2.5s-3 .58-5.03 2.5c-2.04 1.95-4.16 5.05-6.06 9.32-2.08 4.72-3.78 10.55-4.88 17.13H86.3zM58.48 25.52C44.3 29.26 32.79 39.54 27.36 52.95h21.11c1.81-11.56 5.39-21.24 10-27.43ZM27.36 87.68c5.43 13.41 16.93 23.68 31.12 27.43-4.61-6.19-8.2-15.87-10-27.43zm37.92 26.45c.18.17.35.31.52.46a31.17 31.17 0 0 1 17.01-20.51 23.9 23.9 0 0 1-4.52-6.4H54.33c1.1 6.59 2.79 12.41 4.88 17.11v.02c1.9 4.27 4.02 7.36 6.06 9.32ZM47.15 70.31c0-3.98.2-7.85.58-11.58H25.46c-.96 3.71-1.47 7.58-1.47 11.58s.51 7.87 1.47 11.58h22.27c-.38-3.73-.58-7.6-.58-11.58m52.49 22.3c8.38 0 15.18-6.8 15.18-15.18s-6.8-15.18-15.18-15.18-15.18 6.8-15.18 15.18 6.8 15.18 15.18 15.18m-3.76 7.08c-12.46 0-22.55 10.09-22.55 22.55 0 2.07 1.68 3.76 3.76 3.76h45.11c2.07 0 3.76-1.68 3.76-3.76 0-12.46-10.09-22.55-22.55-22.55z" style="fill:#fff"/></svg>