<?xml version="1.0" encoding="UTF-8"?>
<svg id="Ticketsystem" xmlns="http://www.w3.org/2000/svg" version="1.1" viewBox="0 0 150 150">
  <!-- Generator: Adobe Illustrator 29.4.0, SVG Export Plug-In . SVG Version: 2.1.0 Build 152)  -->
  <defs>
    <style>
      .st0 {
        fill: #fff;
      }
    </style>
  </defs>
  <path id="Neu" class="st0" d="M123.22,68.38c1.47-.42,2.78-1.43,2.78-2.71v-9.33c0-5.15-5.08-9.33-11.33-9.33h-12.08c.08.29.14.59.14.91v10.62c0,1.86-1.51,3.36-3.36,3.36s-3.36-1.51-3.36-3.36v-10.62c0-.32.06-.62.14-.91h-60.81c-6.25,0-11.33,4.19-11.33,9.33v9.33c0,1.28,1.31,2.29,2.78,2.71,3.33.95,5.72,3.56,5.72,6.62s-2.39,5.67-5.72,6.62c-1.47.42-2.78,1.43-2.78,2.71v9.33c0,5.15,5.08,9.33,11.33,9.33h60.81c-.08-.29-.14-.59-.14-.91v-10.62c0-1.86,1.51-3.36,3.36-3.36s3.36,1.51,3.36,3.36v10.62c0,.32-.06.62-.14.91h12.08c6.25,0,11.33-4.19,11.33-9.33v-9.33c0-1.28-1.31-2.29-2.78-2.71-3.33-.95-5.72-3.56-5.72-6.62s2.39-5.67,5.72-6.62ZM45.72,60.64h17.91c1.86,0,3.36,1.51,3.36,3.36s-1.51,3.36-3.36,3.36h-17.91c-1.86,0-3.36-1.51-3.36-3.36s1.51-3.36,3.36-3.36ZM75,89.36h-29.28c-1.86,0-3.36-1.51-3.36-3.36s1.51-3.36,3.36-3.36h29.28c1.86,0,3.36,1.51,3.36,3.36s-1.51,3.36-3.36,3.36ZM75,78.36h-29.28c-1.86,0-3.36-1.51-3.36-3.36s1.51-3.36,3.36-3.36h29.28c1.86,0,3.36,1.51,3.36,3.36s-1.51,3.36-3.36,3.36ZM102.73,80.31c0,1.86-1.51,3.36-3.36,3.36s-3.36-1.51-3.36-3.36v-10.62c0-1.86,1.51-3.36,3.36-3.36s3.36,1.51,3.36,3.36v10.62Z"/>
</svg>