<svg xmlns="http://www.w3.org/2000/svg" id="Whiteboard" version="1.1" viewBox="0 0 150 150"><defs><style>.st0{fill:#fff}</style></defs><g id="V2"><path d="m119.87 118.09-5.4-3.53 10.85-16.59 5.4 3.53c1.63 1.06 2.77 2.73 3.17 4.64s.03 3.9-1.05 5.53l-2.81 4.29c-1.06 1.63-2.73 2.77-4.64 3.17s-3.9.03-5.53-1.05Zm-9.48-6.2L84.5 94.96a8.94 8.94 0 0 1-3.05-3.38L75.27 79.6c-.4-.78-.36-1.72.13-2.46s1.33-1.16 2.2-1.1l13.45.87c1.54.1 3.02.59 4.32 1.44l25.87 16.94-10.85 16.59Z" class="st0"/><path d="M79.86 97.67H41V52.34h68v29.18l11.33 7.4V52.34c0-6.25-5.08-11.33-11.33-11.33H41c-6.25 0-11.33 5.08-11.33 11.33v45.33c-3.13 0-5.67 2.53-5.67 5.67s2.53 5.67 5.67 5.67h67.55L79.87 97.68Z" class="st0"/></g></svg>