<svg xmlns="http://www.w3.org/2000/svg" viewBox="0 0 150 150"><path d="M99 60V48c0-13.26-10.74-24-24-24S51 34.74 51 48v12c-6.62 0-12 5.38-12 12v42c0 6.62 5.38 12 12 12h48c6.62 0 12-5.38 12-12V72c0-6.62-5.38-12-12-12M63 48c0-6.62 5.38-12 12-12s12 5.38 12 12v12H63zm30.47 54.76-1.29 2.23a2.56 2.56 0 0 1-3.51.94l-9.81-5.66v11.33a2.57 2.57 0 0 1-2.57 2.57h-2.57a2.57 2.57 0 0 1-2.57-2.57v-11.33l-9.81 5.66c-1.23.71-2.81.29-3.51-.94l-1.29-2.23c-.71-1.23-.29-2.81.94-3.51l9.81-5.66-9.81-5.66a2.57 2.57 0 0 1-.94-3.51l1.29-2.23a2.57 2.57 0 0 1 3.51-.94l9.81 5.66V75.58a2.57 2.57 0 0 1 2.57-2.57h2.57a2.57 2.57 0 0 1 2.57 2.57v11.33l9.81-5.66c1.23-.71 2.81-.29 3.51.94l1.29 2.23c.71 1.23.29 2.81-.94 3.51l-9.81 5.66 9.81 5.66a2.56 2.56 0 0 1 .94 3.51" style="fill:#fff"/></svg>