<?xml version="1.0" encoding="UTF-8"?>
<svg id="Ebene_1" xmlns="http://www.w3.org/2000/svg" version="1.1" viewBox="0 0 150 150">
  <!-- Generator: Adobe Illustrator 29.4.0, SVG Export Plug-In . SVG Version: 2.1.0 Build 152)  -->
  <defs>
    <style>
      .st0 {
        fill: #fff;
      }
    </style>
  </defs>
  <g id="Moodle">
    <g>
      <path class="st0" d="M109.68,109.8v-32.02c0-6.69-2.76-10.04-8.28-10.04s-8.29,3.34-8.3,10.04v32.02h-16.31v-32.02c0-6.69-2.72-10.04-8.15-10.04s-8.29,3.35-8.28,10.04v32.02h-16.31v-33.91c0-6.99,2.43-12.27,7.28-15.86,4.27-3.2,10.04-4.81,17.32-4.81s12.81,1.89,16.3,5.68c3.01-3.78,8.49-5.68,16.45-5.68,7.28,0,13.05,1.6,17.31,4.81,4.85,3.59,7.28,8.87,7.28,15.86v33.91h-16.31Z"/>
      <path class="st0" d="M75.7,52.76l16.19-11.83-.21-.72c-29.21,3.58-42.5,6.12-67.66,20.71l.23.66,2,.02c-.18,2.01-.5,6.99-.09,14.48-2.79,8.08-.07,13.57,2.48,19.54.41-6.21.36-13.01-1.54-19.78-.4-7.44-.07-12.32.11-14.23l16.68.16c-.04,3.27.12,6.53.49,9.78,14.91,5.24,29.9-.02,37.86-12.93-2.21-2.48-6.54-5.85-6.54-5.85h0Z"/>
    </g>
  </g>
</svg>