<?xml version="1.0" encoding="UTF-8"?>
<svg id="Ebene_1" xmlns="http://www.w3.org/2000/svg" version="1.1" viewBox="0 0 150 150">
  <!-- Generator: Adobe Illustrator 29.4.0, SVG Export Plug-In . SVG Version: 2.1.0 Build 152)  -->
  <defs>
    <style>
      .st0, .st1 {
        fill: #fff;
      }

      .st0, .st2 {
        display: none;
      }
    </style>
  </defs>
  <g id="Klassenraum__x2013__Einschreiben">
    <g id="Halbkreis_x2C__Pfeil" class="st2">
      <path class="st1" d="M75.81,125.14c-11.46,0-22.66-3.96-31.54-11.17-1.5-1.22-1.73-3.42-.52-4.92,1.22-1.5,3.42-1.73,4.92-.52,7.64,6.19,17.28,9.6,27.14,9.6,23.79,0,43.14-19.35,43.14-43.14s-19.35-43.14-43.14-43.14c-9.83,0-19.45,3.4-27.09,9.56-1.5,1.21-3.71.98-4.92-.52-1.21-1.5-.98-3.71.52-4.92,8.87-7.17,20.06-11.12,31.49-11.12,27.65,0,50.14,22.49,50.14,50.14s-22.49,50.14-50.14,50.14h0Z"/>
      <path class="st1" d="M93.44,77.62c1.45-1.45,1.45-3.8,0-5.25l-18.55-18.55c-1.45-1.45-3.8-1.45-5.25,0s-1.45,3.8,0,5.25l12.22,12.22H27.71c-2.05,0-3.71,1.66-3.71,3.71s1.66,3.71,3.71,3.71h54.15l-12.22,12.22c-1.45,1.45-1.45,3.8,0,5.25s3.8,1.45,5.25,0l18.55-18.55h0Z"/>
    </g>
    <g id="Halbkreis_x2C__dicker_Pfeil" class="st2">
      <path class="st1" d="M75.81,125.14c-11.46,0-22.66-3.96-31.54-11.17-1.5-1.22-1.73-3.42-.52-4.92,1.22-1.5,3.42-1.73,4.92-.52,7.64,6.19,17.28,9.6,27.14,9.6,23.79,0,43.14-19.35,43.14-43.14s-19.35-43.14-43.14-43.14c-9.83,0-19.45,3.4-27.09,9.56-1.5,1.21-3.71.98-4.92-.52-1.21-1.5-.98-3.71.52-4.92,8.87-7.17,20.06-11.12,31.49-11.12,27.65,0,50.14,22.49,50.14,50.14s-22.49,50.14-50.14,50.14h0Z"/>
      <path class="st1" d="M32.52,66.52l40.63-.02-3.51-3.51c-3.32-3.32-3.32-8.69,0-12.01s8.69-3.32,12.01,0l18.02,18.02c3.32,3.32,3.32,8.69,0,12.01l-18.02,18.02c-3.32,3.32-8.69,3.32-12.01,0s-3.32-8.69,0-12.01l3.51-3.51h-40.65c-4.69,0-8.5-3.81-8.5-8.5s3.81-8.5,8.5-8.5l.02.02h0Z"/>
    </g>
    <g id="Kreis_x2C__Pfeil">
      <path class="st1" d="M93.44,77.62c1.45-1.45,1.45-3.8,0-5.25l-18.55-18.55c-1.45-1.45-3.8-1.45-5.25,0s-1.45,3.8,0,5.25l12.22,12.22H27.71c-2.05,0-3.71,1.66-3.71,3.71s1.66,3.71,3.71,3.71h54.15l-12.22,12.22c-1.45,1.45-1.45,3.8,0,5.25s3.8,1.45,5.25,0l18.55-18.55h0Z"/>
      <path class="st1" d="M84.26,33.26c-19.71,0-36.22,13.66-40.59,32.03h23.7l-1.98-1.98c-1.83-1.83-2.84-4.27-2.84-6.87s1.01-5.03,2.84-6.87,4.27-2.84,6.87-2.84,5.03,1.01,6.87,2.84l18.55,18.55c3.06,3.06,3.65,7.68,1.76,11.34,0,0-.67,1.32-1.76,2.41l-18.55,18.55c-1.83,1.83-4.27,2.84-6.87,2.84s-5.03-1.01-6.87-2.84c-1.83-1.83-2.84-4.27-2.84-6.87s1.01-5.03,2.84-6.87l1.98-1.98h-23.7c4.38,18.37,20.89,32.03,40.59,32.03,23.05,0,41.74-18.69,41.74-41.74s-18.69-41.74-41.74-41.74h0Z"/>
    </g>
    <path id="Stift" class="st0" d="M121,24H29c-2.76,0-5,2.24-5,5v92.01c0,2.76,2.24,5,5,5h92.01c2.76,0,5-2.24,5-5V29c0-2.76-2.24-5-5-5h-.01ZM64.47,97.22c-1.5.98-3.2,1.54-4.97,1.66l-15.48,1.01c-1.01.06-1.97-.42-2.53-1.27s-.61-1.93-.15-2.83l7.11-13.79c.82-1.57,2.03-2.92,3.51-3.89l29.79-19.48,12.49,19.09s-29.77,19.5-29.77,19.5ZM108.8,65.24c-.46,2.2-1.77,4.12-3.65,5.34l-6.22,4.07-12.49-19.09,6.22-4.07c1.87-1.23,4.16-1.66,6.36-1.2s4.12,1.77,5.34,3.65l3.23,4.94c1.23,1.87,1.66,4.16,1.2,6.36h.01Z"/>
  </g>
</svg>