<?xml version="1.0" encoding="UTF-8"?>
<svg id="Lernmanagement" xmlns="http://www.w3.org/2000/svg" version="1.1" viewBox="0 0 150 150">
  <!-- Generator: Adobe Illustrator 29.4.0, SVG Export Plug-In . SVG Version: 2.1.0 Build 152)  -->
  <defs>
    <style>
      .st0 {
        fill: #fff;
      }
    </style>
  </defs>
  <path id="Buch__x2B__Hut" class="st0" d="M119.63,90.94v-57.38c0-5.28-4.28-9.56-9.56-9.56h-60.57c-10.56,0-19.13,8.57-19.13,19.13v63.76c0,10.56,8.57,19.13,19.13,19.13h63.76c3.53,0,6.38-2.85,6.38-6.38s-2.85-6.38-6.38-6.38v-13.29c3.71-1.32,6.38-4.86,6.38-9.03ZM100.5,113.26h-51.01c-3.53,0-6.38-2.85-6.38-6.38s2.85-6.38,6.38-6.38h51.01v12.75ZM57.56,73.43v-11.19h0s13.72,5.65,13.72,5.65c1.5.61,3.09.93,4.72.93s3.22-.32,4.72-.93l13.72-5.66v11.2c0,5.09-8.26,9.22-18.44,9.22s-18.44-4.13-18.44-9.22ZM102.24,54.04l-23.28,9.58c-.94.38-1.94.59-2.96.59s-2.02-.2-2.96-.59l-20.09-8.27v24.99c0,1.28-1.03,2.3-2.3,2.3s-2.3-1.03-2.3-2.3v-28.43c0-.93.56-1.77,1.42-2.12l23.28-9.58c.94-.38,1.94-.59,2.96-.59s2.02.2,2.96.59l23.28,9.58c.86.36,1.42,1.19,1.42,2.12s-.56,1.77-1.42,2.12Z"/>
</svg>