<?xml version="1.0" encoding="UTF-8"?>
<svg id="QR-Code" xmlns="http://www.w3.org/2000/svg" version="1.1" viewBox="0 0 150 150">
  <!-- Generator: Adobe Illustrator 29.4.0, SVG Export Plug-In . SVG Version: 2.1.0 Build 152)  -->
  <defs>
    <style>
      .st0 {
        fill: currentColor;
      }
    </style>
  </defs>
  <g>
    <g>
      <path class="st0" d="M71.27,40.46h-31.11v31.11h31.11v-31.11ZM66.95,67.24h-22.46v-22.46h22.46v22.46Z"/>
      <rect class="st0" x="48.97" y="49.26" width="13.5" height="13.5"/>
      <path class="st0" d="M78.68,40.46v31.11h31.11v-31.11h-31.11ZM105.46,67.24h-22.46v-22.46h22.46v22.46Z"/>
      <rect class="st0" x="87.48" y="49.26" width="13.5" height="13.5"/>
      <path class="st0" d="M40.16,109.51h31.11v-31.11h-31.11v31.11ZM44.49,82.72h22.46v22.46h-22.46v-22.46Z"/>
      <rect class="st0" x="48.97" y="87.2" width="13.5" height="13.5"/>
    </g>
    <rect class="st0" x="78.71" y="87.19" width="8.8" height="4.47"/>
    <rect class="st0" x="78.71" y="96.13" width="4.4" height="13.41"/>
    <rect class="st0" x="91.92" y="105.07" width="4.4" height="4.47"/>
    <polygon class="st0" points="96.32 100.82 96.32 87.19 91.92 87.19 91.92 91.66 87.52 91.66 87.52 105.07 91.92 105.07 91.92 100.82 96.32 100.82"/>
    <polygon class="st0" points="109.78 96.11 109.78 91.71 105.33 91.71 101.89 91.71 100.63 91.71 100.63 100.74 105.33 100.74 105.33 96.11 109.78 96.11"/>
    <rect class="st0" x="100.63" y="105.14" width="4.6" height="4.4"/>
    <rect class="st0" x="105.23" y="100.74" width="4.6" height="4.4"/>
    <polygon class="st0" points="96.3 87.35 100.78 87.35 100.78 82.94 109.81 82.94 109.81 78.4 96.3 78.4 96.3 82.94 96.3 82.94 96.3 87.35"/>
    <rect class="st0" x="78.71" y="78.4" width="8.8" height="4.47"/>
    <rect class="st0" x="87.51" y="82.87" width="4.4" height="4.33"/>
  </g>
  <g>
    <path class="st0" d="M35.33,24.67c-6.25,0-11.33,5.08-11.33,11.33v12.75c0,2.36,1.89,4.25,4.25,4.25s4.25-1.89,4.25-4.25v-12.75c0-1.56,1.27-2.83,2.83-2.83h12.75c2.36,0,4.25-1.89,4.25-4.25s-1.89-4.25-4.25-4.25h-12.75Z"/>
    <path class="st0" d="M101.92,24.67c-2.36,0-4.25,1.89-4.25,4.25s1.89,4.25,4.25,4.25h12.75c1.56,0,2.83,1.27,2.83,2.83v12.75c0,2.36,1.89,4.25,4.25,4.25s4.25-1.89,4.25-4.25v-12.75c0-6.25-5.08-11.33-11.33-11.33h-12.75Z"/>
    <path class="st0" d="M32.5,101.25c0-2.36-1.89-4.25-4.25-4.25s-4.25,1.89-4.25,4.25v12.75c0,6.25,5.08,11.33,11.33,11.33h12.75c2.36,0,4.25-1.89,4.25-4.25s-1.89-4.25-4.25-4.25h-12.75c-1.56,0-2.83-1.28-2.83-2.83v-12.75Z"/>
    <path class="st0" d="M126,101.25c0-2.36-1.89-4.25-4.25-4.25s-4.25,1.89-4.25,4.25v12.75c0,1.56-1.28,2.83-2.83,2.83h-12.75c-2.36,0-4.25,1.89-4.25,4.25s1.89,4.25,4.25,4.25h12.75c6.25,0,11.33-5.08,11.33-11.33v-12.75Z"/>
  </g>
</svg>