<svg xmlns="http://www.w3.org/2000/svg" id="Dateien" version="1.1" viewBox="0 0 150 150"><defs><style>.st0{fill:#fff}</style></defs><g id="Fontawesome_Kombi"><path d="M28.31 71.77c2.47-8.16 9.4-13.65 17.19-13.65h68.97v-3.33c0-7.34-5.42-13.32-12.08-13.32H80.25c-1.3 0-2.59-.46-3.62-1.33l-7.25-5.99c-2.1-1.73-4.64-2.66-7.25-2.66H35.95c-6.66 0-12.08 5.97-12.08 13.32v41.66l4.45-14.69h-.02Z" class="st0"/><path d="M81.13 110.63c0-14.62 11.85-26.47 26.47-26.47 5.82 0 11.21 1.89 15.58 5.07l2.41-7.97c1.96-6.47-2.4-13.15-8.59-13.15H45.5c-3.89 0-7.36 2.75-8.59 6.82l-9.06 29.96c-1.96 6.47 2.4 13.15 8.59 13.15h45.75c-.69-2.36-1.06-4.84-1.06-7.42Z" class="st0"/><path d="M87.31 110.63c0-11.21 9.09-20.29 20.29-20.29s20.29 9.09 20.29 20.29-9.09 20.29-20.29 20.29-20.29-9.09-20.29-20.29m26.57 4.22c-1.3 0-2.46.57-3.28 1.45l-8.43-4.14c.03-.21.07-.42.07-.65s-.03-.44-.07-.66l8.42-4.14c.82.9 1.99 1.47 3.3 1.47 2.47 0 4.47-2 4.47-4.47s-2-4.47-4.47-4.47-4.47 2-4.47 4.47c0 .33.04.65.11.96l-8.27 4.06a4.45 4.45 0 0 0-3.49-1.7c-2.47 0-4.47 2-4.47 4.47s2 4.47 4.47 4.47c1.42 0 2.67-.67 3.49-1.71l8.27 4.06a4.468 4.468 0 0 0 4.36 5.45c2.47 0 4.47-2 4.47-4.47s-2-4.47-4.47-4.47Z" class="st0"/></g></svg>