<svg xmlns="http://www.w3.org/2000/svg" id="Ebene_1" version="1.1" viewBox="0 0 150 150"><defs><style>.st0{fill:#fff}</style></defs><g id="Klassenraum__x2013__Meine_Projekte"><g id="Datei_x2C__Zahnrad"><path d="m91.57 124.89-.12-.58v-2.82s-.05-.02-.07-.04l-2.45 1.42-.58.19c-.91.3-1.85.46-2.81.46-3.17 0-6.12-1.71-7.7-4.46l-2.69-4.67c-2.1-3.65-1.34-8.31 1.81-11.09l.46-.41 2.22-1.27v-.31l-2.23-1.29-.45-.4c-3.13-2.78-3.89-7.43-1.81-11.07l2.71-4.69a8.92 8.92 0 0 1 7.7-4.45c.95 0 1.9.15 2.8.45l.59.2 2.44 1.42.05-.03v-2.83l.12-.59c.83-4.12 4.5-7.11 8.71-7.11h5.4c3.17 0 6.02 1.69 7.6 4.29V57.97c0-3.39-1.33-6.63-3.73-9.03L88.3 27.72a12.72 12.72 0 0 0-9.01-3.73H49.5c-7.03 0-12.75 5.72-12.75 12.75v76.51c0 7.03 5.72 12.75 12.75 12.75h42.38c-.12-.36-.23-.73-.31-1.11M78.19 35.65l23.41 23.41H82.97c-2.65 0-4.78-2.13-4.78-4.78z" class="st0"/><path d="M97.43 79.22c.27-1.34 1.45-2.3 2.82-2.3h5.4c1.37 0 2.55.97 2.82 2.3v5.83c1.26.54 4.85 2.61 5.94 3.43l5.04-2.91c1.3-.43 2.72.11 3.41 1.3l2.7 4.67c.69 1.19.44 2.69-.59 3.6l-5.04 2.89c.08.67.35 2.74.35 3.43s-.28 2.75-.35 3.42l5.05 2.91a2.9 2.9 0 0 1 .59 3.6l-2.7 4.67a2.9 2.9 0 0 1-3.41 1.3l-5.04-2.93c-1.09.82-4.69 2.89-5.95 3.44l.03 5.83a2.89 2.89 0 0 1-2.82 2.3h-5.4c-1.37 0-2.55-.97-2.82-2.3v-5.83c-1.29-.54-4.85-2.6-5.94-3.42l-5.05 2.92a2.89 2.89 0 0 1-3.41-1.3l-2.7-4.67c-.69-1.19-.44-2.69.59-3.6l5.05-2.89c-.08-.67-.35-2.75-.35-3.44s.27-2.75.34-3.41l-5.04-2.92a2.9 2.9 0 0 1-.59-3.6l2.7-4.67a2.89 2.89 0 0 1 3.41-1.3l5.03 2.93c1.09-.82 4.69-2.89 5.95-3.44v-5.83h-.02Zm5.53 31.86a9.62 9.62 0 0 0 9.59-9.66 9.62 9.62 0 0 0-9.66-9.59 9.62 9.62 0 0 0-9.59 9.66 9.62 9.62 0 0 0 9.66 9.59" class="st0"/></g></g></svg>