<svg xmlns="http://www.w3.org/2000/svg" id="Ebene_1" version="1.1" viewBox="0 0 150 150"><defs><style>.st1{fill:#fff}</style></defs><g id="Notifikation"><path d="M106.65 62.57c-10.65 0-19.29-8.64-19.29-19.29S96 23.99 106.65 23.99s19.29 8.64 19.29 19.29-8.64 19.29-19.29 19.29m0-14.46c-1.33 0-2.41 1.08-2.41 2.41s1.08 2.41 2.41 2.41 2.41-1.08 2.41-2.41-1.08-2.41-2.41-2.41m0-14.47c-1.37 0-2.46 1.17-2.37 2.54l.56 7.84c.07.95.86 1.68 1.8 1.68s1.73-.73 1.8-1.68l.56-7.84c.1-1.37-.99-2.54-2.37-2.54z" class="st1"/><path d="M109.73 92.95a42.46 42.46 0 0 1-9.22-26.17c-10.43-2.73-18.15-12.23-18.15-23.5 0-3.15.61-6.16 1.71-8.93A31.8 31.8 0 0 0 75 31v-.64c0-3.53-2.85-6.38-6.38-6.38s-6.38 2.85-6.38 6.38V31c-14.54 2.95-25.5 15.82-25.5 31.24v4.32c0 9.58-3.27 18.89-9.24 26.38l-1.95 2.43A7 7 0 0 0 24 99.79a7.07 7.07 0 0 0 7.07 7.07h75.09a7.07 7.07 0 0 0 7.07-7.07c0-1.61-.54-3.17-1.55-4.42l-1.95-2.43Zm-41.1 33.06c5.94 0 10.94-4.06 12.35-9.56H56.27c1.41 5.5 6.42 9.56 12.35 9.56z" class="st1"/></g></svg>