<svg xmlns="http://www.w3.org/2000/svg" id="Ebene_1" version="1.1" viewBox="0 0 150 150"><defs><style>.st0{fill:#fff}</style></defs><g id="Linuxmuster"><circle cx="94.57" cy="94.57" r="11.87" class="st0"/><path d="M126 114.14c0 6.55-5.31 11.87-11.87 11.87s-11.87-5.31-11.87-11.87 5.31-11.87 11.87-11.87S126 107.58 126 114.14M67.3 55.43c0 6.55-5.31 11.87-11.87 11.87s-11.87-5.31-11.87-11.87 5.31-11.87 11.87-11.87S67.3 48.87 67.3 55.43M47.73 35.86c0 6.55-5.31 11.87-11.87 11.87s-11.87-5.31-11.87-11.87 5.31-11.87 11.87-11.87 11.87 5.31 11.87 11.87m-4.17 58.71c0 6.55 5.31 11.87 11.87 11.87s11.87-5.32 11.87-11.87S61.99 82.7 55.43 82.7s-11.87 5.31-11.87 11.87M24 114.14c0 6.55 5.31 11.87 11.87 11.87s11.87-5.31 11.87-11.87-5.31-11.87-11.87-11.87S24 107.58 24 114.14m58.7-58.71c0 6.55 5.31 11.87 11.87 11.87s11.87-5.31 11.87-11.87-5.31-11.87-11.87-11.87S82.7 48.87 82.7 55.43m19.57-19.57c0 6.55 5.31 11.87 11.87 11.87s11.87-5.31 11.87-11.87-5.31-11.87-11.87-11.87-11.87 5.31-11.87 11.87M75 65.13c5.44 0 9.87 4.43 9.87 9.87s-4.43 9.87-9.87 9.87-9.87-4.43-9.87-9.87 4.43-9.87 9.87-9.87m0-2c-6.56 0-11.87 5.31-11.87 11.87S68.44 86.87 75 86.87 86.87 81.56 86.87 75 81.56 63.13 75 63.13" class="st0"/></g></svg>