<svg xmlns="http://www.w3.org/2000/svg" viewBox="0 0 150 150"><path d="M115.22 83.43h10.73v9.64h-10.73zm0-30.12h10.73V42.36c0-3.33-2.7-6.02-6.02-6.02h-4.7v16.98Zm0 16.87h10.73v9.64h-10.73zm0 26.51v16.98h4.7c3.33 0 6.02-2.7 6.02-6.02V96.7h-10.73Zm0-39.77h10.73v9.64h-10.73zm-3.61-20.59H30.07a6.02 6.02 0 0 0-6.02 6.02v65.28c0 3.33 2.7 6.02 6.02 6.02h81.53V36.33ZM88.05 99.75c-1.12 1.12-2.78 1.44-4.23.84s-2.39-2.03-2.39-3.59v-7.76H40.68c-3.21 0-5.82-2.61-5.82-5.82V55.18c0-3.21 2.61-5.82 5.82-5.82h3.88c3.21 0 5.82 2.61 5.82 5.82v18.53h31.05v-7.76c0-1.56.95-2.98 2.4-3.59 1.46-.61 3.12-.27 4.23.84l15.52 15.52h-.01a3.9 3.9 0 0 1 0 5.51z" style="fill:#fff"/></svg>