<?xml version="1.0" encoding="UTF-8"?>
<svg id="Ebene_1" xmlns="http://www.w3.org/2000/svg" version="1.1" viewBox="0 0 150 150">
  <!-- Generator: Adobe Illustrator 29.4.0, SVG Export Plug-In . SVG Version: 2.1.0 Build 152)  -->
  <defs>
    <style>
      .st0 {
        display: none;
      }

      .st0, .st1 {
        fill: #fff;
      }
    </style>
  </defs>
  <g id="Notifikation">
    <path id="Glocke_Blase_Striche" class="st0" d="M75.01,23.99c-28.16,0-51.01,20.93-51.01,46.76,0,10.52,3.8,20.24,10.2,28.05l-9.46,17.85c-1.33,2.47-.88,5.53,1.12,7.49,1.99,1.97,5.02,2.42,7.49,1.12l21.68-11.48c6.14,2.39,12.88,3.72,19.98,3.72,28.16,0,51.01-20.93,51.01-46.76s-22.85-46.76-51.01-46.76h0ZM84.46,47.56c.22-.64.91-.99,1.55-.77l.28.09c2.73.93,4.91,2.63,6.48,5.07.36.57.2,1.33-.37,1.69-.2.13-.43.19-.66.19-.4,0-.8-.2-1.03-.56-1.26-1.96-3.01-3.33-5.2-4.07l-.28-.09c-.64-.22-.98-.91-.77-1.55ZM57.23,51.95c1.57-2.44,3.75-4.15,6.48-5.07l.28-.09c.64-.22,1.34.13,1.55.77.22.64-.13,1.34-.77,1.55l-.28.09c-2.19.74-3.94,2.11-5.2,4.07-.23.36-.63.56-1.03.56-.23,0-.46-.06-.66-.19-.57-.37-.73-1.12-.37-1.69ZM75.01,99.23c-3.05,0-5.62-2.09-6.35-4.92h12.7c-.73,2.83-3.3,4.92-6.35,4.92ZM94.31,89.4h-38.61c-2.01,0-3.64-1.63-3.64-3.64,0-.83.28-1.63.8-2.27l1-1.25c3.07-3.85,4.75-8.64,4.75-13.56v-2.22c0-7.93,5.63-14.55,13.11-16.06v-.33c0-1.81,1.46-3.28,3.28-3.28s3.28,1.46,3.28,3.28v.33c7.48,1.52,13.11,8.13,13.11,16.06v2.22c0,4.93,1.68,9.71,4.74,13.56l1,1.25c.52.65.8,1.44.8,2.27,0,2.01-1.63,3.64-3.64,3.64h.02ZM88.46,43.56c.22-.64.91-.99,1.55-.77l.28.09c2.73.93,4.91,2.63,6.48,5.07.36.57.2,1.33-.37,1.69-.2.13-.43.19-.66.19-.4,0-.8-.2-1.03-.56-1.26-1.96-3.01-3.33-5.2-4.07l-.28-.09c-.64-.22-.98-.91-.77-1.55ZM53.23,47.95c1.57-2.44,3.75-4.15,6.48-5.07l.28-.09c.64-.22,1.34.13,1.55.77.22.64-.13,1.34-.77,1.55l-.28.09c-2.19.74-3.94,2.11-5.2,4.07-.23.36-.63.56-1.03.56-.23,0-.46-.06-.66-.19-.57-.37-.73-1.12-.37-1.69Z"/>
    <path id="Glocke_Blase" class="st0" d="M75.01,23.99c-28.16,0-51.01,20.93-51.01,46.76,0,10.52,3.8,20.24,10.2,28.05l-9.46,17.85c-1.33,2.47-.88,5.53,1.12,7.49,1.99,1.97,5.02,2.42,7.49,1.12l21.68-11.48c6.14,2.39,12.88,3.72,19.98,3.72,28.16,0,51.01-20.93,51.01-46.76s-22.85-46.76-51.01-46.76h0ZM75.01,96.77c-3.05,0-5.62-2.09-6.35-4.92h12.7c-.73,2.83-3.3,4.92-6.35,4.92ZM94.31,86.94h-38.61c-2.01,0-3.64-1.63-3.64-3.64,0-.83.28-1.63.8-2.27l1-1.25c3.07-3.85,4.75-8.64,4.75-13.56v-2.22c0-7.93,5.63-14.55,13.11-16.06v-.33c0-1.81,1.46-3.28,3.28-3.28s3.28,1.46,3.28,3.28v.33c7.48,1.52,13.11,8.13,13.11,16.06v2.22c0,4.93,1.68,9.71,4.74,13.56l1,1.25c.52.65.8,1.44.8,2.27,0,2.01-1.63,3.64-3.64,3.64h.02Z"/>
    <path id="Glocke" class="st0" d="M75.01,24c-3.53,0-6.38,2.85-6.38,6.38v.64c-14.54,2.95-25.5,15.82-25.5,31.24v4.32c0,9.58-3.27,18.89-9.24,26.38l-1.95,2.43c-1.02,1.26-1.55,2.81-1.55,4.42,0,3.91,3.17,7.07,7.07,7.07h75.09c3.91,0,7.07-3.17,7.07-7.07,0-1.61-.54-3.17-1.55-4.42l-1.95-2.43c-5.96-7.49-9.22-16.8-9.22-26.38v-4.32c0-15.42-10.96-28.29-25.5-31.24v-.64c0-3.53-2.85-6.38-6.38-6.38,0,0-.01,0-.01,0ZM62.66,116.44c1.41,5.5,6.42,9.56,12.35,9.56s10.94-4.06,12.35-9.56h-24.71,0Z"/>
    <path class="st1" d="M106.65,62.57c-10.65,0-19.29-8.64-19.29-19.29s8.64-19.29,19.29-19.29,19.29,8.64,19.29,19.29-8.64,19.29-19.29,19.29ZM106.65,48.11c-1.33,0-2.41,1.08-2.41,2.41s1.08,2.41,2.41,2.41,2.41-1.08,2.41-2.41-1.08-2.41-2.41-2.41ZM106.65,33.64c-1.37,0-2.46,1.17-2.37,2.54l.56,7.84c.07.95.86,1.68,1.8,1.68s1.73-.73,1.8-1.68l.56-7.84c.1-1.37-.99-2.54-2.37-2.54h.02Z"/>
    <g>
      <path class="st1" d="M109.73,92.95c-5.91-7.44-9.17-16.66-9.22-26.17-10.43-2.73-18.15-12.23-18.15-23.5,0-3.15.61-6.16,1.71-8.93-2.79-1.55-5.84-2.69-9.07-3.35v-.64c0-3.53-2.85-6.38-6.38-6.38s-6.38,2.85-6.38,6.38v.64c-14.54,2.95-25.5,15.82-25.5,31.24v4.32c0,9.58-3.27,18.89-9.24,26.38l-1.95,2.43c-1.02,1.26-1.55,2.81-1.55,4.42,0,3.91,3.17,7.07,7.07,7.07h75.09c3.91,0,7.07-3.17,7.07-7.07,0-1.61-.54-3.17-1.55-4.42l-1.95-2.43h0Z"/>
      <path class="st1" d="M68.63,126.01c5.94,0,10.94-4.06,12.35-9.56h-24.71c1.41,5.5,6.42,9.56,12.35,9.56h.01Z"/>
    </g>
  </g>
</svg>