<svg xmlns="http://www.w3.org/2000/svg" id="Ebene_1" version="1.1" viewBox="0 0 150 150"><defs><style>.st1{fill:#fff}</style></defs><g id="VPN"><g id="Schild_Schloss"><path d="M75 54.65c-3.11 0-5.65 2.53-5.65 5.65v5.65h11.29V60.3c0-3.11-2.53-5.65-5.65-5.65z" class="st1"/><path d="m118.16 40.21-.16-1L75 24 32 39.21l-.16 1c-.11.68-2.64 16.94 1.24 35.7 5.19 25.05 19.49 42.3 41.36 49.9l.56.2.56-.2c21.87-7.59 36.17-24.85 41.36-49.9 3.88-18.76 1.35-35.02 1.24-35.7M91.94 91.35c0 3.11-2.53 5.65-5.65 5.65H63.71c-3.11 0-5.65-2.53-5.65-5.65V71.59c0-3.11 2.53-5.65 5.65-5.65v-5.65C63.71 54.05 68.76 49 75 49s11.29 5.05 11.29 11.29v5.65c3.11 0 5.65 2.53 5.65 5.65z" class="st1"/></g></g></svg>