<?xml version="1.0" encoding="UTF-8"?>
<svg id="Ebene_1" xmlns="http://www.w3.org/2000/svg" version="1.1" viewBox="0 0 150 150">
  <!-- Generator: Adobe Illustrator 29.4.0, SVG Export Plug-In . SVG Version: 2.1.0 Build 152)  -->
  <defs>
    <style>
      .st0 {
        fill: #fff;
      }

      .st1 {
        display: none;
      }
    </style>
  </defs>
  <g id="Klassenraum__x2013__Meine_Projekte">
    <g id="Datei_x2C__Zahnrad">
      <path class="st0" d="M91.57,124.89l-.12-.58v-2.82s-.05-.02-.07-.04l-2.45,1.42-.58.19c-.91.3-1.85.46-2.81.46-3.17,0-6.12-1.71-7.7-4.46l-2.69-4.67c-2.1-3.65-1.34-8.31,1.81-11.09l.46-.41,2.22-1.27v-.31l-2.23-1.29-.45-.4c-3.13-2.78-3.89-7.43-1.81-11.07l2.71-4.69c1.58-2.74,4.53-4.45,7.7-4.45.95,0,1.9.15,2.8.45l.59.2,2.44,1.42.05-.03v-2.83l.12-.59c.83-4.12,4.5-7.11,8.71-7.11h5.4c3.17,0,6.02,1.69,7.6,4.29v-17.24c0-3.39-1.33-6.63-3.73-9.03l-21.24-21.22c-2.39-2.39-5.62-3.73-9.01-3.73h-29.79c-7.03,0-12.75,5.72-12.75,12.75v76.51c0,7.03,5.72,12.75,12.75,12.75h42.38c-.12-.36-.23-.73-.31-1.11ZM78.19,35.65l23.41,23.41h-18.63c-2.65,0-4.78-2.13-4.78-4.78,0,0,0-18.63,0-18.63Z"/>
      <path class="st0" d="M97.43,79.22c.27-1.34,1.45-2.3,2.82-2.3h5.4c1.37,0,2.55.97,2.82,2.3v5.83c1.26.54,4.85,2.61,5.94,3.43l5.04-2.91c1.3-.43,2.72.11,3.41,1.3l2.7,4.67c.69,1.19.44,2.69-.59,3.6l-5.04,2.89c.08.67.35,2.74.35,3.43s-.28,2.75-.35,3.42l5.05,2.91c1.03.91,1.26,2.42.59,3.6l-2.7,4.67c-.69,1.18-2.11,1.73-3.41,1.3l-5.04-2.93c-1.09.82-4.69,2.89-5.95,3.44l.03,5.83c-.28,1.34-1.46,2.3-2.82,2.3h-5.4c-1.37,0-2.55-.97-2.82-2.3v-5.83c-1.29-.54-4.85-2.6-5.94-3.42l-5.05,2.92c-1.3.43-2.72-.11-3.41-1.3l-2.7-4.67c-.69-1.19-.44-2.69.59-3.6l5.05-2.89c-.08-.67-.35-2.75-.35-3.44s.27-2.75.34-3.41l-5.04-2.92c-1.03-.91-1.26-2.42-.59-3.6l2.7-4.67c.69-1.19,2.11-1.73,3.41-1.3l5.03,2.93c1.09-.82,4.69-2.89,5.95-3.44v-5.83h-.02ZM102.96,111.08c5.32-.02,9.61-4.34,9.59-9.66-.02-5.32-4.34-9.61-9.66-9.59-5.32.02-9.61,4.34-9.59,9.66.02,5.32,4.34,9.61,9.66,9.59h0Z"/>
    </g>
    <g id="Ordner" class="st1">
      <rect class="st0" x="24" y="72.27" width="101.82" height="53.73" rx="8" ry="8"/>
      <path class="st0" d="M38.87,51.46h72.09c2.98,0,5.4,2.42,5.4,5.4h0c0,2.98-2.42,5.4-5.4,5.4H38.87c-2.98,0-5.4-2.42-5.4-5.4h0c0-2.98,2.42-5.4,5.4-5.4Z"/>
      <rect class="st0" x="42.81" y="31.34" width="64.19" height="9.42" rx="4.71" ry="4.71"/>
    </g>
    <g id="Ordner_x2C__Person" class="st1">
      <path class="st0" d="M38.87,51.46h72.09c2.98,0,5.4,2.42,5.4,5.4h0c0,2.98-2.42,5.4-5.4,5.4H38.87c-2.98,0-5.4-2.42-5.4-5.4h0c0-2.98,2.42-5.4,5.4-5.4Z"/>
      <rect class="st0" x="42.81" y="31.34" width="64.19" height="9.42" rx="4.71" ry="4.71"/>
      <path class="st0" d="M117.82,72.27H32c-4.42,0-8,3.58-8,8v37.73c0,4.42,3.58,8,8,8h85.82c4.42,0,8-3.58,8-8v-37.73c0-4.42-3.58-8-8-8ZM75,82.07c4.44,0,8.04,3.6,8.04,8.04s-3.6,8.04-8.04,8.04-8.04-3.6-8.04-8.04,3.6-8.04,8.04-8.04ZM86.94,115.82h-23.88c-1.1,0-1.99-.89-1.99-1.99,0-6.6,5.34-11.94,11.94-11.94h3.98c6.6,0,11.94,5.34,11.94,11.94,0,1.1-.89,1.99-1.99,1.99Z"/>
    </g>
  </g>
</svg>