<?xml version="1.0" encoding="UTF-8"?>
<svg id="Ebene_1" xmlns="http://www.w3.org/2000/svg" version="1.1" viewBox="0 0 150 150">
  <!-- Generator: Adobe Illustrator 29.4.0, SVG Export Plug-In . SVG Version: 2.1.0 Build 152)  -->
  <defs>
    <style>
      .st0 {
        display: none;
      }

      .st0, .st1 {
        fill: #fff;
      }
    </style>
  </defs>
  <g id="Benutzeroberfläche">
    <g>
      <path class="st1" d="M113.24,52.94c-5.41-13.41-16.93-23.68-31.1-27.43,4.61,6.19,8.2,15.87,10,27.43h21.1Z"/>
      <path class="st1" d="M85.13,58.73h-31.57c-.38,3.69-.6,7.56-.6,11.58s.2,7.89.6,11.58h22.83c-.28-1.45-.43-2.94-.43-4.46,0-7.59,3.6-14.36,9.17-18.7Z"/>
      <path class="st1" d="M86.29,52.94c-1.1-6.6-2.79-12.43-4.88-17.13-1.9-4.27-4.02-7.36-6.06-9.32-2.03-1.92-3.71-2.5-5.03-2.5s-3,.58-5.03,2.5c-2.04,1.95-4.16,5.05-6.06,9.32-2.08,4.72-3.78,10.55-4.88,17.13h31.95-.01Z"/>
      <path class="st1" d="M58.48,25.52c-14.18,3.74-25.69,14.02-31.12,27.43h21.11c1.81-11.56,5.39-21.24,10-27.43h0Z"/>
      <path class="st1" d="M27.36,87.68c5.43,13.41,16.93,23.68,31.12,27.43-4.61-6.19-8.2-15.87-10-27.43h-21.12Z"/>
      <path class="st1" d="M65.28,114.13c.18.17.35.31.52.46,2.32-9.1,8.65-16.62,17.01-20.51-1.84-1.86-3.37-4.02-4.52-6.4h-23.96c1.1,6.59,2.79,12.41,4.88,17.11v.02c1.9,4.27,4.02,7.36,6.06,9.32h0Z"/>
      <path class="st1" d="M47.15,70.31c0-3.98.2-7.85.58-11.58h-22.27c-.96,3.71-1.47,7.58-1.47,11.58s.51,7.87,1.47,11.58h22.27c-.38-3.73-.58-7.6-.58-11.58Z"/>
      <path class="st1" d="M99.64,92.61c8.38,0,15.18-6.8,15.18-15.18s-6.8-15.18-15.18-15.18-15.18,6.8-15.18,15.18,6.8,15.18,15.18,15.18ZM95.88,99.69c-12.46,0-22.55,10.09-22.55,22.55,0,2.07,1.68,3.76,3.76,3.76h45.11c2.07,0,3.76-1.68,3.76-3.76,0-12.46-10.09-22.55-22.55-22.55h-7.53Z"/>
    </g>
    <path class="st0" d="M94.13,75c0,4.42-.24,8.69-.66,12.75h-36.92c-.44-4.06-.66-8.33-.66-12.75s.24-8.69.66-12.75h36.92c.44,4.06.66,8.33.66,12.75ZM99.86,62.25h24.53c1.06,4.08,1.61,8.35,1.61,12.75s-.56,8.67-1.61,12.75h-24.53c.42-4.1.64-8.37.64-12.75s-.22-8.65-.64-12.75ZM122.3,55.87h-23.25c-1.99-12.73-5.94-23.39-11.02-30.2,15.6,4.12,28.29,15.44,34.25,30.2h.02ZM92.59,55.87h-35.18c1.22-7.25,3.09-13.67,5.38-18.87,2.09-4.7,4.42-8.11,6.67-10.26,2.23-2.11,4.08-2.75,5.54-2.75s3.31.64,5.54,2.75c2.25,2.15,4.58,5.56,6.67,10.26,2.31,5.18,4.16,11.6,5.38,18.87ZM50.95,55.87h-23.25c5.98-14.76,18.65-26.08,34.27-30.2-5.08,6.81-9.03,17.47-11.02,30.2h0ZM25.61,62.25h24.53c-.42,4.1-.64,8.37-.64,12.75s.22,8.65.64,12.75h-24.53c-1.06-4.08-1.61-8.35-1.61-12.75s.56-8.67,1.61-12.75ZM62.79,112.97c-2.31-5.18-4.16-11.6-5.38-18.85h35.18c-1.22,7.25-3.09,13.67-5.38,18.85-2.09,4.7-4.42,8.11-6.67,10.26-2.23,2.13-4.08,2.77-5.54,2.77s-3.31-.64-5.54-2.75c-2.25-2.15-4.58-5.56-6.67-10.26v-.02ZM50.95,94.13c1.99,12.73,5.94,23.39,11.02,30.2-15.62-4.12-28.29-15.44-34.27-30.2,0,0,23.25,0,23.25,0ZM122.3,94.13c-5.98,14.76-18.65,26.08-34.25,30.2,5.08-6.81,9.01-17.47,11.02-30.2h23.25s-.02,0-.02,0Z"/>
  </g>
</svg>