<svg xmlns="http://www.w3.org/2000/svg" viewBox="0 0 150 150"><path d="M36.79 36.79c0-7.03 5.71-12.74 12.74-12.74h42.49c3.38 0 6.63 1.33 9.02 3.72l8.46 8.46c2.39 2.39 3.72 5.63 3.72 9.02v7.46H36.79zM24.05 75c0-7.03 5.71-12.74 12.74-12.74h76.43c7.03 0 12.74 5.71 12.74 12.74v19.11c0 3.52-2.85 6.37-6.37 6.37h-6.37v12.74c0 7.03-5.71 12.74-12.74 12.74H49.53c-7.03 0-12.74-5.71-12.74-12.74v-12.74h-6.37c-3.52 0-6.37-2.85-6.37-6.37zm25.47 31.84v6.37h50.95V94.1H49.52zm65.28-28.66c0-2.65-2.13-4.78-4.78-4.78s-4.78 2.13-4.78 4.78 2.13 4.78 4.78 4.78 4.78-2.13 4.78-4.78" style="fill:#fff"/></svg>