<svg xmlns="http://www.w3.org/2000/svg" viewBox="0 0 150 150"><path d="M123.22 68.38c1.47-.42 2.78-1.43 2.78-2.71v-9.33c0-5.15-5.08-9.33-11.33-9.33h-12.08c.08.29.14.59.14.91v10.62c0 1.86-1.51 3.36-3.36 3.36s-3.36-1.51-3.36-3.36V47.92c0-.32.06-.62.14-.91H35.34c-6.25 0-11.33 4.19-11.33 9.33v9.33c0 1.28 1.31 2.29 2.78 2.71 3.33.95 5.72 3.56 5.72 6.62s-2.39 5.67-5.72 6.62c-1.47.42-2.78 1.43-2.78 2.71v9.33c0 5.15 5.08 9.33 11.33 9.33h60.81c-.08-.29-.14-.59-.14-.91V91.46c0-1.86 1.51-3.36 3.36-3.36s3.36 1.51 3.36 3.36v10.62c0 .32-.06.62-.14.91h12.08c6.25 0 11.33-4.19 11.33-9.33v-9.33c0-1.28-1.31-2.29-2.78-2.71-3.33-.95-5.72-3.56-5.72-6.62s2.39-5.67 5.72-6.62m-77.5-7.74h17.91c1.86 0 3.36 1.51 3.36 3.36s-1.51 3.36-3.36 3.36H45.72c-1.86 0-3.36-1.51-3.36-3.36s1.51-3.36 3.36-3.36M75 89.36H45.72c-1.86 0-3.36-1.51-3.36-3.36s1.51-3.36 3.36-3.36H75c1.86 0 3.36 1.51 3.36 3.36s-1.51 3.36-3.36 3.36m0-11H45.72c-1.86 0-3.36-1.51-3.36-3.36s1.51-3.36 3.36-3.36H75c1.86 0 3.36 1.51 3.36 3.36s-1.51 3.36-3.36 3.36m27.73 1.95c0 1.86-1.51 3.36-3.36 3.36s-3.36-1.51-3.36-3.36V69.69c0-1.86 1.51-3.36 3.36-3.36s3.36 1.51 3.36 3.36z" style="fill:#fff"/></svg>