<?xml version="1.0" encoding="UTF-8"?>
<svg id="Ebene_1" xmlns="http://www.w3.org/2000/svg" version="1.1" viewBox="0 0 150 150">
  <!-- Generator: Adobe Illustrator 29.4.0, SVG Export Plug-In . SVG Version: 2.1.0 Build 152)  -->
  <defs>
    <style>
      .st0 {
        fill: #fff;
      }
    </style>
  </defs>
  <g id="Klassenraum__x2013__Passwörter_drucken">
    <path class="st0" d="M36.79,36.79c0-7.03,5.71-12.74,12.74-12.74h42.49c3.38,0,6.63,1.33,9.02,3.72l8.46,8.46c2.39,2.39,3.72,5.63,3.72,9.02v7.46H36.79v-15.92ZM24.05,75c0-7.03,5.71-12.74,12.74-12.74h76.43c7.03,0,12.74,5.71,12.74,12.74v19.11c0,3.52-2.85,6.37-6.37,6.37h-6.37v12.74c0,7.03-5.71,12.74-12.74,12.74h-50.95c-7.03,0-12.74-5.71-12.74-12.74v-12.74h-6.37c-3.52,0-6.37-2.85-6.37-6.37,0,0,0-19.11,0-19.11ZM49.52,106.84v6.37h50.95v-19.11h-50.95v12.74ZM114.8,78.18c0-2.65-2.13-4.78-4.78-4.78s-4.78,2.13-4.78,4.78,2.13,4.78,4.78,4.78,4.78-2.13,4.78-4.78Z"/>
  </g>
</svg>