<?xml version="1.0" encoding="UTF-8"?>
<svg id="Frame" xmlns="http://www.w3.org/2000/svg" version="1.1" viewBox="0 0 150 150">
  <!-- Generator: Adobe Illustrator 29.4.0, SVG Export Plug-In . SVG Version: 2.1.0 Build 152)  -->
  <defs>
    <style>
      .st0 {
        fill: #fff;
      }
    </style>
  </defs>
  <rect class="st0" x="115.22" y="83.43" width="10.73" height="9.64"/>
  <path class="st0" d="M115.22,53.31h10.73v-10.95c0-3.33-2.7-6.02-6.02-6.02h-4.7v16.98Z"/>
  <rect class="st0" x="115.22" y="70.18" width="10.73" height="9.64"/>
  <path class="st0" d="M115.22,96.69v16.98h4.7c3.33,0,6.02-2.7,6.02-6.02v-10.95h-10.73Z"/>
  <rect class="st0" x="115.22" y="56.92" width="10.73" height="9.64"/>
  <path class="st0" d="M30.07,36.33c-3.33,0-6.02,2.7-6.02,6.02v65.28c0,3.33,2.7,6.02,6.02,6.02h81.53V36.33H30.07ZM49.66,78.57l21.73-21.73c.71-.71,1.85-.71,2.56,0s.71,1.85,0,2.56l-21.73,21.73c-.71.71-1.85.71-2.56,0-.71-.71-.71-1.85,0-2.56ZM85.88,71.32l-21.73,21.73c-.71.71-1.85.71-2.56,0-.71-.71-.71-1.85,0-2.56l21.73-21.73c.71-.71,1.85-.71,2.56,0s.71,1.85,0,2.56ZM87.62,57.76l-37.03,37.03c-.71.71-1.85.71-2.56,0-.71-.71-.71-1.85,0-2.56l37.03-37.03c.71-.71,1.85-.71,2.56,0s.71,1.85,0,2.56Z"/>
</svg>