<svg xmlns="http://www.w3.org/2000/svg" id="Chat" version="1.1" viewBox="0 0 150 150"><defs><style>.st0{fill:#fff}</style></defs><g id="Neu"><path d="M91.95 55.22c0-17.16-15.19-31.08-33.9-31.08s-33.9 13.91-33.9 31.08c0 6.99 2.52 13.45 6.78 18.65l-6.29 11.87c-.88 1.64-.58 3.67.74 4.98s3.34 1.61 4.98.74l14.41-7.63c4.08 1.59 8.56 2.47 13.28 2.47 18.72 0 33.9-13.91 33.9-31.08" class="st0"/><path d="M119.08 107.77c4.26-5.19 6.78-11.65 6.78-18.65 0-14.55-10.89-26.75-25.6-30.14-2.03 20.45-20.45 35.53-41.64 35.79 2.9 14.46 16.72 25.43 33.34 25.43 4.71 0 9.2-.88 13.28-2.47l14.41 7.63c1.64.88 3.67.58 4.98-.74a4.25 4.25 0 0 0 .74-4.98z" class="st0"/></g></svg>