<svg xmlns="http://www.w3.org/2000/svg" viewBox="0 0 150 150"><path d="M115.22 83.43h10.73v9.64h-10.73zm0-30.12h10.73V42.36c0-3.33-2.7-6.02-6.02-6.02h-4.7v16.98Zm0 16.87h10.73v9.64h-10.73zm0 26.51v16.98h4.7c3.33 0 6.02-2.7 6.02-6.02V96.7h-10.73Zm0-39.77h10.73v9.64h-10.73zM24.05 70.18h21.38v9.64H24.05zm0-13.26h21.38v9.64H24.05zm0 26.51h21.38v9.64H24.05zm21.38-30.12V36.33H30.08a6.02 6.02 0 0 0-6.02 6.02V53.3h21.38Zm0 43.38H24.05v10.95c0 3.33 2.7 6.02 6.02 6.02h15.35V96.68Zm3.61-60.36v77.33h62.56V36.33zm29.48 47.1H60.87a1.81 1.81 0 1 1 0-3.62h17.65a1.81 1.81 0 1 1 0 3.62m21.26-13.25H60.87a1.81 1.81 0 1 1 0-3.62h38.91a1.81 1.81 0 1 1 0 3.62m0-13.26H60.87a1.81 1.81 0 1 1 0-3.62h38.91a1.81 1.81 0 1 1 0 3.62" style="fill:#fff"/></svg>