<svg xmlns="http://www.w3.org/2000/svg" id="Infoboard" version="1.1" viewBox="0 0 150 150"><defs><style>.st0{fill:#fff}</style></defs><path id="Brett_2" d="M120.97 40.46H29.03c-2.76 0-5 2.35-5 5.26v58.56c0 2.9 2.24 5.26 5 5.26h91.95c2.76 0 5-2.35 5-5.26V45.72c0-2.9-2.24-5.26-5-5.26Zm-44 16.9 17.48-.8 1.6 35.02-40.5 1.85-1.6-35.02 16.74-.76z" class="st0"/><circle cx="74.51" cy="67.29" r="2.55" class="st0"/><path d="m71.56 72.54 3.83-.18c1.06-.05 1.95.76 2 1.82l.33 7.01.64-.03c1.06-.05 1.95.76 2 1.82s-.76 1.95-1.82 2l-6.38.3c-1.06.05-1.95-.76-2-1.82s.76-1.95 1.82-2l1.91-.09-.24-5.1-1.91.09c-1.06.05-1.95-.76-2-1.82s.76-1.95 1.82-2" class="st0"/></svg>