<svg xmlns="http://www.w3.org/2000/svg" id="Ebene_1" version="1.1" viewBox="0 0 150 150"><defs><style>.st0{fill:#fff}</style></defs><path d="M75 61.91c-6.01 0-10.88 4.87-10.88 10.88S68.99 83.67 75 83.67s10.88-4.87 10.88-10.88S81.01 61.91 75 61.91m1.87 17.88c-3.87 1.04-7.85-1.26-8.89-5.13-.23-.84-.29-1.68-.22-2.51.71.41 1.53.63 2.4.63 2.67 0 4.84-2.17 4.84-4.84 0-.88-.23-1.69-.63-2.4 3.45-.3 6.72 1.9 7.64 5.35 1.04 3.87-1.26 7.85-5.13 8.89Z" class="st0"/><path d="M123.05 98.08h-7.16V51.57h-.03c-.26-5.41-4.73-9.74-10.21-9.74H44.3c-5.48 0-9.95 4.33-10.21 9.74h-.02v46.5h.02-7.16a3.086 3.086 0 0 0-3.07 3.08c0 6.77 5.5 7.03 12.27 7.03h77.71c6.77 0 12.27-.26 12.27-7.03a3.07 3.07 0 0 0-3.07-3.07ZM96.58 73.72c-1.13 2.7-3.49 6.62-7.03 9.91-3.56 3.31-8.45 6.09-14.55 6.09s-10.99-2.79-14.55-6.09c-3.54-3.28-5.9-7.21-7.03-9.91a2.4 2.4 0 0 1 0-1.86c1.13-2.7 3.49-6.62 7.03-9.91 3.56-3.31 8.45-6.09 14.55-6.09s10.99 2.79 14.55 6.09c3.54 3.28 5.9 7.21 7.03 9.91.25.6.25 1.26 0 1.86" class="st0"/></svg>