<?xml version="1.0" encoding="UTF-8"?>
<svg id="Ebene_1" xmlns="http://www.w3.org/2000/svg" version="1.1" viewBox="0 0 150 150">
  <!-- Generator: Adobe Illustrator 29.4.0, SVG Export Plug-In . SVG Version: 2.1.0 Build 152)  -->
  <defs>
    <style>
      .st0 {
        fill: none;
        stroke: #fff;
        stroke-miterlimit: 10;
        stroke-width: 3px;
      }

      .st1 {
        fill: #fff;
      }

      .st2 {
        display: none;
      }
    </style>
  </defs>
  <g id="VPN">
    <g id="Oberfläche_Schloss" class="st2">
      <path class="st1" d="M122.25,55.89c-5.95-14.76-18.64-26.07-34.23-30.19,5.08,6.81,9.02,17.47,11.01,30.19,0,0,23.22,0,23.22,0Z"/>
      <path class="st1" d="M92.58,55.89h.02c-1.22-7.27-3.07-13.68-5.38-18.86-2.09-4.69-4.42-8.1-6.67-10.25-2.23-2.11-4.08-2.75-5.54-2.75s-3.31.64-5.54,2.75c-2.25,2.15-4.58,5.55-6.67,10.25-2.29,5.2-4.17,11.61-5.38,18.86h35.16Z"/>
      <path class="st1" d="M125.93,73.69c-.1-3.93-.62-7.76-1.57-11.43h-6.62c3.85,2.79,6.76,6.78,8.19,11.43Z"/>
      <path class="st1" d="M82.69,80.16c0-7.35,3.61-13.88,9.16-17.9h-35.28c-.42,4.06-.66,8.32-.66,12.74s.22,8.68.66,12.74h20.57c1.24-2.56,3.17-4.72,5.56-6.22v-1.36h-.01Z"/>
      <path class="st1" d="M75.64,118.95v-24.83h-18.23c1.22,7.25,3.07,13.66,5.38,18.84h-.02v.02c2.09,4.69,4.42,8.1,6.67,10.25,2.23,2.11,4.08,2.75,5.54,2.75.65,0,1.38-.14,2.18-.47-.97-1.99-1.53-4.21-1.53-6.56h0Z"/>
      <path class="st1" d="M61.98,25.7c-15.61,4.13-28.28,15.44-34.25,30.19h23.24c1.99-12.73,5.93-23.38,11.01-30.19Z"/>
      <path class="st1" d="M27.73,94.12c5.97,14.76,18.64,26.07,34.25,30.19-5.08-6.81-9.02-17.47-11.01-30.19h-23.24Z"/>
      <path class="st1" d="M49.51,75.01c0-4.38.22-8.64.64-12.74h-24.51c-1.05,4.08-1.61,8.34-1.61,12.74s.55,8.66,1.61,12.74h24.51c-.42-4.1-.64-8.36-.64-12.74Z"/>
      <path class="st1" d="M118.88,87.22v-7.05c0-7.79-6.31-14.1-14.1-14.1s-14.1,6.31-14.1,14.1v7.05c-3.89,0-7.05,3.16-7.05,7.05v24.68c0,3.89,3.16,7.05,7.05,7.05h28.21c3.89,0,7.05-3.16,7.05-7.05v-24.68c0-3.89-3.16-7.05-7.05-7.05h-.01ZM111.82,87.22h-14.1v-7.05c0-3.89,3.16-7.05,7.05-7.05s7.05,3.16,7.05,7.05c0,0,0,7.05,0,7.05Z"/>
    </g>
    <g id="Netzwerk_Schloss" class="st2">
      <circle class="st1" cx="75.09" cy="115.24" r="10.77"/>
      <circle class="st1" cx="113.57" cy="35.47" r="11.47"/>
      <circle class="st1" cx="36.27" cy="96.28" r="11.3"/>
      <circle class="st1" cx="42.29" cy="41.53" r="7.02"/>
      <circle class="st1" cx="109.45" cy="91.49" r="6.07"/>
      <line class="st0" x1="46.49" y1="45.91" x2="63.41" y2="62.46"/>
      <line class="st0" x1="84.43" y1="77.36" x2="105.07" y2="88.96"/>
      <line class="st0" x1="85.51" y1="62.46" x2="105.2" y2="42.31"/>
      <line class="st0" x1="44.36" y1="89.75" x2="63.11" y2="77.21"/>
      <line class="st0" x1="74.64" y1="83.64" x2="74.64" y2="105.43"/>
      <path class="st1" d="M86.16,56.63v-5.65c0-6.24-5.05-11.29-11.29-11.29s-11.29,5.05-11.29,11.29v5.65c-3.11,0-5.65,2.53-5.65,5.65v19.76c0,3.11,2.53,5.65,5.65,5.65h22.58c3.11,0,5.65-2.53,5.65-5.65v-19.76c0-3.11-2.53-5.65-5.65-5.65ZM80.52,56.63h-11.29v-5.65c0-3.11,2.53-5.65,5.65-5.65s5.65,2.53,5.65,5.65v5.65h-.01Z"/>
    </g>
    <g id="Netzwerk_Schloss_innen" class="st2">
      <circle class="st1" cx="75.09" cy="115.24" r="10.77"/>
      <circle class="st1" cx="113.57" cy="35.47" r="11.47"/>
      <circle class="st1" cx="36.27" cy="96.28" r="11.3"/>
      <circle class="st1" cx="42.29" cy="41.53" r="7.02"/>
      <circle class="st1" cx="109.45" cy="91.49" r="6.07"/>
      <line class="st0" x1="46.49" y1="45.91" x2="63.41" y2="62.46"/>
      <line class="st0" x1="85.51" y1="77.97" x2="105.07" y2="88.96"/>
      <line class="st0" x1="85.51" y1="62.46" x2="105.2" y2="42.31"/>
      <line class="st0" x1="44.36" y1="89.75" x2="63.11" y2="77.21"/>
      <line class="st0" x1="74.64" y1="83.64" x2="74.64" y2="105.43"/>
      <g>
        <path class="st1" d="M74.64,48.55c-5.87,0-11.2,2.34-15.1,6.13-4.05,3.94-6.56,9.44-6.56,15.53,0,11.96,9.7,21.66,21.66,21.66s21.66-9.7,21.66-21.66-9.7-21.66-21.66-21.66ZM84.05,80.42c0,1.73-1.41,3.14-3.14,3.14h-12.56c-1.73,0-3.14-1.41-3.14-3.14v-10.99c0-1.73,1.41-3.14,3.14-3.14v-3.14c0-3.47,2.81-6.28,6.28-6.28s6.28,2.81,6.28,6.28v3.14c1.73,0,3.14,1.41,3.14,3.14v10.99Z"/>
        <path class="st1" d="M74.64,60.01c-1.73,0-3.14,1.41-3.14,3.14v3.14h6.28v-3.14c0-1.73-1.41-3.14-3.14-3.14Z"/>
      </g>
    </g>
    <g id="Schild_Schloss">
      <path class="st1" d="M75,54.65c-3.11,0-5.65,2.53-5.65,5.65v5.65h11.29v-5.65c0-3.11-2.53-5.65-5.65-5.65h.01Z"/>
      <path class="st1" d="M118.16,40.21l-.16-1-43-15.21-43,15.21-.16,1c-.11.68-2.64,16.94,1.24,35.7,5.19,25.05,19.49,42.3,41.36,49.9l.56.2.56-.2c21.87-7.59,36.17-24.85,41.36-49.9,3.88-18.76,1.35-35.02,1.24-35.7ZM91.94,91.35c0,3.11-2.53,5.65-5.65,5.65h-22.58c-3.11,0-5.65-2.53-5.65-5.65v-19.76c0-3.11,2.53-5.65,5.65-5.65v-5.65c0-6.24,5.05-11.29,11.29-11.29s11.29,5.05,11.29,11.29v5.65c3.11,0,5.65,2.53,5.65,5.65v19.76Z"/>
    </g>
  </g>
</svg>