<svg xmlns="http://www.w3.org/2000/svg" viewBox="0 0 150 150"><path d="M75.17 59.37c7.34 0 13.29 5.96 13.29 13.29S82.5 85.95 75.17 85.95s-13.29-5.96-13.29-13.29 5.96-13.29 13.29-13.29m-28.63 9.2c5.09 0 9.2 4.12 9.2 9.2s-4.12 9.2-9.2 9.2-9.2-4.12-9.2-9.2 4.12-9.2 9.2-9.2m-12.27 41.92c0-9.04 7.32-16.36 16.36-16.36 1.64 0 3.22.24 4.72.69-4.2 4.7-6.76 10.91-6.76 17.71v2.04c0 1.46.31 2.84.86 4.09H38.37c-2.26 0-4.09-1.83-4.09-4.09v-4.09Zm66.63 8.18c.55-1.25.86-2.63.86-4.09v-2.04c0-6.8-2.56-13.01-6.76-17.71 1.5-.45 3.08-.69 4.72-.69 9.04 0 16.36 7.32 16.36 16.36v4.09c0 2.26-1.83 4.09-4.09 4.09h-11.08Zm-6.3-40.9c0-5.09 4.12-9.2 9.2-9.2s9.2 4.12 9.2 9.2-4.12 9.2-9.2 9.2-9.2-4.12-9.2-9.2m-39.88 34.77c0-11.3 9.15-20.45 20.45-20.45s20.45 9.15 20.45 20.45v2.04c0 2.26-1.83 4.09-4.09 4.09H58.81c-2.26 0-4.09-1.83-4.09-4.09z" style="fill:#fff"/><path d="M27.44 91.77v-2.16l.02-1.02v-.86l-.04-47.69c0-2.37 2.09-4.3 4.68-4.3h86.16c2.58 0 4.68 1.92 4.68 4.3l-.04 46.83v4.74" style="fill:none;stroke:#fff;stroke-linecap:round;stroke-miterlimit:10;stroke-width:6px"/></svg>