<svg xmlns="http://www.w3.org/2000/svg" viewBox="0 0 150 150"><path d="M94.12 75c0 4.42-.24 8.68-.66 12.74h-36.9c-.44-4.06-.66-8.32-.66-12.74s.24-8.68.66-12.74h36.9c.44 4.06.66 8.32.66 12.74m5.73-12.74h24.51c1.06 4.08 1.61 8.34 1.61 12.74s-.56 8.66-1.61 12.74H99.85c.42-4.1.64-8.36.64-12.74s-.22-8.64-.64-12.74m22.42-6.38H99.03C97.04 43.16 93.1 32.5 88.02 25.69c15.59 4.12 28.28 15.43 34.23 30.19zm-29.69 0H57.42c1.21-7.25 3.09-13.66 5.38-18.86 2.09-4.7 4.42-8.1 6.67-10.25 2.23-2.11 4.08-2.75 5.54-2.75s3.31.64 5.54 2.75c2.25 2.15 4.58 5.56 6.67 10.25 2.31 5.18 4.16 11.59 5.38 18.86zm-41.61 0H27.73c5.97-14.75 18.64-26.06 34.25-30.19-5.08 6.81-9.02 17.46-11.01 30.19m-25.33 6.38h24.51c-.42 4.1-.64 8.36-.64 12.74s.22 8.64.64 12.74H25.64c-1.06-4.08-1.61-8.34-1.61-12.74s.56-8.66 1.61-12.74m37.15 50.69c-2.31-5.18-4.16-11.59-5.38-18.84h35.16c-1.21 7.25-3.09 13.66-5.38 18.84-2.09 4.7-4.42 8.1-6.67 10.25-2.23 2.13-4.08 2.77-5.54 2.77s-3.31-.64-5.54-2.75c-2.25-2.15-4.58-5.56-6.67-10.25v-.02zM50.97 94.12c1.99 12.72 5.93 23.38 11.01 30.19-15.61-4.12-28.28-15.43-34.25-30.19zm71.3 0c-5.97 14.75-18.64 26.06-34.23 30.19 5.08-6.81 9-17.46 11.01-30.19h23.24z" style="fill:#fff"/></svg>