<svg xmlns="http://www.w3.org/2000/svg" viewBox="0 0 150 150"><path d="M63.51 28.78C64.07 26 66.53 24 69.38 24h11.21c2.85 0 5.31 2.01 5.87 4.78l-.02 12.11c2.64 1.13 10.1 5.42 12.35 7.13l10.47-6.06c2.7-.9 5.66.23 7.09 2.7l5.61 9.71a5.97 5.97 0 0 1-1.22 7.48l-10.48 6.01c.17 1.39.73 5.69.73 7.13s-.57 5.72-.72 7.11l10.49 6.05a6 6 0 0 1 1.22 7.48l-5.61 9.71c-1.43 2.46-4.39 3.6-7.09 2.7l-10.47-6.09c-2.27 1.71-9.74 6-12.37 7.14l.05 12.11a6 6 0 0 1-5.87 4.78H69.41c-2.85 0-5.31-2.01-5.87-4.78l-.03-12.12c-2.64-1.13-10.05-5.4-12.32-7.11l-10.49 6.06c-2.7.9-5.66-.23-7.09-2.7L28 95.62a5.97 5.97 0 0 1 1.22-7.48l10.49-6.02c-.17-1.39-.72-5.7-.72-7.15s.56-5.71.71-7.1L29.22 61.8A6 6 0 0 1 28 54.32l5.61-9.71a5.99 5.99 0 0 1 7.09-2.7l10.45 6.1c2.27-1.71 9.74-6 12.36-7.15V28.75zM75.01 95c11.05-.04 19.97-9.03 19.92-20.07-.04-11.05-9.03-19.97-20.07-19.92-11.05.04-19.97 9.03-19.92 20.07.04 11.05 9.03 19.97 20.07 19.92" style="fill:#fff"/></svg>