<svg xmlns="http://www.w3.org/2000/svg" id="Ebene_1" version="1.1" viewBox="0 0 150 150"><defs><style>.st0{fill:#fff}</style></defs><g id="Umfragen_-_offen"><path d="M84 86.48c-7.12 5.13-15.98 8.17-25.38 8.29 2.9 14.46 16.72 25.43 33.34 25.43 4.71 0 9.2-.88 13.28-2.47l14.41 7.63c1.64.88 3.67.58 4.98-.74a4.25 4.25 0 0 0 .74-4.98l-6.29-11.87c4.26-5.19 6.78-11.65 6.78-18.65 0-14.55-10.89-26.75-25.6-30.14-.88 8.83-4.81 16.65-10.7 22.72 0 0-2.97 3.07-5.55 4.78z" class="st0"/><path d="M58.05 24.14c-18.72 0-33.9 13.91-33.9 31.08 0 6.99 2.52 13.45 6.78 18.65l-6.29 11.87c-.88 1.64-.58 3.67.74 4.98s3.34 1.61 4.98.74l14.41-7.63c4.08 1.59 8.56 2.47 13.28 2.47 18.72 0 33.9-13.91 33.9-31.08s-15.19-31.08-33.9-31.08m0 48.45c-1.92 0-3.48-1.56-3.48-3.48s1.56-3.48 3.48-3.48 3.48 1.56 3.48 3.48-1.56 3.48-3.48 3.48m3.13-13.21s-.07.02-.09.04v.99c0 1.67-1.36 3.04-3.04 3.04s-3.04-1.36-3.04-3.04v-1.34c0-2.81 2.16-4.77 4.3-5.47a4.116 4.116 0 0 0-1.26-8.03 4.11 4.11 0 0 0-4.11 4.11c0 1.67-1.36 3.04-3.04 3.04s-3.04-1.36-3.04-3.04c0-5.62 4.57-10.19 10.19-10.19s10.19 4.57 10.19 10.19c0 4.44-2.84 8.34-7.06 9.7" class="st0"/></g></svg>