<?xml version="1.0" encoding="UTF-8"?>
<svg id="Weiterleitung" xmlns="http://www.w3.org/2000/svg" version="1.1" viewBox="0 0 150 150">
  <!-- Generator: Adobe Illustrator 29.4.0, SVG Export Plug-In . SVG Version: 2.1.0 Build 152)  -->
  <defs>
    <style>
      .st0 {
        fill: #fff;
      }
    </style>
  </defs>
  <rect class="st0" x="115.22" y="83.43" width="10.73" height="9.64"/>
  <path class="st0" d="M115.22,53.31h10.73v-10.95c0-3.33-2.7-6.02-6.02-6.02h-4.7v16.98Z"/>
  <rect class="st0" x="115.22" y="70.18" width="10.73" height="9.64"/>
  <path class="st0" d="M115.22,96.69v16.98h4.7c3.33,0,6.02-2.7,6.02-6.02v-10.95h-10.73Z"/>
  <rect class="st0" x="115.22" y="56.92" width="10.73" height="9.64"/>
  <path class="st0" d="M111.61,36.33H30.07c-3.33,0-6.02,2.7-6.02,6.02v65.28c0,3.33,2.7,6.02,6.02,6.02h81.53V36.33ZM88.05,99.75c-1.12,1.12-2.78,1.44-4.23.84s-2.39-2.03-2.39-3.59v-7.76h-40.75c-3.21,0-5.82-2.61-5.82-5.82v-28.24c0-3.21,2.61-5.82,5.82-5.82h3.88c3.21,0,5.82,2.61,5.82,5.82v18.53h31.05v-7.76c0-1.56.95-2.98,2.4-3.59,1.46-.61,3.12-.27,4.23.84l15.52,15.52h-.01c1.52,1.53,1.52,3.99,0,5.51l-15.52,15.52Z"/>
</svg>