<svg xmlns="http://www.w3.org/2000/svg" id="QR-Code" version="1.1" viewBox="0 0 150 150"><defs><style>.st0{fill:currentColor}</style></defs><path d="M71.27 40.46H40.16v31.11h31.11zm-4.32 26.78H44.49V44.78h22.46z" class="st0"/><path d="M48.97 49.26h13.5v13.5h-13.5zm29.71-8.8v31.11h31.11V40.46zm26.78 26.78H83V44.78h22.46z" class="st0"/><path d="M87.48 49.26h13.5v13.5h-13.5zm-47.32 60.25h31.11V78.4H40.16zm4.33-26.79h22.46v22.46H44.49z" class="st0"/><path d="M48.97 87.2h13.5v13.5h-13.5zm29.74-.01h8.8v4.47h-8.8zm0 8.94h4.4v13.41h-4.4zm13.21 8.94h4.4v4.47h-4.4zm4.4-4.25V87.19h-4.4v4.47h-4.4v13.41h4.4v-4.25zm13.46-4.71v-4.4h-9.15v9.03h4.7v-4.63zm-9.15 9.03h4.6v4.4h-4.6zm4.6-4.4h4.6v4.4h-4.6z" class="st0"/><path d="M96.3 87.35h4.48v-4.41h9.03V78.4H96.3zM78.71 78.4h8.8v4.47h-8.8zm8.8 4.47h4.4v4.33h-4.4zm-52.18-58.2C29.08 24.67 24 29.75 24 36v12.75c0 2.36 1.89 4.25 4.25 4.25s4.25-1.89 4.25-4.25V36c0-1.56 1.27-2.83 2.83-2.83h12.75c2.36 0 4.25-1.89 4.25-4.25s-1.89-4.25-4.25-4.25zm66.59 0c-2.36 0-4.25 1.89-4.25 4.25s1.89 4.25 4.25 4.25h12.75c1.56 0 2.83 1.27 2.83 2.83v12.75c0 2.36 1.89 4.25 4.25 4.25s4.25-1.89 4.25-4.25V36c0-6.25-5.08-11.33-11.33-11.33zM32.5 101.25c0-2.36-1.89-4.25-4.25-4.25S24 98.89 24 101.25V114c0 6.25 5.08 11.33 11.33 11.33h12.75c2.36 0 4.25-1.89 4.25-4.25s-1.89-4.25-4.25-4.25H35.33A2.84 2.84 0 0 1 32.5 114zm93.5 0c0-2.36-1.89-4.25-4.25-4.25s-4.25 1.89-4.25 4.25V114a2.84 2.84 0 0 1-2.83 2.83h-12.75c-2.36 0-4.25 1.89-4.25 4.25s1.89 4.25 4.25 4.25h12.75c6.25 0 11.33-5.08 11.33-11.33z" class="st0"/></svg>