<?xml version="1.0" encoding="UTF-8"?>
<svg id="Ebene_1" xmlns="http://www.w3.org/2000/svg" version="1.1" viewBox="0 0 150 150">
  <!-- Generator: Adobe Illustrator 29.4.0, SVG Export Plug-In . SVG Version: 2.1.0 Build 152)  -->
  <defs>
    <style>
      .st0 {
        display: none;
      }

      .st0, .st1 {
        fill: #fff;
      }
    </style>
  </defs>
  <g id="App_Store">
    <rect class="st1" x="24.02" y="23.99" width="44.27" height="44.27" rx="5" ry="5"/>
    <rect class="st1" x="24.02" y="81.73" width="44.27" height="44.27" rx="5" ry="5"/>
    <rect class="st1" x="81.73" y="81.73" width="44.27" height="44.27" rx="5" ry="5"/>
    <rect class="st0" x="81.73" y="23.99" width="44.27" height="44.27" rx="5" ry="5"/>
    <path class="st1" d="M107.03,27.15c0-1.75-1.41-3.16-3.16-3.16s-3.16,1.41-3.16,3.16v15.81h-15.81c-1.75,0-3.16,1.41-3.16,3.16s1.41,3.16,3.16,3.16h15.81v15.81c0,1.75,1.41,3.16,3.16,3.16s3.16-1.41,3.16-3.16v-15.81h15.81c1.75,0,3.16-1.41,3.16-3.16s-1.41-3.16-3.16-3.16h-15.81s0-15.81,0-15.81Z"/>
  </g>
</svg>