<svg xmlns="http://www.w3.org/2000/svg" id="Ebene_1" version="1.1" viewBox="0 0 150 150"><defs><style>.st0{fill:#fff}</style></defs><path d="M108.42 30.37v8.96c0 2.95-2.35 5.3-5.3 5.3s-5.3-2.35-5.3-5.3v-9.96H80.31v9.96c0 2.95-2.35 5.3-5.3 5.3s-5.3-2.35-5.3-5.3v-9.96H52.2v9.96c0 2.95-2.35 5.3-5.3 5.3s-5.3-2.35-5.3-5.3v-8.96c-8.65 2.6-14.96 10.51-14.96 19.96v54.78c0 11.61 9.41 20.96 20.96 20.96h54.78c11.61 0 20.96-9.41 20.96-20.96h.05V50.33c0-9.46-6.35-17.36-14.96-19.96ZM75.03 58.7c6.35 0 11.51 5.15 11.51 11.51s-5.15 11.51-11.51 11.51-11.51-5.15-11.51-11.51S68.67 58.7 75.03 58.7m17.71 47.82c0 1.95-1.6 3.55-3.55 3.55H60.82c-1.95 0-3.55-1.6-3.55-3.55v-1.75c0-9.8 7.94-17.74 17.74-17.76h-.03.05H75c9.79.01 17.74 7.96 17.74 17.76z" class="st0"/><path d="M100.54 26.48c0-1.4 1.15-2.55 2.55-2.55s2.55 1.15 2.55 2.55v12.46c0 1.4-1.15 2.55-2.55 2.55s-2.55-1.15-2.55-2.55zm-28.12 0c0-1.4 1.15-2.55 2.55-2.55s2.55 1.15 2.55 2.55v12.46c0 1.4-1.15 2.55-2.55 2.55s-2.55-1.15-2.55-2.55zm-28.06 0c0-1.4 1.15-2.55 2.55-2.55s2.55 1.15 2.55 2.55v12.46c0 1.4-1.15 2.55-2.55 2.55s-2.55-1.15-2.55-2.55z" class="st0"/></svg>