<?xml version="1.0" encoding="UTF-8"?>
<svg id="Ebene_1" xmlns="http://www.w3.org/2000/svg" version="1.1" viewBox="0 0 150 150">
  <!-- Generator: Adobe Illustrator 29.4.0, SVG Export Plug-In . SVG Version: 2.1.0 Build 152)  -->
  <defs>
    <style>
      .st0 {
        fill: #fff;
      }

      .st1 {
        display: none;
      }
    </style>
  </defs>
  <g id="Umfragen_-_offen">
    <g id="Alt2" class="st1">
      <path class="st0" d="M55.88,20.82c-18.05,0-32.68,14.63-32.68,32.68,0,6.63,1.98,12.79,5.37,17.94l-5.96,13.21c-1.14,2.52,1.45,5.11,3.97,3.97l13.92-6.28c4.59,2.45,9.82,3.85,15.39,3.85,18.05,0,32.68-14.63,32.68-32.68s-14.63-32.68-32.68-32.68h0ZM70.33,48.33l-15.11,16.97s0,.01-.02.02c-.24.27-.51.53-.82.75-2.24,1.61-5.37,1.09-6.98-1.15l-6.3-8.79c-1.61-2.24-1.09-5.37,1.15-6.98s5.37-1.09,6.98,1.15l2.66,3.7,10.98-12.33c1.84-2.06,5-2.25,7.06-.41s2.25,5,.41,7.06h-.01Z"/>
      <path class="st0" d="M122.67,54.1h-31.82c-.09,5.36-1.39,10.42-3.64,14.93.34.23.66.49.95.81l6.27,7.04,6.27-7.04c1.84-2.06,5-2.25,7.06-.41h0c2.06,1.84,2.25,5,.41,7.06l-7.04,7.91,7.04,7.91c1.84,2.06,1.65,5.22-.41,7.06h0c-2.06,1.84-5.22,1.65-7.06-.41l-6.27-7.04-6.27,7.04c-1.84,2.06-5,2.25-7.06.41s-2.25-5-.41-7.06l7.04-7.91-6.28-7.06c-5.25,5.62-12.31,9.51-20.27,10.71v21.64c0,2.76,2.24,5,5,5h23.45s.05.06.09.09l17.87,13.76c2.12,1.63,5.16-.12,4.81-2.77l-1.48-11.08h11.75c2.76,0,5-2.24,5-5v-50.6c0-2.76-2.24-5-5-5h0Z"/>
    </g>
    <g id="Halb1" class="st1">
      <path class="st0" d="M29,24h0c2.76,0,5,2.24,5,5v92.02c0,2.76-2.24,5-5,5h0c-2.76,0-5-2.24-5-5V29c0-2.76,2.24-5,5-5Z"/>
      <rect class="st0" x="29" y="61.12" width="96.95" height="27.77" rx="5" ry="5"/>
      <path class="st0" d="M99.22,33.35c1.65,0,3,1.35,3,3v17.77c0,1.65-1.35,3-3,3H34c-1.65,0-3-1.35-3-3v-17.77c0-1.65,1.35-3,3-3h65.22M99.22,31.35H34c-2.76,0-5,2.24-5,5v17.77c0,2.76,2.24,5,5,5h65.22c2.76,0,5-2.24,5-5v-17.77c0-2.76-2.24-5-5-5h0Z"/>
      <path class="st0" d="M60.17,92.89c1.65,0,3,1.35,3,3v17.77c0,1.65-1.35,3-3,3h-26.17c-1.65,0-3-1.35-3-3v-17.77c0-1.65,1.35-3,3-3h26.17M60.17,90.89h-26.17c-2.76,0-5,2.24-5,5v17.77c0,2.76,2.24,5,5,5h26.17c2.76,0,5-2.24,5-5v-17.77c0-2.76-2.24-5-5-5h0Z"/>
    </g>
    <g id="Kuchendiagramm1" class="st1">
      <path class="st0" d="M78.11,26.11c24.62,1.55,44.18,21.1,45.72,45.72h-45.72V26.11M76.11,24.02v49.81h49.81c-.6-27.25-22.56-49.21-49.81-49.81h0Z"/>
      <g>
        <path class="st0" d="M125.92,76.11h-47.77l40.48,25.15c4.45-7.37,7.09-15.96,7.29-25.15Z"/>
        <path class="st0" d="M71.84,26.11v51.11l.94.59,41.78,25.96c-9.22,12.67-23.87,20.18-39.59,20.18-27,0-48.97-21.97-48.97-48.98,0-12.89,4.97-25.06,13.99-34.26,8.53-8.7,19.77-13.84,31.85-14.6M73.84,24.02c-27.63.61-49.84,23.17-49.84,50.95s22.82,50.98,50.97,50.98c17.72,0,33.3-9.05,42.43-22.76l-43.57-27.07V24.02h0Z"/>
      </g>
    </g>
    <g id="Neu1" class="st1">
      <rect class="st0" x="24" y="92" width="30" height="34" rx="5" ry="5"/>
      <rect class="st0" x="60" y="24" width="30" height="102" rx="5" ry="5"/>
      <rect class="st0" x="96" y="58" width="30" height="68" rx="5" ry="5"/>
    </g>
    <path class="st0" d="M84,86.48c-7.12,5.13-15.98,8.17-25.38,8.29,2.9,14.46,16.72,25.43,33.34,25.43,4.71,0,9.2-.88,13.28-2.47l14.41,7.63c1.64.88,3.67.58,4.98-.74,1.31-1.32,1.61-3.34.74-4.98l-6.29-11.87c4.26-5.19,6.78-11.65,6.78-18.65,0-14.55-10.89-26.75-25.6-30.14-.88,8.83-4.81,16.65-10.7,22.72,0,0-2.97,3.07-5.55,4.78h-.01Z"/>
    <path class="st0" d="M58.05,24.14c-18.72,0-33.9,13.91-33.9,31.08,0,6.99,2.52,13.45,6.78,18.65l-6.29,11.87c-.88,1.64-.58,3.67.74,4.98s3.34,1.61,4.98.74l14.41-7.63c4.08,1.59,8.56,2.47,13.28,2.47,18.72,0,33.9-13.91,33.9-31.08s-15.19-31.08-33.9-31.08ZM58.05,72.59c-1.92,0-3.48-1.56-3.48-3.48s1.56-3.48,3.48-3.48,3.48,1.56,3.48,3.48-1.56,3.48-3.48,3.48ZM61.18,59.38s-.07.02-.09.04v.99c0,1.67-1.36,3.04-3.04,3.04s-3.04-1.36-3.04-3.04v-1.34c0-2.81,2.16-4.77,4.3-5.47,1.7-.55,2.85-2.13,2.85-3.92,0-2.27-1.84-4.11-4.11-4.11s-4.11,1.84-4.11,4.11c0,1.67-1.36,3.04-3.04,3.04s-3.04-1.36-3.04-3.04c0-5.62,4.57-10.19,10.19-10.19s10.19,4.57,10.19,10.19c0,4.44-2.84,8.34-7.06,9.7h0Z"/>
  </g>
</svg>