<?xml version="1.0" encoding="UTF-8"?>
<svg id="Whiteboard" xmlns="http://www.w3.org/2000/svg" version="1.1" viewBox="0 0 150 150">
  <!-- Generator: Adobe Illustrator 29.4.0, SVG Export Plug-In . SVG Version: 2.1.0 Build 152)  -->
  <defs>
    <style>
      .st0 {
        fill: #fff;
      }
    </style>
  </defs>
  <g id="V2">
    <path class="st0" d="M119.87,118.09l-5.4-3.53,10.85-16.59,5.4,3.53c1.63,1.06,2.77,2.73,3.17,4.64s.03,3.9-1.05,5.53l-2.81,4.29c-1.06,1.63-2.73,2.77-4.64,3.17s-3.9.03-5.53-1.05ZM110.39,111.89l-25.89-16.93c-1.29-.84-2.34-2.01-3.05-3.38l-6.18-11.98c-.4-.78-.36-1.72.13-2.46.49-.74,1.33-1.16,2.2-1.1l13.45.87c1.54.1,3.02.59,4.32,1.44l25.87,16.94-10.85,16.59Z"/>
    <path class="st0" d="M79.86,97.67h-38.86v-45.33h68v29.18l11.33,7.4v-36.58c0-6.25-5.08-11.33-11.33-11.33H41c-6.25,0-11.33,5.08-11.33,11.33v45.33c-3.13,0-5.67,2.53-5.67,5.67s2.53,5.67,5.67,5.67h67.55l-17.35-11.33Z"/>
  </g>
</svg>