<?xml version="1.0" encoding="UTF-8"?>
<svg id="Ebene_1" xmlns="http://www.w3.org/2000/svg" version="1.1" viewBox="0 0 150 150">
  <!-- Generator: Adobe Illustrator 29.4.0, SVG Export Plug-In . SVG Version: 2.1.0 Build 152)  -->
  <defs>
    <style>
      .st0 {
        fill: #fff;
      }
    </style>
  </defs>
  <g id="Sicherheit">
    <path class="st0" d="M118.66,40.21l-.16-1-43-15.21-43,15.21-.16,1c-.11.68-2.64,16.94,1.24,35.7,5.19,25.05,19.49,42.3,41.36,49.9l.56.2.56-.2c21.87-7.59,36.17-24.85,41.36-49.9,3.88-18.76,1.35-35.02,1.24-35.7ZM97.6,65.4l-24.07,24.07c-.98.98-2.28,1.45-3.56,1.43-1.29.02-2.58-.45-3.56-1.43l-12.01-12.01c-1.92-1.92-1.92-5.03,0-6.95l.6-.6c1.92-1.92,5.03-1.92,6.95,0l8.02,8.02,20.08-20.08c1.92-1.92,5.03-1.92,6.95,0l.6.6c1.92,1.92,1.92,5.03,0,6.95Z"/>
  </g>
</svg>