<svg xmlns="http://www.w3.org/2000/svg" id="Ebene_1" version="1.1" viewBox="0 0 150 150"><defs><style>.st1{fill:#fff}</style></defs><g id="Klassenraum__x2013__Einschreiben"><g id="Kreis_x2C__Pfeil"><path d="M93.44 77.62a3.71 3.71 0 0 0 0-5.25L74.89 53.82a3.712 3.712 0 1 0-5.25 5.25l12.22 12.22H27.71C25.66 71.29 24 72.95 24 75s1.66 3.71 3.71 3.71h54.15L69.64 90.93a3.712 3.712 0 1 0 5.25 5.25l18.55-18.55Z" class="st1"/><path d="M84.26 33.26c-19.71 0-36.22 13.66-40.59 32.03h23.7l-1.98-1.98c-1.83-1.83-2.84-4.27-2.84-6.87s1.01-5.03 2.84-6.87 4.27-2.84 6.87-2.84 5.03 1.01 6.87 2.84l18.55 18.55c3.06 3.06 3.65 7.68 1.76 11.34 0 0-.67 1.32-1.76 2.41l-18.55 18.55c-1.83 1.83-4.27 2.84-6.87 2.84s-5.03-1.01-6.87-2.84c-1.83-1.83-2.84-4.27-2.84-6.87s1.01-5.03 2.84-6.87l1.98-1.98h-23.7c4.38 18.37 20.89 32.03 40.59 32.03 23.05 0 41.74-18.69 41.74-41.74s-18.69-41.74-41.74-41.74Z" class="st1"/></g></g></svg>