<svg xmlns="http://www.w3.org/2000/svg" viewBox="0 0 150 150"><path d="m118.66 40.21-.16-1L75.5 24l-43 15.21-.16 1c-.11.68-2.64 16.94 1.24 35.7 5.19 25.05 19.49 42.3 41.36 49.9l.56.2.56-.2c21.87-7.59 36.17-24.85 41.36-49.9 3.88-18.76 1.35-35.02 1.24-35.7M97.6 65.4 73.53 89.47c-.98.98-2.28 1.45-3.56 1.43-1.29.02-2.58-.45-3.56-1.43L54.4 77.46a4.913 4.913 0 0 1 0-6.95l.6-.6a4.913 4.913 0 0 1 6.95 0l8.02 8.02 20.08-20.08a4.913 4.913 0 0 1 6.95 0l.6.6a4.913 4.913 0 0 1 0 6.95" style="fill:#fff"/></svg>