<?xml version="1.0" encoding="UTF-8"?>
<svg id="Klassenraum" xmlns="http://www.w3.org/2000/svg" version="1.1" viewBox="0 0 150 150">
  <!-- Generator: Adobe Illustrator 29.4.0, SVG Export Plug-In . SVG Version: 2.1.0 Build 152)  -->
  <defs>
    <style>
      .st0 {
        fill: #fff;
      }

      .st1 {
        fill: none;
        stroke: #fff;
        stroke-linecap: round;
        stroke-miterlimit: 10;
        stroke-width: 6px;
      }
    </style>
  </defs>
  <path class="st0" d="M75.17,59.37c7.34,0,13.29,5.96,13.29,13.29s-5.96,13.29-13.29,13.29-13.29-5.96-13.29-13.29,5.96-13.29,13.29-13.29ZM46.54,68.57c5.09,0,9.2,4.12,9.2,9.2s-4.12,9.2-9.2,9.2-9.2-4.12-9.2-9.2,4.12-9.2,9.2-9.2ZM34.27,110.49c0-9.04,7.32-16.36,16.36-16.36,1.64,0,3.22.24,4.72.69-4.2,4.7-6.76,10.91-6.76,17.71v2.04c0,1.46.31,2.84.86,4.09h-11.08c-2.26,0-4.09-1.83-4.09-4.09v-4.09ZM100.9,118.67c.55-1.25.86-2.63.86-4.09v-2.04c0-6.8-2.56-13.01-6.76-17.71,1.5-.45,3.08-.69,4.72-.69,9.04,0,16.36,7.32,16.36,16.36v4.09c0,2.26-1.83,4.09-4.09,4.09h-11.08ZM94.6,77.77c0-5.09,4.12-9.2,9.2-9.2s9.2,4.12,9.2,9.2-4.12,9.2-9.2,9.2-9.2-4.12-9.2-9.2ZM54.72,112.54c0-11.3,9.15-20.45,20.45-20.45s20.45,9.15,20.45,20.45v2.04c0,2.26-1.83,4.09-4.09,4.09h-32.72c-2.26,0-4.09-1.83-4.09-4.09v-2.04Z"/>
  <path class="st1" d="M27.44,91.77v-2.16s.02-1.02.02-1.02v-.86l-.04-47.69c0-2.37,2.09-4.3,4.68-4.3h86.16c2.58,0,4.68,1.92,4.68,4.3l-.04,46.83v2.58s0,2.16,0,2.16"/>
</svg>