<svg xmlns="http://www.w3.org/2000/svg" id="Ebene_1" version="1.1" viewBox="0 0 150 150"><defs><style>.st1{fill:#fff}</style></defs><g id="NCM"><g id="Laptop_Puls"><path d="m46.16 70.32 7.98-15.11c.48-.9 1.45-1.42 2.46-1.32s1.86.81 2.15 1.79l7.52 25.85 2.72-9.41c.31-1.07 1.29-1.8 2.4-1.8h5.97l10.42-15.35c.56-.83 1.57-1.24 2.55-1.05s1.76.96 1.96 1.94l5.24 25.07 2.97-8.9c.34-1.02 1.3-1.71 2.37-1.71h13.02V52.06c0-5.64-4.59-10.23-10.23-10.23H44.31c-5.64 0-10.23 4.59-10.23 10.23v18.26z" class="st1"/><path d="M123.06 98.07h-7.16V75.32h-11.21l-5.32 15.97A2.505 2.505 0 0 1 97 93h-.15a2.5 2.5 0 0 1-2.3-1.98l-5.93-28.36-7.86 11.57a2.5 2.5 0 0 1-2.07 1.1h-5.41l-4.6 15.88a2.496 2.496 0 0 1-2.4 1.8c-1.11 0-2.09-.73-2.4-1.8l-8.2-28.19L49.88 74a2.49 2.49 0 0 1-2.21 1.33H34.1v22.75h-7.16a3.07 3.07 0 0 0-3.07 3.07c0 6.77 5.5 7.03 12.27 7.03h77.71c6.77 0 12.27-.26 12.27-7.03a3.07 3.07 0 0 0-3.07-3.07h.01Z" class="st1"/></g></g></svg>