<?xml version="1.0" encoding="UTF-8"?>
<svg id="Eingebettet" xmlns="http://www.w3.org/2000/svg" version="1.1" viewBox="0 0 150 150">
  <!-- Generator: Adobe Illustrator 29.4.0, SVG Export Plug-In . SVG Version: 2.1.0 Build 152)  -->
  <defs>
    <style>
      .st0 {
        fill: #fff;
      }
    </style>
  </defs>
  <rect class="st0" x="115.22" y="83.43" width="10.73" height="9.64"/>
  <path class="st0" d="M115.22,53.31h10.73v-10.95c0-3.33-2.7-6.02-6.02-6.02h-4.7v16.98Z"/>
  <rect class="st0" x="115.22" y="70.18" width="10.73" height="9.64"/>
  <path class="st0" d="M115.22,96.69v16.98h4.7c3.33,0,6.02-2.7,6.02-6.02v-10.95h-10.73Z"/>
  <rect class="st0" x="115.22" y="56.92" width="10.73" height="9.64"/>
  <rect class="st0" x="24.05" y="70.18" width="21.38" height="9.64"/>
  <rect class="st0" x="24.05" y="56.92" width="21.38" height="9.64"/>
  <rect class="st0" x="24.05" y="83.43" width="21.38" height="9.64"/>
  <path class="st0" d="M45.43,53.31v-16.98h-15.35c-3.33,0-6.02,2.7-6.02,6.02v10.95h21.38Z"/>
  <path class="st0" d="M45.43,96.69h-21.38v10.95c0,3.33,2.7,6.02,6.02,6.02h15.35v-16.98Z"/>
  <path class="st0" d="M49.04,36.33v77.33h62.56V36.33h-62.56ZM78.52,83.43h-17.65c-1,0-1.81-.81-1.81-1.81s.81-1.81,1.81-1.81h17.65c1,0,1.81.81,1.81,1.81s-.81,1.81-1.81,1.81ZM99.78,70.18h-38.91c-1,0-1.81-.81-1.81-1.81s.81-1.81,1.81-1.81h38.91c1,0,1.81.81,1.81,1.81s-.81,1.81-1.81,1.81ZM99.78,56.92h-38.91c-1,0-1.81-.81-1.81-1.81s.81-1.81,1.81-1.81h38.91c1,0,1.81.81,1.81,1.81s-.81,1.81-1.81,1.81Z"/>
</svg>