<svg xmlns="http://www.w3.org/2000/svg" id="Ebene_1" version="1.1" viewBox="0 0 150 150"><defs><style>.st1{fill:#fff}</style></defs><g id="App_Store"><rect width="44.27" height="44.27" x="24.02" y="23.99" class="st1" rx="5" ry="5"/><rect width="44.27" height="44.27" x="24.02" y="81.73" class="st1" rx="5" ry="5"/><rect width="44.27" height="44.27" x="81.73" y="81.73" class="st1" rx="5" ry="5"/><path d="M107.03 27.15c0-1.75-1.41-3.16-3.16-3.16s-3.16 1.41-3.16 3.16v15.81H84.9c-1.75 0-3.16 1.41-3.16 3.16s1.41 3.16 3.16 3.16h15.81v15.81c0 1.75 1.41 3.16 3.16 3.16s3.16-1.41 3.16-3.16V49.28h15.81c1.75 0 3.16-1.41 3.16-3.16s-1.41-3.16-3.16-3.16h-15.81z" class="st1"/></g></svg>