<?xml version="1.0" encoding="UTF-8"?>
<svg xmlns="http://www.w3.org/2000/svg" xmlns:xlink="http://www.w3.org/1999/xlink" version="1.1" viewBox="0 0 150 150">
  <!-- Generator: Adobe Illustrator 29.4.0, SVG Export Plug-In . SVG Version: 2.1.0 Build 152)  -->
  <defs>
    <style>
      .st0, .st1, .st2 {
        display: none;
      }

      .st0, .st3 {
        fill: #333;
      }

      .st4 {
        fill: url(#Unbenannter_Verlauf_2);
      }

      .st5 {
        fill: #005fe8;
      }

      .st6 {
        fill: #b9ff45;
      }

      .st1, .st7 {
        fill: #fff;
      }

      .st8 {
        fill: #0081a2;
      }

      .st9 {
        stroke-linecap: round;
        stroke-width: 6px;
      }

      .st9, .st10 {
        fill: none;
        stroke: #fff;
        stroke-miterlimit: 10;
      }

      .st10 {
        stroke-width: 2px;
      }
    </style>
    <linearGradient id="Unbenannter_Verlauf_2" data-name="Unbenannter Verlauf 2" x1="0" y1="150" x2="150" y2="0" gradientUnits="userSpaceOnUse">
      <stop offset="0" stop-color="#8fc046"/>
      <stop offset="1" stop-color="#0081c6"/>
    </linearGradient>
  </defs>
  <g id="Ebene_1" class="st2">
    <rect class="st4" width="150" height="150"/>
  </g>
  <g id="Ebene_17" class="st2">
    <path class="st7" d="M229.18-96.96V-31.94l.11-.04c11.48-4.77,23.8-7.23,36.22-7.23h4.04v-67.27h-4.04c-8.87,0-17.68,1.77-25.88,5.17-3.53,1.47-7.02,2.92-10.45,4.35h0ZM223.91-113.74l5.28,2.21,5.28-2.21c9.84-4.1,20.39-6.2,31.05-6.2h7.4c5.57,0,10.09,4.52,10.09,10.09V-35.85c0,5.57-4.52,10.09-10.09,10.09h-7.4c-10.66,0-21.21,2.1-31.05,6.2l-2.69,1.11c-1.66.69-3.51.69-5.17,0l-2.69-1.11c-9.84-4.1-20.39-6.2-31.05-6.2h-7.4c-5.57,0-10.09-4.52-10.09-10.09v-74c0-5.57,4.52-10.09,10.09-10.09h7.4c10.66,0,21.21,2.1,31.05,6.2Z"/>
    <rect class="st5" x="269.55" y="-91.67" width="13.45" height="36"/>
    <rect class="st5" x="292.34" y="-91.67" width="6.73" height="36"/>
  </g>
  <g id="Ebene_18" class="st2">
    <path class="st7" d="M-150.75,70.47l-5.89,17.63v-50c0-8.82,7.17-15.98,15.98-15.98h34.64c3.45,0,6.82,1.12,9.59,3.2l9.59,7.19c1.37,1.05,3.07,1.6,4.79,1.6h29.29c8.82,0,15.98,7.17,15.98,15.98v4h-91.25c-10.31,0-19.48,6.59-22.75,16.38h.02ZM-45.41,126.02h-94.6c-8.19,0-13.96-8.02-11.36-15.78l11.99-35.96c1.62-4.89,6.22-8.19,11.36-8.19H-33.43c8.19,0,13.96,8.02,11.36,15.78l-11.99,35.96c-1.62,4.89-6.22,8.19-11.36,8.19Z"/>
    <rect class="st5" x="-100.84" y="41.35" width="13.45" height="36" transform="translate(-34.76 153.47) rotate(90)"/>
  </g>
  <g id="Dashboard" class="st2">
    <rect class="st7" x="24" y="24" width="44.27" height="63.95" rx="5" ry="5"/>
    <rect class="st7" x="81.73" y="63.33" width="44.22" height="62.68" rx="5" ry="5"/>
    <rect class="st7" x="81.73" y="24" width="44.22" height="25.88" rx="5" ry="5"/>
    <rect class="st7" x="24" y="101.4" width="44.27" height="24.6" rx="5" ry="5"/>
  </g>
  <g id="Infoboard" class="st2">
    <g id="Hänger" class="st2">
      <path class="st7" d="M28.42,64.65h0c-1.52-2.26-.86-5.28,1.47-6.76l43.21-27.28c2.33-1.47,5.45-.83,6.97,1.43h0c1.52,2.26.86,5.28-1.47,6.76l-43.21,27.28c-2.33,1.47-5.45.83-6.97-1.43Z"/>
      <path class="st7" d="M120.95,57.2H29c-2.76,0-5,2.24-5,5v55.71c0,2.76,2.24,5,5,5h91.95c2.76,0,5-2.24,5-5v-55.71c0-2.76-2.24-5-5-5ZM74.97,112.77c-12.54,0-22.71-10.17-22.71-22.71s10.17-22.71,22.71-22.71,22.71,10.17,22.71,22.71-10.17,22.71-22.71,22.71Z"/>
      <g>
        <rect class="st7" x="70.56" y="85.41" width="8.88" height="21.01" rx="4.44" ry="4.44"/>
        <circle class="st7" cx="74.98" cy="78.15" r="4.46"/>
      </g>
      <path class="st7" d="M122.87,65.13h0c1.52-2.26.86-5.28-1.47-6.76l-44.04-27.81c-2.33-1.47-5.45-.83-6.97,1.43h0c-1.52,2.26-.86,5.28,1.47,6.76l44.04,27.81c2.33,1.47,5.45.83,6.97-1.43Z"/>
      <circle class="st7" cx="74.98" cy="36.03" r="7.91"/>
    </g>
    <path class="st1" d="M75,24c-28.17,0-51,22.83-51,51s22.83,51,51,51,51-22.83,51-51-22.83-51-51-51ZM81.73,97.63c0,2.76-2.24,5-5,5h-3.45c-2.76,0-5-2.24-5-5v-26c0-2.76,2.24-5,5-5h3.45c2.76,0,5,2.24,5,5v26ZM75,60.82c-3.72,0-6.73-3.01-6.73-6.73s3.01-6.73,6.73-6.73,6.73,3.01,6.73,6.73-3.01,6.73-6.73,6.73Z"/>
    <g id="Brett" class="st2">
      <path class="st7" d="M120.95,38.96H29c-2.76,0-5,2.24-5,5v55.71c0,2.76,2.24,5,5,5h91.95c2.76,0,5-2.24,5-5v-55.71c0-2.76-2.24-5-5-5ZM74.97,94.53c-12.54,0-22.71-10.17-22.71-22.71s10.17-22.71,22.71-22.71,22.71,10.17,22.71,22.71-10.17,22.71-22.71,22.71Z"/>
      <g>
        <rect class="st7" x="70.56" y="67.17" width="8.88" height="21.01" rx="4.44" ry="4.44"/>
        <circle class="st7" cx="74.98" cy="59.91" r="4.46"/>
      </g>
      <rect class="st7" x="70.56" y="-17.17" width="8.88" height="112.25" rx="4.44" ry="4.44" transform="translate(113.96 -36.04) rotate(90)"/>
      <rect class="st7" x="70.56" y="48.55" width="8.88" height="112.25" rx="4.44" ry="4.44" transform="translate(179.67 29.67) rotate(90)"/>
      <rect class="st7" x="52.26" y="102.67" width="8.88" height="21.01" rx="4.44" ry="4.44"/>
      <rect class="st7" x="88.81" y="102.67" width="8.88" height="21.01" rx="4.44" ry="4.44"/>
    </g>
    <g id="Brett_2">
      <path class="st7" d="M120.97,40.46H29.03c-2.76,0-5,2.35-5,5.26v58.56c0,2.9,2.24,5.26,5,5.26h91.95c2.76,0,5-2.35,5-5.26v-58.56c0-2.9-2.24-5.26-5-5.26ZM76.56,61.09l13.79-.63,1.26,27.62-31.94,1.46-1.26-27.62,13.21-.6,4.95-.23Z"/>
    </g>
    <g id="Brett_3" class="st2">
      <g>
        <rect class="st7" x="48.69" y="75.69" width="5.06" height="11.98" rx="2.53" ry="2.53"/>
        <circle class="st7" cx="51.21" cy="71.56" r="2.54"/>
      </g>
      <g>
        <rect class="st7" x="98.07" y="61.5" width="5.06" height="11.98" rx="2.53" ry="2.53"/>
        <circle class="st7" cx="100.59" cy="57.36" r="2.54"/>
      </g>
      <rect class="st7" x="70.56" y="-17.17" width="8.88" height="112.25" rx="4.44" ry="4.44" transform="translate(113.96 -36.04) rotate(90)"/>
      <rect class="st7" x="70.56" y="48.55" width="8.88" height="112.25" rx="4.44" ry="4.44" transform="translate(179.67 29.67) rotate(90)"/>
      <path class="st7" d="M120.95,38.96H29c-2.76,0-5,2.24-5,5v55.71c0,2.76,2.24,5,5,5h91.95c2.76,0,5-2.24,5-5v-55.71c0-2.76-2.24-5-5-5ZM67.63,87.06c0,3.02-2.45,5.47-5.47,5.47h-21.88c-3.02,0-5.47-2.45-5.47-5.47v-17.44c0-3.02,2.45-5.47,5.47-5.47h8.1c0-1.41,1.14-2.54,2.54-2.54s2.54,1.14,2.54,2.54h8.7c3.02,0,5.47,2.45,5.47,5.47v17.44ZM117.02,72.87c0,3.02-2.45,5.47-5.47,5.47h-21.88c-3.02,0-5.47-2.45-5.47-5.47v-17.44c0-3.02,2.45-5.47,5.47-5.47h8.4c0-1.41,1.14-2.54,2.54-2.54s2.54,1.14,2.54,2.54h8.4c3.02,0,5.47,2.45,5.47,5.47v17.44Z"/>
    </g>
    <g>
      <circle class="st7" cx="74.57" cy="68.68" r="2.09"/>
      <path class="st7" d="M72.16,72.98l3.13-.15c.87-.04,1.6.62,1.64,1.49l.27,5.74.52-.02c.87-.04,1.6.62,1.64,1.49s-.62,1.6-1.49,1.64l-5.22.24c-.87.04-1.6-.62-1.64-1.49s.62-1.6,1.49-1.64l1.57-.07-.2-4.17-1.57.07c-.87.04-1.6-.62-1.64-1.49s.62-1.6,1.49-1.64Z"/>
    </g>
  </g>
  <g id="Dateien" class="st2">
    <g id="Alt" class="st2">
      <g>
        <g>
          <path class="st7" d="M116.37,83.53V24.7c0-1.61-1.31-2.92-2.92-2.92l-66.01.06c-1.61,0-2.91,1.31-2.91,2.92v18.09h-6.81c-9.8,0-17.77,7.23-17.77,16.11v35.79c0,8.88,7.97,16.11,17.77,16.11h46.32c2.67,9.99,11.79,17.37,22.62,17.37,12.91,0,23.41-10.5,23.41-23.41,0-9.44-5.62-17.59-13.68-21.29ZM47.52,24.84l65.85-.06v57.61c-2.13-.64-4.39-.99-6.72-.99-.8,0-1.6.04-2.38.12v-11.82c0-8.88-7.97-16.11-17.77-16.11h-26.58l-4.24-10.75h-8.16v-18.01ZM37.71,107.85c-8.14,0-14.77-5.88-14.77-13.11v-35.79c0-7.23,6.62-13.11,14.77-13.11h15.92l4.24,10.75h28.62c8.14,0,14.77,5.88,14.77,13.11v12.33c-10.32,2.44-18.03,11.72-18.03,22.78,0,1.03.07,2.04.2,3.04h-45.73ZM106.65,125.22c-11.25,0-20.41-9.16-20.41-20.41s9.16-20.41,20.41-20.41,20.41,9.16,20.41,20.41-9.16,20.41-20.41,20.41Z"/>
          <path class="st7" d="M113.97,101.89c3.2,0,5.8-2.6,5.8-5.8s-2.6-5.8-5.8-5.8-5.8,2.6-5.8,5.8c0,.37.04.73.1,1.08l-7.95,3.9c-1.07-1.25-2.65-2.05-4.42-2.05-3.2,0-5.8,2.6-5.8,5.8s2.6,5.8,5.8,5.8c1.72,0,3.26-.76,4.33-1.95l8.03,3.81c-.06.34-.1.7-.1,1.06,0,3.2,2.6,5.8,5.8,5.8s5.8-2.6,5.8-5.8-2.6-5.8-5.8-5.8c-1.76,0-3.34.79-4.4,2.04l-7.97-3.79c.08-.38.12-.77.12-1.18,0-.36-.04-.71-.1-1.05l7.96-3.9c1.07,1.24,2.64,2.03,4.4,2.03ZM113.97,110.74c1.55,0,2.8,1.26,2.8,2.8s-1.26,2.8-2.8,2.8-2.8-1.26-2.8-2.8,1.26-2.8,2.8-2.8ZM95.91,107.62c-1.55,0-2.8-1.26-2.8-2.8s1.26-2.8,2.8-2.8,2.8,1.26,2.8,2.8-1.26,2.8-2.8,2.8ZM113.97,93.28c1.55,0,2.8,1.26,2.8,2.8s-1.26,2.8-2.8,2.8-2.8-1.26-2.8-2.8,1.26-2.8,2.8-2.8Z"/>
        </g>
        <g>
          <path class="st3" d="M116.37,83.53V24.7c0-1.61-1.31-2.92-2.92-2.92l-66.01.06c-1.61,0-2.91,1.31-2.91,2.92v18.09h-6.81c-9.8,0-17.77,7.23-17.77,16.11v35.79c0,8.88,7.97,16.11,17.77,16.11h46.32c2.67,9.99,11.79,17.37,22.62,17.37,12.91,0,23.41-10.5,23.41-23.41,0-9.44-5.62-17.59-13.68-21.29ZM47.52,24.84l65.85-.06v57.61c-2.13-.64-4.39-.99-6.72-.99-.8,0-1.6.04-2.38.12v-11.82c0-8.88-7.97-16.11-17.77-16.11h-26.58l-4.24-10.75h-8.16v-18.01ZM37.71,107.85c-8.14,0-14.77-5.88-14.77-13.11v-35.79c0-7.23,6.62-13.11,14.77-13.11h15.92l4.24,10.75h28.62c8.14,0,14.77,5.88,14.77,13.11v12.33c-10.32,2.44-18.03,11.72-18.03,22.78,0,1.03.07,2.04.2,3.04h-45.73ZM106.65,125.22c-11.25,0-20.41-9.16-20.41-20.41s9.16-20.41,20.41-20.41,20.41,9.16,20.41,20.41-9.16,20.41-20.41,20.41Z"/>
          <path class="st3" d="M113.97,101.89c3.2,0,5.8-2.6,5.8-5.8s-2.6-5.8-5.8-5.8-5.8,2.6-5.8,5.8c0,.37.04.73.1,1.08l-7.95,3.9c-1.07-1.25-2.65-2.05-4.42-2.05-3.2,0-5.8,2.6-5.8,5.8s2.6,5.8,5.8,5.8c1.72,0,3.26-.76,4.33-1.95l8.03,3.81c-.06.34-.1.7-.1,1.06,0,3.2,2.6,5.8,5.8,5.8s5.8-2.6,5.8-5.8-2.6-5.8-5.8-5.8c-1.76,0-3.34.79-4.4,2.04l-7.97-3.79c.08-.38.12-.77.12-1.18,0-.36-.04-.71-.1-1.05l7.96-3.9c1.07,1.24,2.64,2.03,4.4,2.03ZM113.97,110.74c1.55,0,2.8,1.26,2.8,2.8s-1.26,2.8-2.8,2.8-2.8-1.26-2.8-2.8,1.26-2.8,2.8-2.8ZM95.91,107.62c-1.55,0-2.8-1.26-2.8-2.8s1.26-2.8,2.8-2.8,2.8,1.26,2.8,2.8-1.26,2.8-2.8,2.8ZM113.97,93.28c1.55,0,2.8,1.26,2.8,2.8s-1.26,2.8-2.8,2.8-2.8-1.26-2.8-2.8,1.26-2.8,2.8-2.8Z"/>
        </g>
      </g>
      <path class="st7" d="M112.04,24.13c1.35,0,2.44,1.1,2.44,2.44v52.61c-1.82-.53-3.7-.86-5.6-.99v-17.28c0-6.31-6.31-12.51-12.74-12.51h-26.63c-.9,0-1.75-.4-2.32-1.11l-4.64-5.7c-1.38-1.69-3.41-2.7-5.43-2.7h-4.36v-12.33c0-1.35,1.1-2.44,2.44-2.44h56.83M112.04,22.13h-56.83c-2.45,0-4.44,1.99-4.44,4.44v14.33h6.36c1.5,0,2.93.8,3.88,1.97l4.64,5.7c.95,1.17,2.37,1.84,3.87,1.84h26.63c5.21,0,10.74,5.29,10.74,10.51v19.22s.07,0,.11,0c3.36,0,6.56.67,9.49,1.87V26.57c0-2.45-1.99-4.44-4.44-4.44h0Z"/>
      <path class="st7" d="M81.96,105.16c0-13.02,9.95-23.72,22.66-24.92v-18.17c0-5.21-4.23-9.44-9.44-9.44h-26.86c-1.5,0-2.93-.68-3.88-1.84l-4.64-5.7c-.95-1.17-2.37-1.84-3.88-1.84h-26.19c-5.21,0-9.44,4.23-9.44,9.44v49.01c0,5.21,4.23,9.44,9.44,9.44h52.95c-.47-1.92-.72-3.92-.72-5.98Z"/>
      <path class="st7" d="M106.99,84.45c11.42,0,20.71,9.29,20.71,20.71s-9.29,20.71-20.71,20.71-20.71-9.29-20.71-20.71,9.29-20.71,20.71-20.71M106.99,82.45c-12.54,0-22.71,10.17-22.71,22.71s10.17,22.71,22.71,22.71,22.71-10.17,22.71-22.71-10.17-22.71-22.71-22.71h0Z"/>
      <circle class="st7" cx="114.3" cy="96.43" r="5"/>
      <circle class="st7" cx="96.26" cy="105.16" r="5"/>
      <circle class="st7" cx="114.3" cy="113.89" r="5"/>
      <rect class="st7" x="99.33" y="99.66" width="11.89" height="2.64" transform="translate(-33.74 56.76) rotate(-26.16)"/>
      <rect class="st7" x="99.46" y="108.07" width="11.89" height="2.64" transform="translate(58.93 -35.23) rotate(26.12)"/>
    </g>
    <g id="Neu_unsers" class="st2">
      <path class="st7" d="M125.94-108.89h-29.29c-1.72,0-3.42-.55-4.79-1.6l-9.59-7.19c-2.77-2.07-6.14-3.2-9.59-3.2h-34.64c-8.82,0-15.98,7.17-15.98,15.98V-29.03h.02c-.04,6.26,4.89,11.79,11.54,12.02l-.2.02h96.52c6.87,0,12.01-5.64,11.97-12.04h.02v-63.88c0-8.82-7.17-15.98-15.98-15.98Z"/>
      <path class="st7" d="M84.28,105.16c0-12.54,10.17-22.71,22.71-22.71s22.71,10.17,22.71,22.71-10.17,22.71-22.71,22.71-22.71-10.17-22.71-22.71ZM114.02,109.88c-1.46,0-2.76.63-3.67,1.63l-9.44-4.64c.03-.24.07-.48.07-.72s-.04-.49-.07-.73l9.42-4.63c.92,1,2.22,1.65,3.69,1.65,2.77,0,5.01-2.24,5.01-5.01s-2.24-5.01-5.01-5.01-5.01,2.24-5.01,5.01c0,.37.05.73.12,1.07l-9.26,4.55c-.92-1.15-2.31-1.9-3.9-1.9-2.77,0-5.01,2.24-5.01,5.01s2.24,5.01,5.01,5.01c1.59,0,2.99-.76,3.91-1.91l9.26,4.55c-.08.35-.13.72-.13,1.09,0,2.77,2.24,5.01,5.01,5.01s5.01-2.24,5.01-5.01-2.24-5.01-5.01-5.01Z"/>
      <path class="st7" d="M111.49,22.13h-55.73c-2.76,0-4.99,2.24-4.99,4.99v9.31h.24c2.7,0,9.08.88,11.25,2.51l7.53,5.64c1.08.82,2.41,1.25,3.76,1.25h19.26c6.92,0,12.54,5.62,12.54,12.54v17.4c.54-.03,1.09-.06,1.63-.06,3.32,0,6.51.56,9.49,1.57V27.12c0-2.76-2.24-4.99-4.99-4.99Z"/>
      <path class="st7" d="M78.16,111.14c-.4-1.93-.61-3.93-.61-5.98,0-13.35,8.89-24.62,21.08-28.23v-15.4c0-5.76-4.68-10.45-10.45-10.45h-19.14c-1.13,0-2.24-.36-3.13-1.04l-6.27-4.7c-1.81-1.35-4.01-2.09-6.27-2.09h-22.64c-5.76,0-10.45,4.68-10.45,10.45v49.58h.01c-.03,4.09,3.2,7.7,7.54,7.85h-.13s50.44.01,50.44.01Z"/>
    </g>
    <g id="Fontawesome_Kombi">
      <path class="st7" d="M28.23,67.96c2.43-8,9.22-13.39,16.87-13.39h67.68v-3.27c0-7.21-5.32-13.07-11.85-13.07h-21.73c-1.28,0-2.54-.45-3.56-1.31l-7.11-5.88c-2.06-1.69-4.56-2.61-7.11-2.61h-25.69c-6.54,0-11.85,5.86-11.85,13.07v40.88l4.37-14.41h-.02Z"/>
      <path class="st7" d="M80.06,106.09c0-14.35,11.63-25.98,25.98-25.98,5.72,0,11,1.85,15.29,4.98l2.36-7.82c1.93-6.35-2.35-12.9-8.43-12.9H45.1c-3.82,0-7.22,2.7-8.43,6.7l-8.89,29.4c-1.93,6.35,2.35,12.9,8.43,12.9h44.89c-.67-2.31-1.04-4.75-1.04-7.28Z"/>
      <path class="st7" d="M86.12,106.09c0-11,8.92-19.91,19.91-19.91s19.91,8.92,19.91,19.91-8.92,19.91-19.91,19.91-19.91-8.92-19.91-19.91ZM112.19,110.23c-1.28,0-2.42.56-3.22,1.43l-8.27-4.06c.03-.21.06-.42.06-.63s-.03-.43-.06-.64l8.26-4.06c.8.88,1.95,1.44,3.23,1.44,2.42,0,4.39-1.97,4.39-4.39s-1.97-4.39-4.39-4.39-4.39,1.97-4.39,4.39c0,.32.04.64.11.94l-8.12,3.99c-.8-1.01-2.03-1.67-3.42-1.67-2.43,0-4.39,1.97-4.39,4.39s1.97,4.39,4.39,4.39c1.39,0,2.62-.66,3.43-1.68l8.12,3.99c-.07.31-.11.63-.11.96,0,2.43,1.97,4.39,4.39,4.39s4.39-1.97,4.39-4.39-1.97-4.39-4.39-4.39Z"/>
    </g>
  </g>
  <g id="Umfragen" class="st2">
    <g id="Alt1" data-name="Alt" class="st2">
      <path class="st7" d="M55.88,20.82c-18.05,0-32.68,14.63-32.68,32.68,0,6.63,1.98,12.79,5.37,17.94l-5.96,13.21c-1.14,2.52,1.45,5.11,3.97,3.97l13.92-6.28c4.59,2.45,9.82,3.85,15.39,3.85,18.05,0,32.68-14.63,32.68-32.68s-14.63-32.68-32.68-32.68ZM70.33,48.33l-15.11,16.97s-.01.01-.02.02c-.24.27-.51.53-.82.75-2.24,1.61-5.37,1.09-6.98-1.15l-6.3-8.79c-1.61-2.24-1.09-5.37,1.15-6.98,2.24-1.61,5.37-1.09,6.98,1.15l2.66,3.7,10.98-12.33c1.84-2.06,5-2.25,7.06-.41,2.06,1.84,2.25,5,.41,7.06Z"/>
      <path class="st7" d="M122.67,54.1h-31.82c-.09,5.36-1.39,10.42-3.64,14.93.34.23.66.49.95.81l6.27,7.04,6.27-7.04c1.84-2.06,5-2.25,7.06-.41h0c2.06,1.84,2.25,5,.41,7.06l-7.04,7.91,7.04,7.91c1.84,2.06,1.65,5.22-.41,7.06h0c-2.06,1.84-5.22,1.65-7.06-.41l-6.27-7.04-6.27,7.04c-1.84,2.06-5,2.25-7.06.41-2.06-1.84-2.25-5-.41-7.06l7.04-7.91-6.28-7.06c-5.25,5.62-12.31,9.51-20.27,10.71v21.64c0,2.76,2.24,5,5,5h23.45s.05.06.09.09l17.87,13.76c2.12,1.63,5.16-.12,4.81-2.77l-1.48-11.08h11.75c2.76,0,5-2.24,5-5v-50.6c0-2.76-2.24-5-5-5Z"/>
    </g>
    <g id="Halb" class="st2">
      <rect class="st7" x="24" y="24" width="10" height="102.02" rx="5" ry="5"/>
      <rect class="st7" x="29" y="61.12" width="96.95" height="27.77" rx="5" ry="5"/>
      <path class="st7" d="M99.22,33.35c1.65,0,3,1.35,3,3v17.77c0,1.65-1.35,3-3,3H34c-1.65,0-3-1.35-3-3v-17.77c0-1.65,1.35-3,3-3h65.22M99.22,31.35H34c-2.76,0-5,2.24-5,5v17.77c0,2.76,2.24,5,5,5h65.22c2.76,0,5-2.24,5-5v-17.77c0-2.76-2.24-5-5-5h0Z"/>
      <path class="st7" d="M60.17,92.89c1.65,0,3,1.35,3,3v17.77c0,1.65-1.35,3-3,3h-26.17c-1.65,0-3-1.35-3-3v-17.77c0-1.65,1.35-3,3-3h26.17M60.17,90.89h-26.17c-2.76,0-5,2.24-5,5v17.77c0,2.76,2.24,5,5,5h26.17c2.76,0,5-2.24,5-5v-17.77c0-2.76-2.24-5-5-5h0Z"/>
    </g>
    <g id="Kuchendiagramm" class="st2">
      <path class="st7" d="M78.11,26.11c24.62,1.55,44.18,21.1,45.72,45.72h-45.72V26.11M76.11,24.02v49.81h49.81c-.6-27.25-22.56-49.21-49.81-49.81h0Z"/>
      <g>
        <path class="st7" d="M125.92,76.11h-47.77l40.48,25.15c4.45-7.37,7.09-15.96,7.29-25.15Z"/>
        <path class="st7" d="M71.84,26.11v51.11l.94.59,41.78,25.96c-9.22,12.67-23.87,20.18-39.59,20.18-27,0-48.97-21.97-48.97-48.98,0-12.89,4.97-25.06,13.99-34.26,8.53-8.7,19.77-13.84,31.85-14.6M73.84,24.02c-27.63.61-49.84,23.17-49.84,50.95s22.82,50.98,50.97,50.98c17.72,0,33.3-9.05,42.43-22.76l-43.57-27.07V24.02h0Z"/>
      </g>
    </g>
    <g id="Neu" class="st2">
      <rect class="st7" x="24" y="92" width="30" height="34" rx="5" ry="5"/>
      <rect class="st7" x="60" y="24" width="30" height="102" rx="5" ry="5"/>
      <rect class="st7" x="96" y="58" width="30" height="68" rx="5" ry="5"/>
    </g>
    <path class="st7" d="M58.05,24.14c-18.72,0-33.9,13.91-33.9,31.08,0,6.99,2.52,13.45,6.78,18.65l-6.29,11.87c-.88,1.64-.58,3.67.74,4.98s3.34,1.61,4.98.74l14.41-7.63c4.08,1.59,8.56,2.47,13.28,2.47,18.72,0,33.9-13.91,33.9-31.08s-15.19-31.08-33.9-31.08ZM72.83,51.4l-16.46,16.46c-.67.67-1.56,1-2.44.98-.88.02-1.77-.31-2.44-.98l-8.22-8.22c-1.31-1.31-1.31-3.44,0-4.76l.41-.41c1.31-1.31,3.44-1.31,4.76,0l5.49,5.49,13.74-13.74c1.31-1.31,3.44-1.31,4.76,0l.41.41c1.31,1.31,1.31,3.44,0,4.76Z"/>
    <path class="st7" d="M119.08,107.77c4.26-5.19,6.78-11.65,6.78-18.65,0-14.55-10.89-26.75-25.6-30.14-.88,8.83-4.81,16.65-10.7,22.72l3.83,3.83,5.65-5.65c1.31-1.31,3.44-1.31,4.76,0l.41.41c1.31,1.31,1.31,3.44,0,4.76l-5.65,5.65,5.65,5.65c1.31,1.31,1.31,3.44,0,4.76l-.41.41c-1.31,1.31-3.44,1.31-4.76,0l-5.65-5.65-5.65,5.65c-1.31,1.31-3.44,1.31-4.76,0l-.41-.41c-1.31-1.31-1.31-3.44,0-4.76l5.65-5.65-4.22-4.22c-7.12,5.13-15.98,8.17-25.38,8.29,2.9,14.46,16.72,25.43,33.34,25.43,4.71,0,9.2-.88,13.28-2.47l14.41,7.63c1.64.88,3.67.58,4.98-.74,1.31-1.32,1.61-3.34.74-4.98l-6.29-11.87Z"/>
  </g>
  <g id="Umfragen_-_offen" class="st2">
    <g id="Alt2" data-name="Alt" class="st2">
      <path class="st7" d="M55.88,20.82c-18.05,0-32.68,14.63-32.68,32.68,0,6.63,1.98,12.79,5.37,17.94l-5.96,13.21c-1.14,2.52,1.45,5.11,3.97,3.97l13.92-6.28c4.59,2.45,9.82,3.85,15.39,3.85,18.05,0,32.68-14.63,32.68-32.68s-14.63-32.68-32.68-32.68ZM70.33,48.33l-15.11,16.97s-.01.01-.02.02c-.24.27-.51.53-.82.75-2.24,1.61-5.37,1.09-6.98-1.15l-6.3-8.79c-1.61-2.24-1.09-5.37,1.15-6.98,2.24-1.61,5.37-1.09,6.98,1.15l2.66,3.7,10.98-12.33c1.84-2.06,5-2.25,7.06-.41,2.06,1.84,2.25,5,.41,7.06Z"/>
      <path class="st7" d="M122.67,54.1h-31.82c-.09,5.36-1.39,10.42-3.64,14.93.34.23.66.49.95.81l6.27,7.04,6.27-7.04c1.84-2.06,5-2.25,7.06-.41h0c2.06,1.84,2.25,5,.41,7.06l-7.04,7.91,7.04,7.91c1.84,2.06,1.65,5.22-.41,7.06h0c-2.06,1.84-5.22,1.65-7.06-.41l-6.27-7.04-6.27,7.04c-1.84,2.06-5,2.25-7.06.41-2.06-1.84-2.25-5-.41-7.06l7.04-7.91-6.28-7.06c-5.25,5.62-12.31,9.51-20.27,10.71v21.64c0,2.76,2.24,5,5,5h23.45s.05.06.09.09l17.87,13.76c2.12,1.63,5.16-.12,4.81-2.77l-1.48-11.08h11.75c2.76,0,5-2.24,5-5v-50.6c0-2.76-2.24-5-5-5Z"/>
    </g>
    <g id="Halb1" data-name="Halb" class="st2">
      <rect class="st7" x="24" y="24" width="10" height="102.02" rx="5" ry="5"/>
      <rect class="st7" x="29" y="61.12" width="96.95" height="27.77" rx="5" ry="5"/>
      <path class="st7" d="M99.22,33.35c1.65,0,3,1.35,3,3v17.77c0,1.65-1.35,3-3,3H34c-1.65,0-3-1.35-3-3v-17.77c0-1.65,1.35-3,3-3h65.22M99.22,31.35H34c-2.76,0-5,2.24-5,5v17.77c0,2.76,2.24,5,5,5h65.22c2.76,0,5-2.24,5-5v-17.77c0-2.76-2.24-5-5-5h0Z"/>
      <path class="st7" d="M60.17,92.89c1.65,0,3,1.35,3,3v17.77c0,1.65-1.35,3-3,3h-26.17c-1.65,0-3-1.35-3-3v-17.77c0-1.65,1.35-3,3-3h26.17M60.17,90.89h-26.17c-2.76,0-5,2.24-5,5v17.77c0,2.76,2.24,5,5,5h26.17c2.76,0,5-2.24,5-5v-17.77c0-2.76-2.24-5-5-5h0Z"/>
    </g>
    <g id="Kuchendiagramm1" data-name="Kuchendiagramm" class="st2">
      <path class="st7" d="M78.11,26.11c24.62,1.55,44.18,21.1,45.72,45.72h-45.72V26.11M76.11,24.02v49.81h49.81c-.6-27.25-22.56-49.21-49.81-49.81h0Z"/>
      <g>
        <path class="st7" d="M125.92,76.11h-47.77l40.48,25.15c4.45-7.37,7.09-15.96,7.29-25.15Z"/>
        <path class="st7" d="M71.84,26.11v51.11l.94.59,41.78,25.96c-9.22,12.67-23.87,20.18-39.59,20.18-27,0-48.97-21.97-48.97-48.98,0-12.89,4.97-25.06,13.99-34.26,8.53-8.7,19.77-13.84,31.85-14.6M73.84,24.02c-27.63.61-49.84,23.17-49.84,50.95s22.82,50.98,50.97,50.98c17.72,0,33.3-9.05,42.43-22.76l-43.57-27.07V24.02h0Z"/>
      </g>
    </g>
    <g id="Neu1" data-name="Neu" class="st2">
      <rect class="st7" x="24" y="92" width="30" height="34" rx="5" ry="5"/>
      <rect class="st7" x="60" y="24" width="30" height="102" rx="5" ry="5"/>
      <rect class="st7" x="96" y="58" width="30" height="68" rx="5" ry="5"/>
    </g>
    <path class="st7" d="M84,86.48c-7.12,5.13-15.98,8.17-25.38,8.29,2.9,14.46,16.72,25.43,33.34,25.43,4.71,0,9.2-.88,13.28-2.47l14.41,7.63c1.64.88,3.67.58,4.98-.74,1.31-1.32,1.61-3.34.74-4.98l-6.29-11.87c4.26-5.19,6.78-11.65,6.78-18.65,0-14.55-10.89-26.75-25.6-30.14-.88,8.83-4.81,16.65-10.7,22.72,0,0-2.97,3.07-5.55,4.78Z"/>
    <path class="st7" d="M58.05,24.14c-18.72,0-33.9,13.91-33.9,31.08,0,6.99,2.52,13.45,6.78,18.65l-6.29,11.87c-.88,1.64-.58,3.67.74,4.98s3.34,1.61,4.98.74l14.41-7.63c4.08,1.59,8.56,2.47,13.28,2.47,18.72,0,33.9-13.91,33.9-31.08s-15.19-31.08-33.9-31.08ZM58.05,72.59c-1.92,0-3.48-1.56-3.48-3.48s1.56-3.48,3.48-3.48,3.48,1.56,3.48,3.48-1.56,3.48-3.48,3.48ZM61.18,59.38s-.07.02-.09.04v.99c0,1.67-1.36,3.04-3.04,3.04s-3.04-1.36-3.04-3.04v-1.34c0-2.81,2.16-4.77,4.3-5.47,1.7-.55,2.85-2.13,2.85-3.92,0-2.27-1.84-4.11-4.11-4.11s-4.11,1.84-4.11,4.11c0,1.67-1.36,3.04-3.04,3.04s-3.04-1.36-3.04-3.04c0-5.62,4.57-10.19,10.19-10.19s10.19,4.57,10.19,10.19c0,4.44-2.84,8.34-7.06,9.7Z"/>
  </g>
  <g id="Umfragen_-_beantwortet" class="st2">
    <path class="st7" d="M58.05,24.14c-18.72,0-33.9,13.91-33.9,31.08,0,6.99,2.52,13.45,6.78,18.65l-6.29,11.87c-.88,1.64-.58,3.67.74,4.98s3.34,1.61,4.98.74l14.41-7.63c4.08,1.59,8.56,2.47,13.28,2.47,18.72,0,33.9-13.91,33.9-31.08s-15.19-31.08-33.9-31.08ZM72.83,51.4l-16.46,16.46c-.67.67-1.56,1-2.44.98-.88.02-1.77-.31-2.44-.98l-8.22-8.22c-1.31-1.31-1.31-3.44,0-4.76l.41-.41c1.31-1.31,3.44-1.31,4.76,0l5.49,5.49,13.74-13.74c1.31-1.31,3.44-1.31,4.76,0l.41.41c1.31,1.31,1.31,3.44,0,4.76Z"/>
    <path class="st7" d="M84,86.48c-7.12,5.13-15.98,8.17-25.38,8.29,2.9,14.46,16.72,25.43,33.34,25.43,4.71,0,9.2-.88,13.28-2.47l14.41,7.63c1.64.88,3.67.58,4.98-.74,1.31-1.32,1.61-3.34.74-4.98l-6.29-11.87c4.26-5.19,6.78-11.65,6.78-18.65,0-14.55-10.89-26.75-25.6-30.14-.88,8.83-4.81,16.65-10.7,22.72,0,0-2.97,3.07-5.55,4.78Z"/>
  </g>
  <g id="Umfragen_-_eigene" class="st2">
    <g>
      <path class="st7" d="M84,86.48c-7.12,5.13-15.98,8.17-25.38,8.29,2.9,14.46,16.72,25.43,33.34,25.43,4.71,0,9.2-.88,13.28-2.47l14.41,7.63c1.64.88,3.67.58,4.98-.74,1.31-1.32,1.61-3.34.74-4.98l-6.29-11.87c4.26-5.19,6.78-11.65,6.78-18.65,0-14.55-10.89-26.75-25.6-30.14-.88,8.83-4.81,16.65-10.7,22.72,0,0-2.97,3.07-5.55,4.78Z"/>
      <path class="st7" d="M58.05,24.14c-18.72,0-33.9,13.91-33.9,31.08,0,6.99,2.52,13.45,6.78,18.65l-6.29,11.87c-.88,1.64-.58,3.67.74,4.98s3.34,1.61,4.98.74l14.41-7.63c4.08,1.59,8.56,2.47,13.28,2.47,18.72,0,33.9-13.91,33.9-31.08s-15.19-31.08-33.9-31.08ZM58.05,36.75c4.55,0,8.24,3.69,8.24,8.24s-3.69,8.24-8.24,8.24-8.24-3.69-8.24-8.24,3.69-8.24,8.24-8.24ZM70.29,71.34h-24.48c-1.13,0-2.04-.91-2.04-2.04,0-6.76,5.48-12.24,12.24-12.24h4.08c6.76,0,12.24,5.48,12.24,12.24,0,1.13-.91,2.04-2.04,2.04Z"/>
    </g>
  </g>
  <g id="Klassenraum" class="st2">
    <g id="alt" class="st2">
      <path class="st0" d="M109.4,87.99c3.79-1.91,6.25-6.09,5.54-10.75s-4.42-8.06-8.94-8.57c-6.17-.69-11.41,4.14-11.41,10.17,0,4,2.31,7.46,5.67,9.15-3.76,1.47-6.99,4.71-9.04,9.14-3.02-4.15-6.96-7.14-11.38-8.42,5.51-2.01,9.45-7.33,9.36-13.55-.11-7.41-6.11-13.63-13.51-13.99-8.15-.39-14.91,6.13-14.91,14.2,0,6.14,3.92,11.37,9.38,13.35-4.41,1.28-8.33,4.27-11.35,8.41-2.05-4.43-5.28-7.67-9.04-9.14,3.8-1.91,6.26-6.09,5.54-10.75s-4.42-8.06-8.94-8.57c-6.17-.69-11.41,4.14-11.41,10.17,0,4,2.31,7.46,5.66,9.15-6.56,2.57-11.36,10.52-11.36,19.91v16.68c0,.79.64,1.43,1.43,1.43h0c.79,0,1.43-.64,1.43-1.43v-16.68c0-9.89,5.86-17.93,13.07-17.93,4.99,0,9.55,3.95,11.74,10.1-2.74,4.9-4.37,10.94-4.37,17.47v6.9c0,.79.64,1.43,1.43,1.43h0c.79,0,1.43-.64,1.43-1.43v-6.9c0-14.7,8.79-26.66,19.6-26.66s19.6,11.96,19.6,26.66v6.9c0,.79.64,1.43,1.43,1.43h0c.79,0,1.43-.64,1.43-1.43v-6.9c0-6.53-1.62-12.56-4.36-17.46,2.19-6.16,6.75-10.11,11.74-10.11,7.21,0,13.07,8.04,13.07,17.93v16.68c0,.79.64,1.43,1.43,1.43h0c.79,0,1.43-.64,1.43-1.43v-16.68c0-9.39-4.8-17.34-11.36-19.91ZM37.93,80.29c-.99-5.19,3.5-9.68,8.69-8.69,2.9.55,5.24,2.89,5.8,5.8,1,5.2-3.5,9.69-8.69,8.7-2.9-.56-5.24-2.9-5.8-5.8ZM63.71,76.85c-.94-7.42,5.33-13.69,12.75-12.74,5.06.64,9.14,4.73,9.78,9.79.94,7.42-5.33,13.69-12.75,12.74-5.06-.64-9.14-4.73-9.78-9.79ZM97.57,80.29c-.99-5.19,3.5-9.68,8.69-8.69,2.9.55,5.24,2.89,5.8,5.8,1,5.2-3.5,9.69-8.69,8.7-2.9-.56-5.24-2.9-5.8-5.8Z"/>
      <circle class="st7" cx="45.18" cy="79.98" r="9.23"/>
      <circle class="st7" cx="104.82" cy="79.98" r="9.23"/>
      <path class="st7" d="M81.81,87.4c4.18-2.38,7.01-6.87,7.01-12.03,0-7.65-6.2-13.84-13.84-13.84s-13.84,6.2-13.84,13.84c0,5.17,2.83,9.66,7.03,12.04-7.28,2.76-12.46,9.78-12.46,18.03v20.04c0,2.76,2.24,5,5,5h28.6c2.76,0,5-2.24,5-5v-20.04c0-8.26-5.2-15.29-12.49-18.04Z"/>
      <path class="st7" d="M104.82,87.75h0c-4.83,0-9.01,2.76-11.06,6.79,1.79,2.93,2.84,6.36,2.84,10.04v21.18c.26.04.53.08.8.08h14.84c2.76,0,5-2.24,5-5v-20.68c0-6.86-5.56-12.42-12.42-12.42Z"/>
      <path class="st7" d="M53.4,104.58c0-3.68,1.05-7.11,2.84-10.04-2.05-4.03-6.23-6.79-11.06-6.79h0c-6.86,0-12.42,5.56-12.42,12.42v20.68c0,2.76,2.24,5,5,5h14.84c.27,0,.54-.04.8-.08v-21.18Z"/>
      <path class="st10" d="M117.76,89.71h3.19c2.76,0,5-2.24,5-5V29c0-2.76-2.24-5-5-5H29c-2.76,0-5,2.24-5,5v55.72c0,2.76,2.24,5,5,5h4.12"/>
      <path class="st7" d="M91.24,90.71h1.79l.25-.27c.46-.49.98-.92,1.54-1.29l.68-.45h-6.9l.63.39c.65.41,1.26.88,1.81,1.41l.2.2Z"/>
      <path class="st7" d="M31.69,90.71h1.79c.53-.66,1.18-1.22,1.91-1.66l.56-.34h-6.9l2.64,2Z"/>
      <path class="st7" d="M58.71,90.71h-1.79l-.28-.3c-.43-.46-.91-.87-1.44-1.21l-.74-.48h6.9l-.63.36c-.73.42-1.39.96-1.96,1.58l-.05.05Z"/>
      <path class="st7" d="M118.31,90.71h-1.79c-.57-.66-1.23-1.23-1.98-1.69l-.49-.31h6.9l-2.64,2Z"/>
    </g>
    <path class="st7" d="M74.88,59.26c7.38,0,13.37,5.99,13.37,13.37s-5.99,13.37-13.37,13.37-13.37-5.99-13.37-13.37,5.99-13.37,13.37-13.37ZM46.07,68.52c5.12,0,9.26,4.14,9.26,9.26s-4.14,9.26-9.26,9.26-9.26-4.14-9.26-9.26,4.14-9.26,9.26-9.26ZM33.72,110.7c0-9.09,7.37-16.46,16.46-16.46,1.65,0,3.24.24,4.75.69-4.23,4.73-6.8,10.98-6.8,17.82v2.06c0,1.47.31,2.85.86,4.12h-11.15c-2.28,0-4.12-1.84-4.12-4.12v-4.12ZM100.76,118.93c.55-1.26.86-2.65.86-4.12v-2.06c0-6.84-2.57-13.09-6.8-17.82,1.5-.45,3.1-.69,4.75-.69,9.09,0,16.46,7.37,16.46,16.46v4.12c0,2.28-1.84,4.12-4.12,4.12h-11.15ZM94.42,77.78c0-5.12,4.14-9.26,9.26-9.26s9.26,4.14,9.26,9.26-4.14,9.26-9.26,9.26-9.26-4.14-9.26-9.26ZM54.3,112.76c0-11.37,9.21-20.58,20.58-20.58s20.58,9.21,20.58,20.58v2.06c0,2.28-1.84,4.12-4.12,4.12h-32.92c-2.28,0-4.12-1.84-4.12-4.12v-2.06Z"/>
    <path class="st9" d="M26.84,91.87v-2.17s.02-1.03.02-1.03v-.86l-.05-47.98c0-2.39,2.11-4.32,4.71-4.32h86.7c2.6,0,4.71,1.94,4.71,4.32l-.05,47.12v2.59s0,2.17,0,2.17"/>
  </g>
  <g id="E-Mail" class="st2">
    <g id="alt1" data-name="alt" class="st2">
      <path class="st7" d="M120.7,38.55c1.07,0,2.09.24,2.99.68l-45.94,44.9c-1.52,1.46-3.85,1.4-5.51,0L26.31,39.23c.9-.43,1.92-.68,2.99-.68h91.4Z"/>
      <path class="st7" d="M25.96,44.61l42.02,41.69c1.89,1.81,4.38,2.81,7.02,2.81s5.13-1,7.04-2.84l42-41.67v61.16c0,2.65-1.02,3.69-3.63,3.69H29.53c-1.76,0-3.56-.47-3.56-3.94v-60.9M125.18,40.66l-44.55,44.19c-1.51,1.45-3.51,2.25-5.63,2.25s-4.12-.8-5.63-2.25L24.82,40.66c-.55.96-.86,2.07-.86,3.24v61.61c0,3.69,1.79,5.94,5.56,5.94h90.88c3.77,0,5.63-2,5.63-5.69v-61.86c0-1.18-.31-2.28-.86-3.24h0Z"/>
    </g>
    <g>
      <path class="st7" d="M27.21,55.18l34.82,26.11c2.86,2.14,6.78,2.14,9.64,0l34.82-26.11c2.03-1.52,3.21-3.9,3.21-6.43,0-4.44-3.6-8.03-8.03-8.03H32.03c-4.44,0-8.03,3.6-8.03,8.03,0,2.53,1.19,4.9,3.21,6.43Z"/>
      <path class="st7" d="M106.87,81.85c.96,0,1.9.06,2.83.17v-19.21l-33.21,24.91c-5.71,4.29-13.57,4.29-19.28,0l-33.21-24.91v31.47c0,5.91,4.8,10.71,10.71,10.71h47.47c.82-12.92,11.56-23.14,24.68-23.14Z"/>
    </g>
    <g>
      <g>
        <path class="st7" d="M106.87,107.89c1.27,0,2.3-1.03,2.3-2.3s-1.03-2.3-2.3-2.3-2.3,1.03-2.3,2.3,1.03,2.3,2.3,2.3Z"/>
        <path class="st7" d="M106.87,108.95c-1.96,0-3.55,1.59-3.55,3.55v.35c0,.39.32.71.71.71h5.67c.39,0,.71-.32.71-.71v-.35c0-1.96-1.59-3.55-3.55-3.55Z"/>
        <path class="st7" d="M106.87,87.51c-10.54,0-19.08,8.54-19.08,19.08s8.54,19.08,19.08,19.08,19.08-8.54,19.08-19.08-8.54-19.08-19.08-19.08ZM111.97,96.92c0-.28.23-.51.51-.51s.51.23.51.51v2.49c0,.28-.23.51-.51.51s-.51-.23-.51-.51v-2.49ZM106.35,96.92c0-.28.23-.51.51-.51s.51.23.51.51v2.49c0,.28-.23.51-.51.51s-.51-.23-.51-.51v-2.49ZM100.74,96.92c0-.28.23-.51.51-.51s.51.23.51.51v2.49c0,.28-.23.51-.51.51s-.51-.23-.51-.51v-2.49ZM116.53,112.63c0,2.31-1.87,4.19-4.19,4.19h-10.95c-2.31,0-4.19-1.87-4.19-4.19v-10.95c0-1.89,1.26-3.47,2.99-3.99v1.79c0,.59.47,1.06,1.06,1.06s1.06-.47,1.06-1.06v-1.99h3.5v1.99c0,.59.47,1.06,1.06,1.06s1.06-.47,1.06-1.06v-1.99h3.5v1.99c0,.59.47,1.06,1.06,1.06s1.06-.47,1.06-1.06v-1.79c1.72.52,2.99,2.1,2.99,3.99v10.95Z"/>
      </g>
      <circle class="st7" cx="106.87" cy="105.58" r="2.3"/>
      <path class="st7" d="M103.33,112.48c0-1.95,1.58-3.54,3.54-3.54s3.54,1.58,3.54,3.54v.35c0,.39-.32.71-.71.71h-5.66c-.39,0-.71-.32-.71-.71v-.35Z"/>
    </g>
  </g>
  <g id="Ticketsystem" class="st2">
    <path class="st1" d="M124.37,66.78c.93-.18,1.61-1.01,1.61-1.96v-13.67c0-2.36-2.24-4.28-5-4.28h-18.89v4.89c0,1.31-.94,2.5-2.24,2.63-1.5.15-2.76-1.02-2.76-2.49v-5.03H29.03c-2.76,0-5,1.92-5,4.28v13.67c0,.95.67,1.78,1.61,1.96,3.82.75,6.71,4.12,6.71,8.16s-2.89,7.41-6.71,8.16c-.93.18-1.61,1.01-1.61,1.96v13.8c0,2.36,2.24,4.28,5,4.28h68.06v-5.01c0-1.31.94-2.5,2.24-2.63,1.5-.15,2.76,1.02,2.76,2.49v5.16h18.89c2.76,0,5-1.92,5-4.28v-13.8c0-.95-.67-1.78-1.61-1.96-3.82-.75-6.71-4.12-6.71-8.16s2.89-7.41,6.71-8.16ZM45.53,57.61h16.87c1.31,0,2.5.94,2.63,2.24.15,1.5-1.02,2.76-2.49,2.76h-16.87c-1.31,0-2.5-.94-2.63-2.24-.15-1.5,1.02-2.76,2.49-2.76ZM84.55,92.32h-38.88c-1.31,0-2.5-.94-2.63-2.24-.15-1.5,1.02-2.76,2.49-2.76h38.87c1.31,0,2.5.94,2.63,2.24.15,1.5-1.02,2.76-2.49,2.76ZM84.55,82.44h-38.87c-1.31,0-2.5-.94-2.63-2.24-.15-1.5,1.02-2.76,2.49-2.76h38.87c1.31,0,2.5.94,2.63,2.24.15,1.5-1.02,2.76-2.49,2.76ZM84.55,72.57h-38.87c-1.31,0-2.5-.94-2.63-2.24-.15-1.5,1.02-2.76,2.49-2.76h38.87c1.31,0,2.5.94,2.63,2.24.15,1.5-1.02,2.76-2.49,2.76ZM102.08,88.97c0,1.47-1.26,2.64-2.76,2.49-1.3-.13-2.24-1.32-2.24-2.63v-9.43c0-1.31.94-2.5,2.24-2.63,1.5-.15,2.76,1.02,2.76,2.49v9.72ZM102.08,70.25c0,1.47-1.26,2.64-2.76,2.49-1.3-.13-2.24-1.32-2.24-2.63v-9.43c0-1.31.94-2.5,2.24-2.63,1.5-.15,2.76,1.02,2.76,2.49v9.72Z"/>
    <g class="st2">
      <path class="st7" d="M97.08,88.83v-41.96H29.03c-2.76,0-5,1.92-5,4.28v13.67c0,.95.67,1.78,1.61,1.96,3.82.75,6.71,4.12,6.71,8.16s-2.89,7.41-6.71,8.16c-.93.18-1.61,1.01-1.61,1.96v13.8c0,2.36,2.24,4.28,5,4.28h68.06v-14.31ZM87.04,69.81c.15,1.5-1.02,2.76-2.49,2.76h-38.88c-1.31,0-2.5-.94-2.63-2.24-.15-1.5,1.02-2.76,2.49-2.76h38.87c1.31,0,2.5.94,2.63,2.24ZM45.53,57.61h16.87c1.31,0,2.5.94,2.63,2.24.15,1.5-1.02,2.76-2.49,2.76h-16.87c-1.31,0-2.5-.94-2.63-2.24-.15-1.5,1.02-2.76,2.49-2.76ZM84.55,92.32h-38.88c-1.31,0-2.5-.94-2.63-2.24-.15-1.5,1.02-2.76,2.49-2.76h38.87c1.31,0,2.5.94,2.63,2.24.15,1.5-1.02,2.76-2.49,2.76ZM84.55,82.44h-38.88c-1.31,0-2.5-.94-2.63-2.24-.15-1.5,1.02-2.76,2.49-2.76h38.87c1.31,0,2.5.94,2.63,2.24.15,1.5-1.02,2.76-2.49,2.76Z"/>
      <g>
        <rect class="st7" x="97.08" y="98.12" width="0" height="5.01"/>
        <path class="st7" d="M120.97,48.86c1.63,0,3,1.04,3,2.28v13.67c-4.81.94-8.32,5.2-8.32,10.12s3.5,9.18,8.32,10.12v13.8c0,1.24-1.37,2.28-3,2.28h-16.89v-3.16c0-2.48-2.02-4.5-4.5-4.5-.15,0-.3,0-.46.02-.01,0-.03,0-.04,0v-.06s.03,0,.04,0c.15.02.31.02.46.02,2.48,0,4.5-2.02,4.5-4.5v-9.72c0-2.48-2.02-4.5-4.5-4.5-.15,0-.3,0-.46.02-.01,0-.03,0-.04,0v-.06s.03,0,.04,0c.15.02.31.02.46.02,2.48,0,4.5-2.02,4.5-4.5v-9.72c0-2.04-1.37-3.77-3.24-4.32,1.87-.57,3.24-2.38,3.24-4.46v-2.89h16.89M120.97,46.86h-18.89v4.89c0,1.31-.94,2.5-2.24,2.63-.09,0-.17.01-.26.01-1.38,0-2.5-1.12-2.5-2.5v-5.03h0v13.81c0-1.31.94-2.5,2.24-2.63.09,0,.17-.01.26-.01,1.38,0,2.5,1.12,2.5,2.5v9.72c0,1.38-1.12,2.5-2.5,2.5-.09,0-.17,0-.26-.01-1.3-.13-2.24-1.32-2.24-2.63v9.29c0-1.31.94-2.5,2.24-2.63.09,0,.17-.01.26-.01,1.38,0,2.5,1.12,2.5,2.5v9.72c0,1.38-1.12,2.5-2.5,2.5-.09,0-.17,0-.26-.01-1.3-.13-2.24-1.32-2.24-2.63v9.29c0-1.31.94-2.5,2.24-2.63.09,0,.17-.01.26-.01,1.38,0,2.5,1.12,2.5,2.5v5.16h18.89c2.76,0,5-1.92,5-4.28v-13.8c0-.95-.67-1.78-1.61-1.96-3.82-.75-6.71-4.12-6.71-8.16s2.89-7.41,6.71-8.16c.93-.18,1.61-1.01,1.61-1.96v-13.67c0-2.36-2.24-4.28-5-4.28h0Z"/>
      </g>
    </g>
    <path id="Neu2" data-name="Neu" class="st7" d="M123.22,68.38c1.47-.42,2.78-1.43,2.78-2.71v-9.33c0-5.15-5.08-9.33-11.33-9.33h-12.08c.08.29.14.59.14.91v10.62c0,1.86-1.51,3.36-3.36,3.36s-3.36-1.51-3.36-3.36v-10.62c0-.32.06-.62.14-.91h-60.81c-6.25,0-11.33,4.19-11.33,9.33v9.33c0,1.28,1.31,2.29,2.78,2.71,3.33.95,5.72,3.56,5.72,6.62s-2.39,5.67-5.72,6.62c-1.47.42-2.78,1.43-2.78,2.71v9.33c0,5.15,5.08,9.33,11.33,9.33h60.81c-.08-.29-.14-.59-.14-.91v-10.62c0-1.86,1.51-3.36,3.36-3.36s3.36,1.51,3.36,3.36v10.62c0,.32-.06.62-.14.91h12.08c6.25,0,11.33-4.19,11.33-9.33v-9.33c0-1.28-1.31-2.29-2.78-2.71-3.33-.95-5.72-3.56-5.72-6.62s2.39-5.67,5.72-6.62ZM45.72,60.64h17.91c1.86,0,3.36,1.51,3.36,3.36s-1.51,3.36-3.36,3.36h-17.91c-1.86,0-3.36-1.51-3.36-3.36s1.51-3.36,3.36-3.36ZM75,89.36h-29.28c-1.86,0-3.36-1.51-3.36-3.36s1.51-3.36,3.36-3.36h29.28c1.86,0,3.36,1.51,3.36,3.36s-1.51,3.36-3.36,3.36ZM75,78.36h-29.28c-1.86,0-3.36-1.51-3.36-3.36s1.51-3.36,3.36-3.36h29.28c1.86,0,3.36,1.51,3.36,3.36s-1.51,3.36-3.36,3.36ZM102.73,80.31c0,1.86-1.51,3.36-3.36,3.36s-3.36-1.51-3.36-3.36v-10.62c0-1.86,1.51-3.36,3.36-3.36s3.36,1.51,3.36,3.36v10.62Z"/>
  </g>
  <g id="Konferenzen" class="st2">
    <g id="Alt3" data-name="Alt" class="st2">
      <path class="st7" d="M120.98,31.04H29.02c-2.76,0-5,2.24-5,5v55.72c0,2.76,2.24,5,5,5h91.95c2.76,0,5-2.24,5-5v-55.72c0-2.76-2.24-5-5-5ZM124.29,91.08c0,2.76-1.24,4-4,4H29.71c-2.76,0-4-1.24-4-4v-54.37c0-2.76,1.24-4,4-4h90.58c2.76,0,4,1.24,4,4v54.37Z"/>
      <path class="st7" d="M75,95.3h0c2.76,0,5,2.24,5,5v18.66h-10v-18.66c0-2.76,2.24-5,5-5Z" transform="translate(150 214.27) rotate(180)"/>
      <rect class="st7" x="72.5" y="95.73" width="5" height="41.46" rx="2.5" ry="2.5" transform="translate(-41.46 191.46) rotate(-90)"/>
      <path class="st7" d="M106.25,95.08v-5.09c0-3.1-1.95-5.73-4.68-6.77,1.57-.89,2.63-2.58,2.63-4.51,0-2.87-2.32-5.19-5.19-5.19s-5.19,2.32-5.19,5.19c0,1.94,1.06,3.62,2.64,4.52-2.73,1.04-4.67,3.67-4.67,6.76v5.09h14.48Z"/>
      <path class="st7" d="M58.32,95.08v-5.09c0-3.1-1.95-5.73-4.68-6.77,1.57-.89,2.63-2.58,2.63-4.51,0-2.87-2.32-5.19-5.19-5.19s-5.19,2.32-5.19,5.19c0,1.94,1.06,3.62,2.64,4.52-2.73,1.04-4.67,3.67-4.67,6.76v5.09h14.48Z"/>
      <path class="st7" d="M106.25,64.39v-5.09c0-3.1-1.95-5.73-4.68-6.77,1.57-.89,2.63-2.58,2.63-4.51,0-2.87-2.32-5.19-5.19-5.19s-5.19,2.32-5.19,5.19c0,1.94,1.06,3.62,2.64,4.52-2.73,1.04-4.67,3.67-4.67,6.76v5.09h14.48Z"/>
      <path class="st7" d="M58.32,64.39v-5.09c0-3.1-1.95-5.73-4.68-6.77,1.57-.89,2.63-2.58,2.63-4.51,0-2.87-2.32-5.19-5.19-5.19s-5.19,2.32-5.19,5.19c0,1.94,1.06,3.62,2.64,4.52-2.73,1.04-4.67,3.67-4.67,6.76v5.09h14.48Z"/>
      <rect class="st7" x="74.5" y="32.71" width="1" height="62.37"/>
      <rect class="st7" x="74.5" y="14.6" width="1" height="98.58" transform="translate(138.89 -11.11) rotate(90)"/>
      <g id="Fuß">
        <path class="st7" d="M78,97.3v18.66h15.23c.28,0,.5.22.5.5s-.22.5-.5.5h-36.46c-.28,0-.5-.22-.5-.5s.22-.5.5-.5h15.23v-18.66h6M80,95.3h-10v18.66h-13.23c-1.38,0-2.5,1.12-2.5,2.5s1.12,2.5,2.5,2.5h36.46c1.38,0,2.5-1.12,2.5-2.5s-1.12-2.5-2.5-2.5h-13.23v-18.66h0Z"/>
      </g>
    </g>
    <path id="Call" class="st1" d="M81.48,30.97c20.74,0,37.56,16.82,37.56,37.56,0,2.15-1.73,3.89-3.89,3.89s-3.89-1.73-3.89-3.89c0-16.45-13.34-29.79-29.79-29.79-2.15,0-3.89-1.73-3.89-3.89s1.73-3.89,3.89-3.89ZM82.77,62.05c2.87,0,5.18,2.31,5.18,5.18s-2.31,5.18-5.18,5.18-5.18-2.31-5.18-5.18,2.31-5.18,5.18-5.18ZM77.59,50.39c0-2.15,1.73-3.89,3.89-3.89,12.16,0,22.02,9.86,22.02,22.02,0,2.15-1.73,3.89-3.89,3.89s-3.89-1.73-3.89-3.89c0-7.87-6.38-14.25-14.25-14.25-2.15,0-3.89-1.73-3.89-3.89ZM49.12,36.37c3.19-.87,6.52.76,7.79,3.8l6.56,15.75c1.12,2.67.34,5.76-1.91,7.61l-7.14,5.84c5.26,11.59,14.41,21.04,25.79,26.69l6.25-7.64c1.83-2.25,4.92-3.01,7.61-1.91l15.75,6.57c3.04,1.26,4.68,4.6,3.8,7.79l-.24.89c-2.85,10.47-12.97,19.41-25.32,16.8-28.33-6.01-50.62-28.3-56.62-56.62-2.61-12.35,6.33-22.47,16.79-25.33l.89-.24h.02,0Z"/>
    <path id="Headset" class="st1" d="M73.73,45.16c-12.28,0-22.48,8.9-24.5,20.62,1.45-.47,3-.73,4.61-.73h2.49c4.12,0,7.46,3.34,7.46,7.46v14.92c0,4.12-3.34,7.46-7.46,7.46h-2.49c-8.24,0-14.92-6.68-14.92-14.92v-9.94c0-19.22,15.59-34.81,34.81-34.81s34.81,15.59,34.81,34.81v26.12c0,10.3-8.36,18.65-18.66,18.65l-13.66-.02h-4.97c-4.12,0-7.46-3.34-7.46-7.46s3.34-7.46,7.46-7.46h4.97c4.12,0,7.46,3.34,7.46,7.46h6.22c6.18,0,11.19-5,11.19-11.19v-3.25c-2.19,1.27-4.74,1.99-7.46,1.99h-2.49c-4.12,0-7.46-3.34-7.46-7.46v-14.92c0-4.12,3.34-7.46,7.46-7.46h2.49c1.62,0,3.15.25,4.61.73-2.02-11.7-12.21-20.62-24.5-20.62v.02Z"/>
    <g id="Person" class="st2">
      <circle class="st7" cx="75" cy="60.2" r="16.66"/>
      <path class="st7" d="M49.37,110.18c0-14.16,11.47-25.63,25.63-25.63s25.63,11.47,25.63,25.63v2.56c0,2.84-2.29,5.13-5.13,5.13h-41.01c-2.84,0-5.13-2.29-5.13-5.13v-2.56Z"/>
    </g>
    <g id="Person_Monitor">
      <path class="st7" d="M120.96,31.19c.57,0,.99.36.99.68l-.03,28.38.03,28.89c0,.32-.42.69-.99.69H28.99c-.57,0-.99-.36-.99-.68l.03-28.41-.03-28.87c0-.32.42-.69.99-.69h91.96M120.96,27.19H28.99c-2.76,0-4.99,2.1-4.99,4.69l.03,28.87-.03,28.4c0,2.59,2.24,4.69,4.99,4.69h91.96c2.76,0,4.99-2.1,4.99-4.69l-.03-28.9.03-28.37c0-2.59-2.24-4.69-4.99-4.69h0Z"/>
      <g>
        <path class="st7" d="M48.65,114.66c0-15,12.15-27.15,27.15-27.15s27.15,12.15,27.15,27.15v2.71c0,3-2.43,5.43-5.43,5.43h-43.44c-3,0-5.43-2.43-5.43-5.43v-2.71Z"/>
        <g>
          <path class="st7" d="M89.34,75.45c-1.87,0-3.39-1.52-3.39-3.39v-9.89c0-1.88,1.52-3.4,3.39-3.4h1.65c.89,0,1.75.14,2.57.41l2.46.81-.44-2.55c-1.5-8.66-10.97-14.94-19.77-14.94s-18.28,6.29-19.77,14.96l-.44,2.53,2.45-.79c.84-.27,1.71-.41,2.58-.41h1.65c1.87,0,3.39,1.52,3.39,3.39v9.89c0,1.87-1.52,3.39-3.39,3.39h-1.65c-4.59,0-8.33-3.74-8.33-8.33v-6.59c0-11.86,11.65-21.51,23.51-21.51s23.51,9.65,23.51,21.51v6.59c0,2.95-1.6,5.71-4.17,7.2l-.18.1c-.06.03-.12.06-.17.09-.13.06-.26.13-.39.19-.11.05-.23.1-.34.15-.15.06-.3.12-.45.17-.11.04-.22.07-.34.1-.08.02-.16.04-.25.06-.29.07-.54.12-.78.16h-.1c-.23.05-.4.06-.56.07l-.29.02c-.1,0-.2.01-.31.01h-1.65Z"/>
          <path class="st7" d="M87.79,79.35c-2.74,0-4.97-2.23-4.97-4.97v-14.51c0-2.69,2.14-4.87,4.79-4.97-3.13-2.83-7.26-4.57-11.81-4.57s-8.68,1.74-11.81,4.57c2.65.1,4.78,2.28,4.78,4.97v14.51c0,2.74-2.23,4.97-4.97,4.97h-1.48c3.24,3.83,8.07,6.27,13.48,6.27s10.24-2.44,13.48-6.27h-1.48Z"/>
        </g>
      </g>
    </g>
    <g id="Frame__x2B__Person__x2B__Call" class="st2">
      <path class="st7" d="M35.33,30.43c-6.25,0-11.33,5.08-11.33,11.33v12.74c0,2.35,1.89,4.25,4.25,4.25s4.25-1.89,4.25-4.25v-12.74c0-1.56,1.27-2.83,2.83-2.83h12.74c2.35,0,4.25-1.89,4.25-4.25s-1.89-4.25-4.25-4.25h-12.74ZM101.88,30.43c-2.35,0-4.25,1.89-4.25,4.25s1.89,4.25,4.25,4.25h12.74c1.56,0,2.83,1.27,2.83,2.83v12.74c0,2.35,1.89,4.25,4.25,4.25s4.25-1.89,4.25-4.25v-12.74c0-6.25-5.08-11.33-11.33-11.33h-12.74ZM32.5,96.99c0-2.35-1.89-4.25-4.25-4.25s-4.25,1.89-4.25,4.25v12.74c0,6.25,5.08,11.33,11.33,11.33h12.74c2.35,0,4.25-1.89,4.25-4.25s-1.89-4.25-4.25-4.25h-12.74c-1.56,0-2.83-1.27-2.83-2.83v-12.74ZM125.95,96.99c0-2.35-1.89-4.25-4.25-4.25s-4.25,1.89-4.25,4.25v12.74c0,1.56-1.27,2.83-2.83,2.83h-12.74c-2.35,0-4.25,1.89-4.25,4.25s1.89,4.25,4.25,4.25h12.74c6.25,0,11.33-5.08,11.33-11.33v-12.74ZM59.51,68.67c5.47,0,9.91-4.44,9.91-9.91s-4.44-9.91-9.91-9.91-9.91,4.44-9.91,9.91,4.44,9.91,9.91,9.91ZM59.51,75.75c-9.38,0-16.99,7.61-16.99,16.99v4.25c0,2.35,1.89,4.25,4.25,4.25h25.49c2.35,0,4.25-1.89,4.25-4.25v-4.25c0-9.38-7.61-16.99-16.99-16.99Z"/>
      <path id="Call1" data-name="Call" class="st7" d="M96.49,58.69c6.47,0,11.72,5.25,11.72,11.72,0,.67-.54,1.21-1.21,1.21s-1.21-.54-1.21-1.21c0-5.13-4.16-9.29-9.29-9.29-.67,0-1.21-.54-1.21-1.21s.54-1.21,1.21-1.21ZM96.89,68.39c.89,0,1.62.72,1.62,1.62s-.72,1.62-1.62,1.62-1.62-.72-1.62-1.62.72-1.62,1.62-1.62ZM95.28,64.75c0-.67.54-1.21,1.21-1.21,3.79,0,6.87,3.08,6.87,6.87,0,.67-.54,1.21-1.21,1.21s-1.21-.54-1.21-1.21c0-2.45-1.99-4.44-4.44-4.44-.67,0-1.21-.54-1.21-1.21ZM86.39,60.38c.99-.27,2.04.24,2.43,1.19l2.05,4.91c.35.83.11,1.8-.6,2.37l-2.23,1.82c1.64,3.62,4.49,6.57,8.04,8.33l1.95-2.38c.57-.7,1.54-.94,2.37-.6l4.91,2.05c.95.39,1.46,1.43,1.19,2.43l-.08.28c-.89,3.27-4.05,6.06-7.9,5.24-8.84-1.87-15.79-8.83-17.67-17.67-.81-3.85,1.97-7.01,5.24-7.9l.28-.08h0,0Z"/>
    </g>
    <g id="Frame__x2B__Headset" class="st2">
      <path class="st7" d="M35.32,30.43c-6.25,0-11.34,5.08-11.34,11.34v12.75c0,2.36,1.9,4.25,4.25,4.25s4.25-1.9,4.25-4.25v-12.75c0-1.56,1.28-2.83,2.83-2.83h12.75c2.36,0,4.25-1.9,4.25-4.25s-1.9-4.25-4.25-4.25h-12.75ZM101.92,30.43c-2.36,0-4.25,1.9-4.25,4.25s1.9,4.25,4.25,4.25h12.75c1.56,0,2.83,1.28,2.83,2.83v12.75c0,2.36,1.9,4.25,4.25,4.25s4.25-1.9,4.25-4.25v-12.75c0-6.25-5.08-11.34-11.34-11.34h-12.75ZM32.49,97.04c0-2.36-1.9-4.25-4.25-4.25s-4.25,1.9-4.25,4.25v12.75c0,6.25,5.08,11.34,11.34,11.34h12.75c2.36,0,4.25-1.9,4.25-4.25s-1.9-4.25-4.25-4.25h-12.75c-1.56,0-2.83-1.28-2.83-2.83v-12.75ZM126.01,97.04c0-2.36-1.9-4.25-4.25-4.25s-4.25,1.9-4.25,4.25v12.75c0,1.56-1.28,2.83-2.83,2.83h-12.75c-2.36,0-4.25,1.9-4.25,4.25s1.9,4.25,4.25,4.25h12.75c6.25,0,11.34-5.08,11.34-11.34v-12.75Z"/>
      <path id="Headset1" data-name="Headset" class="st7" d="M75,56.34c-8,0-14.65,5.8-15.96,13.43.94-.3,1.95-.48,3.01-.48h1.62c2.68,0,4.86,2.18,4.86,4.86v9.72c0,2.68-2.18,4.86-4.86,4.86h-1.62c-5.36,0-9.72-4.35-9.72-9.72v-6.48c0-12.52,10.15-22.67,22.67-22.67s22.67,10.15,22.67,22.67v17.01c0,6.71-5.45,12.15-12.16,12.15h-8.9s-3.24-.01-3.24-.01c-2.68,0-4.86-2.18-4.86-4.86s2.18-4.86,4.86-4.86h3.24c2.68,0,4.86,2.18,4.86,4.86h4.05c4.03,0,7.29-3.26,7.29-7.29v-2.12c-1.43.83-3.09,1.3-4.86,1.3h-1.62c-2.68,0-4.86-2.18-4.86-4.86v-9.72c0-2.68,2.18-4.86,4.86-4.86h1.62c1.05,0,2.05.16,3.01.48-1.32-7.62-7.96-13.43-15.96-13.43h0Z"/>
    </g>
    <g id="Frame__x2B__Call" class="st2">
      <path class="st7" d="M35.33,30.43c-6.25,0-11.33,5.08-11.33,11.33v12.74c0,2.35,1.89,4.25,4.25,4.25s4.25-1.89,4.25-4.25v-12.74c0-1.56,1.27-2.83,2.83-2.83h12.74c2.35,0,4.25-1.89,4.25-4.25s-1.89-4.25-4.25-4.25h-12.74ZM101.88,30.43c-2.35,0-4.25,1.89-4.25,4.25s1.89,4.25,4.25,4.25h12.74c1.56,0,2.83,1.27,2.83,2.83v12.74c0,2.35,1.89,4.25,4.25,4.25s4.25-1.89,4.25-4.25v-12.74c0-6.25-5.08-11.33-11.33-11.33h-12.74ZM32.5,96.99c0-2.35-1.89-4.25-4.25-4.25s-4.25,1.89-4.25,4.25v12.74c0,6.25,5.08,11.33,11.33,11.33h12.74c2.35,0,4.25-1.89,4.25-4.25s-1.89-4.25-4.25-4.25h-12.74c-1.56,0-2.83-1.27-2.83-2.83v-12.74ZM125.95,96.99c0-2.35-1.89-4.25-4.25-4.25s-4.25,1.89-4.25,4.25v12.74c0,1.56-1.27,2.83-2.83,2.83h-12.74c-2.35,0-4.25,1.89-4.25,4.25s1.89,4.25,4.25,4.25h12.74c6.25,0,11.33-5.08,11.33-11.33v-12.74Z"/>
      <path id="Call2" data-name="Call" class="st7" d="M78.52,51.61c11.36,0,20.58,9.22,20.58,20.58,0,1.18-.95,2.13-2.13,2.13s-2.13-.95-2.13-2.13c0-9.01-7.31-16.32-16.32-16.32-1.18,0-2.13-.95-2.13-2.13s.95-2.13,2.13-2.13ZM79.23,68.65c1.57,0,2.84,1.27,2.84,2.84s-1.27,2.84-2.84,2.84-2.84-1.27-2.84-2.84,1.27-2.84,2.84-2.84ZM76.4,62.26c0-1.18.95-2.13,2.13-2.13,6.66,0,12.07,5.4,12.07,12.07,0,1.18-.95,2.13-2.13,2.13s-2.13-.95-2.13-2.13c0-4.31-3.5-7.81-7.81-7.81-1.18,0-2.13-.95-2.13-2.13ZM60.79,54.58c1.75-.48,3.58.42,4.27,2.08l3.59,8.63c.61,1.46.19,3.16-1.05,4.17l-3.91,3.2c2.88,6.35,7.9,11.53,14.13,14.63l3.42-4.19c1-1.23,2.7-1.65,4.17-1.05l8.63,3.6c1.67.69,2.56,2.52,2.08,4.27l-.13.49c-1.56,5.74-7.11,10.64-13.88,9.21-15.53-3.29-27.74-15.51-31.03-31.03-1.43-6.77,3.47-12.31,9.2-13.88l.49-.13h0,0Z"/>
    </g>
  </g>
  <g id="Lernmanagement" class="st2">
    <g class="st2">
      <path class="st7" d="M29.02,51.23h92.03c2.76,0,5,2.24,5,5v61.28H24.02v-61.28c0-2.76,2.24-5,5-5Z"/>
      <path class="st7" d="M20.09,115.85h109.83c2.76,0,5,2.24,5,5v11.64H15.09v-11.64c0-2.76,2.24-5,5-5Z" transform="translate(150 248.34) rotate(180)"/>
      <rect class="st8" x="33.43" y="60.53" width="83.29" height="49.09" rx="5" ry="5"/>
      <path class="st6" d="M44.79,42.99h60.33v9.83c0,13.8-11.2,25-25,25h-10.32c-13.8,0-25-11.2-25-25v-9.83h0Z"/>
      <rect class="st6" x="-42.26" y="64.94" width="2.27" height="9.23"/>
      <path class="st6" d="M74,59.57l-38.34-18.55c-1.58-.77-1.59-2.94,0-3.71l38.46-18.83c.62-.3,1.34-.3,1.96,0l37.74,18.69c1.56.77,1.56,2.93,0,3.7l-37.87,18.7c-.61.3-1.33.3-1.95,0Z"/>
      <path class="st3" d="M126.04,115.85v-49.08c0-8.6-7-15.59-15.6-15.59h-5.47v-3.96l8.52-4.02c1.63-.77,2.64-2.36,2.64-4.16,0-1.8-1.01-3.39-2.64-4.16l-35.27-16.63c-2.08-.98-4.46-.98-6.54,0l-35.19,16.6c-1.63.77-2.64,2.36-2.64,4.16s1.01,3.39,2.64,4.16l8.53,4.02v3.99h-5.46c-8.6,0-15.6,7-15.6,15.59v49.08h-8.88v1.53c0,8.33,6.78,15.11,15.11,15.11h89.6c8.33,0,15.11-6.78,15.11-15.11v-1.53h-8.87ZM47.5,66.8c3.48,4.12,11.67,11.02,27.5,11.02,7.86,0,13.84-1.71,18.3-3.93v4.57c-2.23.67-3.88,2.71-3.88,5.16,0,1.43.57,2.79,1.56,3.79l-1.55,10.22h10.8l-1.55-10.22c.99-1,1.55-2.36,1.55-3.79,0-2.45-1.64-4.49-3.88-5.16v-6.31c2.83-1.83,4.83-3.79,6.15-5.35.73-.86,1.3-1.84,1.71-2.89h2.28c3.94,0,7.15,3.1,7.15,6.91v28.81c0,3.81-3.21,6.91-7.15,6.91h-63c-3.94,0-7.15-3.1-7.15-6.91v-28.81c0-3.81,3.21-6.91,7.15-6.91h2.29c.41,1.05.98,2.03,1.71,2.89ZM96.67,94.58h-3.68l1.29-8.48-.78-.54c-.63-.44-1.01-1.16-1.01-1.92,0-1.29,1.05-2.34,2.34-2.34s2.34,1.05,2.34,2.34c0,.77-.38,1.49-1.01,1.92l-.78.54,1.29,8.48ZM101.92,59.95c0,1.81-.62,3.54-1.75,4.88-.89,1.06-2.15,2.32-3.81,3.58v-17.13l5.56-2.62v11.29ZM36.92,39.01c0-.23.06-1,.88-1.39l35.19-16.6c.62-.29,1.29-.44,1.96-.44s1.34.15,1.96.44l35.27,16.63c.82.39.88,1.16.88,1.39s-.06,1-.88,1.39l-16.37,7.72-18.11-9.41-3.43,1.64,18.06,9.41-15.35,7.24c-1.25.59-2.68.59-3.93,0l-35.27-16.63c-.82-.39-.88-1.16-.88-1.39ZM71.77,59.8c1.04.49,2.15.74,3.27.74s2.23-.25,3.27-.74l14.98-7.07v17.71c-4.19,2.37-10.12,4.33-18.3,4.33-14.59,0-22.03-6.23-25.16-9.94-1.13-1.34-1.75-3.07-1.75-4.88v-11.32l23.68,11.16ZM27.04,66.77c0-6.91,5.62-12.53,12.53-12.53h5.46v5.71c0,.3.01.6.04.9h-1.57c-5.63,0-10.21,4.47-10.21,9.97v28.81c0,5.5,4.58,9.97,10.21,9.97h63c5.63,0,10.21-4.47,10.21-9.97v-28.81c0-5.5-4.58-9.97-10.21-9.97h-1.56c.02-.3.04-.6.04-.91v-5.71h5.47c6.91,0,12.53,5.62,12.53,12.53v49.08H27.04v-49.08ZM119.8,129.43H30.2c-6.12,0-11.2-4.59-11.95-10.52h113.5c-.75,5.92-5.83,10.52-11.95,10.52Z"/>
    </g>
    <g id="Alt4" data-name="Alt" class="st2">
      <path class="st7" d="M20.09,120.19h109.83c2.76,0,5,2.24,5,5H15.09c0-2.76,2.24-5,5-5Z" transform="translate(150 245.38) rotate(180)"/>
      <path class="st7" d="M121.05,55.57h-13.65v2.78c0,.7-.04,1.4-.09,2.08h7.9c2.76,0,5,2.24,5,5v42.61c0,2.76-2.24,5-5,5H34.87c-2.76,0-5-2.24-5-5v-42.61c0-2.76,2.24-5,5-5h7.74c-.06-.69-.09-1.38-.09-2.08v-2.78h-13.5c-2.76,0-5,2.24-5,5v57.35h102.02v-57.35c0-2.76-2.24-5-5-5Z"/>
      <path class="st7" d="M113.82,41.51l-36.96-18.3c-1.11-.55-2.41-.55-3.53,0l-37.67,18.45c-1.55.76-1.54,2.96,0,3.71l37.56,18.17c1.11.54,2.4.53,3.51-.01l17.73-8.75h0s-18.98-9.75-18.98-9.75l2.47-1.14,18.77,9.76h.01s17.09-8.43,17.09-8.43c1.53-.76,1.53-2.94,0-3.7Z"/>
      <g>
        <path class="st7" d="M94.45,57.54l-17.69,8.74c-1.1.54-2.4.55-3.5.01l-28.46-13.77v4.65c0,13.81,11.19,25,25,25h10.32c5.33,0,10.27-1.68,14.33-4.52v-20.11Z"/>
        <path class="st7" d="M96.73,56.42v19.43c5.15-4.58,8.4-11.25,8.4-18.69v-4.89l-8.4,4.15Z"/>
      </g>
      <path class="st7" d="M114.53,64.71c.83,0,1.5.67,1.5,1.5v41.05c0,.83-.67,1.5-1.5,1.5H35.53c-.83,0-1.5-.67-1.5-1.5v-41.05c0-.83.67-1.5,1.5-1.5h5.73c3,12.69,14.57,21.73,28.14,21.73h11.1c3,0,5.96-.45,8.78-1.33-.33.8-.5,1.67-.5,2.57,0,1.82.72,3.53,1.98,4.79l-1.76,8.85-.48,2.39h14.11l-.48-2.39-1.76-8.85c1.26-1.26,1.98-2.97,1.98-4.79,0-2.58-1.45-4.88-3.66-6.02v-1.54c5.01-3.97,8.48-9.36,9.92-15.41h5.89M114.53,62.71h-7.52c-1.16,6.69-4.95,12.49-10.29,16.42v3.9c2.1.51,3.66,2.39,3.66,4.65,0,1.68-.87,3.15-2.17,4.01l1.99,10.02h-9.24l1.99-10.02c-1.31-.86-2.17-2.33-2.17-4.01,0-2.26,1.56-4.14,3.66-4.65v-2.38c-4.07,2.4-8.83,3.79-13.94,3.79h-11.1c-13.32,0-24.37-9.4-26.51-21.73h-7.37c-1.93,0-3.5,1.57-3.5,3.5v41.05c0,1.93,1.57,3.5,3.5,3.5h79c1.93,0,3.5-1.57,3.5-3.5v-41.05c0-1.93-1.57-3.5-3.5-3.5h0Z"/>
    </g>
    <g id="Hut_auf_Laptop" class="st2">
      <path class="st7" d="M39.86,60.71h3.14v-11.71h-3.14c-6.46,0-11.71,5.25-11.71,11.71v43.93h11.71v-43.93Z"/>
      <path class="st7" d="M107,60.71h3.14v43.93h11.71v-43.93c0-6.46-5.25-11.71-11.71-11.71h-3.14v11.71Z"/>
      <path class="st7" d="M130.06,113.43H19.94c-1.94,0-3.51,1.57-3.51,3.51,0,7.76,6.3,8.06,14.06,8.06h89.03c7.76,0,14.06-.3,14.06-8.06,0-1.94-1.57-3.51-3.51-3.51Z"/>
      <path class="st7" d="M52.98,39.88l22.99,9.46c1.08.44,2.22.67,3.38.67s2.31-.23,3.38-.67l26.64-10.97c.99-.41,1.63-1.36,1.63-2.43s-.64-2.02-1.63-2.43l-26.64-10.97c-1.08-.44-2.22-.67-3.38-.67s-2.31.23-3.38.67l-26.64,10.97c-.99.41-1.63,1.36-1.63,2.43v32.53c0,1.46,1.18,2.64,2.64,2.64s2.64-1.18,2.64-2.64v-28.59ZM58.25,47.76v12.8c0,5.82,9.45,10.55,21.1,10.55s21.1-4.73,21.1-10.55v-12.81l-15.7,6.47c-1.71.7-3.54,1.07-5.4,1.07s-3.68-.36-5.4-1.07l-15.7-6.47h0Z"/>
    </g>
    <g id="Hut_in_Laptop" class="st2">
      <path class="st7" d="M39.36,37c-6.46,0-11.71,5.25-11.71,11.71v43.93h11.71v-43.93h70.29v43.93h11.71v-43.93c0-6.46-5.25-11.71-11.71-11.71H39.36ZM19.44,101.43c-1.94,0-3.51,1.57-3.51,3.51,0,7.76,6.3,8.06,14.06,8.06h89.03c7.76,0,14.06-.3,14.06-8.06,0-1.94-1.57-3.51-3.51-3.51H19.44Z"/>
      <path class="st7" d="M57.89,69.33l14.48,5.96c.68.28,1.4.42,2.13.42s1.45-.15,2.13-.42l16.77-6.91c.62-.26,1.02-.86,1.02-1.53s-.4-1.27-1.02-1.53l-16.77-6.91c-.68-.28-1.4-.42-2.13-.42s-1.45.15-2.13.42l-16.77,6.91c-.62.26-1.02.86-1.02,1.53v20.48c0,.92.74,1.66,1.66,1.66s1.66-.74,1.66-1.66v-18ZM61.21,74.3v8.06c0,3.67,5.95,6.64,13.29,6.64s13.29-2.98,13.29-6.64v-8.07l-9.89,4.08c-1.08.44-2.23.67-3.4.67s-2.32-.23-3.4-.67l-9.89-4.08h0Z"/>
    </g>
    <g id="Hut_auf_Buch" class="st2">
      <path class="st7" d="M53.95,39.73l20.09,8.27c.94.38,1.94.59,2.96.59s2.02-.2,2.96-.59l23.28-9.58c.86-.36,1.42-1.19,1.42-2.12s-.56-1.77-1.42-2.12l-23.28-9.58c-.94-.38-1.94-.59-2.96-.59s-2.02.2-2.96.59l-23.28,9.58c-.86.36-1.42,1.19-1.42,2.12v28.43c0,1.28,1.03,2.3,2.3,2.3s2.3-1.03,2.3-2.3v-24.99ZM58.56,46.62v11.19c0,5.09,8.26,9.22,18.44,9.22s18.44-4.13,18.44-9.22v-11.2l-13.72,5.66c-1.5.61-3.09.93-4.72.93s-3.22-.32-4.72-.93l-13.72-5.66h0Z"/>
      <path class="st7" d="M104.31,102.97v-37.69c0-2.53-1.5-4.7-3.65-5.7-1.08,7.15-11.26,12.76-23.66,12.76-7.31,0-13.83-1.96-18.19-5.03-1.07,2.93-3.88,5.04-7.17,5.04-2.32,0-4.4-1.05-5.81-2.7-.09.62-.14,1.26-.14,1.9v41.88c0,6.94,5.63,12.56,12.56,12.56h41.88c2.32,0,4.19-1.87,4.19-4.19s-1.87-4.19-4.19-4.19v-8.73c2.43-.86,4.19-3.19,4.19-5.93ZM91.75,117.62h-33.5c-2.32,0-4.19-1.87-4.19-4.19s1.87-4.19,4.19-4.19h33.5v8.38ZM88.61,97.73h-23.03c-1.74,0-3.14-1.4-3.14-3.14s1.4-3.14,3.14-3.14h23.03c1.74,0,3.14,1.4,3.14,3.14s-1.4,3.14-3.14,3.14ZM88.61,85.17h-23.03c-1.74,0-3.14-1.4-3.14-3.14s1.4-3.14,3.14-3.14h23.03c1.74,0,3.14,1.4,3.14,3.14s-1.4,3.14-3.14,3.14Z"/>
    </g>
    <path id="Buch__x2B__Hut" class="st7" d="M119.63,90.94v-57.38c0-5.28-4.28-9.56-9.56-9.56h-60.57c-10.56,0-19.13,8.57-19.13,19.13v63.76c0,10.56,8.57,19.13,19.13,19.13h63.76c3.53,0,6.38-2.85,6.38-6.38s-2.85-6.38-6.38-6.38v-13.29c3.71-1.32,6.38-4.86,6.38-9.03ZM100.5,113.26h-51.01c-3.53,0-6.38-2.85-6.38-6.38s2.85-6.38,6.38-6.38h51.01v12.75ZM57.56,73.43v-11.19h0s13.72,5.65,13.72,5.65c1.5.61,3.09.93,4.72.93s3.22-.32,4.72-.93l13.72-5.66v11.2c0,5.09-8.26,9.22-18.44,9.22s-18.44-4.13-18.44-9.22ZM102.24,54.04l-23.28,9.58c-.94.38-1.94.59-2.96.59s-2.02-.2-2.96-.59l-20.09-8.27v24.99c0,1.28-1.03,2.3-2.3,2.3s-2.3-1.03-2.3-2.3v-28.43c0-.93.56-1.77,1.42-2.12l23.28-9.58c.94-.38,1.94-.59,2.96-.59s2.02.2,2.96.59l23.28,9.58c.86.36,1.42,1.19,1.42,2.12s-.56,1.77-1.42,2.12Z"/>
  </g>
  <g id="Desktop" class="st2">
    <g id="alt2" data-name="alt" class="st2">
      <g class="st2">
        <rect class="st7" x="36.1" y="69" width="34.45" height="21.88" rx="3.17" ry="3.17"/>
        <g>
          <path class="st7" d="M24.03,108.7c0,2.76,2.24,5,5,5h91.96c2.76,0,5-2.24,5-5v-58.6H24.03v58.6ZM84.2,65.31h1.24c.93-1.95,2.92-3.3,5.23-3.3s4.3,1.35,5.23,3.3h17.74c1.38,0,2.5,1.12,2.5,2.5s-1.12,2.5-2.5,2.5h-17.74c-.93,1.95-2.92,3.3-5.23,3.3s-4.3-1.35-5.23-3.3h-1.24c-1.38,0-2.5-1.12-2.5-2.5s1.12-2.5,2.5-2.5ZM84.2,80.73h18.05c.93-1.97,2.93-3.34,5.25-3.34s4.32,1.37,5.25,3.34h.89c1.38,0,2.5,1.12,2.5,2.5s-1.12,2.5-2.5,2.5h-.93c-.94,1.93-2.92,3.26-5.21,3.26s-4.27-1.33-5.21-3.26h-18.09c-1.38,0-2.5-1.12-2.5-2.5s1.12-2.5,2.5-2.5ZM84.2,96.14h1.15c.89-2.05,2.94-3.49,5.32-3.49s4.43,1.44,5.32,3.49h17.65c1.38,0,2.5,1.12,2.5,2.5s-1.12,2.5-2.5,2.5h-17.83c-.97,1.85-2.91,3.12-5.14,3.12s-4.17-1.27-5.14-3.12h-1.33c-1.38,0-2.5-1.12-2.5-2.5s1.12-2.5,2.5-2.5ZM33.71,71.61c0-2.76,2.23-4.99,4.99-4.99h29.24c2.76,0,4.99,2.23,4.99,4.99v16.67c0,2.76-2.23,4.99-4.99,4.99h-12.61v5.91h5.23c.52,0,.94.42.94.94v.07c0,.52-.42.94-.94.94h-14.39c-.52,0-.94-.42-.94-.94v-.07c0-.52.42-.94.94-.94h5.23v-5.91h-12.7c-2.76,0-4.99-2.23-4.99-4.99v-16.67Z"/>
          <path class="st7" d="M125.98,47.83v-4.29c0-2.76-2.24-5-5-5H29.02c-2.76,0-5,2.24-5,5v4.29h101.95Z"/>
        </g>
      </g>
      <g>
        <path class="st7" d="M120.95,36.52c1.65,0,3,1.35,3,3v61.83H26v-61.83c0-1.65,1.35-3,3-3h91.95M120.95,34.52H29c-2.76,0-5,2.24-5,5v63.83h101.95v-63.83c0-2.76-2.24-5-5-5h0Z"/>
        <path class="st7" d="M24,103.35h101.95v7.13c0,2.76-2.24,5-5,5H29c-2.76,0-5-2.24-5-5v-7.13h0Z"/>
        <rect class="st7" x="33.24" y="43.77" width="14.89" height="14.89" rx="2" ry="2"/>
        <rect class="st7" x="52.27" y="43.77" width="14.89" height="14.89" rx="2" ry="2"/>
        <rect class="st7" x="33.24" y="62.67" width="14.89" height="14.89" rx="2" ry="2"/>
        <path class="st7" d="M92.29,63.08l5.29,2.54,5.1,2.41-4.34,1.13-.54.14-.17.53-1.22,3.92-2.01-5.17-2.11-5.5M90.45,61.09l3.01,7.84,3.05,7.84,2.06-6.65,7.01-1.82-7.59-3.59-7.56-3.62h0Z"/>
      </g>
    </g>
    <path class="st7" d="M44.32,41.83c-5.64,0-10.23,4.59-10.23,10.23v38.34h10.23v-38.34h61.35v38.34h10.23v-38.34c0-5.64-4.59-10.23-10.23-10.23h-61.35ZM26.94,98.07c-1.69,0-3.07,1.37-3.07,3.07,0,6.77,5.5,7.03,12.27,7.03h77.71c6.77,0,12.27-.26,12.27-7.03,0-1.69-1.37-3.07-3.07-3.07H26.94Z"/>
  </g>
  <g id="KI_Chat" class="st2">
    <g id="Alt5" data-name="Alt" class="st2">
      <path class="st7" d="M88.57,53.51c0-18.05-14.63-32.68-32.68-32.68s-32.68,14.63-32.68,32.68c0,6.63,1.98,12.79,5.37,17.94l-5.96,13.21c-1.14,2.52,1.45,5.11,3.97,3.97l13.92-6.28c4.59,2.45,9.82,3.85,15.39,3.85,18.05,0,32.68-14.63,32.68-32.68ZM57.38,64.69c-.26,0-.48-.02-.67-.06-.18-.04-.35-.09-.49-.17-.14-.07-.26-.16-.36-.26-.1-.1-.2-.23-.29-.37l-5.6-7.83c-.19-.27-.42-.46-.67-.58-.26-.11-.62-.17-1.09-.17h-1.26v9.44h-4.5v-21.77h4.5v8.99h.88c.74,0,1.28-.23,1.6-.69l5.51-7.36c.26-.35.54-.59.85-.73s.69-.2,1.14-.2h3.9l-6.93,8.93c-.45.58-.92,1-1.4,1.24.35.14.67.32.95.55s.55.52.81.89l7.11,10.15h-4ZM69.03,64.69h-4.53v-21.77h4.53v21.77Z"/>
      <path class="st7" d="M122.67,56.1c1.65,0,3,1.35,3,3v50.6c0,1.65-1.35,3-3,3h-14.03l.3,2.26,1.48,11.08c.04.3-.03.56-.22.78-.2.22-.5.36-.79.36-.21,0-.41-.07-.6-.22l-17.77-13.68s-.08-.08-.13-.12l-.56-.47h-24.18c-1.65,0-3-1.35-3-3v-19.97c7.49-1.51,14.43-5.37,19.7-10.99,2.67-2.62,5.95-8.49,6.08-8.73l.02-.04.02-.04c2.16-4.35,3.42-8.99,3.76-13.82h29.91M122.67,54.1h-31.82c-.09,5.36-1.39,10.42-3.64,14.93,0,0-3.27,5.88-5.77,8.31-5.25,5.62-12.31,9.51-20.27,10.71v21.64c0,2.76,2.24,5,5,5h23.45s.05.06.09.09l17.87,13.76c.57.44,1.2.63,1.82.63,1.69,0,3.25-1.46,2.99-3.41l-1.48-11.08h11.75c2.76,0,5-2.24,5-5v-50.6c0-2.76-2.24-5-5-5h0Z"/>
    </g>
    <g id="Neu3" data-name="Neu">
      <path class="st7" d="M91.95,55.22c0-17.16-15.19-31.08-33.9-31.08s-33.9,13.91-33.9,31.08c0,6.99,2.52,13.45,6.78,18.65l-6.29,11.87c-.88,1.64-.58,3.67.74,4.98s3.34,1.61,4.98.74l14.41-7.63c4.08,1.59,8.56,2.47,13.28,2.47,18.72,0,33.9-13.91,33.9-31.08ZM60,66.15c-.48,0-.84-.07-1.07-.2-.24-.13-.43-.33-.59-.59l-6.13-8.01c-.2-.26-.43-.45-.67-.56-.25-.11-.61-.17-1.07-.17h-1.27v9.54h-4.03v-21.71h4.03v9.1h.95c.38,0,.69-.05.94-.16s.46-.27.65-.5l5.98-7.58c.25-.32.51-.54.79-.67s.62-.19,1.04-.19h3.48l-7.31,9.02c-.23.28-.45.52-.66.7-.21.19-.44.35-.68.47.33.12.63.29.89.51.27.22.52.5.77.84l7.53,10.15h-3.57ZM70.5,66.15h-4.05v-21.69h4.05v21.69Z"/>
      <path class="st7" d="M119.08,107.77c4.26-5.19,6.78-11.65,6.78-18.65,0-14.55-10.89-26.75-25.6-30.14-2.03,20.45-20.45,35.53-41.64,35.79,2.9,14.46,16.72,25.43,33.34,25.43,4.71,0,9.2-.88,13.28-2.47l14.41,7.63c1.64.88,3.67.58,4.98-.74,1.31-1.32,1.61-3.34.74-4.98l-6.29-11.87Z"/>
    </g>
  </g>
  <g id="Chat" class="st2">
    <g id="Alt6" data-name="Alt" class="st2">
      <path class="st7" d="M88.57,53.51c0-18.05-14.63-32.68-32.68-32.68s-32.68,14.63-32.68,32.68c0,6.63,1.98,12.79,5.37,17.94l-5.96,13.21c-1.14,2.52,1.45,5.11,3.97,3.97l13.92-6.28c4.59,2.45,9.82,3.85,15.39,3.85,18.05,0,32.68-14.63,32.68-32.68ZM57.38,64.69c-.26,0-.48-.02-.67-.06-.18-.04-.35-.09-.49-.17-.14-.07-.26-.16-.36-.26-.1-.1-.2-.23-.29-.37l-5.6-7.83c-.19-.27-.42-.46-.67-.58-.26-.11-.62-.17-1.09-.17h-1.26v9.44h-4.5v-21.77h4.5v8.99h.88c.74,0,1.28-.23,1.6-.69l5.51-7.36c.26-.35.54-.59.85-.73s.69-.2,1.14-.2h3.9l-6.93,8.93c-.45.58-.92,1-1.4,1.24.35.14.67.32.95.55s.55.52.81.89l7.11,10.15h-4ZM69.03,64.69h-4.53v-21.77h4.53v21.77Z"/>
      <path class="st7" d="M122.67,56.1c1.65,0,3,1.35,3,3v50.6c0,1.65-1.35,3-3,3h-14.03l.3,2.26,1.48,11.08c.04.3-.03.56-.22.78-.2.22-.5.36-.79.36-.21,0-.41-.07-.6-.22l-17.77-13.68s-.08-.08-.13-.12l-.56-.47h-24.18c-1.65,0-3-1.35-3-3v-19.97c7.49-1.51,14.43-5.37,19.7-10.99,2.67-2.62,5.95-8.49,6.08-8.73l.02-.04.02-.04c2.16-4.35,3.42-8.99,3.76-13.82h29.91M122.67,54.1h-31.82c-.09,5.36-1.39,10.42-3.64,14.93,0,0-3.27,5.88-5.77,8.31-5.25,5.62-12.31,9.51-20.27,10.71v21.64c0,2.76,2.24,5,5,5h23.45s.05.06.09.09l17.87,13.76c.57.44,1.2.63,1.82.63,1.69,0,3.25-1.46,2.99-3.41l-1.48-11.08h11.75c2.76,0,5-2.24,5-5v-50.6c0-2.76-2.24-5-5-5h0Z"/>
    </g>
    <g id="Neu4" data-name="Neu">
      <path class="st7" d="M91.95,55.22c0-17.16-15.19-31.08-33.9-31.08s-33.9,13.91-33.9,31.08c0,6.99,2.52,13.45,6.78,18.65l-6.29,11.87c-.88,1.64-.58,3.67.74,4.98s3.34,1.61,4.98.74l14.41-7.63c4.08,1.59,8.56,2.47,13.28,2.47,18.72,0,33.9-13.91,33.9-31.08Z"/>
      <path class="st7" d="M119.08,107.77c4.26-5.19,6.78-11.65,6.78-18.65,0-14.55-10.89-26.75-25.6-30.14-2.03,20.45-20.45,35.53-41.64,35.79,2.9,14.46,16.72,25.43,33.34,25.43,4.71,0,9.2-.88,13.28-2.47l14.41,7.63c1.64.88,3.67.58,4.98-.74,1.31-1.32,1.61-3.34.74-4.98l-6.29-11.87Z"/>
    </g>
  </g>
  <g id="Whiteboard" class="st2">
    <g id="V1" class="st2">
      <path id="Fontawesome" class="st7" d="M41,41c-6.25,0-11.33,5.08-11.33,11.33v45.33c-3.13,0-5.67,2.53-5.67,5.67s2.53,5.67,5.67,5.67h90.67c3.13,0,5.67-2.53,5.67-5.67s-2.53-5.67-5.67-5.67v-45.33c0-6.25-5.08-11.33-11.33-11.33H41ZM69.33,97.67h-28.33v-45.33h68v45.33h-39.67Z"/>
      <path class="st7" d="M96.48,89.47l-2.59-1.69,5.19-7.94,2.59,1.69c.78.51,1.33,1.31,1.52,2.22s.01,1.87-.5,2.64l-1.34,2.06c-.51.78-1.31,1.33-2.22,1.52s-1.87.01-2.64-.5ZM91.94,86.5l-12.39-8.1c-.62-.4-1.12-.96-1.46-1.62l-2.96-5.73c-.19-.37-.17-.82.06-1.18.23-.35.63-.56,1.05-.53l6.44.42c.74.05,1.45.28,2.07.69l12.38,8.11-5.19,7.94Z"/>
    </g>
    <g id="V2">
      <path class="st7" d="M112.81,115.3l-5-3.27,10.05-15.37,5,3.27c1.51.98,2.57,2.53,2.94,4.3s.02,3.61-.97,5.12l-2.6,3.98c-.98,1.51-2.53,2.57-4.3,2.94s-3.61.02-5.12-.97ZM104.03,109.55l-23.98-15.68c-1.19-.78-2.17-1.87-2.83-3.13l-5.73-11.1c-.37-.72-.33-1.59.12-2.28.45-.68,1.23-1.07,2.04-1.02l12.46.81c1.42.1,2.8.55,4,1.34l23.96,15.69-10.05,15.37Z"/>
      <path class="st7" d="M75.75,96.38h-36v-42h62.99v27.03l10.5,6.86v-33.89c0-5.79-4.71-10.5-10.5-10.5h-62.99c-5.79,0-10.5,4.71-10.5,10.5v42c-2.9,0-5.25,2.35-5.25,5.25s2.35,5.25,5.25,5.25h62.57l-16.07-10.5Z"/>
    </g>
  </g>
  <g id="QR-Code" class="st2">
    <g id="Alt7" data-name="Alt" class="st2">
      <g>
        <g>
          <path class="st7" d="M70.83,34.85h-36.19v36.19h36.19v-36.19ZM65.8,66.01h-26.13v-26.13h26.13v26.13Z"/>
          <rect class="st7" x="44.88" y="45.09" width="15.7" height="15.7"/>
          <path class="st7" d="M79.44,34.85v36.19h36.19v-36.19h-36.19ZM110.6,66.01h-26.13v-26.13h26.13v26.13Z"/>
          <rect class="st7" x="89.68" y="45.09" width="15.7" height="15.7"/>
          <path class="st7" d="M34.64,115.17h36.19v-36.19h-36.19v36.19ZM39.67,84.01h26.13v26.13h-26.13v-26.13Z"/>
          <rect class="st7" x="44.88" y="89.22" width="15.7" height="15.7"/>
        </g>
        <rect class="st7" x="79.48" y="89.21" width="10.24" height="5.2"/>
        <rect class="st7" x="79.48" y="99.61" width="5.12" height="15.6"/>
        <rect class="st7" x="94.84" y="110.01" width="5.12" height="5.2"/>
        <polygon class="st7" points="99.96 105.06 99.96 89.21 94.84 89.21 94.84 94.41 89.72 94.41 89.72 110.01 94.84 110.01 94.84 105.06 99.96 105.06"/>
        <polygon class="st7" points="115.63 99.59 115.63 94.47 110.44 94.47 106.45 94.47 104.97 94.47 104.97 104.97 110.44 104.97 110.44 99.59 115.63 99.59"/>
        <rect class="st7" x="104.97" y="110.09" width="5.36" height="5.12"/>
        <rect class="st7" x="110.33" y="104.97" width="5.36" height="5.12"/>
        <polygon class="st7" points="99.94 89.4 105.15 89.4 105.15 84.26 115.65 84.26 115.65 78.98 99.94 78.98 99.94 84.26 99.94 84.26 99.94 89.4"/>
        <rect class="st7" x="79.48" y="78.98" width="10.24" height="5.2"/>
        <rect class="st7" x="89.71" y="84.18" width="5.12" height="5.03"/>
      </g>
      <path class="st7" d="M123.46,125.78h-26.58c-1.38,0-2.5-1.12-2.5-2.5s1.12-2.5,2.5-2.5h24.08v-24.08c0-1.38,1.12-2.5,2.5-2.5s2.5,1.12,2.5,2.5v26.58c0,1.38-1.12,2.5-2.5,2.5Z"/>
      <path class="st7" d="M24.01,123.23v-26.58c0-1.38,1.12-2.5,2.5-2.5s2.5,1.12,2.5,2.5v24.08h24.08c1.38,0,2.5,1.12,2.5,2.5s-1.12,2.5-2.5,2.5h-26.58c-1.38,0-2.5-1.12-2.5-2.5Z"/>
      <path class="st7" d="M123.49,24.22h-26.58c-1.38,0-2.5,1.12-2.5,2.5s1.12,2.5,2.5,2.5h24.08v24.08c0,1.38,1.12,2.5,2.5,2.5s2.5-1.12,2.5-2.5v-26.58c0-1.38-1.12-2.5-2.5-2.5Z"/>
      <path class="st7" d="M24.04,26.77v26.58c0,1.38,1.12,2.5,2.5,2.5s2.5-1.12,2.5-2.5v-24.08h24.08c1.38,0,2.5-1.12,2.5-2.5s-1.12-2.5-2.5-2.5h-26.58c-1.38,0-2.5,1.12-2.5,2.5Z"/>
    </g>
    <g>
      <g>
        <path class="st7" d="M71.27,40.46h-31.11v31.11h31.11v-31.11ZM66.95,67.24h-22.46v-22.46h22.46v22.46Z"/>
        <rect class="st7" x="48.97" y="49.26" width="13.5" height="13.5"/>
        <path class="st7" d="M78.68,40.46v31.11h31.11v-31.11h-31.11ZM105.46,67.24h-22.46v-22.46h22.46v22.46Z"/>
        <rect class="st7" x="87.48" y="49.26" width="13.5" height="13.5"/>
        <path class="st7" d="M40.16,109.51h31.11v-31.11h-31.11v31.11ZM44.49,82.72h22.46v22.46h-22.46v-22.46Z"/>
        <rect class="st7" x="48.97" y="87.2" width="13.5" height="13.5"/>
      </g>
      <rect class="st7" x="78.71" y="87.19" width="8.8" height="4.47"/>
      <rect class="st7" x="78.71" y="96.13" width="4.4" height="13.41"/>
      <rect class="st7" x="91.92" y="105.07" width="4.4" height="4.47"/>
      <polygon class="st7" points="96.32 100.82 96.32 87.19 91.92 87.19 91.92 91.66 87.52 91.66 87.52 105.07 91.92 105.07 91.92 100.82 96.32 100.82"/>
      <polygon class="st7" points="109.78 96.11 109.78 91.71 105.33 91.71 101.89 91.71 100.63 91.71 100.63 100.74 105.33 100.74 105.33 96.11 109.78 96.11"/>
      <rect class="st7" x="100.63" y="105.14" width="4.6" height="4.4"/>
      <rect class="st7" x="105.23" y="100.74" width="4.6" height="4.4"/>
      <polygon class="st7" points="96.3 87.35 100.78 87.35 100.78 82.94 109.81 82.94 109.81 78.4 96.3 78.4 96.3 82.94 96.3 82.94 96.3 87.35"/>
      <rect class="st7" x="78.71" y="78.4" width="8.8" height="4.47"/>
      <rect class="st7" x="87.51" y="82.87" width="4.4" height="4.33"/>
    </g>
    <g>
      <path class="st7" d="M35.33,24.67c-6.25,0-11.33,5.08-11.33,11.33v12.75c0,2.36,1.89,4.25,4.25,4.25s4.25-1.89,4.25-4.25v-12.75c0-1.56,1.27-2.83,2.83-2.83h12.75c2.36,0,4.25-1.89,4.25-4.25s-1.89-4.25-4.25-4.25h-12.75Z"/>
      <path class="st7" d="M101.92,24.67c-2.36,0-4.25,1.89-4.25,4.25s1.89,4.25,4.25,4.25h12.75c1.56,0,2.83,1.27,2.83,2.83v12.75c0,2.36,1.89,4.25,4.25,4.25s4.25-1.89,4.25-4.25v-12.75c0-6.25-5.08-11.33-11.33-11.33h-12.75Z"/>
      <path class="st7" d="M32.5,101.25c0-2.36-1.89-4.25-4.25-4.25s-4.25,1.89-4.25,4.25v12.75c0,6.25,5.08,11.33,11.33,11.33h12.75c2.36,0,4.25-1.89,4.25-4.25s-1.89-4.25-4.25-4.25h-12.75c-1.56,0-2.83-1.28-2.83-2.83v-12.75Z"/>
      <path class="st7" d="M126,101.25c0-2.36-1.89-4.25-4.25-4.25s-4.25,1.89-4.25,4.25v12.75c0,1.56-1.28,2.83-2.83,2.83h-12.75c-2.36,0-4.25,1.89-4.25,4.25s1.89,4.25,4.25,4.25h12.75c6.25,0,11.33-5.08,11.33-11.33v-12.75Z"/>
    </g>
  </g>
  <g id="Weiterleitung" class="st2">
    <g>
      <rect class="st7" x="115.22" y="83.43" width="10.73" height="9.64"/>
      <path class="st7" d="M115.22,53.31h10.73v-10.95c0-3.33-2.7-6.02-6.02-6.02h-4.7v16.98Z"/>
      <rect class="st7" x="115.22" y="70.18" width="10.73" height="9.64"/>
      <path class="st7" d="M115.22,96.69v16.98h4.7c3.33,0,6.02-2.7,6.02-6.02v-10.95h-10.73Z"/>
      <rect class="st7" x="115.22" y="56.92" width="10.73" height="9.64"/>
      <path class="st7" d="M111.61,36.33H30.07c-3.33,0-6.02,2.7-6.02,6.02v65.28c0,3.33,2.7,6.02,6.02,6.02h81.53V36.33ZM88.05,99.75c-1.12,1.12-2.78,1.44-4.23.84s-2.39-2.03-2.39-3.59v-7.76h-40.75c-3.21,0-5.82-2.61-5.82-5.82v-28.24c0-3.21,2.61-5.82,5.82-5.82h3.88c3.21,0,5.82,2.61,5.82,5.82v18.53h31.05v-7.76c0-1.56.95-2.98,2.4-3.59,1.46-.61,3.12-.27,4.23.84l15.52,15.52h-.01c1.52,1.53,1.52,3.99,0,5.51l-15.52,15.52Z"/>
    </g>
  </g>
  <g id="Frame" class="st2">
    <g>
      <rect class="st7" x="115.22" y="83.43" width="10.73" height="9.64"/>
      <path class="st7" d="M115.22,53.31h10.73v-10.95c0-3.33-2.7-6.02-6.02-6.02h-4.7v16.98Z"/>
      <rect class="st7" x="115.22" y="70.18" width="10.73" height="9.64"/>
      <path class="st7" d="M115.22,96.69v16.98h4.7c3.33,0,6.02-2.7,6.02-6.02v-10.95h-10.73Z"/>
      <rect class="st7" x="115.22" y="56.92" width="10.73" height="9.64"/>
      <path class="st7" d="M30.07,36.33c-3.33,0-6.02,2.7-6.02,6.02v65.28c0,3.33,2.7,6.02,6.02,6.02h81.53V36.33H30.07ZM49.66,78.57l21.73-21.73c.71-.71,1.85-.71,2.56,0s.71,1.85,0,2.56l-21.73,21.73c-.71.71-1.85.71-2.56,0-.71-.71-.71-1.85,0-2.56ZM85.88,71.32l-21.73,21.73c-.71.71-1.85.71-2.56,0-.71-.71-.71-1.85,0-2.56l21.73-21.73c.71-.71,1.85-.71,2.56,0s.71,1.85,0,2.56ZM87.62,57.76l-37.03,37.03c-.71.71-1.85.71-2.56,0-.71-.71-.71-1.85,0-2.56l37.03-37.03c.71-.71,1.85-.71,2.56,0s.71,1.85,0,2.56Z"/>
    </g>
  </g>
  <g id="Eingebettet" class="st2">
    <g>
      <rect class="st7" x="115.22" y="83.43" width="10.73" height="9.64"/>
      <path class="st7" d="M115.22,53.31h10.73v-10.95c0-3.33-2.7-6.02-6.02-6.02h-4.7v16.98Z"/>
      <rect class="st7" x="115.22" y="70.18" width="10.73" height="9.64"/>
      <path class="st7" d="M115.22,96.69v16.98h4.7c3.33,0,6.02-2.7,6.02-6.02v-10.95h-10.73Z"/>
      <rect class="st7" x="115.22" y="56.92" width="10.73" height="9.64"/>
      <rect class="st7" x="24.05" y="70.18" width="21.38" height="9.64"/>
      <rect class="st7" x="24.05" y="56.92" width="21.38" height="9.64"/>
      <rect class="st7" x="24.05" y="83.43" width="21.38" height="9.64"/>
      <path class="st7" d="M45.43,53.31v-16.98h-15.35c-3.33,0-6.02,2.7-6.02,6.02v10.95h21.38Z"/>
      <path class="st7" d="M45.43,96.69h-21.38v10.95c0,3.33,2.7,6.02,6.02,6.02h15.35v-16.98Z"/>
      <path class="st7" d="M49.04,36.33v77.33h62.56V36.33h-62.56ZM78.52,83.43h-17.65c-1,0-1.81-.81-1.81-1.81s.81-1.81,1.81-1.81h17.65c1,0,1.81.81,1.81,1.81s-.81,1.81-1.81,1.81ZM99.78,70.18h-38.91c-1,0-1.81-.81-1.81-1.81s.81-1.81,1.81-1.81h38.91c1,0,1.81.81,1.81,1.81s-.81,1.81-1.81,1.81ZM99.78,56.92h-38.91c-1,0-1.81-.81-1.81-1.81s.81-1.81,1.81-1.81h38.91c1,0,1.81.81,1.81,1.81s-.81,1.81-1.81,1.81Z"/>
    </g>
  </g>
  <g id="Einstellungen" class="st2">
    <path class="st7" d="M63.51,28.78c.56-2.78,3.02-4.78,5.87-4.78h11.21c2.85,0,5.31,2.01,5.87,4.78l-.02,12.11c2.64,1.13,10.1,5.42,12.35,7.13l10.47-6.06c2.7-.9,5.66.23,7.09,2.7l5.61,9.71c1.43,2.48.92,5.59-1.22,7.48l-10.48,6.01c.17,1.39.73,5.69.73,7.13s-.57,5.72-.72,7.11l10.49,6.05c2.14,1.89,2.63,5.03,1.22,7.48l-5.61,9.71c-1.43,2.46-4.39,3.6-7.09,2.7l-10.47-6.09c-2.27,1.71-9.74,6-12.37,7.14l.05,12.11c-.58,2.79-3.04,4.78-5.87,4.78h-11.21c-2.85,0-5.31-2.01-5.87-4.78l-.03-12.12c-2.64-1.13-10.05-5.4-12.32-7.11l-10.49,6.06c-2.7.9-5.66-.23-7.09-2.7l-5.61-9.71c-1.43-2.48-.92-5.59,1.22-7.48l10.49-6.02c-.17-1.39-.72-5.7-.72-7.15s.56-5.71.71-7.1l-10.48-6.07c-2.14-1.89-2.63-5.03-1.22-7.48l5.61-9.71c1.43-2.48,4.39-3.6,7.09-2.7l10.45,6.1c2.27-1.71,9.74-6,12.36-7.15v-12.11ZM75.01,95c11.05-.04,19.97-9.03,19.92-20.07-.04-11.05-9.03-19.97-20.07-19.92-11.05.04-19.97,9.03-19.92,20.07.04,11.05,9.03,19.97,20.07,19.92h0Z"/>
  </g>
  <g id="App_Store" class="st2">
    <rect class="st7" x="24.02" y="23.99" width="44.27" height="44.27" rx="5" ry="5"/>
    <rect class="st7" x="24.02" y="81.73" width="44.27" height="44.27" rx="5" ry="5"/>
    <rect class="st7" x="81.73" y="81.73" width="44.27" height="44.27" rx="5" ry="5"/>
    <rect class="st1" x="81.73" y="23.99" width="44.27" height="44.27" rx="5" ry="5"/>
    <path class="st7" d="M107.03,27.15c0-1.75-1.41-3.16-3.16-3.16s-3.16,1.41-3.16,3.16v15.81h-15.81c-1.75,0-3.16,1.41-3.16,3.16s1.41,3.16,3.16,3.16h15.81v15.81c0,1.75,1.41,3.16,3.16,3.16s3.16-1.41,3.16-3.16v-15.81h15.81c1.75,0,3.16-1.41,3.16-3.16s-1.41-3.16-3.16-3.16h-15.81v-15.81Z"/>
  </g>
  <g id="App_Zugriff" class="st2">
    <path class="st1" d="M98.26,126h-46.53c-3.32,0-6.01-2.69-6.01-6.01V30.01c0-3.32,2.69-6.01,6.01-6.01h46.53c3.32,0,6.01,2.69,6.01,6.01v89.98c0,3.32-2.69,6.01-6.01,6.01ZM96.96,112.68V37.32c0-3.32-2.69-6.01-6.01-6.01h-31.89c-3.32,0-6.01,2.69-6.01,6.01v75.36c0,3.32,2.69,6.01,6.01,6.01h31.89c3.32,0,6.01-2.69,6.01-6.01ZM80.52,27.92c0-.66-.53-1.19-1.19-1.19s-1.19.53-1.19,1.19.53,1.19,1.19,1.19,1.19-.53,1.19-1.19ZM72.1,29.11h3.77c.66,0,1.19-.53,1.19-1.19h0c0-.66-.53-1.19-1.19-1.19h-3.77c-.66,0-1.19.53-1.19,1.19h0c0,.66.53,1.19,1.19,1.19Z"/>
    <path class="st7" d="M98.01,126h-46.02c-3.31,0-6-2.69-6-6V30c0-3.31,2.69-6,6-6h46.02c3.31,0,6,2.69,6,6v90.01c0,3.31-2.69,6-6,6ZM76.51,28.01h-6.43c-1.06,0-1.93.86-1.93,1.93h0c0,1.06.86,1.93,1.93,1.93h6.43c1.06,0,1.93-.86,1.93-1.93h0c0-1.06-.86-1.93-1.93-1.93ZM81.95,28.01h0c-1.06,0-1.93.86-1.93,1.93h0c0,1.06.86,1.93,1.93,1.93h0c1.06,0,1.93-.86,1.93-1.93h0c0-1.06-.86-1.93-1.93-1.93Z"/>
  </g>
  <g id="Sicherheit">
    <path class="st7" d="M118.66,40.21l-.16-1-43-15.21-43,15.21-.16,1c-.11.68-2.64,16.94,1.24,35.7,5.19,25.05,19.49,42.3,41.36,49.9l.56.2.56-.2c21.87-7.59,36.17-24.85,41.36-49.9,3.88-18.76,1.35-35.02,1.24-35.7ZM97.6,65.4l-24.07,24.07c-.98.98-2.28,1.45-3.56,1.43-1.29.02-2.58-.45-3.56-1.43l-12.01-12.01c-1.92-1.92-1.92-5.03,0-6.95l.6-.6c1.92-1.92,5.03-1.92,6.95,0l8.02,8.02,20.08-20.08c1.92-1.92,5.03-1.92,6.95,0l.6.6c1.92,1.92,1.92,5.03,0,6.95Z"/>
  </g>
  <g id="Benutzeroberfläche" class="st2">
    <g>
      <path class="st7" d="M113.24,52.94c-5.41-13.41-16.93-23.68-31.1-27.43,4.61,6.19,8.2,15.87,10,27.43h21.1Z"/>
      <path class="st7" d="M85.13,58.73h-31.57c-.38,3.69-.6,7.56-.6,11.58s.2,7.89.6,11.58h22.83c-.28-1.45-.43-2.94-.43-4.46,0-7.59,3.6-14.36,9.17-18.7Z"/>
      <path class="st7" d="M86.29,52.94c-1.1-6.6-2.79-12.43-4.88-17.13-1.9-4.27-4.02-7.36-6.06-9.32-2.03-1.92-3.71-2.5-5.03-2.5s-3,.58-5.03,2.5c-2.04,1.95-4.16,5.05-6.06,9.32-2.08,4.72-3.78,10.55-4.88,17.13h31.95Z"/>
      <path class="st7" d="M58.48,25.52c-14.18,3.74-25.69,14.02-31.12,27.43h21.11c1.81-11.56,5.39-21.24,10-27.43Z"/>
      <path class="st7" d="M27.36,87.68c5.43,13.41,16.93,23.68,31.12,27.43-4.61-6.19-8.2-15.87-10-27.43h-21.11Z"/>
      <path class="st7" d="M65.28,114.13c.18.17.35.31.52.46,2.32-9.1,8.65-16.62,17.01-20.51-1.84-1.86-3.37-4.02-4.52-6.4h-23.96c1.1,6.59,2.79,12.41,4.88,17.11v.02c1.9,4.27,4.02,7.36,6.06,9.32Z"/>
      <path class="st7" d="M47.15,70.31c0-3.98.2-7.85.58-11.58h-22.27c-.96,3.71-1.47,7.58-1.47,11.58s.51,7.87,1.47,11.58h22.27c-.38-3.73-.58-7.6-.58-11.58Z"/>
      <path class="st7" d="M99.64,92.61c8.38,0,15.18-6.8,15.18-15.18s-6.8-15.18-15.18-15.18-15.18,6.8-15.18,15.18,6.8,15.18,15.18,15.18ZM95.88,99.69c-12.46,0-22.55,10.09-22.55,22.55,0,2.07,1.68,3.76,3.76,3.76h45.11c2.07,0,3.76-1.68,3.76-3.76,0-12.46-10.09-22.55-22.55-22.55h-7.51Z"/>
    </g>
    <path class="st1" d="M94.13,75c0,4.42-.24,8.69-.66,12.75h-36.92c-.44-4.06-.66-8.33-.66-12.75s.24-8.69.66-12.75h36.92c.44,4.06.66,8.33.66,12.75ZM99.86,62.25h24.53c1.06,4.08,1.61,8.35,1.61,12.75s-.56,8.67-1.61,12.75h-24.53c.42-4.1.64-8.37.64-12.75s-.22-8.65-.64-12.75ZM122.3,55.87h-23.25c-1.99-12.73-5.94-23.39-11.02-30.2,15.6,4.12,28.29,15.44,34.25,30.2h.02ZM92.59,55.87h-35.18c1.22-7.25,3.09-13.67,5.38-18.87,2.09-4.7,4.42-8.11,6.67-10.26,2.23-2.11,4.08-2.75,5.54-2.75s3.31.64,5.54,2.75c2.25,2.15,4.58,5.56,6.67,10.26,2.31,5.18,4.16,11.6,5.38,18.87ZM50.95,55.87h-23.25c5.98-14.76,18.65-26.08,34.27-30.2-5.08,6.81-9.03,17.47-11.02,30.2h0ZM25.61,62.25h24.53c-.42,4.1-.64,8.37-.64,12.75s.22,8.65.64,12.75h-24.53c-1.06-4.08-1.61-8.35-1.61-12.75s.56-8.67,1.61-12.75ZM62.79,112.97c-2.31-5.18-4.16-11.6-5.38-18.85h35.18c-1.22,7.25-3.09,13.67-5.38,18.85-2.09,4.7-4.42,8.11-6.67,10.26-2.23,2.13-4.08,2.77-5.54,2.77s-3.31-.64-5.54-2.75c-2.25-2.15-4.58-5.56-6.67-10.26v-.02ZM50.95,94.13c1.99,12.73,5.94,23.39,11.02,30.2-15.62-4.12-28.29-15.44-34.27-30.2h23.25ZM122.3,94.13c-5.98,14.76-18.65,26.08-34.25,30.2,5.08-6.81,9.01-17.47,11.02-30.2h23.25-.02Z"/>
  </g>
  <g id="Linuxmuster" class="st2">
    <g>
      <circle class="st7" cx="94.57" cy="94.57" r="11.87"/>
      <path class="st7" d="M126,114.14c0,6.55-5.31,11.87-11.87,11.87s-11.87-5.31-11.87-11.87,5.31-11.87,11.87-11.87,11.87,5.31,11.87,11.87Z"/>
      <path class="st7" d="M67.3,55.43c0,6.55-5.31,11.87-11.87,11.87s-11.87-5.31-11.87-11.87,5.31-11.87,11.87-11.87,11.87,5.31,11.87,11.87Z"/>
      <path class="st7" d="M47.73,35.86c0,6.55-5.31,11.87-11.87,11.87s-11.87-5.31-11.87-11.87,5.31-11.87,11.87-11.87,11.87,5.31,11.87,11.87Z"/>
      <path class="st7" d="M43.56,94.57c0,6.55,5.31,11.87,11.87,11.87s11.87-5.32,11.87-11.87-5.31-11.87-11.87-11.87-11.87,5.31-11.87,11.87Z"/>
      <path class="st7" d="M24,114.14c0,6.55,5.31,11.87,11.87,11.87s11.87-5.31,11.87-11.87-5.31-11.87-11.87-11.87-11.87,5.31-11.87,11.87Z"/>
      <path class="st7" d="M82.7,55.43c0,6.55,5.31,11.87,11.87,11.87s11.87-5.31,11.87-11.87-5.31-11.87-11.87-11.87-11.87,5.31-11.87,11.87Z"/>
      <path class="st7" d="M102.27,35.86c0,6.55,5.31,11.87,11.87,11.87s11.87-5.31,11.87-11.87-5.31-11.87-11.87-11.87-11.87,5.31-11.87,11.87Z"/>
      <path class="st7" d="M75,65.13c5.44,0,9.87,4.43,9.87,9.87s-4.43,9.87-9.87,9.87-9.87-4.43-9.87-9.87,4.43-9.87,9.87-9.87M75,63.13c-6.56,0-11.87,5.31-11.87,11.87s5.31,11.87,11.87,11.87,11.87-5.31,11.87-11.87-5.31-11.87-11.87-11.87h0Z"/>
    </g>
  </g>
  <g id="Notifikation" class="st2">
    <path id="Glocke_Blase_Striche" class="st1" d="M75.01,23.99c-28.16,0-51.01,20.93-51.01,46.76,0,10.52,3.8,20.24,10.2,28.05l-9.46,17.85c-1.33,2.47-.88,5.53,1.12,7.49,1.99,1.97,5.02,2.42,7.49,1.12l21.68-11.48c6.14,2.39,12.88,3.72,19.98,3.72,28.16,0,51.01-20.93,51.01-46.76s-22.85-46.76-51.01-46.76ZM84.46,47.56c.22-.64.91-.99,1.55-.77l.28.09c2.73.93,4.91,2.63,6.48,5.07.36.57.2,1.33-.37,1.69-.2.13-.43.19-.66.19-.4,0-.8-.2-1.03-.56-1.26-1.96-3.01-3.33-5.2-4.07l-.28-.09c-.64-.22-.98-.91-.77-1.55ZM57.23,51.95c1.57-2.44,3.75-4.15,6.48-5.07l.28-.09c.64-.22,1.34.13,1.55.77.22.64-.13,1.34-.77,1.55l-.28.09c-2.19.74-3.94,2.11-5.2,4.07-.23.36-.63.56-1.03.56-.23,0-.46-.06-.66-.19-.57-.37-.73-1.12-.37-1.69ZM75.01,99.23c-3.05,0-5.62-2.09-6.35-4.92h12.7c-.73,2.83-3.3,4.92-6.35,4.92ZM94.31,89.4h-38.61c-2.01,0-3.64-1.63-3.64-3.64,0-.83.28-1.63.8-2.27l1-1.25c3.07-3.85,4.75-8.64,4.75-13.56v-2.22c0-7.93,5.63-14.55,13.11-16.06v-.33c0-1.81,1.46-3.28,3.28-3.28s3.28,1.46,3.28,3.28v.33c7.48,1.52,13.11,8.13,13.11,16.06v2.22c0,4.93,1.68,9.71,4.74,13.56l1,1.25c.52.65.8,1.44.8,2.27,0,2.01-1.63,3.64-3.64,3.64ZM88.46,43.56c.22-.64.91-.99,1.55-.77l.28.09c2.73.93,4.91,2.63,6.48,5.07.36.57.2,1.33-.37,1.69-.2.13-.43.19-.66.19-.4,0-.8-.2-1.03-.56-1.26-1.96-3.01-3.33-5.2-4.07l-.28-.09c-.64-.22-.98-.91-.77-1.55ZM53.23,47.95c1.57-2.44,3.75-4.15,6.48-5.07l.28-.09c.64-.22,1.34.13,1.55.77.22.64-.13,1.34-.77,1.55l-.28.09c-2.19.74-3.94,2.11-5.2,4.07-.23.36-.63.56-1.03.56-.23,0-.46-.06-.66-.19-.57-.37-.73-1.12-.37-1.69Z"/>
    <path id="Glocke_Blase" class="st1" d="M75.01,23.99c-28.16,0-51.01,20.93-51.01,46.76,0,10.52,3.8,20.24,10.2,28.05l-9.46,17.85c-1.33,2.47-.88,5.53,1.12,7.49,1.99,1.97,5.02,2.42,7.49,1.12l21.68-11.48c6.14,2.39,12.88,3.72,19.98,3.72,28.16,0,51.01-20.93,51.01-46.76s-22.85-46.76-51.01-46.76ZM75.01,96.77c-3.05,0-5.62-2.09-6.35-4.92h12.7c-.73,2.83-3.3,4.92-6.35,4.92ZM94.31,86.94h-38.61c-2.01,0-3.64-1.63-3.64-3.64,0-.83.28-1.63.8-2.27l1-1.25c3.07-3.85,4.75-8.64,4.75-13.56v-2.22c0-7.93,5.63-14.55,13.11-16.06v-.33c0-1.81,1.46-3.28,3.28-3.28s3.28,1.46,3.28,3.28v.33c7.48,1.52,13.11,8.13,13.11,16.06v2.22c0,4.93,1.68,9.71,4.74,13.56l1,1.25c.52.65.8,1.44.8,2.27,0,2.01-1.63,3.64-3.64,3.64Z"/>
    <path id="Glocke" class="st1" d="M75.01,24c-3.53,0-6.38,2.85-6.38,6.38v.64c-14.54,2.95-25.5,15.82-25.5,31.24v4.32c0,9.58-3.27,18.89-9.24,26.38l-1.95,2.43c-1.02,1.26-1.55,2.81-1.55,4.42,0,3.91,3.17,7.07,7.07,7.07h75.09c3.91,0,7.07-3.17,7.07-7.07,0-1.61-.54-3.17-1.55-4.42l-1.95-2.43c-5.96-7.49-9.22-16.8-9.22-26.38v-4.32c0-15.42-10.96-28.29-25.5-31.24v-.64c0-3.53-2.85-6.38-6.38-6.38ZM62.66,116.44c1.41,5.5,6.42,9.56,12.35,9.56s10.94-4.06,12.35-9.56h-24.71Z"/>
    <path class="st7" d="M106.65,62.57c-10.65,0-19.29-8.64-19.29-19.29s8.64-19.29,19.29-19.29,19.29,8.64,19.29,19.29-8.64,19.29-19.29,19.29ZM106.65,48.11c-1.33,0-2.41,1.08-2.41,2.41s1.08,2.41,2.41,2.41,2.41-1.08,2.41-2.41-1.08-2.41-2.41-2.41ZM106.65,33.64c-1.37,0-2.46,1.17-2.37,2.54l.56,7.84c.07.95.86,1.68,1.8,1.68s1.73-.73,1.8-1.68l.56-7.84c.1-1.37-.99-2.54-2.37-2.54h.02Z"/>
    <g>
      <path class="st7" d="M109.73,92.95c-5.91-7.44-9.17-16.66-9.22-26.17-10.43-2.73-18.15-12.23-18.15-23.5,0-3.15.61-6.16,1.71-8.93-2.79-1.55-5.84-2.69-9.07-3.35v-.64c0-3.53-2.85-6.38-6.38-6.38s-6.38,2.85-6.38,6.38v.64c-14.54,2.95-25.5,15.82-25.5,31.24v4.32c0,9.58-3.27,18.89-9.24,26.38l-1.95,2.43c-1.02,1.26-1.55,2.81-1.55,4.42,0,3.91,3.17,7.07,7.07,7.07h75.09c3.91,0,7.07-3.17,7.07-7.07,0-1.61-.54-3.17-1.55-4.42l-1.95-2.43Z"/>
      <path class="st7" d="M68.63,126.01c5.94,0,10.94-4.06,12.35-9.56h-24.71c1.41,5.5,6.42,9.56,12.35,9.56Z"/>
    </g>
  </g>
</svg>