<?xml version="1.0" encoding="UTF-8"?>
<svg id="Ebene_1" xmlns="http://www.w3.org/2000/svg" version="1.1" viewBox="0 0 150 150">
  <!-- Generator: Adobe Illustrator 29.4.0, SVG Export Plug-In . SVG Version: 2.1.0 Build 152)  -->
  <defs>
    <style>
      .st0, .st1 {
        fill: #fff;
      }

      .st0, .st2, .st3 {
        display: none;
      }

      .st4 {
        stroke: #fff;
        stroke-width: 5px;
      }

      .st4, .st2 {
        fill: none;
        stroke-linecap: round;
        stroke-linejoin: round;
      }

      .st2 {
        stroke: #5e412a;
        stroke-width: 6px;
      }
    </style>
  </defs>
  <g id="NCM">
    <polyline class="st2" points="-107.3 -38.81 -87.63 -38.81 -76.94 -59.05 -64.72 -17.05 -58.42 -38.81 -49.45 -38.81 -35.7 -59.05 -26.92 -17.05 -19.67 -38.81 0 -38.81"/>
    <g id="Monitor_x2C__Puls" class="st3">
      <path class="st1" d="M36.63,33.55c-7.04,0-12.76,5.72-12.76,12.76v47.85h12.76v-47.85h76.56v47.85h12.76v-47.85c0-7.04-5.72-12.76-12.76-12.76,0,0-76.56,0-76.56,0ZM113.19,116.96c7.04,0,12.76-5.72,12.76-12.76v-47.85h-12.76v47.85H36.63v-47.85h-12.76v47.85c0,7.04,5.72,12.76,12.76,12.76h76.56Z"/>
      <polyline class="st4" points="45.76 75.53 60.28 75.53 67.55 94.15 79.08 56.36 86.12 85.18 91.25 75.53 104.06 75.53"/>
    </g>
    <g id="Pfeile_x2C__Kreis" class="st3">
      <path class="st1" d="M27.06,125.95c-.81,0-1.56-.31-2.13-.88-1.12-1.12-1.17-2.9-.17-4.08l.19-.18,17.58-17.61h-9.78c-1.66,0-3.01-1.35-3.01-3.01s1.35-3.01,3.01-3.01h17.06c1.66,0,3.01,1.35,3.01,3.01v17.06c0,1.66-1.35,3.01-3.01,3.01s-3.01-1.35-3.01-3.01v-9.78l-17.61,17.61c-.57.57-1.33.88-2.13.88h0Z"/>
      <path class="st1" d="M122.94,125.95c.81,0,1.56-.31,2.13-.88,1.12-1.12,1.17-2.9.17-4.08l-.19-.18-17.58-17.61h9.78c1.66,0,3.01-1.35,3.01-3.01s-1.35-3.01-3.01-3.01h-17.06c-1.66,0-3.01,1.35-3.01,3.01v17.06c0,1.66,1.35,3.01,3.01,3.01s3.01-1.35,3.01-3.01v-9.78l17.61,17.61c.57.57,1.33.88,2.13.88h0Z"/>
      <path class="st1" d="M75,49.93c-13.84,0-25.07,11.22-25.07,25.07s11.22,25.07,25.07,25.07,25.07-11.22,25.07-25.07-11.22-25.07-25.07-25.07ZM92.63,77.42h-6.58l-2.55,4.8c-.39.73-1.2,1.15-2.01,1.05-.82-.1-1.5-.7-1.69-1.51l-2.55-10.44-4.88,16c-.25.81-.99,1.38-1.84,1.42h-.08c-.82,0-1.56-.5-1.86-1.27l-3.92-10.04h-7.46c-1.1,0-2-.89-2-2s.9-2,2-2h8.82c.82,0,1.56.51,1.86,1.27l2.32,5.94,5.33-17.46c.26-.86,1.04-1.44,1.97-1.42.9.03,1.67.65,1.89,1.52l3.04,12.42.65-1.23c.35-.65,1.03-1.06,1.77-1.06h7.79c1.1,0,2,.9,2,2s-.9,2-2,2h-.02Z"/>
      <path class="st1" d="M27.09,24.02c-.81,0-1.56.31-2.13.88-1.12,1.12-1.17,2.9-.17,4.08l.19.18,17.58,17.61h-9.78c-1.66,0-3.01,1.35-3.01,3.01s1.35,3.01,3.01,3.01h17.06c1.66,0,3.01-1.35,3.01-3.01v-17.06c0-1.66-1.35-3.01-3.01-3.01s-3.01,1.35-3.01,3.01v9.78l-17.61-17.61c-.57-.57-1.33-.88-2.13-.88h0Z"/>
      <path class="st1" d="M122.96,24.02c.81,0,1.56.31,2.13.88,1.12,1.12,1.17,2.9.17,4.08l-.19.18-17.58,17.61h9.78c1.66,0,3.01,1.35,3.01,3.01s-1.35,3.01-3.01,3.01h-17.06c-1.66,0-3.01-1.35-3.01-3.01v-17.06c0-1.66,1.35-3.01,3.01-3.01s3.01,1.35,3.01,3.01v9.78l17.61-17.61c.57-.57,1.33-.88,2.13-.88h0Z"/>
    </g>
    <path id="Fläche_Puls_innen" class="st0" d="M120.98,39.08H29.02c-2.76,0-5,2.24-5,5v61c0,2.76,2.24,5,5,5h91.95c2.76,0,5-2.24,5-5v-61c0-2.76-2.24-5-5-5h.01ZM106.65,78.28h-12.31l-4.81,9.06c-.53,1-1.63,1.57-2.74,1.42-1.12-.14-2.04-.96-2.31-2.05l-5.32-21.75-9.66,31.67c-.34,1.11-1.34,1.88-2.5,1.93h-.1c-1.12,0-2.13-.68-2.54-1.73l-7.23-18.54h-13.95c-1.5,0-2.72-1.22-2.72-2.72s1.22-2.72,2.72-2.72h15.81c1.12,0,2.13.69,2.54,1.73l5.05,12.96,10.26-33.65c.36-1.17,1.5-1.94,2.68-1.93,1.23.03,2.28.88,2.57,2.07l5.98,24.44,2.23-4.2c.47-.89,1.4-1.45,2.4-1.45h13.95c1.5,0,2.72,1.22,2.72,2.72s-1.22,2.72-2.72,2.72v.02Z"/>
    <g id="Fläche_Puls_durch" class="st3">
      <path class="st1" d="M37.59,71.58l9.85-18.64c.57-1.08,1.74-1.71,2.96-1.58,1.22.12,2.24.97,2.58,2.15l9.33,32.08,3.43-11.83c.37-1.28,1.55-2.17,2.88-2.17h7.38l12.85-18.93c.67-1,1.88-1.49,3.06-1.26,1.18.23,2.11,1.15,2.35,2.33l6.51,31.14,3.75-11.23c.41-1.23,1.55-2.05,2.85-2.05h18.61v-27.5c0-2.76-2.24-5-5-5H29.02c-2.76,0-5,2.24-5,5v27.5h13.57Z"/>
      <path class="st1" d="M109.53,77.58l-6.57,19.71c-.41,1.23-1.56,2.05-2.84,2.05h-.17c-1.35-.08-2.49-1.05-2.76-2.38l-7.34-35.08-9.77,14.39c-.56.82-1.49,1.31-2.48,1.31h-6.72l-5.67,19.6c-.37,1.28-1.54,2.17-2.88,2.17h0c-1.33,0-2.51-.88-2.88-2.16l-10.15-34.89-7.23,13.69c-.52.98-1.54,1.6-2.65,1.6h-15.37v27.5c0,2.76,2.24,5,5,5h91.95c2.76,0,5-2.24,5-5v-27.5h-16.47Z"/>
    </g>
    <g id="Laptop_Puls">
      <path class="st1" d="M46.16,70.32l7.98-15.11c.48-.9,1.45-1.42,2.46-1.32s1.86.81,2.15,1.79l7.52,25.85,2.72-9.41c.31-1.07,1.29-1.8,2.4-1.8h5.97l10.42-15.35c.56-.83,1.57-1.24,2.55-1.05.98.19,1.76.96,1.96,1.94l5.24,25.07,2.97-8.9c.34-1.02,1.3-1.71,2.37-1.71h13.02v-18.26c0-5.64-4.59-10.23-10.23-10.23h-61.35c-5.64,0-10.23,4.59-10.23,10.23v18.26h12.08Z"/>
      <path class="st1" d="M123.06,98.07h-7.16v-22.75h-11.21l-5.32,15.97c-.34,1.02-1.3,1.71-2.37,1.71h-.15c-1.13-.07-2.07-.88-2.3-1.98l-5.93-28.36-7.86,11.57c-.47.69-1.24,1.1-2.07,1.1h-5.41l-4.6,15.88c-.31,1.07-1.29,1.8-2.4,1.8h0c-1.11,0-2.09-.73-2.4-1.8l-8.2-28.19-5.8,10.98c-.43.82-1.28,1.33-2.21,1.33h-13.57v22.75h-7.16c-1.69,0-3.07,1.37-3.07,3.07,0,6.77,5.5,7.03,12.27,7.03h77.71c6.77,0,12.27-.26,12.27-7.03,0-1.69-1.37-3.07-3.07-3.07h.01Z"/>
    </g>
  </g>
</svg>