<?xml version="1.0" encoding="UTF-8"?>
<svg id="Ebene_1" xmlns="http://www.w3.org/2000/svg" version="1.1" viewBox="0 0 150 150">
  <!-- Generator: Adobe Illustrator 29.4.0, SVG Export Plug-In . SVG Version: 2.1.0 Build 152)  -->
  <defs>
    <style>
      .st0 {
        display: none;
      }

      .st0, .st1 {
        fill: #fff;
      }
    </style>
  </defs>
  <g id="App_Zugriff">
    <path class="st0" d="M98.26,126h-46.53c-3.32,0-6.01-2.69-6.01-6.01V30.01c0-3.32,2.69-6.01,6.01-6.01h46.53c3.32,0,6.01,2.69,6.01,6.01v89.98c0,3.32-2.69,6.01-6.01,6.01ZM96.96,112.68V37.32c0-3.32-2.69-6.01-6.01-6.01h-31.89c-3.32,0-6.01,2.69-6.01,6.01v75.36c0,3.32,2.69,6.01,6.01,6.01h31.89c3.32,0,6.01-2.69,6.01-6.01ZM80.52,27.92c0-.66-.53-1.19-1.19-1.19s-1.19.53-1.19,1.19.53,1.19,1.19,1.19,1.19-.53,1.19-1.19ZM72.1,29.11h3.77c.66,0,1.19-.53,1.19-1.19h0c0-.66-.53-1.19-1.19-1.19h-3.77c-.66,0-1.19.53-1.19,1.19h0c0,.66.53,1.19,1.19,1.19Z"/>
    <path class="st1" d="M98.01,126h-46.02c-3.31,0-6-2.69-6-6V30c0-3.31,2.69-6,6-6h46.02c3.31,0,6,2.69,6,6v90.01c0,3.31-2.69,6-6,6h0ZM76.51,28.01h-6.43c-1.06,0-1.93.86-1.93,1.93h0c0,1.06.86,1.93,1.93,1.93h6.43c1.06,0,1.93-.86,1.93-1.93h0c0-1.06-.86-1.93-1.93-1.93ZM81.95,28.01h0c-1.06,0-1.93.86-1.93,1.93h0c0,1.06.86,1.93,1.93,1.93h0c1.06,0,1.93-.86,1.93-1.93h0c0-1.06-.86-1.93-1.93-1.93Z"/>
  </g>
</svg>