<svg xmlns="http://www.w3.org/2000/svg" viewBox="0 0 150 150"><path d="M75.08 51.81c-10.56 0-19.51 7.16-22.29 16.86-2.41-5.15-7.64-8.75-13.66-8.75-8.28 0-15.08 6.8-15.08 15.08s6.8 15.09 15.08 15.09c6.02 0 11.24-3.61 13.66-8.75 2.77 9.7 11.73 16.87 22.29 16.87s19.39-7.05 22.24-16.65c2.46 5.03 7.62 8.54 13.55 8.54 8.28 0 15.09-6.81 15.09-15.09s-6.81-15.08-15.09-15.08c-5.93 0-11.09 3.5-13.55 8.53-2.85-9.59-11.75-16.64-22.24-16.64Zm0 8.85c7.97 0 14.34 6.37 14.34 14.34s-6.37 14.34-14.34 14.34S60.74 82.97 60.74 75s6.37-14.34 14.34-14.34m-35.95 8.11c3.49 0 6.23 2.74 6.23 6.23s-2.74 6.23-6.23 6.23S32.9 78.49 32.9 75s2.74-6.23 6.23-6.23m71.73 0c3.49 0 6.23 2.74 6.23 6.23s-2.74 6.23-6.23 6.23-6.23-2.74-6.23-6.23 2.74-6.23 6.23-6.23" style="fill:#fff"/></svg>