<svg xmlns="http://www.w3.org/2000/svg" viewBox="0 0 150 150"><path d="M115.22 83.43h10.73v9.64h-10.73zm0-30.12h10.73V42.36c0-3.33-2.7-6.02-6.02-6.02h-4.7v16.98Zm0 16.87h10.73v9.64h-10.73zm0 26.51v16.98h4.7c3.33 0 6.02-2.7 6.02-6.02V96.7h-10.73Zm0-39.77h10.73v9.64h-10.73zM30.07 36.33a6.02 6.02 0 0 0-6.02 6.02v65.28c0 3.33 2.7 6.02 6.02 6.02h81.53V36.33zm19.59 42.24 21.73-21.73c.71-.71 1.85-.71 2.56 0s.71 1.85 0 2.56L52.22 81.13c-.71.71-1.85.71-2.56 0s-.71-1.85 0-2.56m36.22-7.25L64.15 93.05c-.71.71-1.85.71-2.56 0s-.71-1.85 0-2.56l21.73-21.73c.71-.71 1.85-.71 2.56 0s.71 1.85 0 2.56m1.74-13.56L50.59 94.79c-.71.71-1.85.71-2.56 0s-.71-1.85 0-2.56L85.06 55.2c.71-.71 1.85-.71 2.56 0s.71 1.85 0 2.56" style="fill:#fff"/></svg>