<?xml version="1.0" encoding="utf-8"?>
<!-- Generator: Adobe Illustrator 28.2.0, SVG Export Plug-In . SVG Version: 6.00 Build 0)  -->
<svg version="1.1" id="Ebene_1" xmlns="http://www.w3.org/2000/svg" xmlns:xlink="http://www.w3.org/1999/xlink" x="0px" y="0px"
	 viewBox="0 0 150 150" style="enable-background:new 0 0 150 150;" xml:space="preserve">
<style type="text/css">
	.st0{fill:#FFFFFF;}
	.st1{fill:#8FC14A;}
	.st2{fill:#333333;}
	.st3{fill:none;stroke:#333333;stroke-width:3;stroke-miterlimit:10;}
</style>
<path class="st0" d="M141.88,51.02L74.94,19.46L8.12,50.97l24.18,11.4v23.38l0.15,0.31C32.85,86.9,42.75,106.5,75,106.5
	c13.84,0,23.56-3.61,30.18-7.8v4.96c-3.21,0.69-5.62,3.54-5.62,6.95c0,1.69,0.59,3.29,1.67,4.57l-1.44,15.36h13.79l-1.44-15.36
	c1.08-1.28,1.67-2.88,1.67-4.57c0-3.41-2.41-6.26-5.62-6.95v-7.04c6.59-5.01,9.18-10.14,9.38-10.56l0.15-0.31V62.41L141.88,51.02z
	 M110.8,110.62c0,1.12-0.45,2.17-1.26,2.96l-0.52,0.5l1.27,13.47h-7.2l1.27-13.47l-0.52-0.5c-0.81-0.79-1.26-1.84-1.26-2.96
	c0-2.27,1.85-4.12,4.12-4.12S110.8,108.35,110.8,110.62z M74.94,22.77l59.91,28.25L106.68,64.3L75.64,49.64l-1.28,2.71l28.81,13.61
	L75.06,79.22L15.15,50.97L74.94,22.77z M75,103.5c-28.57,0-38.37-16-39.71-18.46V63.79l39.76,18.75l30.12-14.21v26.78
	C99,99.45,89.37,103.5,75,103.5z M114.72,85.05c-0.55,1-2.49,4.24-6.53,7.73V66.91l6.53-3.08V85.05z"/>
</svg>
