<?xml version="1.0" encoding="UTF-8"?>
<svg id="Ebene_1" data-name="Ebene 1" xmlns="http://www.w3.org/2000/svg" viewBox="0 0 150 150">
  <defs>
    <style>
      .cls-1 {
        fill: #1d1d1b;
        stroke-width: 0px;
      }
    </style>
  </defs>
  <path class="cls-1" d="M141.88,51.02l-66.94-31.56L8.12,50.97l24.18,11.4v23.38l.15.31c.41.83,10.3,20.43,42.55,20.43,13.84,0,23.56-3.61,30.18-7.8v4.96c-3.21.69-5.62,3.54-5.62,6.95,0,1.69.59,3.29,1.67,4.57l-1.44,15.36h13.79l-1.44-15.36c1.08-1.28,1.67-2.88,1.67-4.57,0-3.41-2.41-6.26-5.62-6.95v-7.04c6.59-5.01,9.18-10.14,9.38-10.56l.15-.31v-23.34l24.17-11.4ZM110.8,110.62c0,1.12-.45,2.17-1.26,2.96l-.52.5,1.27,13.47h-7.2l1.27-13.47-.52-.5c-.81-.79-1.26-1.84-1.26-2.96,0-2.27,1.85-4.12,4.12-4.12s4.12,1.85,4.12,4.12ZM74.94,22.77l59.91,28.25-28.17,13.28-31.04-14.66-1.28,2.71,28.81,13.61-28.11,13.26L15.15,50.97l59.79-28.2ZM75,103.5c-28.57,0-38.37-16-39.71-18.46v-21.26l39.76,18.75,30.12-14.21v26.78c-6.19,4.34-15.81,8.39-30.18,8.39ZM114.72,85.05c-.55,1-2.49,4.24-6.53,7.73v-25.87l6.53-3.08v21.22Z"/>
</svg>