<?xml version="1.0" encoding="UTF-8" standalone="no"?>
<svg
   stroke="currentColor"
   fill="currentColor"
   stroke-width="0"
   viewBox="0 0 256 256"
   height="200px"
   width="200px"
   version="1.1"
   id="svg8"
   xmlns="http://www.w3.org/2000/svg">
  <defs
     id="defs4">
    <style
       id="style2">
      .cls-1 {
      fill: #fffefe;
      stroke-width: 0px;
      }
    </style>
  </defs>
  <g
     id="path6"
     class="cls-1"
     transform="matrix(0.92516822,0,0,0.92516822,9.5784665,13.288142)">
    <path
       id="path2348"
       style="color:#000000;fill:#fffefe;stroke-width:0px;-inkscape-stroke:none"
       d="m 126.49805,28.720703 c -2.70312,0.367752 -5.20005,1.745873 -7.04962,3.737212 -32.601297,32.607778 -65.202598,65.215557 -97.803899,97.823335 -1.30537,1.27529 -1.326209,3.6032 0.06449,4.82035 1.269104,1.29738 3.543299,1.18051 4.760126,-0.13715 3.390732,-3.38961 6.77915,-6.78152 10.171477,-10.16953 0,29.2819 0,58.5638 0,87.8457 -6.935485,0.0161 -13.874863,-0.0322 -20.807915,0.0241 -2.02031,0.0304 -3.637331,2.19109 -3.066925,4.13375 0.344723,1.63803 2.035862,2.7066 3.665465,2.56088 74.5125,0 149.025001,-1e-5 223.537501,0 1.86198,0.0265 3.53001,-1.67615 3.36133,-3.54922 -0.0461,-1.8139 -1.77074,-3.28187 -3.56133,-3.16954 -6.80312,1e-5 -13.60625,0 -20.40937,0 0,-29.2819 -10e-6,-58.5638 0,-87.8457 3.47366,3.44672 6.90086,6.94538 10.39958,10.36364 1.4499,1.41117 4.12126,1.02444 5.09265,-0.75274 0.92487,-1.40091 0.47315,-3.35597 -0.77898,-4.40741 -32.70504,-32.698925 -65.39824,-65.410462 -98.11066,-98.101499 -2.4389,-2.402228 -5.97044,-3.606755 -9.36863,-3.182569 z m 1.05468,6.660156 c 1.66068,-0.175464 3.23418,0.666327 4.29616,1.901623 26.93058,26.930579 53.86116,53.861158 80.79173,80.791738 10e-6,31.52213 0,63.04427 0,94.5664 -19.09375,10e-6 -38.1875,0 -57.28124,0 -10e-6,-20.21354 0,-40.42708 0,-60.64062 0.0457,-1.39412 -1.04326,-2.91829 -2.50121,-3.24528 -1.26906,-0.24434 -2.61509,-0.0538 -3.95817,-0.1141 -14.98787,0.007 -29.97739,-0.0148 -44.96422,0.0111 -1.86638,-0.001 -3.41929,1.73742 -3.29516,3.58341 1e-5,20.13515 0,40.27031 0,60.40546 -19.093745,1e-5 -38.187495,0 -57.281245,0 0,-31.52213 0,-63.04427 0,-94.5664 27.138572,-27.133365 54.267524,-54.277943 81.412105,-81.404298 0.76771,-0.714573 1.7389,-1.17209 2.78125,-1.289063 z M 108,155.35938 c 13.54687,-10e-6 27.09375,-10e-6 40.64062,0 10e-6,19.09375 0,38.18749 0,57.28124 -13.76041,0 -27.52083,10e-6 -41.28124,0 -1e-5,-19.09375 0,-38.1875 0,-57.28124 0.21354,0 0.42708,0 0.64062,0 z" />
    <path
       style="color:#000000;fill:none;stroke-width:0;stroke-dasharray:none"
       d="m 240,212 h -20 v -85.66 l 9.17,9.17 c 3.77333,3.77333 9.43333,-1.88667 5.66,-5.66 L 136.49,31.51 c -4.68963,-4.705946 -12.31037,-4.705946 -17,0 l -98.32,98.34 c -3.773328,3.77333 1.886672,9.43333 5.66,5.66 L 36,126.34 V 212 H 16 c -5.333326,0 -5.333326,8 0,8 h 224 c 5.33333,0 5.33333,-8 0,-8 z M 44,118.34 125.17,37.17 c 1.56245,-1.564194 4.09755,-1.564194 5.66,0 L 212,118.34 V 212 h -56 v -60 c 0,-2.20914 -1.79086,-4 -4,-4 h -48 c -2.20914,0 -4,1.79086 -4,4 v 60 H 44 Z M 148,212 h -40 v -56 h 40 z"
       id="path2350" />
  </g>
</svg>
