<?xml version="1.0" encoding="UTF-8"?>
<svg id="Ebene_1" data-name="Ebene 1" xmlns="http://www.w3.org/2000/svg" viewBox="0 0 150 150">
  <defs>
    <style>
      .cls-1 {
        fill: #1d1d1b;
        stroke-width: 0px;
      }
    </style>
  </defs>
  <path class="cls-1" d="M75,119.69c-24.14,0-43.78-19.64-43.78-43.78s19.64-43.78,43.78-43.78,43.78,19.64,43.78,43.78-19.64,43.78-43.78,43.78ZM75,35.13c-22.49,0-40.78,18.29-40.78,40.78s18.29,40.78,40.78,40.78,40.78-18.29,40.78-40.78-18.29-40.78-40.78-40.78Z"/>
  <path class="cls-1" d="M80.65,100.39h-11.25v-30.84h11.25v30.84ZM72.4,97.39h5.25v-24.84h-5.25v24.84Z"/>
  <path class="cls-1" d="M75,64.51c-3.6,0-6.54-2.93-6.54-6.54s2.93-6.54,6.54-6.54,6.54,2.93,6.54,6.54-2.93,6.54-6.54,6.54ZM75,54.44c-1.95,0-3.54,1.59-3.54,3.54s1.59,3.54,3.54,3.54,3.54-1.59,3.54-3.54-1.59-3.54-3.54-3.54Z"/>
</svg>