<?xml version="1.0" encoding="UTF-8"?>
<svg id="Ebene_1" data-name="Ebene 1" xmlns="http://www.w3.org/2000/svg" width="150" height="150" viewBox="0 0 150 150">
    <defs>
        <style>
          .cls-1 {
            fill: #fff;
          }
        </style>
    </defs>
    <path class="cls-1"
          d="m103.41,46h-56.83c-3.97,0-7.7,1.56-10.5,4.38-2.75,2.78-4.26,6.46-4.26,10.37v32.23c0,8.13,6.62,14.75,14.75,14.75h56.83c8.13,0,14.75-6.62,14.75-14.75v-32.23c0-8.13-6.62-14.75-14.75-14.75Zm0,3c3.07,0,5.87,1.2,7.96,3.13l-30.22,21.25c-3.74,2.63-8.57,2.63-12.31,0l-30.22-21.25c2.18-2.02,4.98-3.13,7.97-3.13h56.83Zm11.75,43.99c0,6.48-5.27,11.75-11.75,11.75h-56.83c-6.48,0-11.75-5.27-11.75-11.75v-32.23c0-2.27.65-4.45,1.85-6.32l30.44,21.4c2.39,1.68,5.14,2.52,7.88,2.52s5.49-.84,7.88-2.52l30.43-21.4c1.17,1.83,1.85,3.99,1.85,6.31v32.23Z"/>
</svg>