<?xml version="1.0" encoding="UTF-8"?>
<svg id="Ebene_1" data-name="Ebene 1" xmlns="http://www.w3.org/2000/svg" viewBox="0 0 150 150">
  <defs>
    <style>
      .cls-1 {
        fill: #fff;
        stroke-width: 0px;
      }
    </style>
  </defs>
  <path class="cls-1" d="M72.2,126.68c-11.77,0-22.99-4.23-31.82-11.94l.34,5.99-2.83.16-.6-10.74,10.72-.6.16,2.83-5.8.32c8.29,7.2,18.81,11.15,29.84,11.15,13.22,0,25.77-5.74,34.44-15.76l2.14,1.86c-9.21,10.64-22.55,16.74-36.59,16.74ZM26.33,93.75c-1.7-5.02-2.55-10.26-2.55-15.59,0-20.29,12.4-38.19,31.12-45.34l-5.68-2.09.98-2.66,10.07,3.71-3.69,10.1-2.66-.98,1.98-5.42c-17.62,6.73-29.28,23.58-29.28,42.68,0,5.02.81,9.96,2.4,14.68l-2.69.91ZM117.81,91.53l-6.67-8.43,2.22-1.76,3.75,4.74c.45-2.6.68-5.25.68-7.92,0-22.03-15.66-40.93-37.25-44.93l.52-2.79c22.93,4.25,39.57,24.32,39.57,47.71,0,2.7-.22,5.39-.66,8.03l4.49-3.57,1.77,2.22-8.41,6.69Z"/>
</svg>