<?xml version="1.0" encoding="UTF-8"?>
<svg id="Ebene_1" data-name="Ebene 1" xmlns="http://www.w3.org/2000/svg" viewBox="0 0 150 150">
  <defs>
    <style>
      .cls-1 {
        fill: #fff;
        stroke-width: 0px;
      }
    </style>
  </defs>
  <path class="cls-1" d="M111.15,91.26c3.99-2,6.57-6.4,5.82-11.3s-4.65-8.47-9.4-9c-6.48-.73-11.99,4.35-11.99,10.69,0,4.2,2.43,7.84,5.95,9.61-3.95,1.54-7.35,4.95-9.5,9.61-3.18-4.36-7.31-7.51-11.96-8.85,5.79-2.11,9.93-7.7,9.84-14.24-.11-7.79-6.42-14.33-14.2-14.7-8.57-.41-15.67,6.44-15.67,14.92,0,6.45,4.12,11.94,9.86,14.03-4.63,1.35-8.75,4.49-11.93,8.84-2.16-4.66-5.55-8.06-9.5-9.6,3.99-2,6.58-6.4,5.83-11.3s-4.65-8.47-9.4-9.01c-6.48-.73-11.99,4.35-11.99,10.69,0,4.2,2.43,7.84,5.95,9.61-6.9,2.7-11.94,11.06-11.94,20.93v17.53c0,.83.67,1.5,1.5,1.5h0c.83,0,1.5-.67,1.5-1.5v-17.53c0-10.39,6.16-18.84,13.73-18.84,5.24,0,10.03,4.15,12.34,10.61-2.88,5.14-4.59,11.49-4.59,18.36v7.25c0,.83.67,1.5,1.5,1.5h0c.83,0,1.5-.67,1.5-1.5v-7.25c0-15.45,9.24-28.02,20.6-28.02s20.6,12.57,20.6,28.02v7.25c0,.83.67,1.5,1.5,1.5h0c.83,0,1.5-.67,1.5-1.5v-7.25c0-6.86-1.71-13.2-4.58-18.34,2.3-6.47,7.09-10.62,12.34-10.62,7.57,0,13.73,8.45,13.73,18.84v17.53c0,.83.67,1.5,1.5,1.5h0c.83,0,1.5-.67,1.5-1.5v-17.53c0-9.87-5.04-18.23-11.94-20.92ZM36.05,83.17c-1.04-5.46,3.68-10.18,9.13-9.13,3.05.58,5.51,3.04,6.09,6.09,1.05,5.46-3.68,10.18-9.14,9.14-3.05-.58-5.51-3.04-6.09-6.09ZM63.14,79.55c-.99-7.8,5.6-14.38,13.39-13.39,5.31.68,9.61,4.97,10.28,10.28.99,7.8-5.6,14.38-13.39,13.39-5.31-.68-9.61-4.97-10.28-10.28ZM98.72,83.17c-1.04-5.46,3.68-10.18,9.13-9.13,3.05.58,5.51,3.04,6.09,6.09,1.05,5.46-3.68,10.18-9.14,9.14-3.05-.58-5.51-3.04-6.09-6.09Z"/>
  <path class="cls-1" d="M75.02,45.97c12.55,0,22.85,9.85,23.57,22.22.05.78.71,1.39,1.49,1.39h0c.87,0,1.55-.74,1.5-1.61-.84-13.92-12.43-25-26.56-25s-25.73,11.07-26.56,25c-.05.87.63,1.61,1.5,1.61h0c.78,0,1.45-.6,1.49-1.39.72-12.38,11.02-22.22,23.57-22.22Z"/>
  <path class="cls-1" d="M123.64,58.31h-9.74c-.84-2.94-2-5.75-3.46-8.39l5.32-5.32c.15-.15.29-.32.39-.51,1.03-1.98.66-4.12-.73-5.51l-11.53-11.53c-.63-.63-1.66-.63-2.29,0l-7.01,7.01c-2.65-1.47-5.46-2.63-8.35-3.47v-10.19c0-.89-.73-1.62-1.62-1.62h-19.19c-.89,0-1.62.73-1.62,1.62v10.19c-2.96.85-5.79,2.01-8.44,3.48l-7.03-7.03c-.63-.63-1.66-.63-2.29,0l-13.57,13.57c-.63.63-.63,1.66,0,2.29l7.04,7.04c-1.45,2.63-2.61,5.43-3.45,8.36h-10.47c-.89,0-1.62.73-1.62,1.62v19.19c0,.89.72,1.62,1.62,1.62h3.53c.83,0,1.5-.67,1.5-1.5h0c0-.83-.67-1.5-1.5-1.5h-2.15s0-16.43,0-16.43h10.03l1.36.07.3-1.18c.89-3.45,2.24-6.73,4.02-9.74l.59-1-6.64-6.64c-.28-.28-.44-.66-.44-1.06s.16-.78.44-1.06l10.56-10.56,7.69,7.69,1-.59c3.02-1.79,6.32-3.15,9.79-4.04l1.13-.29v-11.12h16.43v11.12l1.13.29c3.4.87,6.67,2.23,9.71,4.04l1,.59,6.61-6.61c.57-.56,1.55-.56,2.12,0l9.5,9.5c.28.28.44.66.44,1.06s-.16.78-.44,1.06l-6.62,6.62.59,1c1.78,3.01,3.14,6.29,4.02,9.74l.29,1.13h11.46v16.43h-2.15c-.83,0-1.5.67-1.5,1.5h0c0,.83.67,1.5,1.5,1.5h2.75c1.33,0,2.4-1.08,2.4-2.4v-17.62c0-1.33-1.08-2.4-2.4-2.4Z"/>
</svg>