<?xml version="1.0" encoding="UTF-8"?>
<svg id="Ebene_1" data-name="Ebene 1" xmlns="http://www.w3.org/2000/svg" viewBox="0 0 150 150">
  <defs>
    <style>
      .cls-1 {
        fill: #1d1d1b;
        stroke-width: 0px;
      }
    </style>
  </defs>
  <path class="cls-1" d="M111.33,59.59c-.41-20.89-16.48-37.75-36.19-37.75s-35.67,16.75-36.19,37.53c-5.5,1.97-9.45,7.21-9.45,13.38v14.41c0,7.82,6.36,14.18,14.18,14.18h5.75v-42.8h-5.71c-.42,0-.83.03-1.24.06.88-18.49,15.19-33.24,32.65-33.24s31.84,14.82,32.66,33.38c-.5-.05-1.01-.08-1.52-.08h-5.71v42.8h5.75c.35,0,.69-.03,1.03-.05.09,2.75-.24,8.59-4.15,12.83-3.45,3.75-9,5.5-16.45,5.25-.77-3.03-3.51-5.28-6.77-5.28h-6.88c-3.85,0-6.99,3.14-6.99,6.99s3.14,6.99,6.99,6.99h6.88c3.23,0,5.94-2.2,6.74-5.18.47.01.95.05,1.4.05,7.81,0,13.75-2.17,17.68-6.45,5.07-5.53,5.21-12.87,5.03-15.89,5.6-1.89,9.65-7.19,9.65-13.42v-14.41c0-6.06-3.81-11.23-9.16-13.27ZM45.91,62.04v35.77h-2.23c-5.88,0-10.66-4.78-10.66-10.66v-14.41c0-5.9,4.8-10.7,10.7-10.7h2.19ZM79.99,124.65h-6.88c-1.92,0-3.47-1.56-3.47-3.47s1.56-3.47,3.47-3.47h6.88c1.92,0,3.47,1.56,3.47,3.47s-1.56,3.47-3.47,3.47ZM116.98,87.27c0,5.88-4.78,10.66-10.66,10.66h-2.23v-35.77h2.19c5.9,0,10.7,4.8,10.7,10.7v14.41Z"/>
</svg>