<?xml version="1.0" encoding="UTF-8"?>
<svg id="Ebene_1" data-name="Ebene 1" xmlns="http://www.w3.org/2000/svg" viewBox="0 0 150 150">
  <defs>
    <style>
      .cls-1 {
        fill: #fff;
        stroke-width: 0px;
      }
    </style>
  </defs>
  <path class="cls-1" d="M112.8,52.71h-23.31c-.83-7.5-4.17-14.56-9.57-19.95-6.77-6.76-16.15-10.29-25.73-9.68-16.47,1.05-29.82,14.24-31.06,30.68-.56,7.46,1.29,14.65,5.35,20.84l-4.1,11.48c-.4,1.12-.12,2.33.73,3.16.58.56,1.32.86,2.08.86.37,0,.74-.07,1.09-.21l11.68-4.52c5.71,3.23,12.21,4.69,18.82,4.22.56-.04,1.11-.1,1.65-.16v9.75c0,7.81,6.35,14.16,14.16,14.16h9.54l20.87,13.19c.49.31,1.04.46,1.6.46.5,0,1-.12,1.45-.37.96-.53,1.55-1.53,1.55-2.63v-10.65h3.16c7.81,0,14.16-6.35,14.16-14.16v-32.31c0-7.81-6.35-14.16-14.16-14.16ZM58.6,86.6c-6.24.44-12.37-1-17.71-4.17l-.63-.37-13.04,5.04,4.61-12.92-.44-.63c-3.97-5.76-5.79-12.52-5.26-19.56,1.13-14.96,13.28-26.96,28.26-27.92.65-.04,1.29-.06,1.94-.06,8.04,0,15.78,3.17,21.48,8.87,6.16,6.15,9.38,14.68,8.84,23.4-.94,15.07-13,27.24-28.05,28.31ZM123.96,99.18c0,6.15-5,11.16-11.16,11.16h-6.16v13.66s-21.61-13.66-21.61-13.66h-10.41c-6.15,0-11.16-5-11.16-11.16v-10.26c8.27-1.79,15.41-6.69,20.15-13.38l7.92,7.92-11.58,11.58,2.12,2.12,11.58-11.58,11.5,11.49,2.12-2.12-11.5-11.49,11.33-11.33-2.12-2.12-11.33,11.33-8.38-8.38c2.49-4.32,4.05-9.24,4.37-14.48.06-.92.06-1.85.05-2.76h23.11c6.15,0,11.16,5,11.16,11.16v32.31Z"/>
  <polygon class="cls-1" points="52.82 62.89 43.66 53.73 41.54 55.85 52.82 67.13 71.77 48.18 69.65 46.06 52.82 62.89"/>
</svg>