<?xml version="1.0" encoding="UTF-8"?>
<svg id="Ebene_1" data-name="Ebene 1" xmlns="http://www.w3.org/2000/svg" viewBox="0 0 150 150">
  <defs>
    <style>
      .cls-1 {
        fill: #fff;
        stroke-width: 0px;
      }
    </style>
  </defs>
  <path class="cls-1" d="M134.86,72.28h1.5v-10.13c0-8.1-6.27-14.75-14.2-15.38-1.7-7.16-8.65-12.02-16.07-10.99l-78.65,10.94v.07c-7.74.82-13.8,7.39-13.8,15.36v9.74h1.5c4.54,0,8.22,3.69,8.22,8.22s-3.69,8.22-8.22,8.22h-1.5v10.51c0,8.52,6.93,15.44,15.44,15.44h91.84c8.52,0,15.44-6.93,15.44-15.44v-10.13h-1.5c-4.54,0-8.22-3.69-8.22-8.22s3.69-8.22,8.22-8.22ZM106.51,38.75c5.61-.78,10.88,2.7,12.52,7.96H49.31l57.19-7.96ZM123.64,80.5c0,5.68,4.24,10.39,9.72,11.12v7.23c0,6.86-5.58,12.44-12.44,12.44h-14.83v-6.07h-3v6.07H29.08c-6.86,0-12.44-5.58-12.44-12.44v-7.61c5.48-.74,9.72-5.44,9.72-11.12s-4.24-10.39-9.72-11.12v-6.84c0-6.86,5.58-12.44,12.44-12.44h74.01v6.07h3v-6.07h14.83c6.86,0,12.44,5.58,12.44,12.44v7.23c-5.48.74-9.72,5.44-9.72,11.12Z"/>
  <rect class="cls-1" x="36.54" y="61.15" width="26.49" height="3"/>
  <rect class="cls-1" x="36.55" y="73.14" width="52.99" height="3"/>
  <rect class="cls-1" x="36.52" y="85.03" width="52.99" height="3"/>
  <rect class="cls-1" x="36.65" y="96.85" width="52.99" height="3"/>
  <rect class="cls-1" x="103.09" y="60.59" width="3" height="17.9"/>
  <rect class="cls-1" x="103.09" y="82.69" width="3" height="17.51"/>
</svg>