<?xml version="1.0" encoding="UTF-8"?>
<svg id="Ebene_1" data-name="Ebene 1" xmlns="http://www.w3.org/2000/svg" viewBox="0 0 150 150">
  <defs>
    <style>
      .cls-1 {
        fill: #fff;
        stroke-width: 0px;
      }
    </style>
  </defs>
  <path class="cls-1" d="M126.03,69.87v-1.61c0-2.91-2.37-5.28-5.28-5.28h-6.87c-.84-2.94-2-5.75-3.46-8.39l4.98-4.98c1.75-1.75,1.75-4.6,0-6.36l-9.5-9.5c-1.75-1.75-4.6-1.75-6.36,0l-4.98,4.98c-2.65-1.47-5.45-2.63-8.35-3.47v-7.31c0-2.48-2.02-4.5-4.5-4.5h-13.44c-2.48,0-4.5,2.02-4.5,4.5v7.32c-2.96.85-5.79,2.01-8.44,3.48l-4.99-4.99c-.85-.85-1.98-1.32-3.18-1.32s-2.33.47-3.18,1.32l-9.5,9.5c-.85.85-1.32,1.98-1.32,3.18s.47,2.33,1.32,3.18l5,5c-1.45,2.63-2.61,5.43-3.45,8.36h-7.6c-2.48,0-4.5,2.02-4.5,4.5v13.44h.02v1.61c0,2.48,2.02,4.5,4.5,4.5h7.6c.84,2.93,2,5.73,3.45,8.36l-5,5c-1.75,1.75-1.75,4.6,0,6.36l9.5,9.5c1.75,1.75,4.61,1.75,6.36,0l5-5c2.65,1.47,5.48,2.63,8.44,3.48v7.32c0,2.48,2.02,4.5,4.5,4.5h13.44c2.48,0,4.5-2.02,4.5-4.5v-7.31c2.9-.84,5.7-2,8.35-3.47l4.98,4.98c1.75,1.75,4.61,1.75,6.36,0l9.5-9.5c1.75-1.75,1.75-4.6,0-6.36l-4.98-4.98c1.46-2.64,2.62-5.45,3.46-8.39h6.87c2.91,0,5.28-2.37,5.28-5.28v-11.87h-.02ZM120.77,84.02h-9.18l-.29,1.13c-.89,3.46-2.24,6.74-4.02,9.74l-.59,1,6.62,6.62c.28.28.44.66.44,1.06s-.16.77-.44,1.06l-9.5,9.5c-.57.57-1.55.56-2.12,0l-6.61-6.62-1,.59c-3.05,1.8-6.31,3.16-9.71,4.03l-1.13.29v9.62c0,.82-.67,1.5-1.5,1.5h-13.44c-.82,0-1.5-.67-1.5-1.5v-9.63l-1.13-.29c-3.47-.89-6.77-2.25-9.79-4.04l-1-.59-6.63,6.63c-.58.58-1.53.58-2.12,0l-9.5-9.5c-.58-.58-.58-1.53,0-2.12l6.64-6.64-.59-1c-1.78-3.01-3.13-6.28-4.02-9.74l-.3-1.17-1.2.04c-.05,0-.11,0-.16.01h-8.53c-.82,0-1.5-.67-1.5-1.5v-13.44h-.02v-1.61c0-.82.67-1.5,1.5-1.5h8.53l1.36.05.3-1.17c.89-3.45,2.24-6.73,4.02-9.74l.59-1-6.64-6.64c-.28-.28-.44-.66-.44-1.06s.16-.77.44-1.06l9.5-9.5c.57-.56,1.55-.56,2.12,0l6.63,6.63,1-.59c3.02-1.79,6.32-3.15,9.79-4.04l1.13-.29v-9.63c0-.82.67-1.5,1.5-1.5h13.44c.82,0,1.5.67,1.5,1.5v9.62l1.13.29c3.4.87,6.67,2.23,9.71,4.04l1,.59,6.61-6.61c.57-.56,1.55-.56,2.12,0l9.5,9.5c.28.28.44.66.44,1.06s-.16.78-.44,1.06l-6.62,6.62.59,1c1.78,3.01,3.14,6.29,4.02,9.74l.29,1.13h9.18c1.26,0,2.28,1.02,2.28,2.28v11.87h.02v1.61c0,1.26-1.02,2.28-2.28,2.28Z"/>
  <path class="cls-1" d="M75.01,48.65c-14.67,0-26.61,11.94-26.61,26.61s11.94,26.61,26.61,26.61,26.61-11.94,26.61-26.61-11.94-26.61-26.61-26.61ZM75.01,98.87c-13.02,0-23.61-10.59-23.61-23.61s10.59-23.61,23.61-23.61,23.61,10.59,23.61,23.61-10.59,23.61-23.61,23.61Z"/>
</svg>