<svg version="1.1" id="Layer_1" xmlns="http://www.w3.org/2000/svg" xmlns:xlink="http://www.w3.org/1999/xlink" x="0px" y="0px"
	 width="100%" viewBox="0 0 346 364" enable-background="new 0 0 346 364" xml:space="preserve">
<path fill="#010101" opacity="1.000000" stroke="none" 
	d="
M347.000000,6.000000 
	C347.000000,125.617851 347.000000,245.235703 347.000000,364.926758 
	C231.762573,364.926758 116.525085,364.926758 1.000000,364.926758 
	C1.000000,245.644806 1.000000,126.289391 1.461783,6.542140 
	C115.787849,6.155352 229.652130,6.160886 343.516418,6.158579 
	C344.677612,6.158556 345.838806,6.055146 347.000000,6.000000 
M232.736694,242.252609 
	C236.329620,241.558594 239.987228,241.100250 243.505707,240.134857 
	C288.734253,227.725479 317.604370,189.339188 317.034149,142.298492 
	C316.923157,133.141541 316.364258,124.023178 311.958008,115.605034 
	C307.823212,107.705482 299.022186,103.544975 290.952789,107.287460 
	C285.070526,110.015572 279.538513,114.051483 274.756012,118.481972 
	C265.109344,127.418617 256.090698,137.032333 246.783768,146.337540 
	C245.295151,147.825882 243.654968,149.162628 242.271515,150.402191 
	C231.482208,139.613571 221.076187,129.208206 210.355652,118.488335 
	C211.973724,116.751541 213.613708,114.923698 215.325195,113.165474 
	C224.495071,103.745209 233.862228,94.509109 242.810211,84.883102 
	C250.638062,76.462082 252.448624,64.642212 247.488235,56.289120 
	C242.387192,47.699188 233.903275,44.900818 224.634903,44.170189 
	C213.294907,43.276257 202.060303,43.991116 190.995026,47.063217 
	C158.123703,56.189430 135.277130,76.356644 123.124588,108.349297 
	C116.962402,124.571800 115.882042,141.585815 117.289772,158.560852 
	C118.331474,171.122223 114.115799,179.828690 105.025085,188.446304 
	C83.409225,208.937317 62.425842,230.148941 42.051506,251.880005 
	C24.476776,270.625031 24.720020,297.183533 42.067726,316.050171 
	C53.586700,328.577637 68.157249,334.057220 85.363098,330.425903 
	C97.153854,327.937439 106.699486,321.555817 115.109413,313.160980 
	C137.027527,291.282349 159.070877,269.528412 180.875809,247.537888 
	C183.867935,244.520264 186.928925,243.416397 190.961777,243.355255 
	C204.594742,243.148575 218.224487,242.728714 232.736694,242.252609 
z"/>
<path fill="#FBFBFB" opacity="1.000000" stroke="none" 
	d="
M347.000000,5.500109 
	C345.838806,6.055146 344.677612,6.158556 343.516418,6.158579 
	C229.652130,6.160886 115.787849,6.155352 1.461783,6.075156 
	C1.000000,4.335677 1.000000,2.671353 1.000000,1.005272 
	C116.333336,1.003515 231.666672,1.003515 347.000000,1.004671 
	C347.000000,2.337291 347.000000,3.668754 347.000000,5.500109 
z"/>
<path fill="#FDFDFD" opacity="1.000000" stroke="none" 
	d="
M232.296082,242.321472 
	C218.224487,242.728714 204.594742,243.148575 190.961777,243.355255 
	C186.928925,243.416397 183.867935,244.520264 180.875809,247.537888 
	C159.070877,269.528412 137.027527,291.282349 115.109413,313.160980 
	C106.699486,321.555817 97.153854,327.937439 85.363098,330.425903 
	C68.157249,334.057220 53.586700,328.577637 42.067726,316.050171 
	C24.720020,297.183533 24.476776,270.625031 42.051506,251.880005 
	C62.425842,230.148941 83.409225,208.937317 105.025085,188.446304 
	C114.115799,179.828690 118.331474,171.122223 117.289772,158.560852 
	C115.882042,141.585815 116.962402,124.571800 123.124588,108.349297 
	C135.277130,76.356644 158.123703,56.189430 190.995026,47.063217 
	C202.060303,43.991116 213.294907,43.276257 224.634903,44.170189 
	C233.903275,44.900818 242.387192,47.699188 247.488235,56.289120 
	C252.448624,64.642212 250.638062,76.462082 242.810211,84.883102 
	C233.862228,94.509109 224.495071,103.745209 215.325195,113.165474 
	C213.613708,114.923698 211.973724,116.751541 210.355652,118.488335 
	C221.076187,129.208206 231.482208,139.613571 242.271515,150.402191 
	C243.654968,149.162628 245.295151,147.825882 246.783768,146.337540 
	C256.090698,137.032333 265.109344,127.418617 274.756012,118.481972 
	C279.538513,114.051483 285.070526,110.015572 290.952789,107.287460 
	C299.022186,103.544975 307.823212,107.705482 311.958008,115.605034 
	C316.364258,124.023178 316.923157,133.141541 317.034149,142.298492 
	C317.604370,189.339188 288.734253,227.725479 243.505707,240.134857 
	C239.987228,241.100250 236.329620,241.558594 232.296082,242.321472 
M125.488670,202.988464 
	C105.948875,222.522202 86.365318,242.012573 66.910912,261.630981 
	C63.539623,265.030701 60.305687,268.708923 57.724106,272.719269 
	C52.597210,280.683716 53.104862,290.097229 58.428818,297.007843 
	C64.715355,305.167908 73.879219,308.627350 83.114105,305.015564 
	C88.201607,303.025818 93.176193,299.738617 97.080658,295.897003 
	C121.891541,271.485413 146.341629,246.707428 171.087296,222.228806 
	C172.958649,220.377640 176.170258,219.030838 178.807938,218.944244 
	C194.776993,218.419983 210.798630,218.925995 226.726349,217.901077 
	C238.758087,217.126846 250.120544,212.809540 260.038361,205.787079 
	C275.687073,194.706772 286.227966,179.877029 290.056580,160.913391 
	C291.501709,153.755280 291.613312,146.327957 292.332825,139.023346 
	C291.686127,138.726410 291.039398,138.429459 290.392700,138.132507 
	C274.339722,154.097656 258.286713,170.062790 242.353333,185.908997 
	C219.810989,163.292282 197.568405,140.976303 174.925659,118.258842 
	C190.809402,102.328674 206.892303,86.198784 223.639572,69.402588 
	C221.552933,69.097984 220.917603,68.939377 220.278336,68.921410 
	C193.043823,68.155434 170.839447,78.013115 155.206161,100.692635 
	C148.175156,110.892639 143.337860,122.208130 142.927795,134.934967 
	C142.606461,144.907928 141.188293,155.011139 142.294083,164.827042 
	C144.109695,180.943466 139.036438,193.225143 125.488670,202.988464 
z"/>
<path fill="#020202" opacity="1.000000" stroke="none" 
	d="
M125.727295,202.727051 
	C139.036438,193.225143 144.109695,180.943466 142.294083,164.827042 
	C141.188293,155.011139 142.606461,144.907928 142.927795,134.934967 
	C143.337860,122.208130 148.175156,110.892639 155.206161,100.692635 
	C170.839447,78.013115 193.043823,68.155434 220.278336,68.921410 
	C220.917603,68.939377 221.552933,69.097984 223.639572,69.402588 
	C206.892303,86.198784 190.809402,102.328674 174.925659,118.258842 
	C197.568405,140.976303 219.810989,163.292282 242.353333,185.908997 
	C258.286713,170.062790 274.339722,154.097656 290.392700,138.132507 
	C291.039398,138.429459 291.686127,138.726410 292.332825,139.023346 
	C291.613312,146.327957 291.501709,153.755280 290.056580,160.913391 
	C286.227966,179.877029 275.687073,194.706772 260.038361,205.787079 
	C250.120544,212.809540 238.758087,217.126846 226.726349,217.901077 
	C210.798630,218.925995 194.776993,218.419983 178.807938,218.944244 
	C176.170258,219.030838 172.958649,220.377640 171.087296,222.228806 
	C146.341629,246.707428 121.891541,271.485413 97.080658,295.897003 
	C93.176193,299.738617 88.201607,303.025818 83.114105,305.015564 
	C73.879219,308.627350 64.715355,305.167908 58.428818,297.007843 
	C53.104862,290.097229 52.597210,280.683716 57.724106,272.719269 
	C60.305687,268.708923 63.539623,265.030701 66.910912,261.630981 
	C86.365318,242.012573 105.948875,222.522202 125.727295,202.727051 
z"/>
</svg>