<?xml version="1.0" encoding="UTF-8"?>
<svg id="Ebene_1" data-name="Ebene 1" xmlns="http://www.w3.org/2000/svg" viewBox="0 0 150 150">
  <defs>
    <style>
      .cls-1 {
        fill: #1d1d1b;
        stroke-width: 0px;
      }
    </style>
  </defs>
  <path class="cls-1" d="M119.03,75c-.82,0-1.47.66-1.5,1.47-.78,22.79-19.56,41.09-42.54,41.09-13.37,0-25.82-6.22-33.86-16.77h8.04c.83,0,1.5-.67,1.5-1.5h0c0-.83-.67-1.5-1.5-1.5h-13.32s0,13.32,0,13.32c0,.83.67,1.5,1.5,1.5h0c.83,0,1.5-.67,1.5-1.5v-8.38c8.61,11.22,21.89,17.83,36.14,17.83,24.61,0,44.73-19.62,45.54-44.03.03-.84-.66-1.53-1.5-1.53h0Z"/>
  <path class="cls-1" d="M75,32.44c12.89,0,24.77,5.66,32.9,15.57h-7.69c-.83,0-1.5.67-1.5,1.5h0c0,.83.67,1.5,1.5,1.5h13.32v-13.32c0-.83-.67-1.5-1.5-1.5h0c-.83,0-1.5.67-1.5,1.5v8.82c-8.7-10.86-21.56-17.07-35.53-17.07-24.61,0-44.73,19.62-45.54,44.04-.03.84.66,1.53,1.5,1.53h0c.82,0,1.47-.66,1.5-1.47.78-22.79,19.56-41.09,42.54-41.09Z"/>
  <path class="cls-1" d="M66.21,104.86c.24.11.49.16.74.16.55,0,1.09-.26,1.43-.73l24.12-33.56c.39-.54.44-1.24.14-1.83s-.9-.96-1.56-.96h-12.14l5.39-20.42c.22-.82-.18-1.68-.95-2.04-.77-.36-1.68-.12-2.18.57l-23.64,32.94c-.39.54-.44,1.24-.14,1.83.3.59.9.96,1.56.96h11.5l-5.23,21.06c-.2.82.2,1.66.97,2.02ZM73.77,80.96c.13-.53.01-1.08-.32-1.51-.34-.43-.84-.68-1.39-.68h-10.66l18.3-25.5-4.08,15.46c-.14.53-.03,1.08.31,1.52.34.44.84.68,1.39.68h11.33l-18.94,26.34,4.06-16.33Z"/>
</svg>