<?xml version="1.0" encoding="utf-8"?>
<!-- Generator: Adobe Illustrator 28.2.0, SVG Export Plug-In . SVG Version: 6.00 Build 0)  -->
<svg version="1.1" id="Ebene_1" xmlns="http://www.w3.org/2000/svg" xmlns:xlink="http://www.w3.org/1999/xlink" x="0px" y="0px"
	 viewBox="0 0 150 150" style="enable-background:new 0 0 150 150;" xml:space="preserve">
<path d="M45,49.7c4.7,0,8.6-3.8,8.6-8.6s-3.8-8.6-8.6-8.6s-8.6,3.8-8.6,8.6S40.2,49.7,45,49.7z M45,35.5c3.1,0,5.6,2.5,5.6,5.6
	S48,46.7,45,46.7s-5.6-2.5-5.6-5.6S41.9,35.5,45,35.5z"/>
<path d="M143.4,91.9l-6.7-10.5c-0.5-0.8-1.4-1.3-2.4-1.3h-15.4c0.2-1.6,0.3-3.2,0.3-4.9c0-22.6-17.3-41.8-39.6-44.3l-2.9-4.6
	c-0.5-0.8-1.4-1.3-2.4-1.3H52.4L47,19.6c-1.1-1.1-2.9-1.1-4,0L37.6,25H15.7c-1,0-1.9,0.5-2.4,1.3L6.6,36.8c-0.6,0.9-0.6,2-0.1,2.9
	c0.4,0.7,1.1,1.2,1.9,1.4V72c0,2.3,1.9,4.2,4.2,4.2H30c0.2,8.5,2.7,16.6,7.4,23.7c7.1,10.7,18.3,17.8,30.9,19.5v7.7
	c0,2.3,1.9,4.2,4.2,4.2h64.1c2.3,0,4.2-1.9,4.2-4.2V96.2h0.3c1,0,2-0.6,2.5-1.5C144,93.9,144,92.8,143.4,91.9L143.4,91.9z
	 M140.7,93.3h-15.1l-10.2-10.2h18.8L140.7,93.3L140.7,93.3z M74.2,28l6.5,10.2H65.7L55.4,28H74.2L74.2,28z M15.8,28h18.8L24.4,38.2
	H9.3L15.8,28L15.8,28z M11.3,72V41.2h14.3L45,21.9l19.4,19.3h13.4V72c0,0.6-0.5,1.2-1.2,1.2H54.1V58.7c0-2.4-1.9-4.3-4.3-4.3h-9.1
	c-2.4,0-4.3,1.9-4.3,4.3v14.5H12.5C11.9,73.1,11.3,72.6,11.3,72z M51.1,73.1H39.3V58.7c0-0.7,0.6-1.3,1.3-1.3h9.1
	c0.7,0,1.3,0.6,1.3,1.3L51.1,73.1L51.1,73.1z M39.9,98.1c-4.3-6.5-6.7-14.1-6.9-22h43.6c2.3,0,4.2-1.9,4.2-4.2V41.2h0.3
	c1,0,2-0.6,2.5-1.5c0.5-0.9,0.5-2-0.1-2.9l-1.7-2.7c19.6,3.4,34.5,20.7,34.5,41c0,1.6-0.1,3.3-0.3,4.9h-3.6l-5.4-5.4
	c-1.1-1.1-2.9-1.1-4,0L97.6,80H75.7c-1,0-1.9,0.5-2.4,1.3l-6.7,10.5c-0.6,0.9-0.6,2-0.1,2.9c0.4,0.7,1.1,1.2,1.9,1.4v20.1
	C56.7,114.5,46.4,107.9,39.9,98.1L39.9,98.1z M84.3,93.3H69.2l6.5-10.2h18.8L84.3,93.3L84.3,93.3z M99.3,128.2v-14.5
	c0-0.7,0.6-1.3,1.3-1.3h9.1c0.7,0,1.3,0.6,1.3,1.3v14.5H99.3L99.3,128.2z M137.8,127c0,0.6-0.5,1.2-1.2,1.2h-22.5v-14.5
	c0-2.4-1.9-4.3-4.3-4.3h-9.1c-2.4,0-4.3,1.9-4.3,4.3v14.5H72.5c-0.6,0-1.2-0.5-1.2-1.2V96.2h14.3L105,76.9l19.4,19.3h13.4L137.8,127
	L137.8,127z"/>
<path d="M104.9,87.6c-4.7,0-8.6,3.8-8.6,8.6s3.8,8.6,8.6,8.6s8.6-3.8,8.6-8.6S109.7,87.6,104.9,87.6z M104.9,101.7
	c-3.1,0-5.6-2.5-5.6-5.6s2.5-5.6,5.6-5.6s5.6,2.5,5.6,5.6S108,101.7,104.9,101.7z"/>
</svg>
