<?xml version="1.0" encoding="UTF-8"?>
<svg id="Ebene_1" data-name="Ebene 1" xmlns="http://www.w3.org/2000/svg" viewBox="0 0 150 150">
  <defs>
    <style>
      .cls-1 {
        fill: #fff;
        stroke-width: 0px;
      }
    </style>
  </defs>
  <path class="cls-1" d="M11.85,60.76v36.19c0,8.64,7.03,15.67,15.67,15.67h3.72v12.59c0,1.06.58,2.04,1.51,2.56.44.24.92.36,1.41.36.54,0,1.08-.15,1.56-.45l23.82-15.05h29.77c8.11,0,14.79-6.19,15.59-14.09l9.37,5.92c.47.3,1.02.45,1.56.45.48,0,.97-.12,1.41-.36.93-.51,1.51-1.49,1.51-2.56v-12.59h3.72c8.64,0,15.67-7.03,15.67-15.67v-36.19c0-8.64-7.03-15.67-15.67-15.67h-61.79c-8.64,0-15.67,7.03-15.67,15.67v7.55h-17.48c-8.64,0-15.67,7.03-15.67,15.67ZM91.33,86.4h-30.64c-6.99,0-12.67-5.69-12.67-12.67v-36.19c0-6.99,5.69-12.67,12.67-12.67h61.79c6.99,0,12.67,5.69,12.67,12.67v36.19c0,6.99-5.69,12.67-12.67,12.67h-6.72s0,15.44,0,15.44l-24.43-15.44ZM14.85,60.76c0-6.99,5.69-12.67,12.67-12.67h17.48v25.64c0,8.64,7.03,15.67,15.67,15.67h29.78s11.53,7.29,11.53,7.29v.26c0,6.99-5.69,12.67-12.67,12.67h-30.64s-24.43,15.44-24.43,15.44v-15.44s-6.72,0-6.72,0c-6.99,0-12.67-5.69-12.67-12.67v-36.19Z"/>
  <g>
    <path class="cls-1" d="M76.64,53.07h1.4c.51,0,.92-.06,1.23-.19.31-.13.6-.34.85-.65l9.14-10.62c.29-.36.59-.61.9-.75.31-.14.69-.21,1.14-.21h3.64l-10.64,12.24c-.27.35-.53.63-.79.84-.26.21-.53.39-.81.54.73.25,1.37.77,1.92,1.54l11.06,13.56h-3.7c-.27,0-.5-.02-.69-.06-.19-.04-.36-.1-.5-.17-.14-.07-.27-.16-.38-.27-.11-.11-.22-.23-.31-.38l-9.46-11.2c-.13-.17-.27-.32-.4-.44-.13-.12-.29-.22-.46-.29-.17-.07-.37-.13-.6-.16-.23-.03-.49-.05-.8-.05h-1.74v13.02h-4.26v-28.72h4.26v12.42Z"/>
    <path class="cls-1" d="M106.09,69.37h-4.28v-28.72h4.28v28.72Z"/>
  </g>
</svg>