<?xml version="1.0" encoding="UTF-8"?>
<svg id="Ebene_1" data-name="Ebene 1" xmlns="http://www.w3.org/2000/svg" width="150" height="150"
     viewBox="10 10 130 130">
    <defs>
        <style>
          .cls-1 {
            fill: #fff;
          }
        </style>
    </defs>
    <path class="cls-1"
          d="m78.6,53.94c1.39-.5,2.95-.08,3.89,1.05l28.86,34.64v-32.39c0-1.94,1.57-3.51,3.51-3.51s3.51,1.57,3.51,3.51v42.08c0,1.48-.92,2.79-2.31,3.3s-2.95.08-3.89-1.05l-28.86-34.64v32.39c0,1.94-1.57,3.51-3.51,3.51s-3.51-1.57-3.51-3.51v-42.08c0-1.48.92-2.79,2.31-3.3Z"/>
    <path class="cls-1"
          d="m38.57,53.99c-3.83,0-6.94,3.11-6.94,6.94v34.7c0,3.83,3.11,6.94,6.94,6.94h24.29c1.92,0,3.47-1.55,3.47-3.47s-1.55-3.47-3.47-3.47h-24.29v-13.88h17.35c1.92,0,3.47-1.55,3.47-3.47s-1.55-3.47-3.47-3.47h-17.35v-13.88h24.29c1.92,0,3.47-1.55,3.47-3.47s-1.55-3.47-3.47-3.47h-24.29Z"/>
</svg>
