<?xml version="1.0" encoding="UTF-8"?>
<svg id="Ebene_1" data-name="Ebene 1" xmlns="http://www.w3.org/2000/svg" viewBox="0 0 150 150">
  <defs>
    <style>
      .cls-1 {
        fill: #fff;
        stroke-width: 0px;
      }
    </style>
  </defs>
  <path class="cls-1" d="M119.8,110.8c0,7.71-4.33,13.98-9.65,13.98H34.53c-5.32,0-9.65-6.27-9.65-13.98v-61.03c0-7.71,4.33-13.98,9.65-13.98h24.38c.83,0,1.5-.67,1.5-1.5h0c0-.83-.67-1.5-1.5-1.5h-24.38c-6.97,0-12.65,7.62-12.65,16.98v61.03c0,9.37,5.67,16.98,12.65,16.98h75.62c6.97,0,12.65-7.62,12.65-16.98v-20.02c0-.83-.67-1.5-1.5-1.5h0c-.83,0-1.5.67-1.5,1.5v20.02Z"/>
  <path class="cls-1" d="M57.97,74.14l-6.29,21.87c-.43,1.5.95,2.9,2.46,2.48l22.02-6.14c.5-.14.95-.4,1.32-.77l47.46-47.46c4.23-4.23,4.23-11.12,0-15.35l-3.39-3.39c-4.24-4.24-11.11-4.24-15.35,0l-47.46,47.46c-.36.36-.62.8-.76,1.29ZM62.3,73.53l40.3-40.3,14.5,14.5-40.29,40.3-14.5-14.5ZM60.56,76.03l13.74,13.74-17.5,4.88c-.75.21-1.45-.49-1.23-1.24l4.99-17.38ZM122.82,42.01l-3.6,3.6-14.5-14.5,3.6-3.6c3.07-3.07,8.04-3.07,11.11,0l3.39,3.39c3.07,3.07,3.07,8.04,0,11.11Z"/>
</svg>