<?xml version="1.0" encoding="UTF-8"?>
<svg id="Ebene_1" data-name="Ebene 1" xmlns="http://www.w3.org/2000/svg" viewBox="0 0 150 150">
  <defs>
    <style>
      .cls-1 {
        fill: #fff;
        stroke-width: 0px;
      }
    </style>
  </defs>
  <path class="cls-1" d="M125.8,125.85H41.27v-43.63l17.21.07c1.05,0,1.64,1.2,1.01,2.03l-.19.26c-.46.6-.8,1.29-.94,2.03-.69,3.66,2.89,6.77,6.62,5.21.96-.4,2.08-1.58,2.42-2.56.58-1.66.31-3.32-.66-4.6l-.2-.26c-.68-.88-.04-2.16,1.07-2.15l8.09.02,6.56-.03v-14.81c0-1.25,1.46-1.94,2.42-1.13h0c.48.4,1.02.74,1.62.92,3.71,1.13,7.08-2.24,5.95-5.95-.22-.73-.64-1.4-1.19-1.92-1.92-1.8-4.58-1.68-6.3-.26h0c-.97.81-2.45.12-2.46-1.15l-.11-16.92h43.64v84.8ZM85.3,122.85h37.5v-37.65h-15.02c-1.13,0-1.7-1.36-.9-2.16l.3-.3c.61-.61,1.09-1.35,1.3-2.18.96-3.76-2.63-7.07-6.43-5.58-1.09.43-1.98,1.29-2.43,2.37-.8,1.92-.38,3.93.95,5.28l.27.27c.83.85.24,2.27-.95,2.28l-14.64.06v11.21c1.21-.37,2.51-.44,3.83-.19,2.92.55,5.28,2.83,5.95,5.72,1.18,5.05-2.64,9.56-7.5,9.56-.78,0-1.54-.11-2.26-.33l.04,11.65ZM44.27,122.85h38.03l-.05-14.53c0-1.06,1.21-1.66,2.05-1.02l.26.2c.6.46,1.29.81,2.03.95,3.66.7,6.78-2.88,5.23-6.61-.4-.96-1.58-2.08-2.56-2.42-1.66-.58-3.33-.32-4.61.66l-.26.2c-.88.67-2.15.05-2.15-1.06v-13.96s-6.58.03-6.58.03l-5.33-.02c.44,1.44.46,3.02,0,4.59-.7,2.41-2.63,4.32-5.03,5.04-5.25,1.56-10.06-2.35-10.06-7.37,0-.78.11-1.54.33-2.26l-11.33-.04v37.63ZM85.24,70.04v12.19s11.53-.04,11.53-.04c-.7-1.75-.75-3.75-.03-5.72s2.35-3.62,4.35-4.34c5.44-1.97,10.56,2.03,10.56,7.2,0,1-.19,1.98-.55,2.88h11.71v-38.15h-37.62l.08,11.39c2.46-.83,5.35-.43,7.65,1.58,1.12.98,1.92,2.29,2.29,3.73,1.29,5.11-2.56,9.71-7.46,9.71-.86,0-1.7-.14-2.5-.42Z"/>
  <path class="cls-1" d="M44.15,77.74c-1.49-.35-2.85-1.18-3.86-2.33-2.07-2.36-2.45-5.28-1.54-7.76h-14.55V24.15h43.49v14.51c1.53-.6,3.25-.71,4.95-.23,2.8.78,4.95,3.18,5.45,6.05.84,4.85-2.9,9.08-7.6,9.08-.97,0-1.92-.18-2.8-.53v14.61h-14.45c.3.83.46,1.71.46,2.6,0,4.86-4.51,8.68-9.56,7.5ZM27.2,64.64h14.16c1.29,0,1.98,1.53,1.12,2.49h0c-.56.63-1.23,1.71-1.2,3.2.05,2.24,1.74,4.21,3.95,4.56,2.93.46,5.47-1.81,5.47-4.65,0-1.44-.65-2.49-1.2-3.11h0c-.86-.97-.17-2.49,1.12-2.49h14.06v-14.33c0-1.32,1.59-2,2.54-1.08h0c1.16,1.12,2.78,1.58,4.39,1.19,1.8-.43,3.21-1.95,3.52-3.77.49-2.95-1.78-5.52-4.65-5.52-1.22,0-2.37.47-3.26,1.33h0c-.95.92-2.54.24-2.54-1.08v-14.23H27.2v37.49Z"/>
</svg>