<?xml version="1.0" encoding="UTF-8"?>
<svg id="Ebene_1" data-name="Ebene 1" xmlns="http://www.w3.org/2000/svg" viewBox="0 0 150 150">
  <defs>
    <style>
      .cls-1 {
        stroke-width: 3;
        stroke: black;
        opacity: 0.8;
      }
    </style>
  </defs>
  <path class="cls-1" d="M101.42,48.59c.84-.7.68-2.02-.3-2.51-8.42-4.24-17-6.39-25.54-6.39-33.51,0-57.1,32.19-58.09,33.56l-.59.82.54.86c.3.48,7.24,11.38,19.53,21.04.53.42,1.28.42,1.83.02h0c.8-.59.8-1.77.02-2.39-9.93-7.82-16.38-16.66-18.26-19.41,3.93-5.04,25.97-31.49,55.03-31.49,8.07,0,16.2,2.04,24.21,6.07.53.27,1.17.2,1.63-.18h0Z"/>
  <path class="cls-1" d="M111.52,56.18c9.64,7.37,16.05,15.59,17.95,18.16-3.59,5.2-24.18,32.97-54.47,32.97-8.29,0-16.54-2.08-24.56-6.2-.5-.26-1.11-.22-1.57.11h0c-.91.66-.79,2.05.22,2.56,8.44,4.33,17.15,6.52,25.91,6.52,34.89,0,57.34-34.84,57.57-35.2l.53-.83-.56-.81c-.3-.45-7.27-10.55-19.18-19.66-.49-.38-1.17-.41-1.7-.09h0c-.9.55-.97,1.82-.14,2.46Z"/>
  <path class="cls-1" d="M92.99,67.91c-.52.4-.7,1.08-.5,1.7.62,1.86.93,3.8.93,5.8,0,10.16-8.26,18.42-18.42,18.42-3.75,0-7.41-1.15-10.47-3.26-.49-.34-1.13-.37-1.64-.05l-.09.06c-.86.55-.91,1.81-.08,2.39,3.58,2.5,7.87,3.87,12.27,3.87,11.81,0,21.42-9.61,21.42-21.42,0-2.34-.37-4.62-1.1-6.8-.33-.97-1.52-1.32-2.33-.7h0Z"/>
  <path class="cls-1" d="M86.62,57.4c-3.57-2.32-7.7-3.5-12.05-3.41-11.62.23-21.1,10.02-20.98,21.64.02,2.07.34,4.1.94,6.06.31,1.01,1.57,1.36,2.39.69h0c.48-.39.64-1.03.46-1.63-.46-1.51-.72-3.07-.78-4.67-.35-9.81,7.78-18.66,17.58-19.08,3.88-.16,7.57.83,10.75,2.88.52.34,1.19.34,1.7-.02l.03-.02c.84-.6.83-1.88-.04-2.45Z"/>
  <rect class="cls-1" x="17.03" y="73.5" width="115.77" height="3" rx="1.5" ry="1.5" transform="translate(-30.06 60.25) rotate(-37.03)"/>
</svg>
