<?xml version="1.0" encoding="UTF-8"?>
<svg id="Ebene_1" data-name="Ebene 1" xmlns="http://www.w3.org/2000/svg" viewBox="0 0 150 150">
  <defs>
    <style>
      .cls-1 {
        fill: #fff;
        stroke-width: 0px;
      }
    </style>
  </defs>
  <path class="cls-1" d="M112.8,52.71h-23.31c-.83-7.5-4.17-14.56-9.57-19.95-6.77-6.76-16.15-10.29-25.73-9.68-16.47,1.05-29.82,14.24-31.06,30.68-.56,7.46,1.29,14.65,5.35,20.84l-4.1,11.48c-.4,1.12-.12,2.33.73,3.16.58.56,1.32.85,2.08.85.37,0,.74-.07,1.1-.21l11.68-4.52c5.72,3.23,12.22,4.7,18.82,4.22.56-.04,1.11-.1,1.65-.16v9.75c0,7.81,6.35,14.16,14.16,14.16h9.54l20.87,13.19c.49.31,1.04.46,1.6.46.5,0,1-.12,1.45-.37.96-.53,1.55-1.53,1.55-2.63v-10.66h3.16c7.81,0,14.16-6.35,14.16-14.16v-32.31c0-7.81-6.35-14.16-14.16-14.16ZM58.6,86.6c-6.25.44-12.38-1-17.71-4.17l-.63-.37-13.04,5.04,4.61-12.92-.44-.63c-3.97-5.76-5.79-12.52-5.26-19.56,1.13-14.96,13.28-26.96,28.26-27.92.65-.04,1.29-.06,1.94-.06,8.04,0,15.78,3.17,21.48,8.87,6.16,6.15,9.38,14.68,8.84,23.4-.94,15.07-13,27.24-28.05,28.31ZM123.96,99.18c0,6.15-5,11.16-11.16,11.16h-6.16v13.66l-21.61-13.66h-10.41c-6.15,0-11.16-5-11.16-11.16v-10.26c5.4-1.17,10.31-3.66,14.39-7.1v8.33h2.57v-4.92h4.44v-2.01h-4.44v-3.41h5.29v-2h-3.86c4.47-5.3,7.33-12.01,7.79-19.34.06-.92.06-1.85.05-2.76h23.11c6.15,0,11.16,5,11.16,11.16v32.31Z"/>
  <path class="cls-1" d="M89.84,77.81l-4.82,12.33h2c.21,0,.39-.06.54-.17s.24-.25.3-.39l.83-2.35h4.91l.83,2.35c.07.16.17.3.31.4.14.11.32.16.54.16h1.98l-4.81-12.33h-2.61ZM89.31,85.46l1.33-3.76c.08-.2.16-.43.25-.7.09-.27.17-.56.25-.88.08.31.16.6.25.87s.17.5.25.7l1.33,3.77h-3.66Z"/>
  <path class="cls-1" d="M108.52,88.13c.31-.37.56-.77.77-1.2s.37-.9.48-1.39c.11-.5.17-1.02.17-1.56,0-.9-.15-1.73-.45-2.49-.3-.77-.73-1.43-1.28-2-.55-.56-1.22-1.01-1.99-1.33s-1.64-.48-2.58-.48-1.81.16-2.58.48-1.44.76-2,1.32c-.56.56-.98,1.23-1.29,1.99-.3.77-.45,1.6-.45,2.5s.15,1.74.45,2.51c.3.77.73,1.44,1.29,2,.56.56,1.22,1,2,1.32s1.64.48,2.58.48c.6,0,1.17-.07,1.72-.2l1.67,1.86c.2.22.43.36.67.44.24.08.51.12.82.12h2.1l-3.12-3.41c.39-.28.73-.6,1.04-.97ZM107.07,85.72c-.17.51-.42.95-.74,1.3-.32.36-.71.63-1.16.82-.46.19-.97.28-1.55.28s-1.1-.09-1.55-.28c-.46-.19-.85-.46-1.17-.82-.32-.36-.57-.79-.74-1.3s-.25-1.1-.25-1.75.08-1.23.25-1.74.42-.95.74-1.31c.32-.36.71-.63,1.17-.83.46-.19.98-.28,1.55-.28s1.1.09,1.55.28c.46.19.84.46,1.16.83.32.36.57.8.74,1.31s.25,1.09.25,1.74-.08,1.23-.25,1.75Z"/>
  <path class="cls-1" d="M61.79,40.87c-.75-.64-1.64-1.14-2.68-1.49s-2.16-.53-3.37-.53c-.92,0-1.78.09-2.56.26-.79.18-1.53.42-2.21.72-.68.31-1.31.66-1.89,1.06-.57.4-1.1.82-1.58,1.26l1.08,1.73c.21.35.51.53.9.53.18,0,.42-.11.7-.34.28-.23.66-.48,1.12-.76.46-.28,1.02-.53,1.69-.76s1.47-.35,2.4-.35c.69,0,1.34.1,1.94.3.61.2,1.13.49,1.58.86.44.38.8.83,1.06,1.37.26.54.39,1.13.39,1.79,0,.92-.17,1.72-.52,2.39-.35.67-.78,1.28-1.31,1.81-.53.53-1.1,1.01-1.7,1.45s-1.17.87-1.7,1.31c-.53.44-.97.9-1.31,1.4-.34.5-.52,1.07-.52,1.71v.25l.28,3.82h2.81l.41-3.52c.06-.51.29-.97.68-1.38.39-.41.86-.83,1.4-1.24.54-.41,1.13-.85,1.76-1.32s1.21-1.02,1.74-1.66c.53-.64.97-1.38,1.31-2.22s.52-1.85.52-3.01-.21-2.19-.64-3.1c-.43-.92-1.02-1.7-1.77-2.35Z"/>
  <path class="cls-1" d="M56.91,67.6c-.26-.26-.57-.47-.92-.62-.35-.15-.73-.23-1.13-.23s-.77.08-1.13.23c-.35.15-.66.36-.91.62-.25.26-.45.57-.6.92-.15.35-.22.73-.22,1.13s.07.79.22,1.14c.15.35.34.65.6.91s.56.46.91.61c.35.15.73.22,1.13.22s.77-.07,1.13-.22c.35-.15.66-.35.92-.61s.46-.56.61-.91c.15-.34.22-.72.22-1.14s-.07-.77-.22-1.13c-.15-.35-.35-.66-.61-.92Z"/>
</svg>