<svg version="1.1" id="Layer_1" xmlns="http://www.w3.org/2000/svg" xmlns:xlink="http://www.w3.org/1999/xlink" x="0px" y="0px"
	 width="100%" viewBox="0 0 448 384" enable-background="new 0 0 448 384" xml:space="preserve">
<path fill="#000000" opacity="1.000000" stroke="none" 
	d="
M259.168823,165.081573 
	C262.778900,162.668304 266.097290,160.511978 269.215057,157.987625 
	C282.028748,147.612808 280.647980,131.098953 265.735168,121.227203 
	C243.885696,106.763664 215.534363,111.136459 198.771912,131.353622 
	C196.010605,134.684021 193.254379,138.020355 190.417999,141.286392 
	C185.092056,147.419083 177.334915,148.869736 170.710373,144.233200 
	C161.854218,138.034744 153.180710,131.529999 144.830063,124.668411 
	C137.654343,118.772247 136.862030,111.588547 142.222275,103.848061 
	C162.013260,75.268867 188.139404,56.802170 223.458771,52.524391 
	C261.742615,47.887558 295.365723,57.679657 322.227692,85.601616 
	C344.969238,109.240540 352.650879,137.442627 341.247955,169.230377 
	C335.090271,186.396042 321.837067,197.518997 306.916260,206.877121 
	C299.178650,211.730057 291.206543,216.212799 283.523712,221.148270 
	C277.257568,225.173676 273.154724,230.359924 272.906067,238.597656 
	C272.598083,248.800385 266.786102,253.855606 256.445435,254.009293 
	C243.621368,254.199890 230.790298,254.175781 217.965683,253.997894 
	C206.796066,253.842957 201.225159,248.087692 200.952438,236.870163 
	C200.321899,210.934891 212.711334,192.557465 234.334671,179.611969 
	C242.459091,174.748032 250.681549,170.047836 259.168823,165.081573 
z"/>
<path fill="#000000" opacity="1.000000" stroke="none" 
	d="
M215.194000,345.972656 
	C189.224365,328.581787 190.568726,293.418671 213.323822,277.714203 
	C237.484177,261.039886 269.403809,272.782379 276.818939,301.182220 
	C283.013550,324.907532 266.751617,348.255951 243.259552,351.544891 
	C233.256714,352.945282 224.119247,351.258514 215.194000,345.972656 
z"/>
</svg>