<?xml version="1.0" encoding="UTF-8"?>
<svg id="Ebene_1" data-name="Ebene 1" xmlns="http://www.w3.org/2000/svg" viewBox="0 0 150 150">
  <defs>
    <style>
      .cls-1 {
        fill: #1d1d1b;
        stroke-width: 0px;
      }
    </style>
  </defs>
  <path class="cls-1" d="M116.37,85.53V26.7c0-1.61-1.31-2.92-2.92-2.92l-66.01.06c-1.61,0-2.91,1.31-2.91,2.92v18.09h-6.81c-9.8,0-17.77,7.23-17.77,16.11v35.79c0,8.88,7.97,16.11,17.77,16.11h46.32c2.67,9.99,11.79,17.37,22.62,17.37,12.91,0,23.41-10.5,23.41-23.41,0-9.44-5.62-17.59-13.68-21.29ZM47.52,26.84l65.85-.06v57.61c-2.13-.64-4.39-.99-6.72-.99-.8,0-1.6.04-2.38.12v-11.82c0-8.88-7.97-16.11-17.77-16.11h-26.58l-4.24-10.75h-8.16v-18.01ZM37.71,109.85c-8.14,0-14.77-5.88-14.77-13.11v-35.79c0-7.23,6.62-13.11,14.77-13.11h15.92l4.24,10.75h28.62c8.14,0,14.77,5.88,14.77,13.11v12.33c-10.32,2.44-18.03,11.72-18.03,22.78,0,1.03.07,2.04.2,3.04h-45.73ZM106.65,127.22c-11.25,0-20.41-9.16-20.41-20.41s9.16-20.41,20.41-20.41,20.41,9.16,20.41,20.41-9.16,20.41-20.41,20.41Z"/>
  <path class="cls-1" d="M113.97,103.89c3.2,0,5.8-2.6,5.8-5.8s-2.6-5.8-5.8-5.8-5.8,2.6-5.8,5.8c0,.37.04.73.1,1.08l-7.95,3.9c-1.07-1.25-2.65-2.05-4.42-2.05-3.2,0-5.8,2.6-5.8,5.8s2.6,5.8,5.8,5.8c1.72,0,3.26-.76,4.33-1.95l8.03,3.81c-.06.34-.1.7-.1,1.06,0,3.2,2.6,5.8,5.8,5.8s5.8-2.6,5.8-5.8-2.6-5.8-5.8-5.8c-1.76,0-3.34.79-4.4,2.04l-7.97-3.79c.08-.38.12-.77.12-1.18,0-.36-.04-.71-.1-1.05l7.96-3.9c1.07,1.24,2.64,2.03,4.4,2.03ZM113.97,112.74c1.55,0,2.8,1.26,2.8,2.8s-1.26,2.8-2.8,2.8-2.8-1.26-2.8-2.8,1.26-2.8,2.8-2.8ZM95.91,109.62c-1.55,0-2.8-1.26-2.8-2.8s1.26-2.8,2.8-2.8,2.8,1.26,2.8,2.8-1.26,2.8-2.8,2.8ZM113.97,95.28c1.55,0,2.8,1.26,2.8,2.8s-1.26,2.8-2.8,2.8-2.8-1.26-2.8-2.8,1.26-2.8,2.8-2.8Z"/>
</svg>