<?xml version="1.0" encoding="UTF-8"?>
<svg id="Ebene_1" data-name="Ebene 1" xmlns="http://www.w3.org/2000/svg" viewBox="0 0 150 150">
  <defs>
    <style>
      .cls-1 {
        fill: #1d1d1b;
        stroke-width: 0px;
      }
    </style>
  </defs>
  <path class="cls-1" d="M98.2,97.43c1.27,0,2.3-1.05,2.3-2.33v-45.24c0-.63-.25-1.22-.69-1.66-.43-.43-1-.67-1.61-.67h0l-37.12.03c-1.27,0-2.29,1.05-2.29,2.33v20.92h-1.09c-5.33,0-9.66,3.96-9.66,8.83v17.96c0,4.87,4.33,8.83,9.66,8.83h24.96c3.02,0,5.37-.88,6.99-2.63,2.27-2.45,2.22-5.71,2.19-6.24v-.13h6.36ZM87.44,101.78c-1.03,1.1-2.64,1.66-4.78,1.66h-24.96c-3.67,0-6.66-2.62-6.66-5.83v-17.96c0-3.21,2.99-5.83,6.66-5.83h7.48l2.13,5.39h14.87c3.67,0,6.66,2.62,6.66,5.83v12.67s.13,2.44-1.41,4.08ZM82.18,76.2h-12.83l-2.13-5.39h-5.44v-20.25l35.71-.03v43.91s-5.65,0-5.65,0v-9.4c0-4.87-4.33-8.83-9.66-8.83Z"/>
  <path class="cls-1" d="M74.82,127.98c-12.07,0-23.59-4.15-32.85-11.73l11.69-.63-.16-3-16.92.91.91,16.92,3-.16-.64-11.9c9.83,8.14,22.11,12.59,34.97,12.59,15.92,0,31.04-6.9,41.48-18.93l-2.27-1.97c-9.87,11.38-24.17,17.9-39.22,17.9Z"/>
  <path class="cls-1" d="M55.88,27.73l-4.11,11.2,2.82,1.03,5.83-15.9-15.9-5.83-1.03,2.82,10.97,4.02c-20.81,8.28-34.54,28.31-34.54,51,0,6.04.97,11.97,2.9,17.64l2.84-.96c-1.82-5.36-2.74-10.97-2.74-16.68,0-21.56,13.12-40.59,32.97-48.34Z"/>
  <path class="cls-1" d="M138.14,77.2l-9.04,7.08c.41-2.71.63-5.46.63-8.21,0-26.48-18.87-49.19-44.87-53.99l-.54,2.95c24.58,4.54,42.42,26.01,42.42,51.04,0,2.79-.23,5.58-.67,8.32l-7.49-9.57-2.36,1.85,10.44,13.34,13.34-10.44-1.85-2.36Z"/>
</svg>