<?xml version="1.0" encoding="UTF-8"?>
<svg id="Ebene_1" data-name="Ebene 1" xmlns="http://www.w3.org/2000/svg" viewBox="0 0 150 150">
  <defs>
    <style>
      .cls-1 {
        fill: #fff;
        stroke-width: 0px;
      }
    </style>
  </defs>
  <path class="cls-1" d="M98.83,40h-33.2v-3.69c0-8.62-7.52-15.63-16.77-15.63s-16.77,7.01-16.77,15.63v6.68l10.31-.06v-6.06c0-3.34,2.9-6.06,6.46-6.06s6.46,2.72,6.46,6.06v3.13h-3.76c-3.76,0-6.82,3.06-6.82,6.82v30.43c0,3.76,3.06,6.82,6.82,6.82h47.26c3.76,0,6.82-3.06,6.82-6.82v-30.43c0-3.76-3.06-6.82-6.82-6.82ZM102.65,77.24c0,2.1-1.71,3.82-3.82,3.82h-47.26c-2.1,0-3.82-1.71-3.82-3.82v-30.43c0-2.1,1.71-3.82,3.82-3.82h6.76v-6.13c0-5-4.24-9.06-9.46-9.06s-9.46,4.07-9.46,9.06v3.07l-4.31.03v-3.66c0-6.96,6.18-12.63,13.77-12.63s13.77,5.67,13.77,12.63v6.69h36.2c2.1,0,3.82,1.71,3.82,3.82v30.43Z"/>
  <polygon class="cls-1" points="24.42 109.05 25.97 111.62 30.92 108.64 30.92 114.47 33.92 114.47 33.92 108.53 38.86 111.53 40.42 108.97 35.41 105.93 40.5 102.87 38.95 100.3 33.92 103.33 33.92 97.39 30.92 97.39 30.92 103.21 25.94 100.19 24.39 102.75 29.61 105.92 24.42 109.05"/>
  <rect class="cls-1" x="22.36" y="121.42" width="20.03" height="3"/>
  <polygon class="cls-1" points="59.53 97.4 59.53 103.22 54.56 100.2 53 102.77 58.22 105.94 53.03 109.06 54.58 111.63 59.53 108.65 59.53 114.49 62.53 114.49 62.53 108.55 67.47 111.55 69.03 108.98 64.02 105.95 69.11 102.88 67.56 100.31 62.53 103.34 62.53 97.4 59.53 97.4"/>
  <rect class="cls-1" x="50.97" y="121.43" width="20.03" height="3"/>
  <polygon class="cls-1" points="88.14 97.51 88.14 103.32 83.17 100.31 81.61 102.87 86.83 106.04 81.64 109.17 83.19 111.74 88.14 108.76 88.14 114.59 91.14 114.59 91.14 108.65 96.08 111.65 97.64 109.09 92.63 106.05 97.72 102.99 96.17 100.42 91.14 103.45 91.14 97.51 88.14 97.51"/>
  <rect class="cls-1" x="79.58" y="121.53" width="20.03" height="3"/>
  <polygon class="cls-1" points="110.25 109.18 111.8 111.75 116.75 108.77 116.75 114.6 119.75 114.6 119.75 108.67 124.69 111.66 126.25 109.1 121.24 106.06 126.33 103 124.78 100.43 119.75 103.46 119.75 97.52 116.75 97.52 116.75 103.34 111.78 100.32 110.22 102.89 115.44 106.05 110.25 109.18"/>
  <rect class="cls-1" x="108.19" y="121.55" width="20.03" height="3"/>
</svg>