<?xml version="1.0" encoding="UTF-8"?>
<svg id="Ebene_1" data-name="Ebene 1" xmlns="http://www.w3.org/2000/svg" width="150" height="150"
     viewBox="10 0 130 130">
    <defs>
        <style>
          .cls-1 {
            fill: #fff;
          }
        </style>
    </defs>
    <path class="cls-1"
          d="m35.23,49.31c0-3.8,3.09-6.88,6.88-6.88h10.32c13.3,0,24.09,10.79,24.09,24.09s-10.79,24.09-24.09,24.09h-10.32c-3.8,0-6.88-3.09-6.88-6.88v-34.42Zm17.21,0h-10.32v34.42h10.32c9.51,0,17.21-7.7,17.21-17.21s-7.7-17.21-17.21-17.21Z"/>
    <path class="cls-1"
          d="m87.02,42.23c-3.83,0-6.94,3.11-6.94,6.94v34.7c0,3.83,3.11,6.94,6.94,6.94h24.29c1.92,0,3.47-1.55,3.47-3.47s-1.55-3.47-3.47-3.47h-24.29v-13.88h17.35c1.92,0,3.47-1.55,3.47-3.47s-1.55-3.47-3.47-3.47h-17.35v-13.88h24.29c1.92,0,3.47-1.55,3.47-3.47s-1.55-3.47-3.47-3.47h-24.29Z"/>
</svg>
