<?xml version="1.0" encoding="UTF-8"?>
<svg id="Ebene_1" data-name="Ebene 1" xmlns="http://www.w3.org/2000/svg" viewBox="0 0 150 150">
  <defs>
    <style>
      .cls-1 {
        fill: #fff;
        stroke-width: 0px;
      }
    </style>
  </defs>
  <path class="cls-1" d="M58.36,82.71v-21.42c0-4.15-3.1-7.52-6.91-7.52-1.45,0-2.8.49-3.91,1.33v-14.19c0-4.15-3.1-7.52-6.91-7.52-1.45,0-2.8.49-3.91,1.33v-7.37c0-4.15-3.37-7.52-7.52-7.52-3.87,0-7.06,2.94-7.47,6.7-1.45-1.23-3.33-1.98-5.38-1.98-4.59,0-8.33,3.74-8.33,8.33v35.5c0,1.79.44,3.57,1.27,5.16l10.81,20.67c1.02,1.95,2.33,3.73,3.88,5.29l16.62,16.62c.92.92,1.43,2.14,1.43,3.44v5.15c0,2.97,2.42,5.39,5.39,5.39h18.94c2.86,0,5.19-2.33,5.19-5.18v-22.8c0-2.62-.94-5.15-2.65-7.13l-10.55-12.24ZM51.45,56.77c2.15,0,3.91,2.03,3.91,4.52v17.94l-7.82-9.07v-8.88c0-2.49,1.75-4.52,3.91-4.52ZM40.64,36.38c2.15,0,3.91,2.03,3.91,4.52v25.78l-1.69-1.96c-1.44-1.67-3.42-2.72-5.57-2.94-.19-.02-.37-.02-.56-.03v-20.86c0-2.49,1.75-4.52,3.91-4.52ZM24.69,27.33c0-2.49,2.03-4.52,4.52-4.52s4.52,2.03,4.52,4.52v34.91c-.84.31-1.63.77-2.33,1.37-1.23,1.06-2.08,2.46-2.45,4.03l-2.73-3.71c-1-1.36-1.53-2.97-1.53-4.65v-31.95ZM68.56,124.89c0,1.2-.98,2.18-2.19,2.18h-18.94c-1.32,0-2.39-1.07-2.39-2.39v-5.15c0-2.1-.82-4.08-2.31-5.56l-16.62-16.62c-1.34-1.34-2.47-2.87-3.35-4.56l-10.81-20.67c-.61-1.16-.93-2.46-.93-3.77v-35.5c0-2.94,2.39-5.33,5.33-5.33s5.33,2.39,5.33,5.33v26.43c0,2.33.73,4.55,2.11,6.43l21.04,28.61,2.42-1.78-14.23-19.35.05-.05c-.94-1.09-1.42-2.45-1.36-3.84.06-1.36.64-2.57,1.63-3.43.99-.85,2.28-1.25,3.63-1.11,1.38.14,2.66.82,3.6,1.91l14.78,17.14v.05h.04l11.24,13.04c1.24,1.44,1.92,3.28,1.92,5.18v22.8Z"/>
  <path class="cls-1" d="M136.61,24.64c-2.05,0-3.92.75-5.38,1.98-.41-3.76-3.61-6.7-7.47-6.7-4.15,0-7.52,3.37-7.52,7.52v7.37c-1.11-.83-2.46-1.33-3.91-1.33-3.81,0-6.91,3.37-6.91,7.52v14.19c-1.11-.83-2.46-1.33-3.91-1.33-3.81,0-6.91,3.37-6.91,7.52v21.42l-10.55,12.24c-1.71,1.98-2.65,4.52-2.65,7.13v22.8c0,2.86,2.33,5.19,5.19,5.19h18.94c2.97,0,5.39-2.42,5.39-5.39v-5.15c0-1.3.51-2.52,1.43-3.44l16.62-16.62c1.56-1.56,2.86-3.34,3.88-5.29l10.81-20.67c.83-1.58,1.27-3.37,1.27-5.16v-35.5c0-4.59-3.74-8.33-8.33-8.33ZM119.24,27.44c0-2.49,2.03-4.52,4.52-4.52s4.52,2.03,4.52,4.52v31.95c0,1.69-.53,3.29-1.53,4.65l-2.73,3.71c-.37-1.53-1.19-2.95-2.45-4.04-.71-.61-1.5-1.06-2.33-1.37V27.44ZM108.43,41.01c0-2.49,1.75-4.52,3.91-4.52s3.91,2.03,3.91,4.52v20.87c-2.25.08-4.5,1.08-6.13,2.96l-1.69,1.96v-25.78ZM97.61,61.4c0-2.49,1.75-4.52,3.91-4.52s3.91,2.03,3.91,4.52v8.88l-7.82,9.07v-17.94ZM141.94,68.47c0,1.31-.32,2.61-.93,3.77l-10.81,20.67c-.88,1.68-2,3.21-3.35,4.56l-16.62,16.62c-1.49,1.49-2.3,3.46-2.3,5.56v5.15c0,1.32-1.07,2.39-2.39,2.39h-18.94c-1.21,0-2.19-.98-2.19-2.19v-22.8c0-1.9.68-3.74,1.92-5.17l11.24-13.04h.04v-.05l14.78-17.14c1.1-1.27,2.63-1.94,4.12-1.94,1.12,0,2.22.37,3.11,1.13,2.07,1.78,2.19,5.04.27,7.27l.05.05-14.23,19.35,2.42,1.78,21.04-28.61c1.38-1.88,2.11-4.1,2.11-6.43v-26.43c0-2.94,2.39-5.33,5.33-5.33s5.33,2.39,5.33,5.33v35.5Z"/>
</svg>