<?xml version="1.0" encoding="UTF-8"?>
<svg id="Ebene_1" data-name="Ebene 1" xmlns="http://www.w3.org/2000/svg" viewBox="0 0 150 150">
  <defs>
    <style>
      .cls-1 {
        fill: #fff;
        stroke-width: 0px;
      }
    </style>
  </defs>
  <path class="cls-1" d="M107.51,53.54h-15.69c-1.1,0-2-.9-2-2v-15.69c0-1.42.85-2.69,2.16-3.23,1.31-.54,2.81-.25,3.81.76l14.19,14.19c1,1,1.3,2.5.76,3.81-.54,1.31-1.81,2.16-3.23,2.16ZM92.82,50.54h14.69c.29,0,.41-.19.46-.31s.1-.34-.11-.55l-14.19-14.19c-.21-.2-.43-.16-.54-.11-.12.05-.31.17-.31.46v14.69Z"/>
  <path class="cls-1" d="M107.31,117.66H42.51c-1.94,0-3.52-1.58-3.52-3.52V36.04c0-1.94,1.58-3.52,3.52-3.52h40.81v3h-40.81c-.29,0-.52.23-.52.52v78.09c0,.29.23.52.52.52h64.8c.29,0,.52-.23.52-.52v-54.1h3v54.1c0,1.94-1.58,3.52-3.52,3.52Z"/>
  <path class="cls-1" d="M75,103.7c-11.63,0-21.08-9.46-21.08-21.08s9.46-21.09,21.08-21.09,21.08,9.46,21.08,21.09-9.46,21.08-21.08,21.08ZM75,64.53c-9.97,0-18.08,8.11-18.08,18.09s8.11,18.08,18.08,18.08,18.08-8.11,18.08-18.08-8.11-18.09-18.08-18.09Z"/>
  <path class="cls-1" d="M74.96,90.29c-4.21,0-7.63-3.42-7.63-7.63s3.42-7.63,7.63-7.63,7.63,3.42,7.63,7.63-3.42,7.63-7.63,7.63ZM74.96,78.04c-2.55,0-4.63,2.08-4.63,4.63s2.08,4.63,4.63,4.63,4.63-2.08,4.63-4.63-2.08-4.63-4.63-4.63Z"/>
  <path class="cls-1" d="M61.62,79.61l-1.95-.43c1-4.59,4.14-8.54,8.39-10.58l.86,1.8c-3.7,1.77-6.43,5.21-7.3,9.2Z"/>
</svg>