<?xml version="1.0" encoding="UTF-8"?>
<svg id="Ebene_1" data-name="Ebene 1" xmlns="http://www.w3.org/2000/svg" viewBox="0 0 150 150">
  <defs>
    <style>
      .cls-1 {
        fill: #1d1d1b;
        stroke-width: 0px;
      }
    </style>
  </defs>
  <path class="cls-1" d="M125.01,98.93h-3v-48.48c0-6.77-5.51-12.28-12.28-12.28H40.29c-6.77,0-12.28,5.51-12.28,12.28v48.48h-3v-48.48c0-8.42,6.85-15.28,15.28-15.28h69.44c8.42,0,15.28,6.85,15.28,15.28v48.48Z"/>
  <path class="cls-1" d="M118.89,114.83H31.11c-8.16,0-14.8-6.64-14.8-14.8v-1.5h117.39v1.5c0,8.16-6.64,14.8-14.8,14.8ZM19.4,101.53c.74,5.8,5.71,10.3,11.71,10.3h87.78c6,0,10.97-4.5,11.71-10.3H19.4Z"/>
  <path class="cls-1" d="M105.86,92.41h-61.72c-5.52,0-10-4.38-10-9.77v-28.23c0-5.39,4.49-9.77,10-9.77h61.72c5.52,0,10,4.38,10,9.77v28.23c0,5.38-4.49,9.77-10,9.77ZM44.14,47.65c-3.86,0-7,3.04-7,6.77v28.23c0,3.73,3.14,6.77,7,6.77h61.72c3.86,0,7-3.04,7-6.77v-28.23c0-3.73-3.14-6.77-7-6.77h-61.72Z"/>
</svg>