<svg fill="#ffffff" version="1.1" id="Layer_1" xmlns="http://www.w3.org/2000/svg" xmlns:xlink="http://www.w3.org/1999/xlink" viewBox="0 0 512 512" xml:space="preserve" width="256px" height="256px" stroke="#ffffff" stroke-width="0.00512"><g id="SVGRepo_bgCarrier" stroke-width="0"></g><g id="SVGRepo_tracerCarrier" stroke-linecap="round" stroke-linejoin="round"></g><g id="SVGRepo_iconCarrier"> <path d="M0,84.454v343.093h512V84.454H0z M496.165,411.711H15.835V147.794H382.68v-15.835H15.835v-31.67h480.33V411.711z"></path> <path d="M100.289,179.464v110.845h58.062v-52.784h26.392v31.67h58.062v-31.67h42.724c-0.333,2.66-0.497,5.289-0.497,7.918 c0,36.382,29.598,65.979,65.979,65.979s65.979-29.598,65.979-65.979s-29.598-65.979-65.979-65.979H100.289z M401.155,245.443 c0,27.649-22.495,50.144-50.144,50.144c-27.649,0-50.144-22.495-50.144-50.144c0-4.439,0.635-8.943,1.941-13.766l2.704-9.987 h-78.542v31.67h-26.392v-31.67h-58.062v52.784h-26.392v-79.175H351.01C378.659,195.299,401.155,217.794,401.155,245.443z"></path> <path d="M332.536,245.443c0-10.186,8.288-18.474,18.474-18.474v-15.835c-18.919,0-34.309,15.391-34.309,34.309 s15.391,34.309,34.309,34.309c18.919,0,34.309-15.391,34.309-34.309h-15.835c0,10.186-8.288,18.474-18.474,18.474 C340.824,263.918,332.536,255.629,332.536,245.443z"></path> <rect x="403.794" y="131.959" width="26.392" height="15.835"></rect> <rect x="446.021" y="131.959" width="26.392" height="15.835"></rect> <rect x="446.021" y="374.763" width="26.392" height="15.835"></rect> <rect x="446.021" y="343.093" width="26.392" height="15.835"></rect> <rect x="409.072" y="374.763" width="26.392" height="15.835"></rect> <path d="M36.948,390.598h100.289v-58.062H36.948V390.598z M52.784,348.371h68.619v26.392H52.784V348.371z"></path> <rect x="160.99" y="332.536" width="168.907" height="15.835"></rect> <rect x="160.99" y="374.763" width="31.67" height="15.835"></rect> <rect x="203.217" y="374.763" width="31.67" height="15.835"></rect> </g></svg>
