<?xml version="1.0" encoding="UTF-8"?>
<svg id="Ebene_1" data-name="Ebene 1" xmlns="http://www.w3.org/2000/svg" version="1.1" viewBox="0 0 150 150">
  <defs>
    <style>
      .cls-1 {
        fill: none;
        stroke: #fff;
        stroke-miterlimit: 10;
        stroke-width: 3px;
      }

      .cls-2 {
        fill: #fff;
        stroke-width: 0px;
      }
    </style>
  </defs>
  <circle class="cls-1" cx="93.5" cy="93.5" r="9.4"/>
  <path class="cls-1" d="M121.4,112c0,5.2-4.2,9.4-9.4,9.4s-9.4-4.2-9.4-9.4,4.2-9.4,9.4-9.4,9.4,4.2,9.4,9.4Z"/>
  <path class="cls-1" d="M65.9,56.5c0,5.2-4.2,9.4-9.4,9.4s-9.4-4.2-9.4-9.4,4.2-9.4,9.4-9.4,9.4,4.2,9.4,9.4Z"/>
  <path class="cls-1" d="M47.4,38c0,5.2-4.2,9.4-9.4,9.4s-9.4-4.2-9.4-9.4,4.2-9.4,9.4-9.4,9.4,4.2,9.4,9.4Z"/>
  <path class="cls-1" d="M47.1,93.5c0,5.2,4.2,9.4,9.4,9.4s9.4-4.2,9.4-9.4-4.2-9.4-9.4-9.4-9.4,4.2-9.4,9.4Z"/>
  <path class="cls-1" d="M28.6,112c0,5.2,4.2,9.4,9.4,9.4s9.4-4.2,9.4-9.4-4.2-9.4-9.4-9.4-9.4,4.2-9.4,9.4Z"/>
  <path class="cls-1" d="M84.1,56.5c0,5.2,4.2,9.4,9.4,9.4s9.4-4.2,9.4-9.4-4.2-9.4-9.4-9.4-9.4,4.2-9.4,9.4Z"/>
  <path class="cls-1" d="M102.6,38c0,5.2,4.2,9.4,9.4,9.4s9.4-4.2,9.4-9.4-4.2-9.4-9.4-9.4-9.4,4.2-9.4,9.4Z"/>
  <path class="cls-2" d="M75,65c-5.6,0-10,4.5-10,10s4.5,10,10,10,10-4.5,10-10-4.5-10-10-10Z"/>
</svg>