<?xml version="1.0" encoding="UTF-8"?>
<svg id="Ebene_1" data-name="Ebene 1" xmlns="http://www.w3.org/2000/svg" viewBox="0 0 106.5 106.5">
  <defs>
    <style>
      .cls-1 {
        fill: #fff;
        stroke-width: 0px;
      }
    </style>
  </defs>
  <circle class="cls-1" cx="73.68" cy="73.68" r="12.39"/>
  <path class="cls-1" d="M106.5,94.11c0,6.84-5.55,12.39-12.39,12.39s-12.39-5.55-12.39-12.39,5.55-12.39,12.39-12.39,12.39,5.55,12.39,12.39Z"/>
  <path class="cls-1" d="M45.21,32.82c0,6.84-5.55,12.39-12.39,12.39s-12.39-5.55-12.39-12.39,5.55-12.39,12.39-12.39,12.39,5.55,12.39,12.39Z"/>
  <path class="cls-1" d="M24.78,12.39c0,6.84-5.55,12.39-12.39,12.39S0,19.24,0,12.39,5.55,0,12.39,0s12.39,5.55,12.39,12.39Z"/>
  <path class="cls-1" d="M20.43,73.68c0,6.84,5.55,12.39,12.39,12.39s12.39-5.55,12.39-12.39-5.55-12.39-12.39-12.39-12.39,5.55-12.39,12.39Z"/>
  <path class="cls-1" d="M0,94.11c0,6.84,5.55,12.39,12.39,12.39s12.39-5.55,12.39-12.39-5.55-12.39-12.39-12.39S0,87.26,0,94.11Z"/>
  <path class="cls-1" d="M61.29,32.82c0,6.84,5.55,12.39,12.39,12.39s12.39-5.55,12.39-12.39-5.55-12.39-12.39-12.39-12.39,5.55-12.39,12.39Z"/>
  <path class="cls-1" d="M81.71,12.39c0,6.84,5.55,12.39,12.39,12.39s12.39-5.55,12.39-12.39S100.95,0,94.11,0s-12.39,5.55-12.39,12.39Z"/>
  <path class="cls-1" d="M53.25,40.86c-6.84,0-12.39,5.55-12.39,12.39s5.55,12.39,12.39,12.39,12.39-5.55,12.39-12.39-5.55-12.39-12.39-12.39Z"/>
</svg>