<?xml version="1.0" encoding="UTF-8"?>
<svg id="Ebene_1" data-name="Ebene 1" xmlns="http://www.w3.org/2000/svg" viewBox="0 0 150 150">
  <defs>
    <style>
      .cls-1 {
        fill: #fff;
        stroke-width: 0px;
      }
    </style>
  </defs>
  <path class="cls-1" d="M124.31,39.63l-.12-1.32-1.32-.05c-24.93-.88-35.78,10.14-36.24,10.63-7.02,7.59-8.05,18.43-3.12,26.09-5.55,7.95-8.78,16.51-10.65,24.01-1.4-12.58-4.7-22.21-8.38-29.43.11-.1.23-.19.33-.3,3.8-3.8,5.74-8.99,5.47-14.61-.27-5.57-2.68-10.9-6.79-15.01-10.92-10.92-35.06-9.78-36.08-9.72l-1.26.07-.15,1.25c-3.12,25.74,8.12,35.82,9.25,36.75,4.11,4.08,9.42,6.47,14.96,6.74.35.02.69.02,1.03.02,3.97,0,7.68-1.12,10.8-3.22,4.85,9.67,8.65,23.11,8.53,41.47-.19,2.41-.24,4.32-.25,5.54,0,.86.69,1.55,1.54,1.55h0c.83,0,1.51-.65,1.55-1.48.09-1.91.14-3.77.15-5.58.68-8.29,3.18-22.7,11.87-35.57.33.36.66.72,1.03,1.06,3.51,3.24,8.05,4.98,12.96,4.98.61,0,1.23-.03,1.85-.08,5.55-.49,10.78-3.11,14.73-7.38,10.49-11.34,8.4-35.42,8.3-36.44ZM50.35,71.75c-4.82-.23-9.45-2.33-13.03-5.92l-.12-.11c-.11-.09-10.82-9.07-8.36-32.83,5.05-.07,23.9.25,32.54,8.88,7.24,7.24,7.92,18.36,1.63,25.04-1.09-1.91-2.19-3.62-3.27-5.15-5.98-8.43-12.18-12.64-14.93-14.23-.77-.45-1.75-.12-2.12.69h0c-.32.7-.07,1.52.6,1.92,2.93,1.73,10.8,7.18,17.34,18.83-2.9,2.04-6.45,3.06-10.27,2.88ZM113.81,74.03c-3.44,3.72-7.98,6-12.79,6.43-4.75.41-9.2-1.04-12.51-4.11-.46-.43-.89-.89-1.29-1.36,4.38-5.81,10.12-11.18,17.67-15.39.72-.4,1-1.29.61-2.01h0c-.39-.74-1.32-1.03-2.05-.62-7.62,4.24-13.49,9.62-18.01,15.42-3.52-6.46-2.37-15.2,3.38-21.43.1-.1,9.7-9.74,31.34-9.74.42,0,.84,0,1.26.01.27,5.14.65,23.86-7.6,32.8Z"/>
</svg>