<?xml version="1.0" encoding="UTF-8"?>
<svg id="Ebene_1" data-name="Ebene 1" xmlns="http://www.w3.org/2000/svg" viewBox="0 0 150 150">
  <defs>
    <style>
      .cls-1 {
        fill: #fff;
        stroke-width: 0px;
      }
    </style>
  </defs>
  <path class="cls-1" d="M112.81,32.52H37.19c-6.97,0-12.65,5.54-12.65,12.36v42.79c0,6.81,5.67,12.36,12.65,12.36h28.89c-.18,2.85-1,9.31-4.57,14.46h-19.05v3h65.06v-3h-18.79c-3.55-5.13-4.38-11.6-4.56-14.46h28.63c6.97,0,12.65-5.54,12.65-12.36v-42.79c0-6.81-5.67-12.36-12.65-12.36ZM85.18,114.48h-20.11c3.15-5.5,3.86-11.66,4.02-14.46h12.07c.16,2.8.87,8.96,4.02,14.46ZM122.46,87.67c0,5.16-4.33,9.36-9.65,9.36H37.19c-5.32,0-9.65-4.2-9.65-9.36v-42.79c0-5.16,4.33-9.36,9.65-9.36h75.62c5.32,0,9.65,4.2,9.65,9.36v42.79Z"/>
  <polygon class="cls-1" points="64.11 80.15 50.53 66.28 64.11 52.24 66.26 54.32 54.71 66.27 66.26 78.05 64.11 80.15"/>
  <polygon class="cls-1" points="85.89 80.15 83.74 78.05 95.29 66.27 83.74 54.32 85.89 52.24 99.47 66.28 85.89 80.15"/>
  <rect class="cls-1" x="55.9" y="64.77" width="38.22" height="3" transform="translate(-1.92 130.31) rotate(-81.24)"/>
</svg>