<?xml version="1.0" encoding="utf-8"?>
<!-- Generator: Adobe Illustrator 28.3.0, SVG Export Plug-In . SVG Version: 6.00 Build 0)  -->
<svg version="1.1" id="Ebene_1" xmlns="http://www.w3.org/2000/svg" xmlns:xlink="http://www.w3.org/1999/xlink" x="0px" y="0px"
	 viewBox="0 0 150 150" style="enable-background:new 0 0 150 150;" xml:space="preserve">
<style type="text/css">
	.st0{fill:#FFFFFF;}
</style>
<polygon class="st0" points="57.4,69.1 53.9,65.8 52.2,67.6 57.4,72.6 66.5,63.5 64.8,61.8 "/>
<polygon class="st0" points="57.4,84.8 53.9,81.5 52.2,83.3 57.4,88.3 66.5,79.2 64.8,77.5 "/>
<polygon class="st0" points="57.4,100.5 53.9,97.2 52.2,99.1 57.4,104 66.5,94.9 64.8,93.2 "/>
<rect x="70.1" y="67.3" class="st0" width="26.8" height="2.5"/>
<rect x="70.1" y="82.9" class="st0" width="26.8" height="2.5"/>
<rect x="70.1" y="98.7" class="st0" width="26.8" height="2.5"/>
<path class="st0" d="M105.1,44.2H92.2v-6.3h-8.4c-1.4-3.3-4.9-5.5-8.8-5.5s-7.3,2.2-8.8,5.5h-8.5v6.3H44.9c-1.6,0-2.9,1.3-2.9,2.9
	v67.6c0,1.6,1.3,2.9,2.9,2.9h60.3c1.6,0,2.9-1.3,2.9-2.9V47.1C108,45.5,106.7,44.2,105.1,44.2z M60.3,40.4h7.8l0.3-0.9
	c0.9-2.7,3.6-4.7,6.7-4.7c3.1,0,5.9,1.9,6.7,4.7l0.3,0.9h7.7v10.3H60.3C60.3,50.7,60.3,40.4,60.3,40.4z M105.5,114.7
	c0,0.2-0.2,0.4-0.4,0.4H44.9c-0.2,0-0.4-0.2-0.4-0.4V47.1c0-0.2,0.2-0.4,0.4-0.4h12.9v6.5h34.4v-6.5h12.9c0.2,0,0.4,0.2,0.4,0.4
	L105.5,114.7L105.5,114.7z"/>
</svg>
