<?xml version="1.0" encoding="utf-8"?>
<!-- Generator: Adobe Illustrator 28.3.0, SVG Export Plug-In . SVG Version: 6.00 Build 0)  -->
<svg version="1.1" id="Ebene_1" xmlns="http://www.w3.org/2000/svg" xmlns:xlink="http://www.w3.org/1999/xlink" x="0px" y="0px"
	 viewBox="0 0 150 150" style="enable-background:new 0 0 150 150;" xml:space="preserve">
<style type="text/css">
	.st0{fill:#FFFFFF;}
</style>
<path class="st0" d="M100.4,119.1H49.6c-4.5,0-8.1-3.6-8.1-8.1V66.8c0-4.4,3.6-8.1,8.1-8.1h12.9v3H49.6c-2.8,0-5.1,2.3-5.1,5.1V111
	c0,2.8,2.3,5.1,5.1,5.1h50.8c2.8,0,5.1-2.3,5.1-5.1V66.8c0-2.8-2.3-5.1-5.1-5.1H87.8v-3h12.6c4.5,0,8.1,3.6,8.1,8.1V111
	C108.5,115.5,104.8,119.1,100.4,119.1z"/>
<rect x="73.5" y="34.4" class="st0" width="3" height="53.9"/>
<polygon class="st0" points="90.1,49.6 75,34.5 59.9,49.6 57.8,47.5 75,30.3 92.2,47.5 "/>
</svg>
