<?xml version="1.0" encoding="UTF-8"?>
<svg id="Ebene_1" data-name="Ebene 1" xmlns="http://www.w3.org/2000/svg" viewBox="0 0 150 150">
  <defs>
    <style>
      .cls-1 {
        fill: #fff;
        stroke-width: 0px;
      }
    </style>
  </defs>
  <path class="cls-1" d="M75,119.7l-.49-.17c-19.17-6.65-31.7-21.78-36.25-43.73-3.4-16.44-1.19-30.69-1.09-31.29l.14-.88,37.69-13.33,37.69,13.33.14.88c.1.6,2.32,14.85-1.09,31.29-4.55,21.95-17.08,37.08-36.25,43.73l-.49.17ZM40.01,45.86c-.42,3.33-1.64,15.76,1.2,29.42,4.36,20.93,15.72,34.8,33.78,41.25,18.06-6.45,29.43-20.32,33.78-41.25,2.84-13.66,1.62-26.09,1.2-29.42l-34.99-12.38-34.99,12.38Z"/>
  <path class="cls-1" d="M71.03,85.9l-11.02-12.11c-.56-.61-.51-1.56.1-2.12h0c.61-.56,1.56-.51,2.12.1l8.78,9.65,16.77-18.79c.55-.62,1.5-.67,2.12-.12h0c.62.55.67,1.5.12,2.12l-18.99,21.27Z"/>
</svg>