<?xml version="1.0" encoding="utf-8"?>
<!-- Generator: Adobe Illustrator 28.3.0, SVG Export Plug-In . SVG Version: 6.00 Build 0)  -->
<svg version="1.1" id="Ebene_1" xmlns="http://www.w3.org/2000/svg" xmlns:xlink="http://www.w3.org/1999/xlink" x="0px" y="0px"
	 viewBox="0 0 150 150" style="enable-background:new 0 0 150 150;" xml:space="preserve">
<style type="text/css">
	.st0{fill:#FFFFFF;}
</style>
<path class="st0" d="M126.4,56.6L75,32.3L23.6,56.5l18.6,8.8v18l0.1,0.2c0.3,0.6,7.9,15.7,32.7,15.7c10.6,0,18.1-2.8,23.2-6V97
	c-2.5,0.5-4.3,2.7-4.3,5.3c0,1.3,0.5,2.5,1.3,3.5l-1.1,11.8h10.6l-1.1-11.8c0.8-1,1.3-2.2,1.3-3.5c0-2.6-1.9-4.8-4.3-5.3v-5.4
	c5.1-3.9,7.1-7.8,7.2-8.1l0.1-0.2v-18L126.4,56.6L126.4,56.6z M102.5,102.4c0,0.9-0.3,1.7-1,2.3l-0.4,0.4l1,10.4h-5.5l1-10.4
	l-0.4-0.4c-0.6-0.6-1-1.4-1-2.3c0-1.7,1.4-3.2,3.2-3.2C101.1,99.2,102.6,100.7,102.5,102.4L102.5,102.4z M75,34.8L121,56.6
	L99.4,66.8L75.5,55.5l-1,2.1L96.7,68L75,78.2L29,56.5L75,34.8z M75,96.9c-22,0-29.5-12.3-30.5-14.2V66.4L75,80.8l23.2-10.9v20.6
	C93.4,93.8,86,96.9,75,96.9L75,96.9z M105.6,82.7c-0.4,0.8-1.9,3.3-5,5.9V68.8l5-2.4V82.7z"/>
</svg>
