<svg width="256px" height="256px" viewBox="-4.4 -4.4 28.80 28.80" xmlns="http://www.w3.org/2000/svg" fill="#ffffff" stroke="#ffffff"><g id="SVGRepo_bgCarrier" stroke-width="0"></g><g id="SVGRepo_tracerCarrier" stroke-linecap="round" stroke-linejoin="round"></g><g id="SVGRepo_iconCarrier"> <g id="layer1"> <path d="M 0 2 L 0 18 L 20 18 L 20 17 L 1 17 L 1 2 L 0 2 z M 10 3 L 10 16 L 11 16 L 11 4 L 12 4 L 12 16 L 13 16 L 13 3 L 10 3 z M 2 6 L 2 16 L 3 16 L 3 7 L 4 7 L 4 16 L 5 16 L 5 6 L 2 6 z M 6 9 L 6 16 L 7 16 L 7 10 L 8 10 L 8 16 L 9 16 L 9 9 L 6 9 z M 14 12 L 14 16 L 15 16 L 15 13 L 16 13 L 16 16 L 17 16 L 17 12 L 14 12 z " style="fill:#ffffff;fill-opacity:1;stroke:none;stroke-width:0px;"></path> </g> </g></svg>
