<?xml version="1.0" encoding="UTF-8"?>
<svg id="Ebene_1" data-name="Ebene 1" xmlns="http://www.w3.org/2000/svg" viewBox="0 0 150 150">
  <defs>
    <style>
      .cls-1 {
        fill: #fff;
        stroke-width: 0px;
      }
    </style>
  </defs>
  <path class="cls-1" d="M118.95,32.36H54.68c-1.95,0-3.54,1.58-3.54,3.54v14.62h3v-14.62c0-.3.24-.54.54-.54h64.27c.3,0,.54.24.54.54v49.3c0,.3-.24.54-.54.54h-25.95v3h25.95c1.96,0,3.54-1.58,3.54-3.54v-49.3c0-1.96-1.58-3.54-3.54-3.54Z"/>
  <path class="cls-1" d="M53.68,81.21c5.92-.75,10.71-5.53,11.46-11.46,1.11-8.69-6.23-16.03-14.93-14.93-5.92.75-10.71,5.53-11.46,11.46-1.11,8.69,6.23,16.03,14.93,14.93ZM53.7,57.86c4.27.71,7.71,4.15,8.41,8.41,1.16,7.04-4.87,13.07-11.91,11.91-4.27-.71-7.71-4.15-8.41-8.41-1.16-7.04,4.87-13.07,11.91-11.91Z"/>
  <path class="cls-1" d="M89.87,57.68c-.79-.26-1.63.17-1.89.96l-5.98,18.27c-2.4-.33-4.89.52-6.67,2.29l-4.65,4.65c-.2.2-.46.31-.74.31h-24.49c-6.95,0-13.03,4.94-14.45,11.74l-3.39,16.23c-.38,1.84.38,3.75,2.08,4.83.74.47,1.62.66,2.5.66h28.51c2.52,0,4.56-2.04,4.56-4.56v-13.77c0-.3.24-.54.54-.54h6.89c2.56,0,5.02-1.02,6.83-2.83l6.77-6.77c3.21-3.21,2.73-8.74-1.45-11.25l6-18.35c.26-.79-.17-1.63-.96-1.89ZM84.07,87.14l-6.69,6.69c-1.25,1.25-2.94,1.95-4.71,1.95h-6.89c-1.95,0-3.54,1.58-3.54,3.54v13.77c0,.86-.7,1.56-1.56,1.56h-28.62c-.47,0-.91-.21-1.21-.58-.3-.37-.41-.84-.32-1.3l3.39-16.23c1.13-5.42,5.97-9.36,11.51-9.36h24.49c1.07,0,2.1-.43,2.86-1.19l4.82-4.82c1.95-1.95,5.22-1.79,6.95.48,1.26,1.65.97,4.02-.5,5.49Z"/>
</svg>