<?xml version="1.0" encoding="UTF-8"?>
<svg id="Ebene_1" data-name="Ebene 1" xmlns="http://www.w3.org/2000/svg" viewBox="0 0 150 150">
  <defs>
    <style>
      .cls-1 {
        fill: #1d1d1b;
        stroke-width: 0px;
      }
    </style>
  </defs>
  <path class="cls-1" d="M65.62,64.46H29.86c-3.73,0-6.77,2.98-6.77,6.63v20.24c0,3.66,3.04,6.63,6.77,6.63h12.8c-.16,1.37-.59,3.47-1.71,5.26h-8.59v3h30.77v-3h-8.47c-1.12-1.79-1.54-3.88-1.71-5.26h12.67c3.73,0,6.77-2.98,6.77-6.63v-20.24c0-3.66-3.04-6.63-6.77-6.63ZM51.28,103.22h-6.95c.87-1.97,1.22-3.95,1.35-5.26h4.25c.13,1.31.47,3.29,1.35,5.26ZM69.4,91.33c0,2-1.69,3.63-3.77,3.63H29.86c-2.08,0-3.77-1.63-3.77-3.63v-20.24c0-2,1.69-3.63,3.77-3.63h35.76c2.08,0,3.77,1.63,3.77,3.63v20.24Z"/>
  <path class="cls-1" d="M123.42,18.53H26.58c-8.64,0-15.67,7.03-15.67,15.67v81.59c0,8.64,7.03,15.67,15.67,15.67h96.83c8.64,0,15.67-7.03,15.67-15.67V34.2c0-8.64-7.03-15.67-15.67-15.67ZM26.58,21.53h96.83c6.99,0,12.67,5.68,12.67,12.67v6.64H13.91v-6.64c0-6.99,5.68-12.67,12.67-12.67ZM123.42,128.47H26.58c-6.99,0-12.67-5.68-12.67-12.67V43.84h122.17v71.95c0,6.99-5.68,12.67-12.67,12.67Z"/>
  <path class="cls-1" d="M94.56,73.21c3.37,0,6.21-2.32,7.01-5.45h25.16v-3h-25.03c-.58-3.42-3.55-6.04-7.14-6.04s-6.56,2.62-7.14,6.04h-4v3h4.13c.8,3.13,3.64,5.45,7.01,5.45ZM94.56,61.72c2.34,0,4.25,1.9,4.25,4.25s-1.9,4.24-4.25,4.24-4.25-1.9-4.25-4.24,1.9-4.25,4.25-4.25Z"/>
  <path class="cls-1" d="M115.86,78.05c-3.58,0-6.56,2.62-7.14,6.04h-25.03v3h25.16c.8,3.13,3.64,5.45,7.01,5.45s6.21-2.32,7.01-5.45h4.13v-3h-4c-.58-3.42-3.55-6.04-7.14-6.04ZM115.86,89.54c-2.34,0-4.24-1.9-4.24-4.24s1.9-4.25,4.24-4.25,4.25,1.9,4.25,4.25-1.9,4.24-4.25,4.24Z"/>
  <path class="cls-1" d="M94.7,97.25c-3.58,0-6.56,2.62-7.14,6.04h-4v3h4.13c.8,3.13,3.64,5.45,7.01,5.45s6.21-2.32,7.01-5.45h25.16v-3h-25.03c-.58-3.42-3.55-6.04-7.14-6.04ZM94.7,108.74c-2.34,0-4.25-1.9-4.25-4.24s1.9-4.25,4.25-4.25,4.25,1.9,4.25,4.25-1.9,4.24-4.25,4.24Z"/>
</svg>