<?xml version="1.0" encoding="UTF-8"?>
<svg id="Ebene_1" data-name="Ebene 1" xmlns="http://www.w3.org/2000/svg" viewBox="0 0 150 150">
  <defs>
    <style>
      .cls-1 {
        fill: #fff;
        stroke-width: 0px;
      }
    </style>
  </defs>
  <path class="cls-1" d="M128.58,22.33H21.42v10.83h5.29v65h39.94l-15.06,27.04c-.4.72-.14,1.64.58,2.04h0c.72.4,1.64.14,2.04-.58l15.88-28.5h3.33v28c0,.83.67,1.5,1.5,1.5h0c.83,0,1.5-.67,1.5-1.5v-28h3.82l15.56,28.65c.4.73,1.31,1,2.03.6h0c.73-.4,1-1.31.6-2.03l-14.78-27.22h39.77V33.17h5.17v-10.83ZM120.42,95.17H29.71v-61.75h90.71v61.75ZM125.58,30.17H24.42v-4.83h101.17v4.83Z"/>
</svg>