<?xml version="1.0" encoding="UTF-8"?>
<svg id="Ebene_1" data-name="Ebene 1" xmlns="http://www.w3.org/2000/svg" viewBox="0 0 150 150">
  <defs>
    <style>
      .cls-1 {
        fill: #1d1d1b;
        stroke-width: 0px;
      }
    </style>
  </defs>
  <path class="cls-1" d="M23.54,68.29l-10.72-9.38.99-1.13c.98-1.12,24.33-27.35,61.48-27.35s59.97,26.31,60.92,27.43l.97,1.14-10.87,9.22-.97-1.13c-.19-.22-19.71-22.41-50.06-22.41s-50.55,22.27-50.75,22.49l-.99,1.11ZM17.08,58.65l6.23,5.46c4.58-4.62,24.09-22.43,51.97-22.43s46.83,17.73,51.32,22.36l6.32-5.36c-4.75-5.08-25.64-25.26-57.63-25.26s-53.36,20.18-58.2,25.23Z"/>
  <path class="cls-1" d="M41.97,83.32l-10.73-9.37.99-1.13c.68-.78,17-19.13,42.96-19.13s41.95,18.42,42.61,19.21l.97,1.14-10.86,9.22-.97-1.13c-.12-.14-12.58-14.18-31.74-14.18s-32.1,14.11-32.22,14.25l-.99,1.12ZM35.51,73.7l6.24,5.45c3.54-3.48,15.86-14.2,33.44-14.2s29.51,10.67,32.99,14.15l6.32-5.36c-3.81-3.97-17.96-17.04-39.31-17.04s-35.79,13.06-39.67,17.01Z"/>
  <path class="cls-1" d="M61.42,99l-1.11-.97-9.58-8.42.98-1.13c.38-.44,9.57-10.79,24.16-10.79s23.65,10.42,24.02,10.86l.97,1.14-10.86,9.22-.97-1.12s-5.32-5.84-13.16-5.84-13.41,5.9-13.47,5.95l-.99,1.09ZM55.01,89.39l6.23,5.48c2.16-1.95,7.45-5.91,14.63-5.91s12.25,3.9,14.37,5.83l6.33-5.38c-2.61-2.56-9.98-8.71-20.7-8.71s-18.22,6.14-20.86,8.69Z"/>
  <path class="cls-1" d="M75.77,119.58c-5.53,0-10.03-4.5-10.03-10.03s4.5-10.03,10.03-10.03,10.03,4.5,10.03,10.03-4.5,10.03-10.03,10.03ZM75.77,102.51c-3.88,0-7.03,3.16-7.03,7.03s3.16,7.03,7.03,7.03,7.03-3.16,7.03-7.03-3.16-7.03-7.03-7.03Z"/>
</svg>