<?xml version="1.0" encoding="UTF-8"?>
<svg id="Ebene_1" data-name="Ebene 1" xmlns="http://www.w3.org/2000/svg" xmlns:xlink="http://www.w3.org/1999/xlink" viewBox="0 0 485.56 422.55">
  <defs>
    <style>
      .cls-1 {
        fill: url(#Unbenannter_Verlauf_2);
      }

      .cls-1, .cls-2 {
        stroke-width: 0px;
      }

      .cls-2 {
        fill: none;
      }

      .cls-3 {
        clip-path: url(#clippath);
      }
    </style>
    <clipPath id="clippath">
      <path class="cls-2" d="M113.73,399.1L12.36,227.21c-2.9-4.92-4.35-10.42-4.35-15.93s1.45-11.02,4.35-15.93L113.73,23.45c5.64-9.56,15.92-15.43,27.02-15.43h204.05c11.1,0,21.38,5.87,27.02,15.43l101.37,171.9c2.91,4.94,4.35,10.47,4.35,16.03s-1.46,10.94-4.35,15.84l-101.37,171.9c-5.64,9.56-15.92,15.43-27.02,15.43h-204.05c-11.1,0-21.38-5.87-27.02-15.43M140.75,0h0c-13.94,0-26.84,7.37-33.92,19.38L5.46,191.27c-3.64,6.17-5.46,13.09-5.46,20s1.82,13.83,5.46,20l101.37,171.89c7.08,12.01,19.98,19.38,33.92,19.38h204.05c13.94,0,26.84-7.37,33.92-19.38l101.37-171.89c3.61-6.13,5.46-13.01,5.46-19.91s-1.8-13.9-5.46-20.1L378.73,19.38c-7.08-12.01-19.98-19.38-33.92-19.38h-204.05Z"/>
    </clipPath>
    <linearGradient id="Unbenannter_Verlauf_2" data-name="Unbenannter Verlauf 2" x1="-176.63" y1="510.55" x2="-175.15" y2="510.55" gradientTransform="translate(58069.09 168062.02) scale(328.77 -328.77)" gradientUnits="userSpaceOnUse">
      <stop offset="0" stop-color="var(--ci-light-green)"/>
      <stop offset="1" stop-color="var(--ci-light-blue)"/>
    </linearGradient>
  </defs>
  <g class="cls-3">
    <rect class="cls-1" y="0" width="485.56" height="422.55"/>
  </g>
</svg>