<?xml version="1.0" encoding="UTF-8"?>
<svg id="Ebene_1" data-name="Ebene 1" xmlns="http://www.w3.org/2000/svg" xmlns:xlink="http://www.w3.org/1999/xlink" viewBox="0 0 500 500">
  <defs>
    <style>
      .cls-1 {
        fill: url(#Unbenannter_Verlauf_2);
      }

      .cls-1, .cls-2 {
        stroke-width: 0px;
      }

      .cls-2 {
        fill: none;
      }

      .cls-3 {
        clip-path: url(#clippath);
      }
    </style>
    <clipPath id="clippath">
      <rect class="cls-2" x="3.16" y="46.7" width="493.68" height="406.6"/>
    </clipPath>
    <linearGradient id="Unbenannter_Verlauf_2" data-name="Unbenannter Verlauf 2" x1="-697.57" y1="552.46" x2="-695.24" y2="552.46" gradientTransform="translate(73159.49 184688.76) rotate(30) scale(223.15 -223.15)" gradientUnits="userSpaceOnUse">
      <stop offset="0" stop-color="var(--ci-light-green)"/>
      <stop offset="1" stop-color="var(--ci-dark-blue)"/>
    </linearGradient>
  </defs>
  <g class="cls-3">
    <path class="cls-1" d="M333.43,161.22l3.8,2.73-33.83,47.05,78.63,64.16-10.92,1.32c-11.05,1.33-22.12,1.99-33.16,1.99-48.04,0-95.5-12.55-137.98-37.08-69.43-40.08-118.02-108.24-133.3-186.96l4.59-.89.89,4.59-61.26,11.83-.89-4.59,4.59-.89c18.21,93.83,76.12,175.04,158.87,222.82,50.65,29.24,107.21,44.2,164.47,44.2,11.46,0,22.94-.6,34.41-1.8l10.38-1.09-56.83,79.02,43.08,30.97,113.35-157.63-151.74-116.04,2.84-3.72,3.8,2.73-3.8-2.73,2.84-3.72,158.96,121.56-124.11,172.59-58.28-41.89,56.2-78.15,3.8,2.73.49,4.65c-11.79,1.24-23.6,1.85-35.39,1.85-58.89,0-117.07-15.39-169.14-45.45C83.7,246.28,24.15,162.75,5.42,66.27l-.89-4.6,70.44-13.6.89,4.59c14.76,76.07,61.7,141.91,128.79,180.65,41.06,23.7,86.89,35.82,133.3,35.82,10.67,0,21.36-.64,32.04-1.93l.56,4.64-2.96,3.62-76.93-62.78,41.78-58.11,3.83,2.93-2.84,3.72Z"/>
  </g>
</svg>