<?xml version="1.0" encoding="UTF-8"?>
<svg id="E-Mail" xmlns="http://www.w3.org/2000/svg" version="1.1" viewBox="0 0 150 150">
  <!-- Generator: Adobe Illustrator 29.4.0, SVG Export Plug-In . SVG Version: 2.1.0 Build 152)  -->
  <defs>
    <style>
      .st0 {
        fill: #fff;
      }
    </style>
  </defs>
  <g>
    <path class="st0" d="M27.41,56.07l36.96,27.72c3.04,2.27,7.2,2.27,10.24,0l36.96-27.72c2.15-1.62,3.41-4.14,3.41-6.82,0-4.71-3.82-8.53-8.53-8.53H32.53c-4.71,0-8.53,3.82-8.53,8.53,0,2.68,1.26,5.21,3.41,6.82Z"/>
    <path class="st0" d="M111.98,84.39c1.02,0,2.02.06,3.01.18v-20.39l-35.26,26.44c-6.06,4.55-14.41,4.55-20.47,0l-35.26-26.44v33.41c0,6.27,5.1,11.37,11.37,11.37h50.4c.88-13.71,12.27-24.57,26.2-24.57Z"/>
  </g>
  <g>
    <g>
      <path class="st0" d="M111.98,112.04c1.35,0,2.45-1.1,2.45-2.45s-1.1-2.45-2.45-2.45-2.45,1.1-2.45,2.45,1.1,2.45,2.45,2.45Z"/>
      <path class="st0" d="M111.98,113.17c-2.08,0-3.76,1.68-3.76,3.76v.38c0,.42.34.75.75.75h6.02c.42,0,.75-.34.75-.75v-.38c0-2.08-1.68-3.76-3.76-3.76Z"/>
      <path class="st0" d="M111.98,90.39c-11.19,0-20.26,9.07-20.26,20.26s9.07,20.26,20.26,20.26,20.26-9.07,20.26-20.26-9.07-20.26-20.26-20.26ZM117.4,100.39c0-.3.24-.54.54-.54s.54.24.54.54v2.64c0,.3-.24.54-.54.54s-.54-.24-.54-.54v-2.64ZM111.44,100.39c0-.3.24-.54.54-.54s.54.24.54.54v2.64c0,.3-.24.54-.54.54s-.54-.24-.54-.54v-2.64ZM105.48,100.39c0-.3.24-.54.54-.54s.54.24.54.54v2.64c0,.3-.24.54-.54.54s-.54-.24-.54-.54v-2.64ZM122.24,117.07c0,2.46-1.99,4.45-4.45,4.45h-11.62c-2.46,0-4.45-1.99-4.45-4.45v-11.62c0-2.01,1.34-3.69,3.17-4.24v1.9c0,.62.5,1.12,1.12,1.12s1.12-.5,1.12-1.12v-2.11h3.71v2.11c0,.62.5,1.12,1.12,1.12s1.12-.5,1.12-1.12v-2.11h3.71v2.11c0,.62.5,1.12,1.12,1.12s1.12-.5,1.12-1.12v-1.9c1.83.55,3.17,2.23,3.17,4.24v11.62Z"/>
    </g>
    <circle class="st0" cx="111.98" cy="109.59" r="2.44"/>
    <path class="st0" d="M108.23,116.91c0-2.08,1.68-3.76,3.76-3.76s3.76,1.68,3.76,3.76v.38c0,.42-.34.75-.75.75h-6.01c-.42,0-.75-.34-.75-.75v-.38Z"/>
  </g>
</svg>