<svg xmlns="http://www.w3.org/2000/svg" id="E-Mail" version="1.1" viewBox="0 0 150 150"><defs><style>.st0{fill:#fff}</style></defs><path d="m27.41 56.07 36.96 27.72a8.55 8.55 0 0 0 10.24 0l36.96-27.72a8.53 8.53 0 0 0 3.41-6.82c0-4.71-3.82-8.53-8.53-8.53H32.53c-4.71 0-8.53 3.82-8.53 8.53a8.52 8.52 0 0 0 3.41 6.82" class="st0"/><path d="M111.98 84.39c1.02 0 2.02.06 3.01.18V64.18L79.73 90.62a17.055 17.055 0 0 1-20.47 0L24 64.18v33.41c0 6.27 5.1 11.37 11.37 11.37h50.4c.88-13.71 12.27-24.57 26.2-24.57Zm0 27.65c1.35 0 2.45-1.1 2.45-2.45s-1.1-2.45-2.45-2.45-2.45 1.1-2.45 2.45 1.1 2.45 2.45 2.45m0 1.13c-2.08 0-3.76 1.68-3.76 3.76v.38c0 .42.34.75.75.75h6.02c.42 0 .75-.34.75-.75v-.38c0-2.08-1.68-3.76-3.76-3.76" class="st0"/><path d="M111.98 90.39c-11.19 0-20.26 9.07-20.26 20.26s9.07 20.26 20.26 20.26 20.26-9.07 20.26-20.26-9.07-20.26-20.26-20.26m5.42 10c0-.3.24-.54.54-.54s.54.24.54.54v2.64c0 .3-.24.54-.54.54s-.54-.24-.54-.54zm-5.96 0c0-.3.24-.54.54-.54s.54.24.54.54v2.64c0 .3-.24.54-.54.54s-.54-.24-.54-.54zm-5.96 0c0-.3.24-.54.54-.54s.54.24.54.54v2.64c0 .3-.24.54-.54.54s-.54-.24-.54-.54zm16.76 16.68c0 2.46-1.99 4.45-4.45 4.45h-11.62c-2.46 0-4.45-1.99-4.45-4.45v-11.62c0-2.01 1.34-3.69 3.17-4.24v1.9c0 .62.5 1.12 1.12 1.12s1.12-.5 1.12-1.12V101h3.71v2.11c0 .62.5 1.12 1.12 1.12s1.12-.5 1.12-1.12V101h3.71v2.11c0 .62.5 1.12 1.12 1.12s1.12-.5 1.12-1.12v-1.9c1.83.55 3.17 2.23 3.17 4.24v11.62Z" class="st0"/><circle cx="111.98" cy="109.59" r="2.44" class="st0"/><path d="M108.23 116.91c0-2.08 1.68-3.76 3.76-3.76s3.76 1.68 3.76 3.76v.38c0 .42-.34.75-.75.75h-6.01c-.42 0-.75-.34-.75-.75v-.38Z" class="st0"/></svg>