<?xml version="1.0" encoding="UTF-8"?>
<svg id="Ebene_1" xmlns="http://www.w3.org/2000/svg" version="1.1" viewBox="0 0 150 150">
  <!-- Generator: Adobe Illustrator 29.4.0, SVG Export Plug-In . SVG Version: 2.1.0 Build 152)  -->
  <defs>
    <style>
      .st0 {
        fill: #fff;
      }
    </style>
  </defs>
  <g id="Linuxmuster">
    <g>
      <circle class="st0" cx="94.57" cy="94.57" r="11.87"/>
      <path class="st0" d="M126,114.14c0,6.55-5.31,11.87-11.87,11.87s-11.87-5.31-11.87-11.87,5.31-11.87,11.87-11.87,11.87,5.31,11.87,11.87Z"/>
      <path class="st0" d="M67.3,55.43c0,6.55-5.31,11.87-11.87,11.87s-11.87-5.31-11.87-11.87,5.31-11.87,11.87-11.87,11.87,5.31,11.87,11.87Z"/>
      <path class="st0" d="M47.73,35.86c0,6.55-5.31,11.87-11.87,11.87s-11.87-5.31-11.87-11.87,5.31-11.87,11.87-11.87,11.87,5.31,11.87,11.87Z"/>
      <path class="st0" d="M43.56,94.57c0,6.55,5.31,11.87,11.87,11.87s11.87-5.32,11.87-11.87-5.31-11.87-11.87-11.87-11.87,5.31-11.87,11.87Z"/>
      <path class="st0" d="M24,114.14c0,6.55,5.31,11.87,11.87,11.87s11.87-5.31,11.87-11.87-5.31-11.87-11.87-11.87-11.87,5.31-11.87,11.87Z"/>
      <path class="st0" d="M82.7,55.43c0,6.55,5.31,11.87,11.87,11.87s11.87-5.31,11.87-11.87-5.31-11.87-11.87-11.87-11.87,5.31-11.87,11.87Z"/>
      <path class="st0" d="M102.27,35.86c0,6.55,5.31,11.87,11.87,11.87s11.87-5.31,11.87-11.87-5.31-11.87-11.87-11.87-11.87,5.31-11.87,11.87Z"/>
      <path class="st0" d="M75,65.13c5.44,0,9.87,4.43,9.87,9.87s-4.43,9.87-9.87,9.87-9.87-4.43-9.87-9.87,4.43-9.87,9.87-9.87M75,63.13c-6.56,0-11.87,5.31-11.87,11.87s5.31,11.87,11.87,11.87,11.87-5.31,11.87-11.87-5.31-11.87-11.87-11.87h0Z"/>
    </g>
  </g>
</svg>