<?xml version="1.0" encoding="UTF-8"?>
<svg id="Ebene_1" data-name="Ebene 1" xmlns="http://www.w3.org/2000/svg" xmlns:xlink="http://www.w3.org/1999/xlink"
  width="250" viewBox="100 100 920 230">
  <defs>
    <style>
      .cls-1 {
        fill: #D1D5DB;
      }

      .cls-2 {
        fill: url(#Unbenannter_Verlauf_2);
      }
    </style>
    <linearGradient id="Unbenannter_Verlauf_2" data-name="Unbenannter Verlauf 2" x1="139.12" y1="-4557.49" x2="264.39"
      y2="-4427.32" gradientTransform="translate(0 -4268.21) scale(1 -1)" gradientUnits="userSpaceOnUse">
      <stop offset="0" stop-color="var(--ci-light-green)" />
      <stop offset="1" stop-color="var(--ci-dark-blue)" />
    </linearGradient>
  </defs>
  <g>
    <path class="cls-1"
      d="m324.03,203.08c.22,2.92.74,5.45,1.55,7.58s1.89,3.89,3.22,5.27c1.33,1.39,2.91,2.42,4.75,3.11,1.83.69,3.86,1.03,6.08,1.03s4.13-.26,5.74-.78,3.01-1.09,4.22-1.72c1.2-.63,2.26-1.2,3.16-1.72.91-.52,1.79-.78,2.64-.78,1.15,0,2,.43,2.55,1.28l3.94,4.99c-1.52,1.78-3.22,3.27-5.11,4.47-1.89,1.2-3.86,2.16-5.91,2.89s-4.14,1.23-6.27,1.53c-2.13.3-4.19.44-6.19.44-3.96,0-7.64-.66-11.04-1.97-3.41-1.31-6.36-3.26-8.88-5.83-2.52-2.57-4.5-5.75-5.94-9.55-1.44-3.79-2.17-8.19-2.17-13.18,0-3.89.63-7.54,1.89-10.96,1.26-3.42,3.06-6.4,5.41-8.94,2.35-2.53,5.22-4.54,8.6-6.02,3.38-1.48,7.21-2.22,11.46-2.22,3.59,0,6.9.57,9.93,1.72,3.03,1.15,5.64,2.82,7.83,5.02,2.18,2.2,3.89,4.9,5.13,8.1,1.24,3.2,1.86,6.85,1.86,10.96,0,2.07-.22,3.47-.67,4.19-.44.72-1.29,1.08-2.55,1.08h-35.24,0Zm26.14-8.27c0-1.78-.25-3.45-.75-5.02s-1.25-2.95-2.25-4.13-2.27-2.12-3.8-2.8c-1.54-.68-3.32-1.03-5.36-1.03-3.96,0-7.08,1.13-9.35,3.39-2.28,2.26-3.73,5.46-4.36,9.6h25.87Z" />
    <path class="cls-1"
      d="m424.11,147.36v82.47h-8.38c-1.81,0-2.96-.83-3.44-2.5l-1.17-5.49c-2.29,2.63-4.93,4.75-7.91,6.38s-6.45,2.44-10.41,2.44c-3.11,0-5.96-.65-8.55-1.94-2.59-1.29-4.82-3.17-6.69-5.63s-3.31-5.5-4.33-9.13c-1.02-3.63-1.53-7.77-1.53-12.43,0-4.22.57-8.14,1.72-11.77,1.15-3.63,2.79-6.77,4.94-9.44,2.15-2.66,4.72-4.75,7.71-6.24,3-1.5,6.36-2.25,10.1-2.25,3.18,0,5.9.5,8.16,1.5s4.27,2.35,6.05,4.05v-30.03h13.73Zm-13.71,40.07c-1.55-1.89-3.25-3.22-5.08-4s-3.8-1.17-5.91-1.17-3.94.39-5.61,1.17-3.09,1.95-4.27,3.52c-1.18,1.57-2.09,3.57-2.72,5.99s-.94,5.28-.94,8.57.27,6.15.8,8.46c.54,2.31,1.3,4.2,2.3,5.66s2.22,2.52,3.66,3.16c1.44.65,3.05.97,4.83.97,2.85,0,5.27-.59,7.27-1.78,2-1.18,3.89-2.87,5.66-5.05v-25.53.03Z" />
    <path class="cls-1"
      d="m488.59,172.89v56.94h-8.38c-1.81,0-2.96-.83-3.44-2.5l-.94-4.55c-2.33,2.37-4.9,4.28-7.71,5.74s-6.12,2.19-9.93,2.19c-3.11,0-5.86-.53-8.24-1.58-2.39-1.05-4.39-2.54-6.02-4.47-1.63-1.92-2.86-4.21-3.69-6.85-.83-2.65-1.25-5.56-1.25-8.74v-36.19h13.71v36.19c0,3.48.8,6.17,2.41,8.08,1.61,1.91,4.02,2.86,7.24,2.86,2.37,0,4.59-.53,6.66-1.58s4.03-2.51,5.88-4.36v-41.18h13.71-.01Z" />
    <path class="cls-1" d="m517.61,147.36v82.47h-13.71v-82.47h13.71Z" />
    <path class="cls-1"
      d="m582.16,172.89v56.94h-8.38c-1.81,0-2.96-.83-3.44-2.5l-.94-4.55c-2.33,2.37-4.9,4.28-7.71,5.74s-6.12,2.19-9.93,2.19c-3.11,0-5.86-.53-8.24-1.58-2.39-1.05-4.39-2.54-6.02-4.47-1.63-1.92-2.86-4.21-3.69-6.85-.83-2.65-1.25-5.56-1.25-8.74v-36.19h13.71v36.19c0,3.48.8,6.17,2.41,8.08,1.61,1.91,4.02,2.86,7.24,2.86,2.37,0,4.59-.53,6.66-1.58s4.03-2.51,5.88-4.36v-41.18h13.71-.01Z" />
    <path class="cls-1"
      d="m654.76,229.83h-13.71v-46.68h-26.42v30.86c0,1.78.43,3.16,1.3,4.16s2.06,1.5,3.58,1.5c.85,0,1.56-.1,2.14-.31.57-.2,1.07-.42,1.5-.64.42-.22.8-.43,1.14-.64.33-.2.67-.31,1-.31.41,0,.74.1,1,.31.26.2.54.51.83.92l4.11,6.66c-2,1.67-4.29,2.92-6.88,3.77-2.59.85-5.27,1.28-8.05,1.28-4.96,0-8.76-1.4-11.41-4.19-2.65-2.79-3.97-6.65-3.97-11.57v-31.8h-5.83c-.74,0-1.37-.24-1.89-.72-.52-.48-.78-1.2-.78-2.16v-5.44l9.16-1.55,2.89-15.48c.18-.74.54-1.31,1.05-1.72.52-.41,1.18-.61,2-.61h7.1v17.93h40.13v56.44h0Zm2.39-73.76c0,1.18-.24,2.3-.72,3.36-.48,1.05-1.12,1.97-1.92,2.75s-1.74,1.4-2.83,1.86-2.25.69-3.47.69-2.29-.23-3.33-.69c-1.04-.46-1.94-1.08-2.72-1.86-.78-.78-1.4-1.69-1.86-2.75-.46-1.05-.69-2.17-.69-3.36s.23-2.36.69-3.41,1.08-1.98,1.86-2.77c.78-.8,1.68-1.42,2.72-1.89,1.04-.46,2.14-.69,3.33-.69s2.38.23,3.47.69c1.09.46,2.04,1.09,2.83,1.89.79.8,1.43,1.72,1.92,2.77.48,1.05.72,2.19.72,3.41Z" />
    <path class="cls-1"
      d="m695.31,172c4.22,0,8.06.69,11.52,2.05,3.46,1.37,6.42,3.31,8.88,5.83,2.46,2.52,4.36,5.59,5.69,9.21,1.33,3.63,2,7.68,2,12.15s-.67,8.58-2,12.21c-1.33,3.63-3.23,6.72-5.69,9.27s-5.42,4.51-8.88,5.88c-3.46,1.37-7.3,2.05-11.52,2.05s-8.12-.69-11.6-2.05c-3.48-1.37-6.45-3.33-8.91-5.88-2.46-2.55-4.37-5.64-5.72-9.27-1.35-3.63-2.03-7.7-2.03-12.21s.67-8.53,2.03-12.15c1.35-3.63,3.26-6.7,5.72-9.21,2.46-2.52,5.43-4.46,8.91-5.83s7.34-2.05,11.6-2.05Zm0,48.12c4.74,0,8.24-1.59,10.52-4.77,2.28-3.18,3.41-7.84,3.41-13.99s-1.14-10.82-3.41-14.04c-2.28-3.22-5.78-4.83-10.52-4.83s-8.37,1.62-10.68,4.86-3.47,7.91-3.47,14.01,1.16,10.76,3.47,13.96c2.31,3.2,5.87,4.8,10.68,4.8Z" />
    <path class="cls-1"
      d="m748.46,179.88c1.15-1.15,2.36-2.21,3.63-3.19,1.28-.98,2.63-1.81,4.05-2.5,1.42-.68,2.95-1.22,4.58-1.61s3.4-.58,5.33-.58c3.11,0,5.86.53,8.27,1.58,2.41,1.05,4.41,2.53,6.02,4.44,1.61,1.91,2.83,4.18,3.66,6.83.83,2.65,1.25,5.56,1.25,8.74v36.24h-13.71v-36.24c0-3.48-.8-6.17-2.39-8.08s-4.01-2.86-7.27-2.86c-2.37,0-4.59.54-6.66,1.61-2.07,1.07-4.03,2.53-5.88,4.38v41.18h-13.71v-56.94h8.38c1.78,0,2.94.83,3.5,2.5l.94,4.5h.01Z" />
  </g>
  <path class="cls-2"
    d="m232.39,277.84c-1.29.05-2.58.09-3.85.09-24.37,0-46.65-8.91-57.05-28.23,5.94.89,11.89,1.19,17.83,1.19,41.9,0,79.64-17.53,79.64-52.89,0-29.42-25.85-51.7-63.29-51.7-45.17,0-78.74,32.39-78.74,81.42,0,56.54,45.24,83.59,96.39,84.07l9.09-33.94h-.02Zm-28.52-98.56c14.56,0,27.34,8.62,27.34,20.21,0,16.34-24.37,23.47-49.33,23.47-5.65,0-10.99-.3-16.34-1.19.89-29.71,20.5-42.49,38.33-42.49Z" />
  <g>
    <path class="cls-1"
      d="m330.25,297.74c2.01,0,3.8-.35,5.38-1.05,1.58-.7,2.92-1.67,4.03-2.91,1.1-1.24,1.94-2.7,2.52-4.38s.87-3.5.87-5.44v-25.81h3.01v25.81c0,2.3-.36,4.45-1.09,6.45-.73,2-1.78,3.74-3.14,5.22-1.37,1.49-3.03,2.65-4.99,3.5-1.96.84-4.15,1.27-6.59,1.27s-4.64-.42-6.59-1.27c-1.96-.85-3.62-2.01-4.99-3.5-1.37-1.48-2.41-3.23-3.14-5.22s-1.09-4.14-1.09-6.45v-25.81h3.04v25.78c0,1.95.29,3.76.87,5.44s1.42,3.14,2.51,4.38c1.09,1.24,2.43,2.21,4.01,2.92,1.58.71,3.38,1.06,5.38,1.06Z" />
    <path class="cls-1"
      d="m378.8,263.23c-.18.33-.43.5-.77.5-.26,0-.59-.18-.99-.55-.4-.36-.95-.77-1.64-1.21-.69-.44-1.55-.85-2.59-1.22-1.04-.37-2.31-.56-3.83-.56s-2.86.22-4.01.65-2.12,1.02-2.9,1.77c-.78.75-1.37,1.61-1.78,2.6-.4.98-.61,2.02-.61,3.1,0,1.42.3,2.59.9,3.51.6.92,1.39,1.71,2.38,2.36.98.65,2.1,1.19,3.35,1.64s2.54.88,3.86,1.31c1.32.43,2.6.91,3.85,1.43,1.25.52,2.37,1.17,3.35,1.96.98.79,1.78,1.76,2.38,2.91.6,1.15.9,2.58.9,4.29s-.3,3.4-.9,4.94c-.6,1.54-1.47,2.89-2.61,4.03-1.14,1.14-2.54,2.04-4.19,2.7-1.65.66-3.54.99-5.66.99-2.75,0-5.12-.49-7.11-1.46-1.99-.97-3.73-2.31-5.22-4l.83-1.3c.24-.29.51-.44.83-.44.18,0,.4.12.68.35.28.24.61.53,1,.87.39.34.87.72,1.42,1.12.55.4,1.19.78,1.92,1.12.73.34,1.57.63,2.51.87s2.02.35,3.22.35c1.65,0,3.13-.25,4.43-.75,1.3-.5,2.4-1.18,3.29-2.05.9-.87,1.58-1.89,2.05-3.08.47-1.19.71-2.46.71-3.82,0-1.47-.3-2.69-.9-3.64-.6-.95-1.39-1.75-2.38-2.39-.98-.64-2.1-1.17-3.35-1.61-1.25-.43-2.54-.86-3.85-1.27-1.32-.41-2.6-.87-3.85-1.39-1.25-.51-2.37-1.17-3.35-1.96-.98-.8-1.78-1.79-2.38-2.98s-.9-2.68-.9-4.47c0-1.4.27-2.74.8-4.04.53-1.3,1.31-2.44,2.33-3.44,1.02-.99,2.29-1.79,3.8-2.39,1.51-.6,3.22-.9,5.15-.9,2.17,0,4.11.34,5.83,1.03,1.72.69,3.29,1.74,4.71,3.16l-.71,1.36Z" />
    <path class="cls-1" d="m415.58,258.15v2.51h-21.98v16.87h18.29v2.45h-18.29v17.4h21.98v2.51h-25.02v-41.74h25.02Z" />
    <path class="cls-1"
      d="m428.75,281.02v18.88h-3.01v-41.74h10.65c4.82,0,8.42.93,10.8,2.79,2.38,1.86,3.57,4.59,3.57,8.19,0,1.59-.28,3.05-.83,4.37-.55,1.32-1.34,2.47-2.38,3.47-1.03.99-2.28,1.81-3.73,2.45-1.46.64-3.1,1.06-4.93,1.25.47.29.9.69,1.27,1.18l14.37,18.05h-2.63c-.31,0-.59-.06-.81-.18s-.45-.31-.66-.59l-13.36-16.93c-.33-.43-.69-.74-1.08-.91-.38-.18-.98-.27-1.78-.27h-5.46Zm0-2.24h7.26c1.85,0,3.51-.22,4.97-.66,1.46-.44,2.7-1.08,3.72-1.9,1.01-.83,1.78-1.82,2.32-2.98.53-1.16.8-2.47.8-3.92,0-2.97-.97-5.17-2.92-6.61-1.95-1.44-4.78-2.15-8.5-2.15h-7.64v18.23Z" />
    <path class="cls-1" d="m482.32,299.9h-3.04v-41.74h3.04v41.74Z" />
    <path class="cls-1"
      d="m498.36,258.26c.16.07.32.22.5.46l27.02,36.17c-.06-.59-.09-1.16-.09-1.71v-35.02h2.66v41.74h-1.45c-.45,0-.82-.2-1.09-.59l-27.14-36.23c.06.59.09,1.15.09,1.68v35.13h-2.63v-41.74h1.48c.28,0,.49.03.65.1Z" />
    <path class="cls-1" d="m569.39,258.15v2.57h-14.66v39.18h-3.01v-39.18h-14.75v-2.57h32.42Z" />
    <path class="cls-1" d="m602.95,258.15v2.51h-21.98v16.87h18.29v2.45h-18.29v17.4h21.98v2.51h-25.02v-41.74h25.02Z" />
    <path class="cls-1"
      d="m616.12,281.02v18.88h-3.01v-41.74h10.65c4.82,0,8.42.93,10.8,2.79,2.38,1.86,3.57,4.59,3.57,8.19,0,1.59-.28,3.05-.83,4.37-.55,1.32-1.34,2.47-2.38,3.47-1.03.99-2.28,1.81-3.73,2.45-1.46.64-3.1,1.06-4.93,1.25.47.29.9.69,1.27,1.18l14.37,18.05h-2.63c-.31,0-.59-.06-.81-.18s-.45-.31-.66-.59l-13.36-16.93c-.33-.43-.69-.74-1.08-.91-.38-.18-.98-.27-1.78-.27h-5.46Zm0-2.24h7.26c1.85,0,3.51-.22,4.97-.66,1.46-.44,2.7-1.08,3.72-1.9,1.01-.83,1.78-1.82,2.32-2.98.53-1.16.8-2.47.8-3.92,0-2.97-.97-5.17-2.92-6.61-1.95-1.44-4.78-2.15-8.5-2.15h-7.64v18.23Z" />
    <path class="cls-1" d="m675.61,258.15v2.51h-21.98v17.55h19.03v2.51h-19.03v19.17h-3.04v-41.74h25.02Z" />
    <path class="cls-1"
      d="m713.75,299.9h-2.33c-.28,0-.5-.07-.68-.22-.18-.15-.31-.34-.41-.58l-4.93-12.12h-20.5l-4.9,12.12c-.08.22-.22.4-.41.56-.2.16-.43.24-.71.24h-2.3l17.08-41.74h3.01l17.08,41.74Zm-27.94-15.16h18.7l-8.53-21.09c-.14-.33-.28-.71-.41-1.14-.14-.42-.28-.87-.41-1.34-.14.47-.28.92-.41,1.34-.14.42-.28.81-.41,1.17l-8.53,21.06Z" />
    <path class="cls-1"
      d="m750.54,292.87c.2,0,.36.07.5.21l1.18,1.27c-.87.92-1.81,1.75-2.83,2.49-1.02.74-2.14,1.37-3.35,1.89s-2.54.92-3.98,1.21c-1.45.29-3.03.43-4.76.43-2.89,0-5.54-.51-7.95-1.52-2.41-1.01-4.47-2.45-6.19-4.31-1.72-1.86-3.06-4.1-4.03-6.74-.96-2.64-1.45-5.57-1.45-8.79s.5-6.06,1.49-8.67c.99-2.62,2.39-4.86,4.19-6.74,1.8-1.88,3.95-3.33,6.46-4.37,2.51-1.03,5.28-1.55,8.3-1.55,1.51,0,2.9.11,4.16.34,1.26.23,2.43.55,3.52.97,1.09.42,2.12.95,3.08,1.58.96.63,1.91,1.36,2.83,2.18l-.91,1.33c-.16.24-.4.35-.74.35-.18,0-.4-.1-.68-.31-.28-.21-.62-.46-1.05-.77-.42-.3-.93-.64-1.53-1-.6-.36-1.31-.7-2.14-1-.83-.3-1.78-.56-2.86-.77-1.08-.21-2.31-.31-3.69-.31-2.54,0-4.87.44-6.99,1.31s-3.95,2.12-5.49,3.75c-1.53,1.62-2.73,3.59-3.58,5.9-.86,2.31-1.28,4.9-1.28,7.77s.42,5.58,1.27,7.91c.85,2.32,2.02,4.28,3.51,5.89,1.49,1.6,3.26,2.83,5.29,3.69,2.04.86,4.24,1.28,6.62,1.28,1.49,0,2.83-.1,4-.29,1.17-.2,2.25-.49,3.23-.88.98-.39,1.9-.88,2.74-1.45s1.68-1.24,2.51-2.01c.1-.08.19-.14.28-.19.09-.05.19-.07.31-.07Z" />
    <path class="cls-1" d="m786.81,258.15v2.51h-21.98v16.87h18.29v2.45h-18.29v17.4h21.98v2.51h-25.02v-41.74h25.02Z" />
  </g>
  <g>
    <path class="cls-1"
      d="m803.26,225.72c0-.7.13-1.37.39-2s.61-1.17,1.07-1.64c.46-.46.99-.83,1.6-1.11s1.28-.42,2.01-.42c.69,0,1.36.14,1.98.42s1.16.65,1.62,1.11c.46.46.82,1.01,1.1,1.64.28.63.42,1.3.42,2,0,.74-.14,1.42-.42,2.03-.28.61-.64,1.15-1.1,1.61-.46.46-1,.82-1.62,1.08s-1.29.39-1.98.39c-1.43,0-2.64-.49-3.61-1.47s-1.46-2.19-1.46-3.64h0Z" />
    <path class="cls-1"
      d="m840.59,155.73c0,.67-.14,1.29-.42,1.86-.28.57-.63,1.08-1.07,1.53-.44.44-.95.8-1.54,1.05-.58.26-1.21.39-1.87.39s-1.29-.13-1.87-.39-1.1-.61-1.54-1.05-.79-.95-1.04-1.53c-.26-.57-.39-1.19-.39-1.86s.13-1.3.39-1.92.6-1.14,1.04-1.58.95-.8,1.54-1.05c.58-.26,1.21-.39,1.87-.39s1.28.13,1.87.39c.58.26,1.1.61,1.54,1.05s.79.97,1.07,1.58.42,1.25.42,1.92Zm-2.25,19.04v55.22h-5.22v-55.22h5.22Z" />
    <path class="cls-1"
      d="m878.09,173.88c3.92,0,7.43.68,10.53,2.03s5.71,3.27,7.84,5.74c2.13,2.48,3.75,5.47,4.86,8.96,1.12,3.5,1.67,7.41,1.67,11.74s-.55,8.23-1.67,11.71-2.74,6.46-4.86,8.94c-2.13,2.48-4.74,4.38-7.84,5.72-3.1,1.33-6.61,2-10.53,2s-7.43-.67-10.53-2-5.72-3.24-7.87-5.72c-2.14-2.48-3.78-5.46-4.89-8.94-1.12-3.48-1.67-7.38-1.67-11.71s.55-8.24,1.67-11.74,2.75-6.48,4.89-8.96c2.14-2.48,4.77-4.39,7.87-5.74s6.61-2.03,10.53-2.03Zm0,52.67c3.26,0,6.11-.56,8.55-1.69s4.47-2.75,6.1-4.86c1.63-2.11,2.85-4.65,3.66-7.63.8-2.98,1.21-6.32,1.21-10.02s-.41-6.99-1.21-9.99-2.02-5.56-3.66-7.69c-1.63-2.13-3.67-3.76-6.1-4.91-2.44-1.15-5.29-1.72-8.55-1.72s-6.11.57-8.55,1.72-4.47,2.78-6.1,4.91c-1.63,2.13-2.86,4.69-3.69,7.69-.82,3-1.24,6.33-1.24,9.99s.42,7.04,1.24,10.02,2.05,5.52,3.69,7.63c1.63,2.11,3.67,3.73,6.1,4.86,2.44,1.13,5.29,1.69,8.55,1.69Z" />
  </g>
</svg>