<?xml version="1.0" encoding="UTF-8"?>
<svg id="Ebene_1" data-name="Ebene 1" xmlns="http://www.w3.org/2000/svg" viewBox="0 0 150 150">
  <defs>
    <style>
      .cls-1 {
        fill: #fff;
        stroke-width: 0px;
      }
    </style>
  </defs>
  <path class="cls-1" d="M53.91,85.19c3.97-2,6.54-6.38,5.79-11.26-.72-4.71-4.63-8.44-9.36-8.97-6.46-.73-11.96,4.34-11.96,10.66,0,4.19,2.42,7.82,5.93,9.58-6.48,2.55-11.31,10.13-11.82,19.25-.05.86.64,1.6,1.5,1.6h0c.78,0,1.45-.61,1.49-1.39.52-9.7,6.44-17.38,13.64-17.38s13.12,7.68,13.64,17.38c.04.78.71,1.39,1.49,1.39h0c.87,0,1.55-.73,1.5-1.6-.51-9.13-5.35-16.7-11.84-19.25ZM41.52,77.13c-1.04-5.43,3.66-10.13,9.09-9.09,3.04.58,5.49,3.03,6.07,6.07,1.04,5.43-3.66,10.13-9.09,9.09-3.04-.58-5.49-3.03-6.07-6.07Z"/>
  <rect class="cls-1" x="69.14" y="73.77" width="25.02" height="3" rx="1.5" ry="1.5"/>
  <rect class="cls-1" x="69.14" y="83.64" width="18.48" height="3" rx="1.5" ry="1.5"/>
  <path class="cls-1" d="M130.51,91.62l-.14-.88-17.09-6.05v-15.88c0-8.63-7.02-15.66-15.66-15.66h-6.87v-8.37c0-12.71-11.15-23.06-24.86-23.06s-24.86,10.34-24.86,23.06v8.37h-6.24c-8.63,0-15.66,7.02-15.66,15.66v35.49c0,8.63,7.02,15.66,15.66,15.66h62.83s1,0,1.93-.02c2.73,3.41,6.51,6.33,11.73,8.15l.49.17.49-.17c22.57-7.83,18.29-36.19,18.24-36.48ZM44.03,44.79c0-11.06,9.81-20.06,21.86-20.06s21.86,9,21.86,20.06v8.37h-5.51v-7.44c0-8.38-7.34-15.21-16.35-15.21s-16.35,6.82-16.35,15.21v7.44h-5.51v-8.37ZM79.24,53.16h-26.7v-7.44c0-6.73,5.99-12.21,13.35-12.21s13.35,5.48,13.35,12.21v7.44ZM34.79,116.97c-6.98,0-12.66-5.68-12.66-12.66v-35.49c0-6.98,5.68-12.66,12.66-12.66h62.83c6.98,0,12.66,5.68,12.66,12.66v15.88l-17.09,6.05-.14.88c-.03.2-2.15,14.28,4.44,25.35h-62.7ZM111.78,125.09c-17.81-6.57-16.42-27.5-15.89-32.12l15.89-5.62,15.89,5.62c.54,4.62,1.92,25.55-15.89,32.12Z"/>
  <path class="cls-1" d="M109.43,107.8l-3.12-2.95c-.6-.57-1.55-.54-2.12.06h0c-.57.6-.54,1.55.06,2.12l5.24,4.95,9.88-9.88c.59-.59.59-1.54,0-2.12h0c-.59-.59-1.54-.59-2.12,0l-7.82,7.82Z"/>
</svg>