<?xml version="1.0" encoding="UTF-8"?>
<svg id="Ebene_1" data-name="Ebene 1" xmlns="http://www.w3.org/2000/svg" viewBox="0 0 150 150">
  <defs>
    <style>
      .cls-1 {
        fill: #1d1d1b;
        stroke-width: 0px;
      }
    </style>
  </defs>
  <path class="cls-1" d="M132.47,46.02h-56.83c-3.97,0-7.7,1.56-10.5,4.38-2.75,2.78-4.26,6.46-4.26,10.37v32.23c0,8.13,6.62,14.75,14.75,14.75h56.83c8.13,0,14.75-6.62,14.75-14.75v-32.23c0-8.13-6.62-14.75-14.75-14.75ZM132.47,49.02c3.07,0,5.87,1.2,7.96,3.13l-30.22,21.25c-3.74,2.63-8.57,2.63-12.31,0l-30.22-21.25c2.18-2.02,4.98-3.13,7.97-3.13h56.83ZM144.22,93.01c0,6.48-5.27,11.75-11.75,11.75h-56.83c-6.48,0-11.75-5.27-11.75-11.75v-32.23c0-2.27.65-4.45,1.85-6.32l30.44,21.4c2.39,1.68,5.14,2.52,7.88,2.52s5.49-.84,7.88-2.52l30.43-21.4c1.17,1.83,1.85,3.99,1.85,6.31v32.23Z"/>
  <rect class="cls-1" x="25.14" y="38.14" width="3" height="47.72" transform="translate(-35.43 88.48) rotate(-89.86)"/>
  <rect class="cls-1" x="31.1" y="58.98" width="3" height="35.79" transform="translate(-44.4 109.18) rotate(-89.78)"/>
  <rect class="cls-1" x="38.39" y="81.1" width="3" height="21.21" transform="translate(-52.07 131) rotate(-89.62)"/>
</svg>