<?xml version="1.0" encoding="UTF-8"?>
<svg id="Ebene_1" data-name="Ebene 1" xmlns="http://www.w3.org/2000/svg" viewBox="0 0 150 150">
  <defs>
    <style>
      .cls-1 {
        fill: #1d1d1b;
        stroke-width: 0px;
      }
    </style>
  </defs>
  <path class="cls-1" d="M103.43,17.58h-56.87c-8.64,0-15.67,7.03-15.67,15.67v83.5c0,8.64,7.03,15.67,15.67,15.67h56.87c8.64,0,15.67-7.03,15.67-15.67V33.25c0-8.64-7.03-15.67-15.67-15.67ZM116.11,116.75c0,6.99-5.69,12.67-12.67,12.67h-56.87c-6.99,0-12.67-5.69-12.67-12.67V33.25c0-6.99,5.69-12.67,12.67-12.67h56.87c6.99,0,12.67,5.69,12.67,12.67v83.5Z"/>
  <path class="cls-1" d="M103.51,30.99h-57.21c-3.95,0-7.17,3.22-7.17,7.17v69.65c0,3.95,3.22,7.17,7.17,7.17h57.21c3.95,0,7.17-3.22,7.17-7.17V38.16c0-3.95-3.22-7.17-7.17-7.17ZM107.68,107.81c0,2.3-1.87,4.17-4.17,4.17h-57.21c-2.3,0-4.17-1.87-4.17-4.17V38.16c0-2.3,1.87-4.17,4.17-4.17h57.21c2.3,0,4.17,1.87,4.17,4.17v69.65Z"/>
  <path class="cls-1" d="M74.9,117.22c-2.73,0-4.95,2.22-4.95,4.95s2.22,4.95,4.95,4.95,4.95-2.22,4.95-4.95-2.22-4.95-4.95-4.95ZM74.9,124.12c-1.07,0-1.95-.87-1.95-1.95s.87-1.95,1.95-1.95,1.95.87,1.95,1.95-.87,1.95-1.95,1.95Z"/>
  <path class="cls-1" d="M74.38,27.07h7.53c.83,0,1.5-.67,1.5-1.5s-.67-1.5-1.5-1.5h-7.53c-.83,0-1.5.67-1.5,1.5s.67,1.5,1.5,1.5Z"/>
  <path class="cls-1" d="M68.28,27.46c1.04,0,1.89-.85,1.89-1.89s-.85-1.89-1.89-1.89-1.89.85-1.89,1.89.85,1.89,1.89,1.89Z"/>
</svg>