<?xml version="1.0" encoding="UTF-8"?>
<svg id="Ebene_1" data-name="Ebene 1" xmlns="http://www.w3.org/2000/svg" viewBox="0 0 150 150">
  <defs>
    <style>
      .cls-1 {
        fill: #fff;
        stroke-width: 0px;
      }
    </style>
  </defs>
  <path class="cls-1" d="M116.08,45.85c7.22,0,13.1-5.88,13.1-13.1s-5.88-13.1-13.1-13.1-13.1,5.88-13.1,13.1c0,2.66.8,5.13,2.17,7.2l-19.03,19.46c-2.91-3.24-7.12-5.29-11.81-5.29-4.16,0-8.1,1.6-11.09,4.5-.33.32-.63.66-.93,1l-16.13-15.77c.92-1.3,1.46-2.89,1.46-4.6,0-4.42-3.59-8.01-8.01-8.01s-8.01,3.59-8.01,8.01,3.59,8.01,8.01,8.01c1.62,0,3.13-.49,4.39-1.32l16.53,16.15c-1.38,2.38-2.12,5.09-2.12,7.92,0,2.5.6,4.86,1.63,6.97l-18.27,12.21c-1.6-1.58-3.63-2.75-5.98-3.26-3.21-.71-6.51-.12-9.28,1.65-2.77,1.77-4.69,4.52-5.4,7.73-1.46,6.63,2.75,13.22,9.38,14.68.89.2,1.78.29,2.67.29,2.32,0,4.6-.66,6.61-1.94,2.77-1.77,4.69-4.52,5.4-7.73.71-3.23.07-6.44-1.53-9.06l17.97-12.01c2.62,3.48,6.62,5.86,11.2,6.29v20.63c-5.69.95-10.04,5.89-10.04,11.85,0,6.63,5.39,12.02,12.02,12.02s12.02-5.39,12.02-12.02c0-6.29-4.85-11.45-11.01-11.97v-20.5c4.24-.4,7.99-2.47,10.6-5.54l17.67,9.94c-.5,1.45-.59,3.07-.16,4.66.96,3.57,4.2,5.94,7.74,5.94.68,0,1.38-.09,2.07-.27,4.26-1.14,6.8-5.54,5.66-9.81-.55-2.07-1.88-3.79-3.73-4.86-1.85-1.07-4.01-1.35-6.08-.8-1.63.44-3,1.35-4.01,2.54l-17.43-9.8c1.31-2.31,2.07-4.97,2.07-7.81,0-2.99-.84-5.78-2.28-8.17l19.16-19.6c2.35,2.22,5.51,3.59,8.99,3.59ZM34.61,39.26c0-2.76,2.25-5.01,5.01-5.01s5.01,2.25,5.01,5.01-2.25,5.01-5.01,5.01-5.01-2.25-5.01-5.01ZM42.25,99.98c-.54,2.43-1.99,4.51-4.08,5.85-2.1,1.34-4.59,1.78-7.02,1.25-2.43-.54-4.51-1.98-5.85-4.08-1.34-2.1-1.78-4.59-1.25-7.02s1.99-4.51,4.08-5.85c1.52-.97,3.24-1.47,5-1.47.67,0,1.35.07,2.02.22,5.02,1.1,8.2,6.09,7.1,11.1ZM110.36,88c.43-.12.87-.17,1.3-.17.87,0,1.72.23,2.5.67,1.16.67,1.99,1.75,2.33,3.04h0c.35,1.29.17,2.64-.5,3.8s-1.75,1.99-3.04,2.33c-2.67.72-5.42-.87-6.13-3.54-.71-2.67.87-5.42,3.54-6.13ZM83.82,118.32c0,4.97-4.05,9.02-9.02,9.02s-9.02-4.05-9.02-9.02,4.05-9.02,9.02-9.02,9.02,4.05,9.02,9.02ZM74.31,82.93c-7.11,0-12.9-5.79-12.9-12.9,0-3.51,1.39-6.8,3.91-9.25,2.42-2.35,5.62-3.65,8.99-3.65,7.11,0,12.9,5.79,12.9,12.9s-5.79,12.9-12.9,12.9ZM116.08,22.65c5.57,0,10.1,4.53,10.1,10.1s-4.53,10.1-10.1,10.1-10.1-4.53-10.1-10.1,4.53-10.1,10.1-10.1Z"/>
</svg>