<?xml version="1.0" encoding="UTF-8"?>
<svg id="Ebene_1" data-name="Ebene 1" xmlns="http://www.w3.org/2000/svg" viewBox="0 0 150 150">
  <defs>
    <style>
      .cls-1 {
        fill: #fff;
        stroke-width: 0px;
      }
    </style>
  </defs>
  <path class="cls-1" d="M54.04,67.92l-3.12-2.95c-.6-.57-1.55-.54-2.12.06h0c-.57.6-.54,1.55.06,2.12l5.24,4.95,9.88-9.88c.59-.59.59-1.54,0-2.12h0c-.59-.59-1.54-.59-2.12,0l-7.82,7.82Z"/>
  <rect class="cls-1" x="69.37" y="65.67" width="32.36" height="3" rx="1.5" ry="1.5"/>
  <path class="cls-1" d="M99.13,37.85h-3.4v-7.61h-10.13c-1.74-3.97-5.93-6.66-10.56-6.66s-8.82,2.69-10.56,6.66h-10.22v7.61h-3.4c-8.66,0-15.7,7.04-15.7,15.7v57.17c0,8.66,7.04,15.7,15.7,15.7h48.27c8.66,0,15.7-7.04,15.7-15.7v-57.17c0-8.66-7.04-15.7-15.7-15.7ZM57.26,33.24h9.36l.33-1.05c1.03-3.3,4.36-5.61,8.09-5.61s7.06,2.3,8.09,5.61l.33,1.05h9.27v12.48h-35.47v-12.48ZM111.84,110.72c0,7-5.7,12.7-12.7,12.7h-48.27c-7,0-12.7-5.7-12.7-12.7v-57.17c0-7,5.7-12.7,12.7-12.7h3.4v7.87h41.47v-7.87h3.4c7,0,12.7,5.7,12.7,12.7v57.17Z"/>
  <path class="cls-1" d="M54.04,86.84l-3.12-2.95c-.6-.57-1.55-.54-2.12.06h0c-.57.6-.54,1.55.06,2.12l5.24,4.95,9.88-9.88c.59-.59.59-1.54,0-2.12h0c-.59-.59-1.54-.59-2.12,0l-7.82,7.82Z"/>
  <path class="cls-1" d="M54.04,105.81l-3.12-2.95c-.6-.57-1.55-.54-2.12.06h0c-.57.6-.54,1.55.06,2.12l5.24,4.95,9.88-9.88c.59-.59.59-1.54,0-2.12h0c-.59-.59-1.54-.59-2.12,0l-7.82,7.82Z"/>
  <rect class="cls-1" x="69.37" y="84.48" width="32.36" height="3" rx="1.5" ry="1.5"/>
  <rect class="cls-1" x="69.37" y="103.55" width="32.36" height="3" rx="1.5" ry="1.5"/>
</svg>