<?xml version="1.0" encoding="UTF-8"?>
<svg id="Ebene_1" data-name="Ebene 1" xmlns="http://www.w3.org/2000/svg" viewBox="0 0 150 150">
  <defs>
    <style>
      .cls-1 {
        fill: #fff;
        stroke-width: 0px;
      }
    </style>
  </defs>
  <path class="cls-1" d="M65.15,62.53l-9.83-10.04,9.84-10.17c.58-.6,1.53-.61,2.12-.04h0c.6.58.61,1.53.04,2.12l-7.81,8.07,7.79,7.96c.58.59.57,1.54-.02,2.12h0c-.59.58-1.54.57-2.12-.02Z"/>
  <path class="cls-1" d="M82.68,62.55h0c-.59-.58-.6-1.53-.02-2.12l7.79-7.96-7.81-8.07c-.58-.6-.56-1.54.04-2.12h0c.6-.58,1.55-.56,2.12.04l9.84,10.17-9.83,10.04c-.58.59-1.53.6-2.12.02Z"/>
  <rect class="cls-1" x="59.98" y="50.98" width="30" height="3" rx="1.5" ry="1.5" transform="translate(11.71 118.61) rotate(-81.26)"/>
  <path class="cls-1" d="M66.89,111.75h16.49c3.1,0,5.61-2.51,5.61-5.61v-9.08c0-3.1-2.51-5.61-5.61-5.61h-11.6v-3.47c0-2.24,1.56-4.06,3.48-4.06,1.58,0,2.92,1.24,3.34,2.93.17.67.76,1.14,1.45,1.14h0c.95,0,1.7-.88,1.47-1.81-.74-3.02-3.26-5.25-6.26-5.25-3.57,0-6.48,3.17-6.48,7.06v3.47h-1.88c-3.1,0-5.61,2.51-5.61,5.61v9.08c0,3.1,2.51,5.61,5.61,5.61ZM64.28,97.06c0-1.44,1.17-2.61,2.61-2.61h16.49c1.44,0,2.61,1.17,2.61,2.61v9.08c0,1.44-1.17,2.61-2.61,2.61h-16.49c-1.44,0-2.61-1.17-2.61-2.61v-9.08Z"/>
  <path class="cls-1" d="M125.84,61.78h0c-.62-.55-1.57-.49-2.12.12l-9.99,11.24h-3.34v-38.64c0-1.57-.72-3.04-2.03-4.12-1.23-1.01-2.84-1.57-4.54-1.57h0l-57.41.04c-3.62,0-6.57,2.55-6.57,5.68v38.6h-3.58l-9.99-11.24c-.55-.62-1.5-.67-2.12-.12h0c-.62.55-.67,1.5-.12,2.12l10.06,11.31v38.8c0,3.96,3.21,7.17,7.17,7.17h67.49c3.96,0,7.17-3.21,7.17-7.17v-38.8l10.06-11.31c.55-.62.49-1.57-.12-2.12ZM42.84,34.54c0-1.45,1.63-2.68,3.57-2.68l57.41-.04h0c1.01,0,1.94.31,2.63.88.61.5.94,1.14.94,1.8v38.64s-64.56,0-64.56,0v-38.6ZM112.91,114.01c0,2.3-1.87,4.17-4.17,4.17H41.26c-2.3,0-4.17-1.87-4.17-4.17v-37.87h75.83v37.87Z"/>
</svg>