<?xml version="1.0" encoding="UTF-8"?>
<svg id="Ebene_1" data-name="Ebene 1" xmlns="http://www.w3.org/2000/svg" viewBox="0 0 150 150">
  <defs>
    <style>
      .cls-1 {
        fill: #fff;
        stroke-width: 0px;
      }
    </style>
  </defs>
  <path class="cls-1" d="M44.96,49.67c4.73,0,8.57-3.85,8.57-8.58s-3.85-8.57-8.57-8.57-8.57,3.85-8.57,8.57,3.85,8.58,8.57,8.58ZM44.96,35.52c3.07,0,5.57,2.5,5.57,5.57s-2.5,5.58-5.57,5.58-5.57-2.5-5.57-5.58,2.5-5.57,5.57-5.57Z"/>
  <path class="cls-1" d="M143.43,91.9l-6.74-10.54c-.52-.82-1.41-1.3-2.38-1.3h-15.37c.18-1.62.29-3.24.29-4.87,0-22.61-17.3-41.82-39.61-44.32l-2.92-4.56c-.52-.82-1.41-1.31-2.38-1.31h-21.93l-5.39-5.37c-1.1-1.1-2.89-1.1-3.99,0l-5.39,5.36H15.69c-.97,0-1.86.49-2.38,1.31l-6.74,10.54c-.56.87-.59,1.98-.1,2.88.4.72,1.08,1.21,1.87,1.39v30.86c0,2.29,1.87,4.16,4.16,4.16h17.54c.18,8.46,2.71,16.61,7.38,23.65,7.07,10.68,18.31,17.76,30.91,19.54v7.7c0,2.29,1.87,4.16,4.16,4.16h64.14c2.29,0,4.16-1.87,4.16-4.16v-30.78h.27c1.04,0,1.99-.56,2.48-1.47.5-.91.46-2.01-.1-2.88ZM140.74,93.26h-15.1l-10.25-10.2h18.82l6.52,10.2ZM74.23,28l6.52,10.2h-15.1l-10.25-10.2h18.82ZM15.79,28h18.82l-10.25,10.2h-15.1l6.52-10.2ZM11.34,71.98v-30.78h14.27l19.4-19.32,19.4,19.32h13.38v30.78c0,.64-.52,1.16-1.16,1.16h-22.55v-14.47c0-2.39-1.94-4.33-4.33-4.33h-9.1c-2.39,0-4.33,1.94-4.33,4.33v14.47H12.5c-.64,0-1.16-.52-1.16-1.16ZM51.09,73.13h-11.77v-14.47c0-.74.6-1.33,1.33-1.33h9.1c.74,0,1.33.6,1.33,1.33v14.47ZM39.91,98.13c-4.34-6.54-6.68-14.13-6.86-21.99h43.58c2.29,0,4.16-1.87,4.16-4.16v-30.78h.27c1.03,0,1.99-.56,2.48-1.47.5-.91.46-2.01-.1-2.88l-1.7-2.66c19.61,3.41,34.48,20.74,34.48,40.99,0,1.63-.12,3.26-.31,4.87h-3.55l-5.39-5.36c-1.1-1.1-2.89-1.1-3.99,0l-5.39,5.36h-21.93c-.97,0-1.86.49-2.38,1.3l-6.74,10.54c-.56.87-.59,1.98-.1,2.88.4.72,1.08,1.21,1.87,1.39v20.12c-11.58-1.76-21.89-8.33-28.41-18.17ZM84.35,93.26h-15.1l6.52-10.2h18.82l-10.25,10.2ZM99.3,128.19v-14.47c0-.74.6-1.33,1.33-1.33h9.1c.74,0,1.33.6,1.33,1.33v14.47h-11.77ZM137.78,127.03c0,.64-.52,1.16-1.16,1.16h-22.54v-14.47c0-2.39-1.94-4.33-4.33-4.33h-9.1c-2.39,0-4.33,1.94-4.33,4.33v14.47h-23.82c-.64,0-1.16-.52-1.16-1.16v-30.78h14.27l19.4-19.32,19.4,19.32h13.38v30.78Z"/>
  <path class="cls-1" d="M104.94,87.58c-4.73,0-8.58,3.85-8.58,8.58s3.85,8.57,8.58,8.57,8.57-3.85,8.57-8.57-3.85-8.58-8.57-8.58ZM104.94,101.73c-3.07,0-5.58-2.5-5.58-5.57s2.5-5.58,5.58-5.58,5.57,2.5,5.57,5.58-2.5,5.57-5.57,5.57Z"/>
</svg>